<svg width="26" height="28" viewBox="0 0 26 28" fill="none" xmlns="http://www.w3.org/2000/svg">
<path d="M20.0872 23.0439L19.4486 23.5899C19.4236 23.5704 19.3988 23.5505 19.3733 23.5315C19.3288 23.4922 19.2803 23.4564 19.2283 23.4245C18.4937 23.9522 17.407 23.5495 16.6835 24.1245C16.56 24.0471 16.4177 23.8618 16.2654 23.9662C15.9827 24.1599 15.7405 24.2382 15.4548 24.0004C15.4444 23.989 15.4302 23.9806 15.414 23.9764C15.3978 23.9722 15.3805 23.9724 15.3644 23.977C15.3484 23.9816 15.3344 23.9903 15.3244 24.002C15.3144 24.0136 15.3088 24.0277 15.3086 24.0421C15.2028 24.4643 14.8617 24.3809 14.4908 24.3931C14.147 24.4045 13.8157 24.5963 13.4697 24.681C12.5427 24.9081 11.5483 24.899 10.6558 25.2376C10.3685 25.3466 10.1899 24.9383 9.84467 25.2048C9.68458 25.3282 9.35581 25.4927 8.99837 25.4251C8.71309 25.3711 8.45237 25.5826 8.13696 25.6185C7.85156 25.6461 7.58174 25.7441 7.36051 25.9007C7.13928 26.0572 6.97623 26.2655 6.8913 26.5L6.74164 26.3722C6.32463 26.4919 6.21738 26.6791 6.56555 26.965C6.46493 27.0507 6.36471 27.1364 6.26331 27.2228L6.0414 27.0534C5.6747 27.1996 5.76459 27.7257 5.34242 27.7552C5.01954 27.7769 4.70451 27.8512 4.41431 27.9741C4.07219 27.8464 4.37902 27.5448 4.13527 27.4175C3.99877 27.4919 3.92262 27.6803 3.62983 27.5349C3.59941 27.3091 3.4751 27.0274 3.79558 26.7849C3.4321 26.5567 3.02796 26.4944 2.57683 26.4907C2.1021 26.4868 1.65185 26.3824 1.4626 25.9121C1.31976 25.5572 0.686892 25.5676 0.672852 25.0756C0.698202 25.0454 0.775129 24.9528 0.845524 24.8564C1.11589 24.4866 1.42789 24.2064 2.01484 24.0933C2.93446 23.9155 3.78573 23.4583 4.7075 23.3171C5.48438 23.1981 5.54989 22.7322 5.69975 22.3088C5.80183 22.0079 5.87103 21.6996 5.90646 21.3879C6.01741 20.4629 6.41102 19.5736 6.36149 18.6329C6.79838 18.0175 6.43461 17.3091 6.68811 16.6593C6.9344 16.0278 6.63234 15.3269 6.81096 14.6988C7.14061 13.5404 6.94834 12.3814 6.99046 11.2244C7.03228 10.0744 6.99962 8.92237 6.99962 7.7712C6.99962 6.5897 7.14851 5.39037 6.95789 4.23178C6.7664 3.06753 6.8561 1.91787 6.7783 0.781784L7.66204 0.0263672L8.31168 0.581617C8.60827 0.223283 8.9896 0.248868 9.2352 0.343951C10.2471 0.736117 11.1286 1.24095 11.6992 2.13645C12.5707 3.50378 13.5594 4.8172 14.517 6.14412C15.2515 7.1622 16.0387 8.15586 16.8375 9.12545C17.8662 10.3743 18.8369 11.6702 20.0219 12.8281C20.487 13.2826 20.7537 13.8956 21.3263 14.2581C21.6117 14.4389 21.1808 14.8498 21.7314 14.8786C22.0842 14.8973 22.0361 15.3036 22.2741 15.4651C22.5483 15.6512 22.6695 15.9454 22.8944 16.1457C23.1192 16.3459 23.1305 16.6327 23.3975 16.7977C23.6474 16.9522 23.7628 17.2092 23.9413 17.416C24.3518 17.9002 24.7218 18.4084 25.0486 18.937C25.4452 19.5654 25.4034 20.2113 25.0043 20.8365C24.965 20.9126 24.9159 20.9848 24.858 21.0516C24.6081 21.2541 24.7875 21.6323 24.546 21.7541C23.9474 22.0564 23.4443 22.5242 22.7608 22.6624C22.441 22.7334 22.1359 22.8458 21.856 22.9958C21.5796 23.1341 21.2638 22.9604 20.9696 23.1624C20.7664 23.3034 20.378 23.3395 20.0872 23.0439ZM10.7262 6.32228C10.7247 6.5957 10.0991 6.80003 10.6037 7.13503C10.6219 7.16028 10.6322 7.18908 10.6337 7.2187C10.6352 7.24833 10.6279 7.27778 10.6123 7.30428C10.2047 7.63086 10.4339 8.0447 10.415 8.41387C10.3784 9.13886 10.4264 9.86661 10.3982 10.592C10.3697 11.3254 10.4687 12.0525 10.2256 12.7945C10.0509 13.3279 10.1316 13.9422 10.208 14.5096C10.2896 15.1169 9.91546 15.6659 9.9877 16.2507C10.0873 17.059 9.63261 17.8219 9.7655 18.6273C9.77398 18.6569 9.77365 18.6879 9.76453 18.7174C9.35766 19.5455 9.39841 20.4535 9.13224 21.3072C9.0324 21.6275 8.74322 21.9347 8.99067 22.2935C9.2861 22.403 9.49299 22.1874 9.74142 22.1484C10.4974 22.0298 11.2234 21.7787 12.004 21.7707C12.2277 21.4005 12.6956 21.6697 13.0413 21.4831C13.3323 21.3259 13.7964 21.2512 14.1847 21.246C14.5729 21.2409 14.8648 20.9355 15.2646 21.0473C15.6522 20.6846 16.2168 20.8979 16.6997 20.7194C17.5632 20.4006 18.5147 20.2449 19.4194 19.9818C19.8562 19.852 20.2512 19.6361 20.5724 19.3517C20.7068 18.823 20.4749 18.4444 20.2444 18.115C19.6132 17.2119 18.9733 16.3032 18.2181 15.4759C17.0365 14.1814 15.9535 12.8302 14.8586 11.4851C13.9629 10.3851 13.0996 9.26511 12.2285 8.1502C11.7448 7.53061 11.3783 6.84078 10.7262 6.32228Z" fill="black"/>
</svg>
