<svg width="56" height="44" viewBox="0 0 56 44" fill="none" xmlns="http://www.w3.org/2000/svg">
<path d="M33.088 29.9586L32.6294 30.439C32.6115 30.4219 32.5937 30.4044 32.5754 30.3877C32.5434 30.3531 32.5086 30.3216 32.4713 30.2935C31.9439 30.7579 31.1637 30.4035 30.6443 30.9095C30.5556 30.8414 30.4534 30.6783 30.3441 30.7702C30.1411 30.9406 29.9672 31.0095 29.7621 30.8003C29.7547 30.7903 29.7444 30.7829 29.7328 30.7792C29.7212 30.7755 29.7087 30.7757 29.6972 30.7797C29.6857 30.7837 29.6756 30.7914 29.6685 30.8017C29.6613 30.8119 29.6573 30.8243 29.6571 30.837C29.5812 31.2085 29.3363 31.1351 29.07 31.1459C28.8231 31.1559 28.5853 31.3247 28.3369 31.3992C27.6714 31.5991 26.9574 31.5911 26.3166 31.889C26.1104 31.985 25.9822 31.6256 25.7343 31.8601C25.6194 31.9687 25.3833 32.1135 25.1267 32.054C24.9219 32.0065 24.7347 32.1926 24.5083 32.2242C24.3034 32.2485 24.1096 32.3348 23.9508 32.4725C23.792 32.6103 23.6749 32.7936 23.6139 33L23.5065 32.8875C23.2071 32.9928 23.1301 33.1576 23.3801 33.4092C23.3078 33.4845 23.2359 33.5599 23.1631 33.636L23.0038 33.4869C22.7405 33.6156 22.805 34.0785 22.5019 34.1045C22.2701 34.1236 22.0439 34.189 21.8356 34.2971C21.59 34.1847 21.8103 33.9193 21.6353 33.8074C21.5373 33.8728 21.4826 34.0386 21.2724 33.9106C21.2505 33.712 21.1613 33.4641 21.3914 33.2506C21.1304 33.0498 20.8403 32.995 20.5164 32.9917C20.1755 32.9883 19.8523 32.8964 19.7164 32.4826C19.6139 32.1703 19.1595 32.1794 19.1494 31.7465C19.1676 31.7199 19.2228 31.6384 19.2734 31.5535C19.4675 31.2281 19.6915 30.9815 20.1129 30.882C20.7731 30.7256 21.3843 30.3232 22.0461 30.199C22.6038 30.0943 22.6509 29.6843 22.7585 29.3117C22.8318 29.0469 22.8814 28.7756 22.9069 28.5013C22.9865 27.6873 23.2691 26.9047 23.2336 26.0768C23.5472 25.5354 23.2861 24.9119 23.4681 24.3401C23.6449 23.7844 23.428 23.1676 23.5563 22.6149C23.7929 21.5955 23.6549 20.5755 23.6851 19.5574C23.7152 18.5454 23.6917 17.5316 23.6917 16.5186C23.6917 15.4789 23.7986 14.4234 23.6618 13.4039C23.5243 12.3794 23.5887 11.3676 23.5328 10.3679L24.1673 9.70312L24.6337 10.1917C24.8466 9.87641 25.1204 9.89893 25.2967 9.9826C26.0232 10.3277 26.6561 10.772 27.0658 11.56C27.6914 12.7633 28.4013 13.9191 29.0888 15.0867C29.6162 15.9827 30.1813 16.8571 30.7548 17.7103C31.4933 18.8093 32.1903 19.9497 33.041 20.9687C33.3749 21.3686 33.5665 21.9081 33.9775 22.2271C34.1825 22.3861 33.8731 22.7477 34.2684 22.7731C34.5217 22.7895 34.4871 23.1471 34.658 23.2892C34.8549 23.453 34.9419 23.7119 35.1033 23.8881C35.2647 24.0644 35.2729 24.3167 35.4645 24.4619C35.6439 24.5979 35.7268 24.824 35.855 25.006C36.1497 25.4321 36.4153 25.8793 36.65 26.3445C36.9347 26.8974 36.9047 27.4659 36.6181 28.0161C36.5899 28.083 36.5547 28.1465 36.5131 28.2054C36.3337 28.3836 36.4625 28.7163 36.2891 28.8235C35.8593 29.0895 35.4981 29.5012 35.0074 29.6229C34.7779 29.6853 34.5588 29.7843 34.3578 29.9162C34.1594 30.038 33.9326 29.8851 33.7214 30.0629C33.5756 30.1869 33.2967 30.2187 33.088 29.9586ZM26.3672 15.2435C26.3661 15.4841 25.917 15.664 26.2793 15.9588C26.2923 15.981 26.2997 16.0063 26.3008 16.0324C26.3019 16.0585 26.2966 16.0844 26.2854 16.1077C25.9928 16.3951 26.1573 16.7593 26.1438 17.0841C26.1175 17.7221 26.1519 18.3625 26.1317 19.0009C26.1113 19.6462 26.1823 20.2862 26.0078 20.9391C25.8824 21.4084 25.9403 21.9491 25.9951 22.4484C26.0537 22.9828 25.7851 23.466 25.837 23.9805C25.9085 24.6919 25.5821 25.3632 25.6775 26.0719C25.6836 26.098 25.6833 26.1253 25.6768 26.1513C25.3847 26.88 25.4139 27.679 25.2228 28.4303C25.1511 28.7122 24.9435 28.9825 25.1212 29.2982C25.3333 29.3946 25.4818 29.2049 25.6602 29.1706C26.203 29.0661 26.7242 28.8452 27.2846 28.8381C27.4452 28.5124 27.7811 28.7493 28.0293 28.5851C28.2383 28.4468 28.5715 28.381 28.8502 28.3764C29.129 28.3719 29.3385 28.1032 29.6255 28.2015C29.9038 27.8824 30.3092 28.07 30.6559 27.913C31.2758 27.6325 31.9589 27.4955 32.6084 27.2639C32.9221 27.1497 33.2057 26.9597 33.4363 26.7094C33.5327 26.2442 33.3663 25.911 33.2008 25.6212C32.7476 24.8264 32.2882 24.0267 31.746 23.2987C30.8976 22.1596 30.1202 20.9705 29.3341 19.7868C28.691 18.8188 28.0712 17.8332 27.4458 16.8521C27.0985 16.3069 26.8354 15.6998 26.3672 15.2435Z" fill="black"/>
</svg>
