<svg width="332" height="632" viewBox="0 0 332 632" fill="none" xmlns="http://www.w3.org/2000/svg">
<g clip-path="url(#clip0)">
<path d="M225.874 330.041L233.326 336.168C233.587 336.386 233.897 336.507 234.216 336.537C234.754 336.588 235.307 336.376 235.672 335.923C236.253 335.205 236.143 334.137 235.434 333.551L227.982 327.424C227.274 326.839 226.218 326.952 225.637 327.67C225.055 328.398 225.156 329.455 225.874 330.041Z" fill="#191D2F"/>
<path d="M201.776 316.256L211.281 317.696C211.31 317.699 211.34 317.701 211.37 317.704C212.247 317.787 213.04 317.161 213.174 316.279C213.312 315.356 212.689 314.504 211.777 314.367L202.272 312.926C201.371 312.78 200.516 313.421 200.379 314.343C200.241 315.266 200.864 316.118 201.776 316.256Z" fill="#191D2F"/>
<path d="M186.933 322.546L195.904 326.02C196.049 326.075 196.197 326.109 196.346 326.123C197.074 326.192 197.787 325.772 198.057 325.045C198.391 324.171 197.96 323.205 197.097 322.869L188.127 319.395C187.264 319.059 186.308 319.497 185.973 320.37C185.649 321.245 186.069 322.22 186.933 322.546Z" fill="#191D2F"/>
<path d="M174.207 313.296C174.526 313.326 174.864 313.267 175.172 313.092L183.583 308.358C184.39 307.906 184.679 306.875 184.232 306.07C183.787 305.255 182.769 304.966 181.972 305.419L173.56 310.153C172.753 310.606 172.465 311.636 172.911 312.441C173.185 312.945 173.679 313.246 174.207 313.296Z" fill="#191D2F"/>
<path d="M160.606 311.589C160.503 310.664 159.67 310.006 158.755 310.112L149.207 311.251C148.292 311.357 147.639 312.201 147.742 313.126C147.837 313.928 148.473 314.537 149.24 314.61C149.36 314.621 149.471 314.622 149.593 314.603L159.141 313.464C160.057 313.347 160.709 312.514 160.606 311.589Z" fill="#191D2F"/>
<path d="M303.085 495.685L298.083 488.214C297.77 487.595 297.374 487.1 296.978 486.716C292.875 482.809 288.03 485.878 283.334 488.85C281.762 489.85 280.158 490.857 278.52 491.698C279.119 490.148 279.269 488.464 278.681 486.924C277.674 484.296 275.263 480.458 274.667 479.527C274.467 478.887 274.186 478.342 273.899 477.878C282.594 471.848 284.861 464.69 284.996 464.225C285.039 464.087 285.062 463.947 285.066 463.805L285.965 441.06C285.972 440.99 285.958 440.927 285.955 440.856C286.051 439.736 286.08 438.793 286.085 438.102L300.409 433.034C301.023 432.817 301.458 432.259 301.52 431.603L302.284 423.551C302.286 423.531 302.277 423.52 302.279 423.499C302.289 423.389 302.279 423.286 302.268 423.183C302.27 423.163 302.262 423.142 302.264 423.122C302.246 422.998 302.207 422.872 302.158 422.756C302.141 422.724 302.133 422.703 302.116 422.67C302.074 422.585 302.032 422.5 301.978 422.424C301.951 422.39 301.934 422.358 301.907 422.325C301.853 422.259 301.789 422.192 301.714 422.134C301.696 422.112 301.678 422.09 301.659 422.078C301.65 422.067 301.64 422.066 301.631 422.055C301.612 422.043 301.603 422.032 301.594 422.021L276.709 404.337C279.278 403.757 281.859 403.147 284.437 402.466C284.942 402.331 285.348 401.973 285.555 401.494C285.71 401.122 289.365 392.378 288.838 379.901C288.36 368.405 284.063 351.483 266.354 336.157C263.576 333.748 260.825 331.484 258.111 329.356L258.62 329.079C259.426 328.636 259.734 327.618 259.299 326.794C258.863 325.98 257.857 325.671 257.041 326.112L255.197 327.117C248.404 321.988 241.754 317.687 235.09 314.177L233.061 310.863C232.573 310.074 231.551 309.825 230.77 310.32C230.289 310.62 230.02 311.124 229.991 311.65C229.018 311.201 228.054 310.764 227.079 310.336L233.378 293.636C236.55 293.794 243.488 294.838 250.362 300.493C259.679 308.149 265.616 316.156 277.013 315.884C277.013 315.884 272.211 310.009 273.324 305.375C273.324 305.375 282.674 305.581 285.706 301.811C285.706 301.811 276.611 298.914 268.406 286.625C261.135 275.726 247.84 270.886 241.85 271.182L243.88 265.792C244.204 264.918 243.773 263.951 242.92 263.616C242.067 263.281 241.099 263.728 240.766 264.592L223.993 309.057C207.851 302.656 191.053 300.514 171.315 301.815C154.612 302.916 137.758 308.681 125.067 317.616C111.634 327.071 103.764 339.239 102.897 351.889C102.867 352.313 102.998 352.732 103.268 353.063C103.637 353.525 108.787 359.86 118.616 368.165L74.0426 384.125C74.0118 384.132 73.99 384.15 73.9691 384.158C73.9482 384.166 73.9382 384.165 73.9173 384.174C73.8965 384.182 73.8746 384.2 73.8637 384.209C73.7683 384.261 73.6828 384.314 73.6064 384.378C73.5846 384.396 73.5528 384.414 73.53 384.442C73.4317 384.524 73.3415 384.627 73.2612 384.732C73.2493 384.751 73.2484 384.761 73.2365 384.78C73.1771 384.876 73.1177 384.972 73.0773 385.08C73.0635 385.12 73.0507 385.149 73.0369 385.188C73.0074 385.287 72.977 385.396 72.9665 385.507C72.9646 385.527 72.9527 385.547 72.9508 385.567L72.1873 393.619C72.1319 394.204 72.3892 394.777 72.8577 395.137L103.803 418.257C99.0964 421.98 92.1606 431.298 88.9555 440.502C88.8951 440.609 88.8348 440.715 88.7925 440.843C85.2734 451.238 87.5311 458.601 91.3643 468.645C92.5329 471.695 95.7585 474.044 100.433 475.749C100.279 477.687 100.564 480.093 101.324 482.789C100.586 482.719 99.7886 482.755 98.9979 483.036C97.8968 483.41 96.4076 484.377 95.5509 486.838C95.2181 487.803 95.1369 488.66 95.2427 489.453C94.9078 490.651 94.2479 493.477 94.6405 496.016C94.207 495.71 93.9709 495.444 93.9174 495.266C93.2205 492.861 89.5073 490.882 88.3835 490.328C86.9135 489.609 83.145 488.001 79.841 488.704C79.4618 488.78 78.9654 488.926 78.4484 489.182C78.3549 489.214 78.2695 489.267 78.1741 489.319C77.1891 489.846 76.1361 490.773 75.5409 492.384C73.9571 495.092 72.9387 498.941 72.4561 504.03C71.8761 510.148 77.2409 514.643 84.0952 518.272C83.2716 520.279 80.5447 528.044 83.4869 537.201C86.9786 554.982 97.1389 568.809 113.692 578.3C125.316 584.965 139.896 589.073 155.779 590.578C178.089 592.694 202.977 589.674 225.82 581.386C241.74 575.614 262.725 564.344 272.317 543.44C276.992 533.267 277.164 524.772 277.029 521.637C279.334 520.646 281.983 519.534 285.091 518.252C293.817 514.656 298.327 509.074 300.571 505.026C303.033 500.582 303.405 496.976 303.42 496.825C303.4 496.396 303.306 496.011 303.085 495.685ZM272.617 493.62C269.446 493.98 268.166 493.808 267.686 493.671C267.9 493.112 268.73 491.777 271.642 488.738C272.769 487.563 273.605 486.382 274.17 485.195C274.727 486.213 275.26 487.271 275.59 488.136C276.289 489.992 274.507 492.772 272.617 493.62ZM270.764 475.943C270.596 476.019 270.427 476.104 270.284 476.233C268.397 477.376 266.233 478.463 263.72 479.404C263.638 479.427 263.554 479.459 263.481 479.493C260.355 480.651 256.726 481.598 252.497 482.194C240.697 483.861 226.218 480.912 210.88 477.79C203.66 476.323 196.341 474.836 189.082 473.781C188.906 473.622 188.707 473.492 188.463 473.418C188.044 473.276 187.597 473.325 187.217 473.513C186.959 473.478 186.701 473.444 186.442 473.419L209.328 465.318C211.421 465.72 213.532 466.154 215.572 466.582C221.449 467.8 227.414 469.036 234.08 469.668C242.201 470.438 251.362 470.31 262.704 468.172C273.105 466.21 278.893 460.514 282.117 454.505L281.759 463.471C281.325 464.66 278.847 470.862 270.764 475.943ZM103.693 476.993C110.694 498.372 132.543 511.711 164.867 514.775C170.377 515.298 176.196 515.524 182.297 515.441C223.279 514.873 251.26 488.778 254.873 485.236C256.723 484.913 258.468 484.54 260.109 484.095C253.194 493.293 231.066 516.089 180.232 518.663C162.472 519.562 130.007 517.775 112.037 495.763C106.103 488.479 103.77 481.16 103.693 476.993ZM186.867 479.856C187.896 483.848 190.124 487.71 192.152 491.238C194.283 494.948 196.494 498.778 195.782 500.673C195.686 500.939 195.379 501.743 193.395 502.41C181.154 506.496 178.061 503.813 176.806 501.457C176.054 499.637 180.497 490.204 186.867 479.856ZM227.478 489.889C226.652 491.072 224.394 493.146 221.108 494.726C218.717 495.872 214.075 497.537 209.898 495.788C204.337 493.461 196.446 483.703 192.303 478.195C208.277 482.557 224.292 487.655 227.478 489.889ZM116.812 478.908C116.854 479.004 116.885 479.098 116.937 479.185C117.747 480.716 120.082 482.706 130.175 483.663C132.308 483.866 134.776 484.018 137.652 484.118C149.618 484.52 161.265 482.879 169.449 481.286C161.708 483.826 152.669 486.061 146.914 487.488C142.982 488.457 139.872 489.23 138.345 489.746C134.439 491.074 134.557 493.76 134.683 494.545C135.194 497.644 139.704 500.756 147.536 501.499C148.762 501.615 150.063 501.677 151.451 501.666C161.893 501.599 175.746 488.035 182.485 480.691C181.48 482.386 180.386 484.275 179.328 486.209C172.874 497.972 172.938 501.324 173.86 503.049C175.532 506.197 178.343 507.521 181.561 507.826C185.686 508.217 190.494 506.924 194.429 505.609C196.745 504.832 198.251 503.572 198.896 501.863C200.173 498.466 197.791 494.325 195.038 489.539C193.717 487.247 192.319 484.807 191.266 482.347C195.836 488.221 203.028 496.56 208.627 498.901C209.827 499.402 211.114 499.717 212.459 499.844C215.588 500.141 219.052 499.442 222.539 497.76C226.742 495.738 230.299 492.587 230.992 490.253C231.157 489.689 231.083 489.082 230.782 488.545C230.344 487.761 229.614 486.451 219.747 482.994C230.282 485.02 240.256 486.494 249.15 485.903C240.197 493.587 215.688 511.591 182.255 512.061C142.954 512.606 115.938 500.109 107.47 477.657C109.958 478.147 112.666 478.525 115.536 478.798C115.944 478.836 116.383 478.878 116.812 478.908ZM123.754 479.282C134.646 479.562 146.992 478.607 158.785 476.593C164.926 475.549 171.38 475.449 177.991 475.923C172.383 477.384 155.439 481.34 137.78 480.754C130.645 480.515 126.349 479.904 123.754 479.282ZM176.143 482.469C174.92 483.706 173.593 484.983 172.193 486.274C163.669 494.11 156.488 498.27 151.428 498.308C142.344 498.362 138.171 495.292 137.962 494.001C137.911 493.691 138.495 493.259 139.389 492.947C140.782 492.469 143.828 491.72 147.689 490.764C158.18 488.169 168.622 485.448 176.143 482.469ZM282.689 440.628C282.669 440.728 282.649 440.837 282.649 440.939L282.629 441.364C281.974 448.38 278.536 461.731 262.096 464.83C242.083 468.607 228.949 465.887 216.25 463.249C216.014 463.196 215.767 463.153 215.521 463.099L282.766 439.283C282.737 439.697 282.715 440.142 282.689 440.628ZM298.304 430.221L208.546 462.01L182.632 471.187L183.109 466.158L298.718 425.846L298.304 430.221ZM296.988 422.886L181.826 463.046L91.1909 395.93L133.892 379.671C138.496 382.751 143.62 385.871 149.246 388.875C150.848 390.217 152.499 392.316 152.379 393.27C152.342 393.552 151.947 393.789 151.622 393.931C150.907 394.26 149.934 394.35 148.825 394.276C148.189 393.026 147.074 391.751 145.529 390.546C143.358 388.846 138.561 386.103 135.921 387.856C134.591 388.737 134.221 390.206 134.974 391.59C136.223 393.895 141.105 396.279 145.751 397.218C145 397.818 142.912 398.535 138.454 398.57C134.783 398.588 132.22 398.366 130.458 398.077C128.42 396.144 126.356 395.644 125.2 396.063C124.284 396.393 123.747 397.288 123.909 398.228C124.168 399.738 126.213 400.643 128.776 401.181C129.221 401.691 129.673 402.334 130.119 403.139C130.454 403.74 130.578 404.128 130.629 404.337C128.794 404.813 121.437 402.458 114.376 399.094C113.539 398.699 112.55 399.063 112.158 399.901C111.767 400.738 112.124 401.748 112.951 402.142C113.115 402.218 117.03 404.084 121.326 405.641C124.874 406.923 127.331 407.522 129.084 407.688C131.496 407.917 132.547 407.325 133.208 406.615C134.261 405.474 134.244 403.845 133.173 401.781C135.19 401.932 137.117 401.962 138.465 401.958C144.803 401.918 148.326 400.594 149.225 397.903C149.253 397.815 149.281 397.736 149.3 397.646C150.715 397.668 151.99 397.474 152.977 397.029C154.964 396.119 155.538 394.729 155.663 393.724C155.735 393.182 155.676 392.637 155.545 392.106C171.744 399.927 188.942 405.167 206.779 407.692C209.478 408.07 212.181 408.398 214.912 408.657C216.247 408.783 217.584 408.89 218.932 408.987L150.76 432.929L182.657 456.607L285.202 419.948L266.417 406.432C268.349 406.096 270.274 405.72 272.211 405.334L296.988 422.886ZM143.168 392.967C141.263 392.278 139.563 391.435 138.625 390.726C139.749 390.964 141.543 391.765 143.168 392.967ZM106.277 351.447C108.399 328.106 137.464 307.432 171.518 305.18C190.721 303.909 207.061 305.998 222.787 312.238L219.307 321.477C218.983 322.351 219.414 323.317 220.267 323.652C220.412 323.707 220.56 323.741 220.699 323.755C221.427 323.823 222.14 323.403 222.41 322.676L225.862 313.526C228.17 314.528 230.469 315.62 232.759 316.803L235.266 320.905C235.554 321.37 236.02 321.648 236.528 321.696C236.877 321.729 237.236 321.651 237.557 321.448C238.102 321.103 238.382 320.489 238.34 319.875C242.845 322.509 247.356 325.509 251.931 328.902L248.56 330.738C247.754 331.18 247.446 332.199 247.881 333.023C248.154 333.537 248.657 333.849 249.195 333.9C249.514 333.93 249.841 333.87 250.138 333.705L254.877 331.124C257.94 333.489 261.028 336.019 264.169 338.737C265.86 340.199 267.448 341.691 268.941 343.226L260.292 342.406C259.375 342.319 258.567 342.995 258.479 343.922C258.391 344.85 259.058 345.665 259.974 345.762L269.538 346.679C270.266 346.748 270.919 346.332 271.211 345.689C280.118 355.767 284.921 367.246 285.489 379.919C285.923 389.652 283.597 397.119 282.763 399.44C256.836 406.103 231.475 407.756 207.367 404.352C187.873 401.598 169.143 395.551 151.696 386.372C136.153 378.197 124.518 369.009 117.502 362.731C111.284 357.169 107.48 352.862 106.277 351.447ZM130.523 377.348L87.9791 393.54L78.115 386.239L121.627 370.657C124.308 372.813 127.271 375.067 130.523 377.348ZM75.9689 388.832L86.7252 396.798L179.802 465.722L179.348 470.519L75.5752 392.985L75.9689 388.832ZM106.571 420.34L157.851 458.658C152.948 458.63 144.769 459.106 132.562 461.355C115.995 464.411 102.038 463.383 95.2224 458.598C92.6864 456.822 91.1642 454.532 90.6801 451.791C90.3917 450.167 90.4374 448.412 90.7219 446.578C90.9739 445.087 91.3611 443.547 91.9183 441.912C91.945 441.843 91.9526 441.763 91.9693 441.693C95.1977 432.349 102.891 422.675 106.571 420.34ZM94.4461 467.422C93.4626 464.858 92.6096 462.509 91.9372 460.269C92.374 460.646 92.8317 461.015 93.3211 461.366C97.0159 463.964 102.311 465.585 108.798 466.2C115.733 466.857 124.024 466.362 133.152 464.675C151.97 461.202 160.956 462.074 162.743 462.315L176.29 472.436C170.12 472.095 164.061 472.263 158.226 473.266C137.645 476.775 117.513 476.717 105.464 473.795C105.366 473.766 105.278 473.737 105.179 473.728C104.413 473.533 103.678 473.331 102.974 473.122C102.868 473.071 102.753 473.02 102.634 472.998C102.595 472.984 102.564 472.992 102.525 472.978C98.1839 471.58 95.3148 469.711 94.4461 467.422ZM98.8987 497.548C98.8073 497.346 98.6741 497.161 98.5081 497.003C97.9073 496.447 97.7487 495.151 97.8336 493.725C98.5312 494.32 99.2554 494.846 99.8967 495.294C100.849 495.964 102.101 496.855 102.413 497.485C101.88 497.699 100.563 497.808 98.8987 497.548ZM90.6711 496.209C91.7922 500.078 99.1998 501.583 102.622 500.901C105.174 500.39 105.944 498.735 105.803 497.359C105.587 495.192 103.665 493.831 101.808 492.526C99.2069 490.693 98.0502 489.637 98.6431 487.945C99.1403 486.517 99.7948 486.295 100.014 486.214C100.856 485.917 102.002 486.341 102.655 486.667C104.153 490.267 106.391 494.13 109.453 497.888C115.677 505.515 124.109 511.49 134.522 515.651C142.252 518.743 150.94 520.736 160.496 521.642C166.763 522.236 173.397 522.357 180.378 522.002C214.492 520.284 235.791 509.521 247.657 500.802C258.907 492.523 263.992 484.596 265.266 482.398C267.416 481.564 269.333 480.648 271.055 479.662C271.336 480.095 271.611 480.691 271.663 481.418C271.772 482.923 270.95 484.594 269.231 486.394C265.37 490.421 263.484 493.028 264.553 495.225C265.605 497.379 268.784 497.466 273.228 496.932C273.238 496.933 273.238 496.933 273.248 496.934C273.258 496.935 273.258 496.935 273.268 496.936C277.672 496.397 281.609 493.903 285.094 491.711C290.207 488.474 292.665 487.253 294.684 489.183C295.402 489.872 295.534 491.033 295.079 492.648C293.217 499.132 282.877 509.053 274.455 510.715C266.474 512.287 260.514 516.4 252.963 521.603C249.231 524.177 245.003 527.092 239.988 530.043C229.309 536.322 226.622 535.284 220.736 533.008C218.796 532.254 216.595 531.405 213.731 530.645C201.18 527.289 194.756 528.348 183.823 535.609C174.156 542.025 163.061 540.179 157.094 535.037C150.3 529.187 134.286 528.533 121.098 528.614C110.444 528.682 109.642 526.328 108.187 522.062C107.974 521.442 107.754 520.79 107.495 520.125C106.441 517.361 102.279 515.237 96.5256 512.292C88.8154 508.358 79.2069 503.45 78.3932 496.763C78.2275 495.436 78.3064 494.497 78.4919 493.813C78.9185 493.132 79.3934 492.577 79.9076 492.137C80.0746 492.072 80.2189 492.035 80.3423 492.006C84.1485 491.096 90.2349 494.978 90.6711 496.209ZM96.6875 523.839L97.8009 524.29C101.345 525.725 101.5 527.58 101.729 530.154C102.176 535.301 103.589 539.269 116.989 539.716C139.538 540.471 147.508 542.091 159.629 548.386C163.241 550.264 166.538 551.227 169.686 551.526C177.508 552.267 184.347 548.848 192.39 544.821C193.256 544.385 194.152 543.941 195.06 543.488C204.016 539.059 214 542.436 221.287 544.897C223.811 545.746 225.983 546.481 227.859 546.842C228.066 546.882 228.275 546.912 228.484 546.931C234.452 547.497 244.159 541.086 254.433 533.884C256.446 532.478 258.18 531.26 259.345 530.536C261.47 529.223 263.378 528.081 265.737 526.851C256.639 541.364 236.664 553.544 209.864 560.715C181.291 568.358 149.209 568.997 124.045 562.421C104.816 557.395 92.5952 549.504 87.7222 538.975C83.6097 530.073 86.2263 521.881 87.0514 519.753C90.2187 521.233 93.5599 522.577 96.6875 523.839ZM269.159 542.185C261.917 557.81 246.521 570.251 224.646 578.183C202.229 586.318 177.849 589.285 156.048 587.218C140.653 585.758 126.522 581.784 115.28 575.339C103.761 568.735 95.5195 559.91 90.6481 549.045C97.5158 556.245 108.408 561.824 123.183 565.685C130.178 567.508 137.687 568.789 145.509 569.531C166.414 571.513 189.505 569.635 210.682 563.965C240.844 555.903 262.732 541.464 270.895 524.299C271.746 523.912 272.651 523.49 273.637 523.054C273.643 526.594 273.038 533.828 269.159 542.185ZM283.791 515.099C267.857 521.662 263.386 524.076 257.607 527.656C256.357 528.433 254.591 529.669 252.534 531.111C245.879 535.778 233.483 544.467 228.475 543.524C226.835 543.216 224.761 542.511 222.354 541.703C214.522 539.059 203.787 535.427 193.608 540.462C192.69 540.914 191.803 541.359 190.927 541.804C179.686 547.43 172.256 551.149 161.17 545.39C147.745 538.422 138.834 537.079 117.127 536.353C105.601 535.972 105.364 533.275 105.064 529.86C104.821 527.122 104.494 523.359 99.0623 521.166L97.9489 520.715C87.7519 516.606 75.0758 511.499 75.7562 504.323C75.8756 503.063 76.0263 501.898 76.2192 500.818C79.2989 507.252 87.9302 511.65 95.0745 515.297C99.1886 517.395 103.849 519.779 104.445 521.331C104.687 521.964 104.891 522.573 105.097 523.152C106.977 528.669 108.758 532.051 121.172 531.967C132.801 531.89 148.96 532.395 154.993 537.584C158.423 540.533 163.215 542.482 168.187 542.953C168.326 542.967 168.466 542.98 168.605 542.993C174.563 543.456 180.475 541.871 185.71 538.401C195.784 531.72 201.382 530.786 212.931 533.884C215.627 534.608 217.742 535.418 219.604 536.144C225.869 538.558 229.661 540.026 241.714 532.942C246.835 529.93 251.116 526.98 254.892 524.379C262.12 519.4 267.822 515.456 275.137 514.014C284.573 512.153 295.545 501.621 298.117 494.217L300.011 497.041C299.53 499.568 296.964 509.667 283.791 515.099Z" fill="#191D2F"/>
<path d="M62.2643 408.146C60.7708 407.038 57.4882 406.137 46.2894 411.004C35.5102 415.687 26.7469 425.829 26.3548 434.1C26.1774 437.774 27.739 440.708 30.7387 442.366C32.7452 443.471 34.5162 443.985 36.0706 444.132C38.183 444.332 39.8673 443.852 41.0811 443.245C45.0692 441.264 47.8968 436.254 49.0554 429.123C49.2188 428.142 49.3518 427.27 49.4671 426.478C49.9584 423.311 50.2243 421.567 50.7976 420.716C51.2887 419.99 52.2879 419.525 54.7019 418.452L55.2478 418.209C61.3665 415.495 63.1456 414.545 63.5058 410.745C63.5846 410.02 63.2973 408.915 62.2643 408.146ZM53.9117 415.123L53.3658 415.366C47.5314 417.945 47.3118 418.565 46.1682 425.962C46.0438 426.743 45.9109 427.615 45.7584 428.587C44.7932 434.526 42.5611 438.768 39.6177 440.228C37.5919 441.236 35.1445 440.963 32.3354 439.416C30.4528 438.383 29.5614 436.651 29.6773 434.262C29.9716 428.188 36.898 418.757 47.5937 414.107C55.049 410.869 58.255 410.562 59.5304 410.683C59.8393 410.713 60.0347 410.772 60.1515 410.813C59.9916 412.181 59.5163 412.634 53.9117 415.123Z" fill="#191D2F"/>
<path d="M39.6695 386.031C43.7368 384.912 46.7841 385.75 50.3119 386.715C51.1156 386.933 51.9382 387.164 52.7737 387.365C53.5105 387.547 55.7608 388.096 56.7939 386.424C57.828 384.743 56.3889 382.532 55.434 381.363C53.0197 378.409 45.5193 375.867 36.7807 375.039C30.2144 374.416 26.4862 377.154 25.1876 379.929C24.0282 382.402 24.5374 385.196 26.5267 387.226C27.8748 388.594 29.1371 389.171 30.3527 389.287C32.1562 389.458 33.8451 388.611 35.4922 387.781C36.6879 387.152 38.0597 386.468 39.6695 386.031ZM28.8856 384.826C27.8865 383.805 27.6344 382.541 28.1894 381.353C28.9696 379.698 31.601 377.924 36.4535 378.384C46.0988 379.299 51.6327 382.01 52.8579 383.509C52.984 383.663 53.1082 383.838 53.2224 384.011C52.5255 383.833 51.8494 383.647 51.1824 383.472C47.5279 382.464 43.7348 381.434 38.7909 382.785C36.8608 383.314 35.2773 384.11 33.9999 384.751C31.2445 386.137 30.4528 386.428 28.8856 384.826Z" fill="#191D2F"/>
<path d="M91.473 389.459C93.2119 389.623 94.7123 388.8 94.8242 387.62C94.9361 386.44 93.6171 385.35 91.8782 385.185C90.1392 385.02 88.6388 385.843 88.5269 387.023C88.415 388.203 89.734 389.294 91.473 389.459Z" fill="#191D2F"/>
<path d="M99.8167 386.182C101.556 386.347 103.056 385.524 103.168 384.344C103.28 383.164 101.961 382.074 100.222 381.909C98.4829 381.744 96.9825 382.567 96.8707 383.747C96.7588 384.927 98.0778 386.017 99.8167 386.182Z" fill="#191D2F"/>
<path d="M108.159 382.916C109.897 383.08 111.398 382.258 111.51 381.077C111.622 379.897 110.303 378.807 108.564 378.642C106.825 378.477 105.324 379.3 105.212 380.48C105.101 381.66 106.42 382.751 108.159 382.916Z" fill="#191D2F"/>
</g>
<path d="M293.654 604.295L6.42087 577.061L38.0938 243.008L325.327 270.242L293.654 604.295ZM8.11503 575.659L292.253 602.6L323.633 271.644L39.4943 244.703L8.11503 575.659Z" fill="#2A46FC"/>
<path d="M330.842 266.234L319.113 265.122L318 276.86L329.729 277.972L330.842 266.234Z" fill="white"/>
<path d="M330.432 278.803L317.155 277.545L318.415 264.259L331.691 265.518L330.432 278.803ZM318.865 276.144L329.046 277.11L330.013 266.921L319.831 265.955L318.865 276.144Z" fill="#2A46FC"/>
<path d="M299.374 598.135L287.646 597.022L286.533 608.76L298.262 609.872L299.374 598.135Z" fill="white"/>
<path d="M298.962 610.72L285.686 609.461L286.945 596.175L300.221 597.434L298.962 610.72ZM287.395 608.06L297.577 609.026L298.543 598.837L288.361 597.871L287.395 608.06Z" fill="#2A46FC"/>
<path d="M45.1576 239.147L33.4287 238.035L32.3158 249.773L44.0447 250.885L45.1576 239.147Z" fill="white"/>
<path d="M44.746 251.717L31.4698 250.458L32.7295 237.172L46.0057 238.431L44.746 251.717ZM33.164 249.056L43.3455 250.021L44.3115 239.832L34.13 238.867L33.164 249.056Z" fill="#2A46FC"/>
<path d="M13.6888 571.048L1.95996 569.936L0.847083 581.673L12.5759 582.785L13.6888 571.048Z" fill="white"/>
<path d="M13.2763 583.633L7.33742e-05 582.374L1.25977 569.088L14.536 570.347L13.2763 583.633ZM1.69423 580.972L11.8757 581.937L12.8418 571.748L2.66029 570.783L1.69423 580.972Z" fill="#2A46FC"/>
<path d="M188.166 250.248L186.611 250.235L186.582 253.818L188.136 253.831L188.166 250.248Z" fill="#2A46FC"/>
<path d="M188.205 245.398L186.651 245.385L186.711 238.123L188.265 238.136L188.205 245.398ZM188.305 233.31L186.751 233.298L186.811 226.035L188.365 226.048L188.305 233.31ZM188.404 221.223L186.85 221.21L186.91 213.948L188.464 213.96L188.404 221.223ZM188.504 209.135L186.95 209.122L187.01 201.86L188.564 201.873L188.504 209.135ZM188.604 197.047L187.049 197.034L187.109 189.772L188.663 189.785L188.604 197.047ZM188.703 184.959L187.149 184.947L187.209 177.685L188.763 177.697L188.703 184.959ZM188.803 172.848L187.249 172.835L187.308 165.573L188.863 165.586L188.803 172.848ZM188.902 160.76L187.348 160.747L187.408 153.485L188.962 153.498L188.902 160.76ZM189.002 148.672L187.448 148.66L187.507 141.421L189.061 141.434L189.002 148.672ZM189.101 136.585L187.547 136.572L187.607 129.31L189.161 129.323L189.101 136.585ZM189.201 124.497L187.647 124.484L187.707 117.222L189.261 117.235L189.201 124.497ZM189.3 112.409L187.746 112.396L187.806 105.134L189.36 105.147L189.3 112.409ZM189.4 100.322L187.846 100.309L187.906 93.0466L189.46 93.0594L189.4 100.322ZM189.5 88.2339L187.945 88.2211L188.005 80.9589L189.559 80.9717L189.5 88.2339ZM189.599 76.1461L188.045 76.1334L188.105 68.8712L189.659 68.884L189.599 76.1461ZM189.699 64.0584L188.144 64.0456L188.204 56.7834L189.758 56.7962L189.699 64.0584ZM189.798 51.9468L188.244 51.934L188.304 44.6718L189.858 44.6846L189.798 51.9468ZM189.898 39.8591L188.344 39.8463L188.403 32.5841L189.958 32.5969L189.898 39.8591ZM189.997 27.7714L188.443 27.7586L188.503 20.5203L190.057 20.5331L189.997 27.7714ZM190.097 15.6837L188.543 15.6709L188.603 8.40869L190.157 8.42149L190.097 15.6837Z" fill="#2A46FC"/>
<path d="M190.226 0.012798L188.672 0L188.642 3.58332L190.197 3.59611L190.226 0.012798Z" fill="#2A46FC"/>
<path d="M180.432 631.292L92.7751 622.981C91.5218 622.862 90.5974 621.743 90.7164 620.489L92.8437 598.052C92.9627 596.797 94.0808 595.872 95.3342 595.991L182.991 604.302C184.244 604.421 185.169 605.54 185.05 606.794L182.922 629.232C182.819 630.487 181.701 631.412 180.432 631.292Z" fill="#2A46FC"/>
<path d="M98.6249 607.067C98.7014 606.59 98.8538 606.136 99.11 605.738C99.3508 605.339 99.6646 604.994 100.067 604.704C100.453 604.413 100.91 604.206 101.423 604.067C101.936 603.928 102.502 603.888 103.105 603.945C103.678 604 104.21 604.144 104.671 604.391C105.148 604.624 105.541 604.926 105.882 605.287C106.222 605.647 106.466 606.045 106.626 606.498C106.787 606.935 106.837 607.393 106.795 607.842C106.752 608.291 106.637 608.686 106.436 608.995C106.235 609.304 106.023 609.565 105.801 609.763C105.53 609.987 105.248 610.164 104.938 610.306C105.293 610.512 105.611 610.776 105.879 611.083C106.118 611.356 106.304 611.701 106.484 612.109C106.647 612.531 106.708 613.036 106.654 613.609C106.608 614.089 106.456 614.544 106.214 614.958C105.972 615.373 105.641 615.732 105.239 616.022C104.837 616.312 104.346 616.547 103.802 616.683C103.258 616.819 102.645 616.87 101.995 616.808C101.345 616.746 100.766 616.598 100.257 616.362C99.7488 616.126 99.325 615.821 98.983 615.476C98.6425 615.115 98.3837 614.716 98.2222 614.279C98.0607 613.841 97.981 613.365 97.9956 612.882L99.9143 613.064C99.9232 613.299 99.9645 613.522 100.068 613.751C100.171 613.979 100.308 614.18 100.509 614.37C100.694 614.56 100.928 614.723 101.212 614.859C101.495 614.995 101.816 615.072 102.156 615.105C102.93 615.178 103.537 615.033 103.992 614.685C104.446 614.338 104.708 613.878 104.761 613.321C104.814 612.763 104.643 612.263 104.262 611.836C103.881 611.409 103.295 611.166 102.537 611.094L101.639 611.009L101.802 609.29L102.607 609.367C103.257 609.428 103.799 609.308 104.204 608.987C104.608 608.681 104.834 608.265 104.883 607.754C104.936 607.197 104.794 606.715 104.456 606.323C104.119 605.932 103.609 605.712 102.959 605.65C102.309 605.589 101.767 605.709 101.346 606.029C100.927 606.333 100.669 606.746 100.559 607.251L98.6249 607.067Z" fill="white"/>
<path d="M112.019 617.79C111.384 617.73 110.822 617.567 110.301 617.299C109.78 617.031 109.345 616.677 108.997 616.238C108.633 615.797 108.366 615.319 108.183 614.77C108.001 614.222 107.946 613.654 108.003 613.05C108.038 612.679 108.135 612.313 108.296 611.938C108.455 611.578 108.627 611.25 108.809 610.971C109.012 610.646 109.245 610.325 109.507 610.037L113.54 605.045L115.644 605.244L112.427 609.205C112.49 609.195 112.585 609.188 112.679 609.182C112.742 609.172 112.837 609.165 112.931 609.159C113.041 609.153 113.134 609.162 113.242 609.172C113.768 609.222 114.268 609.379 114.727 609.641C115.187 609.904 115.59 610.254 115.924 610.692C116.257 611.13 116.508 611.607 116.675 612.154C116.842 612.701 116.913 613.27 116.855 613.874C116.798 614.478 116.637 615.025 116.355 615.53C116.073 616.034 115.719 616.469 115.28 616.818C114.84 617.183 114.346 617.448 113.8 617.615C113.253 617.782 112.638 617.849 112.019 617.79ZM109.908 613.215C109.873 613.587 109.901 613.949 109.994 614.286C110.087 614.623 110.246 614.919 110.457 615.158C110.667 615.412 110.914 615.608 111.211 615.776C111.507 615.945 111.826 616.038 112.166 616.07C112.507 616.102 112.853 616.073 113.16 615.961C113.467 615.85 113.762 615.706 114.016 615.495C114.27 615.285 114.466 615.038 114.636 614.726C114.79 614.413 114.884 614.078 114.921 613.691C114.958 613.304 114.928 612.957 114.835 612.62C114.742 612.283 114.583 611.987 114.372 611.748C114.161 611.494 113.915 611.299 113.618 611.13C113.322 610.961 113.003 610.868 112.663 610.836C112.322 610.804 111.976 610.834 111.669 610.945C111.361 611.056 111.067 611.2 110.813 611.411C110.559 611.621 110.363 611.868 110.193 612.18C110.037 612.509 109.943 612.844 109.908 613.215Z" fill="white"/>
<path d="M126.172 617.21L126 619.022L117.861 618.25L117.995 616.841L123.539 611.883C123.794 611.657 124.019 611.428 124.213 611.197C124.389 610.979 124.552 610.744 124.701 610.493C124.85 610.241 124.938 609.968 124.964 609.69C125.017 609.132 124.876 608.65 124.523 608.257C124.17 607.865 123.644 607.643 122.932 607.575C122.282 607.514 121.722 607.664 121.28 608.044C120.838 608.424 120.571 608.93 120.51 609.58L118.591 609.398C118.645 608.825 118.79 608.292 119.036 607.831C119.267 607.369 119.586 606.977 119.974 606.67C120.362 606.363 120.82 606.141 121.35 605.988C121.878 605.851 122.461 605.796 123.095 605.857C123.73 605.917 124.278 606.062 124.771 606.297C125.264 606.531 125.672 606.835 125.997 607.194C126.321 607.569 126.563 607.982 126.704 608.464C126.846 608.946 126.909 609.437 126.859 609.963C126.821 610.366 126.69 610.76 126.466 611.145C126.242 611.53 126.007 611.867 125.746 612.154C125.449 612.485 125.106 612.812 124.75 613.107L120.772 616.698L126.172 617.21Z" fill="white"/>
<path d="M158.486 619.555L157.078 619.422L156.84 621.93L154.922 621.748L155.159 619.24L149.527 618.706L149.68 617.095L155.829 609.054L158.041 609.264L157.248 617.626L158.657 617.759L158.486 619.555ZM155.347 617.43L155.872 611.886L151.927 617.105L155.347 617.43Z" fill="white"/>
<path d="M164.788 609.903L163.585 622.585L161.667 622.403L162.621 612.338L160.813 613.292L160.06 611.689L163.488 609.78L164.788 609.903Z" fill="white"/>
<path d="M171.328 610.414C171.962 610.474 172.524 610.637 173.045 610.905C173.566 611.173 174.001 611.527 174.35 611.966C174.698 612.406 174.981 612.885 175.163 613.434C175.345 613.982 175.401 614.55 175.343 615.154C175.307 615.541 175.21 615.907 175.051 616.267C174.891 616.627 174.721 616.939 174.539 617.218C174.336 617.543 174.103 617.864 173.843 618.137L169.808 623.144L167.704 622.945L170.921 618.984C170.856 619.01 170.777 619.018 170.683 619.024C170.62 619.034 170.527 619.025 170.432 619.032C170.324 619.022 170.214 619.027 170.106 619.017C169.58 618.967 169.08 618.81 168.62 618.548C168.161 618.285 167.757 617.935 167.424 617.497C167.091 617.059 166.84 616.582 166.657 616.034C166.491 615.486 166.42 614.917 166.477 614.313C166.534 613.71 166.696 613.162 166.978 612.658C167.26 612.153 167.613 611.718 168.052 611.369C168.493 611.005 168.986 610.739 169.533 610.572C170.11 610.408 170.709 610.356 171.328 610.414ZM173.44 614.974C173.475 614.602 173.447 614.24 173.354 613.903C173.261 613.566 173.102 613.27 172.891 613.031C172.68 612.777 172.434 612.581 172.137 612.413C171.841 612.244 171.522 612.151 171.182 612.119C170.841 612.087 170.495 612.116 170.188 612.228C169.865 612.338 169.586 612.483 169.332 612.694C169.078 612.904 168.882 613.151 168.712 613.463C168.558 613.776 168.463 614.111 168.427 614.498C168.392 614.87 168.42 615.232 168.514 615.553C168.607 615.89 168.768 616.171 168.978 616.425C169.188 616.68 169.433 616.89 169.731 617.044C170.027 617.212 170.346 617.305 170.687 617.337C171.027 617.37 171.374 617.34 171.681 617.228C172.003 617.118 172.283 616.973 172.537 616.763C172.791 616.553 172.987 616.29 173.156 615.993C173.309 615.696 173.403 615.361 173.44 614.974Z" fill="white"/>
<path d="M141.756 610.838L134.736 616.646L135.727 617.845L142.747 612.037L141.756 610.838Z" fill="white"/>
<path d="M136.432 610.344L135.234 611.335L141.037 618.36L142.235 617.369L136.432 610.344Z" fill="white"/>
<rect x="64.2686" y="223.482" width="5.63674" height="5.63674" transform="rotate(50.8133 64.2686 223.482)" fill="#2A46FC"/>
<rect x="63.127" y="234.698" width="5.63674" height="5.63674" transform="rotate(50.8133 63.127 234.698)" fill="#2A46FC"/>
<rect x="72.8662" y="234.03" width="5.63674" height="5.63674" transform="rotate(140.813 72.8662 234.03)" fill="#2A46FC"/>
<rect x="61.6514" y="232.888" width="5.63674" height="5.63674" transform="rotate(140.813 61.6514 232.888)" fill="#2A46FC"/>
<defs>
<clipPath id="clip0">
<rect width="288.354" height="333.758" fill="white" transform="translate(37.6738 244.095) rotate(5.41625)"/>
</clipPath>
</defs>
</svg>
