<svg width="332" height="632" viewBox="0 0 332 632" fill="none" xmlns="http://www.w3.org/2000/svg">
<g clip-path="url(#clip0)">
<path d="M226.128 330.534L233.58 336.661C233.841 336.879 234.151 337 234.47 337.03C235.008 337.081 235.561 336.869 235.926 336.415C236.507 335.697 236.397 334.629 235.688 334.044L228.236 327.917C227.528 327.331 226.471 327.445 225.891 328.162C225.309 328.89 225.41 329.947 226.128 330.534Z" fill="#191D2F"/>
<path d="M202.03 316.748L211.535 318.188C211.565 318.191 211.594 318.194 211.624 318.197C212.501 318.28 213.295 317.653 213.428 316.771C213.566 315.849 212.943 314.996 212.031 314.859L202.526 313.419C201.625 313.272 200.77 313.913 200.633 314.836C200.495 315.758 201.118 316.611 202.03 316.748Z" fill="#191D2F"/>
<path d="M187.187 323.039L196.157 326.513C196.303 326.567 196.451 326.602 196.6 326.616C197.327 326.685 198.041 326.264 198.311 325.537C198.645 324.664 198.214 323.698 197.351 323.362L188.381 319.887C187.518 319.551 186.561 319.99 186.227 320.863C185.903 321.737 186.323 322.713 187.187 323.039Z" fill="#191D2F"/>
<path d="M174.462 313.788C174.781 313.818 175.118 313.759 175.426 313.585L183.837 308.85C184.644 308.398 184.933 307.368 184.487 306.563C184.041 305.748 183.023 305.458 182.226 305.911L173.815 310.646C173.008 311.098 172.719 312.128 173.165 312.933C173.439 313.437 173.934 313.738 174.462 313.788Z" fill="#191D2F"/>
<path d="M160.86 312.082C160.757 311.157 159.924 310.498 159.009 310.605L149.461 311.743C148.546 311.85 147.893 312.693 147.996 313.618C148.091 314.42 148.727 315.03 149.494 315.102C149.614 315.114 149.724 315.114 149.847 315.095L159.395 313.956C160.311 313.84 160.963 313.007 160.86 312.082Z" fill="#191D2F"/>
<path d="M303.339 496.177L298.337 488.707C298.024 488.087 297.629 487.592 297.233 487.209C293.129 483.301 288.284 486.371 283.589 489.342C282.016 490.342 280.412 491.349 278.774 492.191C279.374 490.641 279.523 488.957 278.935 487.416C277.928 484.789 275.517 480.95 274.921 480.019C274.721 479.38 274.441 478.835 274.153 478.37C282.848 472.34 285.115 465.183 285.25 464.718C285.293 464.579 285.316 464.439 285.32 464.297L286.219 441.553C286.226 441.482 286.212 441.42 286.209 441.348C286.305 440.229 286.334 439.286 286.339 438.595L300.664 433.526C301.277 433.31 301.712 432.751 301.774 432.096L302.538 424.043C302.54 424.023 302.531 424.012 302.533 423.992C302.543 423.881 302.533 423.778 302.523 423.676C302.524 423.655 302.516 423.634 302.518 423.614C302.5 423.49 302.462 423.365 302.412 423.248C302.395 423.216 302.387 423.195 302.37 423.163C302.328 423.077 302.286 422.992 302.233 422.916C302.206 422.883 302.189 422.851 302.162 422.818C302.107 422.752 302.043 422.684 301.969 422.626C301.951 422.604 301.932 422.582 301.913 422.57C301.904 422.559 301.895 422.558 301.886 422.547C301.867 422.535 301.858 422.524 301.849 422.513L276.963 404.829C279.532 404.249 282.113 403.639 284.691 402.959C285.196 402.823 285.602 402.465 285.809 401.987C285.965 401.615 289.619 392.87 289.093 380.394C288.614 368.898 284.317 351.976 266.608 336.65C263.83 334.241 261.079 331.977 258.365 329.848L258.874 329.571C259.68 329.129 259.988 328.111 259.553 327.286C259.118 326.472 258.111 326.163 257.295 326.605L255.451 327.609C248.658 322.481 242.008 318.179 235.344 314.669L233.315 311.355C232.827 310.567 231.805 310.317 231.024 310.813C230.544 311.113 230.275 311.616 230.245 312.142C229.272 311.694 228.308 311.257 227.333 310.829L233.632 294.128C236.804 294.287 243.742 295.331 250.616 300.986C259.934 308.642 265.87 316.648 277.267 316.377C277.267 316.377 272.465 310.501 273.578 305.868C273.578 305.868 282.929 306.073 285.96 302.303C285.96 302.303 276.865 299.407 268.66 287.118C261.389 276.218 248.095 271.378 242.105 271.675L244.134 266.284C244.458 265.41 244.027 264.444 243.174 264.109C242.321 263.774 241.354 264.221 241.02 265.084L224.247 309.55C208.105 303.148 191.307 301.006 171.569 302.308C154.866 303.409 138.012 309.173 125.322 318.108C111.888 327.563 104.019 339.732 103.151 352.381C103.121 352.805 103.252 353.225 103.522 353.555C103.891 354.017 109.041 360.353 118.87 368.657L74.2968 384.617C74.2659 384.624 74.2441 384.642 74.2232 384.651C74.2023 384.659 74.1924 384.658 74.1715 384.666C74.1506 384.674 74.1288 384.693 74.1178 384.702C74.0224 384.754 73.937 384.807 73.8606 384.87C73.8387 384.889 73.8069 384.906 73.7841 384.934C73.6858 385.017 73.5956 385.12 73.5153 385.224C73.5035 385.243 73.5025 385.253 73.4906 385.273C73.4313 385.369 73.3719 385.465 73.3315 385.573C73.3177 385.612 73.3049 385.641 73.2911 385.681C73.2616 385.78 73.2312 385.889 73.2206 386C73.2187 386.02 73.2069 386.039 73.2049 386.059L72.4414 394.112C72.386 394.696 72.6433 395.27 73.1119 395.63L104.057 418.749C99.3506 422.472 92.4147 431.791 89.2096 440.995C89.1493 441.101 89.0889 441.207 89.0466 441.335C85.5275 451.73 87.7852 459.093 91.6184 469.137C92.7871 472.187 96.0127 474.537 100.687 476.241C100.533 478.179 100.818 480.586 101.578 483.281C100.84 483.211 100.043 483.248 99.252 483.528C98.1509 483.902 96.6617 484.869 95.8051 487.33C95.4723 488.295 95.3911 489.152 95.4968 489.945C95.162 491.144 94.502 493.969 94.8947 496.508C94.4612 496.203 94.225 495.936 94.1715 495.758C93.4746 493.353 89.7614 491.374 88.6377 490.82C87.1676 490.101 83.3991 488.493 80.0951 489.197C79.7159 489.272 79.2195 489.419 78.7026 489.675C78.6091 489.707 78.5237 489.759 78.4282 489.811C77.4433 490.338 76.3902 491.266 75.7951 492.877C74.2113 495.584 73.1929 499.433 72.7103 504.523C72.1303 510.641 77.495 515.135 84.3493 518.765C83.5257 520.771 80.7989 528.536 83.741 537.693C87.2328 555.474 97.3931 569.301 113.946 578.793C125.57 585.457 140.15 589.565 156.033 591.071C178.343 593.186 203.231 590.166 226.074 581.878C241.994 576.107 262.979 564.836 272.571 543.933C277.246 533.759 277.418 525.264 277.283 522.129C279.589 521.138 282.238 520.026 285.345 518.745C294.071 515.149 298.581 509.566 300.825 505.518C303.287 501.074 303.659 497.469 303.674 497.317C303.654 496.889 303.56 496.503 303.339 496.177ZM272.871 494.112C269.701 494.473 268.42 494.3 267.94 494.163C268.154 493.604 268.984 492.269 271.897 489.23C273.023 488.056 273.859 486.874 274.424 485.687C274.981 486.706 275.514 487.763 275.844 488.628C276.543 490.484 274.761 493.264 272.871 494.112ZM271.019 476.436C270.851 476.511 270.682 476.597 270.539 476.726C268.651 477.869 266.487 478.955 263.975 479.896C263.892 479.919 263.808 479.952 263.735 479.985C260.609 481.143 256.98 482.091 252.751 482.686C240.951 484.354 226.472 481.405 211.134 478.283C203.914 476.815 196.595 475.328 189.336 474.274C189.16 474.115 188.961 473.984 188.717 473.91C188.298 473.769 187.851 473.818 187.471 474.005C187.213 473.971 186.955 473.936 186.696 473.912L209.582 465.811C211.676 466.213 213.786 466.647 215.827 467.074C221.703 468.292 227.668 469.529 234.334 470.161C242.455 470.931 251.616 470.803 262.958 468.665C273.359 466.702 279.147 461.007 282.371 454.998L282.014 463.963C281.579 465.153 279.101 471.355 271.019 476.436ZM103.947 477.486C110.948 498.864 132.797 512.203 165.121 515.268C170.631 515.79 176.451 516.016 182.551 515.934C223.534 515.366 251.514 489.27 255.127 485.728C256.978 485.406 258.722 485.032 260.363 484.588C253.448 493.786 231.32 516.582 180.486 519.155C162.726 520.054 130.262 518.267 112.291 496.256C106.357 488.971 104.024 481.652 103.947 477.486ZM187.121 480.348C188.15 484.341 190.378 488.203 192.406 491.73C194.538 495.441 196.748 499.271 196.036 501.166C195.94 501.431 195.633 502.236 193.649 502.902C181.408 506.989 178.315 504.306 177.06 501.949C176.308 500.129 180.751 490.696 187.121 480.348ZM227.732 490.382C226.906 491.564 224.649 493.638 221.362 495.218C218.971 496.364 214.329 498.029 210.152 496.281C204.592 493.953 196.7 484.195 192.557 478.687C208.531 483.049 224.546 488.147 227.732 490.382ZM117.066 479.401C117.108 479.496 117.139 479.591 117.191 479.677C118.001 481.208 120.336 483.199 130.429 484.156C132.562 484.358 135.031 484.511 137.906 484.611C149.872 485.013 161.519 483.372 169.703 481.778C161.963 484.319 152.924 486.553 147.168 487.98C143.236 488.95 140.126 489.722 138.599 490.239C134.693 491.567 134.811 494.252 134.937 495.037C135.448 498.136 139.958 501.248 147.79 501.991C149.016 502.107 150.317 502.17 151.705 502.159C162.147 502.091 176.001 488.527 182.739 481.184C181.734 482.878 180.64 484.767 179.582 486.701C173.128 498.465 173.192 501.817 174.115 503.541C175.787 506.689 178.597 508.014 181.815 508.319C185.94 508.71 190.748 507.417 194.683 506.102C196.999 505.325 198.506 504.064 199.15 502.356C200.427 498.958 198.045 494.817 195.292 490.031C193.971 487.74 192.574 485.299 191.52 482.84C196.09 488.714 203.282 497.053 208.881 499.394C210.081 499.894 211.368 500.209 212.713 500.337C215.842 500.633 219.306 499.935 222.793 498.252C226.997 496.23 230.553 493.079 231.247 490.745C231.411 490.181 231.337 489.574 231.037 489.037C230.598 488.253 229.868 486.944 220.001 483.486C230.536 485.512 240.511 486.987 249.404 486.396C240.451 494.079 215.942 512.083 182.51 512.554C143.208 513.099 116.192 500.602 107.725 478.149C110.212 478.639 112.92 479.018 115.79 479.29C116.199 479.329 116.637 479.37 117.066 479.401ZM124.008 479.774C134.9 480.054 147.246 479.1 159.039 477.086C165.18 476.041 171.634 475.941 178.245 476.415C172.637 477.877 155.693 481.833 138.034 481.246C130.899 481.007 126.604 480.397 124.008 479.774ZM176.398 482.962C175.174 484.198 173.847 485.476 172.448 486.767C163.923 494.602 156.743 498.762 151.682 498.801C142.598 498.855 138.425 495.785 138.216 494.494C138.165 494.184 138.749 493.751 139.643 493.439C141.036 492.961 144.083 492.213 147.943 491.257C158.434 488.662 168.877 485.94 176.398 482.962ZM282.943 441.12C282.923 441.22 282.903 441.33 282.903 441.432L282.883 441.857C282.228 448.872 278.79 462.224 262.35 465.323C242.337 469.099 229.204 466.38 216.504 463.742C216.268 463.689 216.021 463.645 215.775 463.591L283.02 439.775C282.991 440.189 282.969 440.634 282.943 441.12ZM298.558 430.713L208.8 462.503L182.886 471.679L183.363 466.65L298.972 426.339L298.558 430.713ZM297.242 423.378L182.08 463.539L91.4451 396.422L134.147 380.163C138.751 383.244 143.874 386.363 149.501 389.368C151.103 390.709 152.753 392.808 152.633 393.763C152.596 394.044 152.202 394.281 151.876 394.423C151.162 394.752 150.188 394.843 149.079 394.768C148.443 393.518 147.328 392.243 145.783 391.039C143.612 389.338 138.815 386.595 136.175 388.348C134.845 389.229 134.475 390.699 135.228 392.082C136.478 394.387 141.359 396.772 146.005 397.711C145.254 398.311 143.166 399.028 138.709 399.063C135.037 399.081 132.475 398.858 130.712 398.569C128.674 396.637 126.61 396.136 125.454 396.555C124.538 396.885 124.001 397.78 124.163 398.721C124.422 400.23 126.468 401.136 129.031 401.674C129.475 402.184 129.927 402.827 130.373 403.632C130.708 404.233 130.832 404.621 130.883 404.829C129.048 405.306 121.691 402.951 114.631 399.586C113.793 399.192 112.804 399.556 112.413 400.393C112.022 401.231 112.378 402.241 113.205 402.634C113.369 402.711 117.284 404.577 121.58 406.133C125.128 407.415 127.585 408.014 129.339 408.181C131.75 408.409 132.801 407.818 133.462 407.107C134.515 405.967 134.499 404.338 133.428 402.274C135.444 402.424 137.372 402.454 138.719 402.45C145.057 402.41 148.58 401.087 149.479 398.396C149.508 398.307 149.535 398.228 149.554 398.139C150.969 398.161 152.244 397.967 153.232 397.521C155.218 396.611 155.792 395.222 155.918 394.217C155.989 393.674 155.93 393.13 155.799 392.599C171.998 400.419 189.196 405.66 207.033 408.185C209.732 408.563 212.436 408.89 215.166 409.149C216.501 409.276 217.838 409.382 219.186 409.479L151.014 433.421L182.911 457.099L285.456 420.441L266.671 406.924C268.603 406.589 270.529 406.212 272.465 405.826L297.242 423.378ZM143.422 393.459C141.517 392.77 139.817 391.927 138.879 391.218C140.003 391.457 141.797 392.258 143.422 393.459ZM106.531 351.939C108.653 328.599 137.718 307.925 171.773 305.673C190.975 304.402 207.315 306.49 223.041 312.73L219.561 321.969C219.237 322.844 219.668 323.81 220.521 324.145C220.667 324.199 220.814 324.234 220.954 324.247C221.681 324.316 222.394 323.895 222.664 323.169L226.116 314.018C228.424 315.02 230.723 316.113 233.014 317.296L235.52 321.398C235.808 321.862 236.274 322.14 236.782 322.189C237.131 322.222 237.49 322.144 237.811 321.94C238.357 321.595 238.636 320.981 238.594 320.367C243.099 323.001 247.611 326.002 252.185 329.394L248.814 331.231C248.008 331.673 247.7 332.691 248.135 333.515C248.408 334.029 248.911 334.341 249.449 334.392C249.768 334.423 250.095 334.362 250.393 334.197L255.131 331.616C258.195 333.981 261.282 336.511 264.423 339.229C266.114 340.691 267.702 342.184 269.195 343.719L260.546 342.899C259.629 342.812 258.821 343.488 258.733 344.415C258.646 345.342 259.312 346.158 260.228 346.255L269.793 347.172C270.52 347.241 271.173 346.825 271.465 346.181C280.372 356.259 285.175 367.738 285.743 380.412C286.177 390.144 283.851 397.611 283.018 399.932C257.091 406.596 231.729 408.248 207.621 404.844C188.127 402.091 169.397 396.044 151.95 386.864C136.408 378.689 124.772 369.502 117.757 363.223C111.538 357.661 107.734 353.355 106.531 351.939ZM130.778 377.84L88.2332 394.033L78.3691 386.732L121.881 371.15C124.562 373.305 127.525 375.559 130.778 377.84ZM76.2231 389.325L86.9794 397.29L180.057 466.215L179.602 471.012L75.8294 393.477L76.2231 389.325ZM106.825 420.832L158.105 459.15C153.202 459.123 145.023 459.598 132.816 461.847C116.249 464.904 102.292 463.875 95.4766 459.09C92.9405 457.314 91.4183 455.024 90.9342 452.283C90.6458 450.659 90.6916 448.905 90.9761 447.071C91.228 445.579 91.6153 444.04 92.1725 442.405C92.1991 442.336 92.2067 442.255 92.2234 442.186C95.4519 432.841 103.145 423.168 106.825 420.832ZM94.7002 467.914C93.7168 465.35 92.8637 463.002 92.1914 460.762C92.6282 461.139 93.0858 461.507 93.5753 461.859C97.2701 464.457 102.566 466.077 109.052 466.692C115.987 467.35 124.278 466.855 133.406 465.168C152.224 461.694 161.21 462.567 162.997 462.807L176.545 472.929C170.374 472.588 164.316 472.756 158.48 473.758C137.899 477.268 117.767 477.21 105.718 474.288C105.62 474.258 105.533 474.229 105.433 474.22C104.667 474.025 103.932 473.823 103.228 473.614C103.122 473.564 103.007 473.512 102.888 473.491C102.849 473.477 102.818 473.484 102.779 473.47C98.4381 472.072 95.569 470.204 94.7002 467.914ZM99.1529 498.041C99.0614 497.839 98.9282 497.653 98.7622 497.495C98.1614 496.94 98.0028 495.643 98.0877 494.218C98.7853 494.813 99.5096 495.339 100.151 495.786C101.103 496.456 102.355 497.348 102.668 497.977C102.135 498.191 100.817 498.3 99.1529 498.041ZM90.9253 496.701C92.0464 500.57 99.454 502.076 102.877 501.393C105.428 500.883 106.199 499.227 106.058 497.851C105.841 495.685 103.919 494.323 102.062 493.018C99.461 491.185 98.3044 490.13 98.8972 488.437C99.3945 487.01 100.049 486.787 100.268 486.706C101.11 486.41 102.256 486.834 102.909 487.16C104.408 490.759 106.645 494.622 109.707 498.38C115.931 506.007 124.363 511.983 134.776 516.143C142.506 519.235 151.194 521.228 160.75 522.134C167.017 522.729 173.651 522.849 180.632 522.494C214.746 520.776 236.045 510.013 247.911 501.294C259.162 493.016 264.246 485.088 265.52 482.89C267.671 482.057 269.587 481.14 271.309 480.155C271.59 480.588 271.865 481.183 271.917 481.91C272.026 483.416 271.204 485.087 269.485 486.886C265.624 490.913 263.738 493.521 264.807 495.717C265.86 497.871 269.038 497.959 273.482 497.424C273.492 497.425 273.492 497.425 273.502 497.426C273.512 497.427 273.512 497.427 273.522 497.428C277.926 496.89 281.863 494.395 285.348 492.204C290.461 488.967 292.919 487.746 294.938 489.676C295.657 490.364 295.788 491.526 295.333 493.14C293.472 499.625 283.131 509.545 274.709 511.208C266.728 512.78 260.768 516.893 253.217 522.095C249.485 524.67 245.257 527.584 240.242 530.536C229.563 536.814 226.876 535.777 220.99 533.5C219.05 532.747 216.849 531.897 213.985 531.138C201.435 527.782 195.01 528.84 184.077 536.102C174.41 542.517 163.315 540.672 157.348 535.53C150.554 529.679 134.54 529.025 121.352 529.107C110.698 529.175 109.896 526.821 108.441 522.554C108.228 521.934 108.008 521.283 107.75 520.617C106.695 517.853 102.533 515.73 96.7798 512.784C89.0696 508.85 79.4611 503.943 78.6474 497.256C78.4817 495.928 78.5606 494.99 78.7461 494.306C79.1726 493.624 79.6475 493.069 80.1617 492.63C80.3288 492.564 80.473 492.527 80.5964 492.498C84.4026 491.588 90.489 495.47 90.9253 496.701ZM96.9416 524.332L98.055 524.783C101.599 526.217 101.755 528.072 101.983 530.647C102.43 535.794 103.843 539.762 117.243 540.208C139.792 540.963 147.762 542.583 159.883 548.878C163.495 550.756 166.792 551.72 169.941 552.018C177.762 552.76 184.601 549.341 192.644 545.313C193.51 544.877 194.407 544.433 195.314 543.98C204.27 539.552 214.255 542.929 221.541 545.389C224.065 546.238 226.237 546.973 228.113 547.334C228.32 547.374 228.529 547.404 228.738 547.424C234.706 547.99 244.413 541.578 254.687 534.376C256.7 532.971 258.435 531.752 259.599 531.029C261.724 529.715 263.632 528.574 265.991 527.343C256.893 541.856 236.918 554.037 210.119 561.207C181.545 568.85 149.464 569.489 124.299 562.914C105.07 557.887 92.8494 549.997 87.9763 539.467C83.8638 530.566 86.4804 522.374 87.3055 520.245C90.4729 521.725 93.814 523.069 96.9416 524.332ZM269.413 542.677C262.171 558.302 246.775 570.743 224.9 578.676C202.483 586.811 178.103 589.777 156.302 587.71C140.907 586.25 126.776 582.277 115.534 575.831C104.015 569.228 95.7736 560.402 90.9023 549.538C97.7699 556.738 108.662 562.316 123.437 566.178C130.432 568 137.942 569.282 145.763 570.023C166.668 572.005 189.759 570.127 210.936 564.457C241.098 556.395 262.987 541.956 271.149 524.792C272 524.405 272.905 523.982 273.891 523.547C273.897 527.086 273.292 534.32 269.413 542.677ZM284.045 515.591C268.111 522.155 263.64 524.568 257.861 528.149C256.611 528.925 254.845 530.161 252.788 531.603C246.133 536.27 233.737 544.959 228.729 544.016C227.09 543.708 225.015 543.003 222.608 542.195C214.776 539.551 204.041 535.92 193.862 540.955C192.944 541.406 192.058 541.851 191.181 542.297C179.94 547.922 172.51 551.641 161.424 545.882C147.999 538.914 139.088 537.571 117.381 536.845C105.855 536.464 105.618 533.767 105.319 530.353C105.075 527.615 104.749 523.851 99.3164 521.658L98.203 521.207C88.0061 517.098 75.33 511.991 76.0103 504.815C76.1298 503.556 76.2805 502.39 76.4734 501.31C79.553 507.744 88.1844 512.142 95.3286 515.789C99.4427 517.888 104.103 520.272 104.7 521.823C104.941 522.456 105.145 523.065 105.351 523.644C107.231 529.161 109.012 532.543 121.426 532.46C133.055 532.383 149.214 532.888 155.247 538.076C158.677 541.025 163.469 542.974 168.441 543.446C168.58 543.459 168.72 543.472 168.859 543.485C174.818 543.949 180.729 542.363 185.964 538.894C196.038 532.212 201.636 531.278 213.185 534.377C215.881 535.1 217.996 535.911 219.858 536.637C226.124 539.051 229.915 540.519 241.968 533.435C247.089 530.422 251.37 527.472 255.146 524.871C262.374 519.892 268.077 515.948 275.392 514.506C284.828 512.645 295.799 502.113 298.371 494.71L300.265 497.533C299.784 500.06 297.218 510.159 284.045 515.591Z" fill="#191D2F"/>
<path d="M62.5184 408.638C61.0249 407.531 57.7424 406.63 46.5436 411.496C35.7643 416.179 27.0011 426.321 26.609 434.592C26.4315 438.266 27.9931 441.201 30.9928 442.858C32.9993 443.963 34.7703 444.477 36.3247 444.624C38.4371 444.825 40.1215 444.344 41.3352 443.737C45.3234 441.756 48.1509 436.746 49.3096 429.616C49.473 428.634 49.6059 427.762 49.7213 426.97C50.2125 423.803 50.4785 422.059 51.0517 421.208C51.5429 420.482 52.542 420.017 54.9561 418.945L55.5019 418.701C61.6206 415.987 63.3997 415.037 63.76 411.237C63.8387 410.513 63.5514 409.407 62.5184 408.638ZM54.1658 415.616L53.62 415.859C47.7856 418.438 47.566 419.057 46.4223 426.454C46.298 427.235 46.165 428.107 46.0125 429.079C45.0473 435.018 42.8153 439.26 39.8719 440.72C37.846 441.728 35.3987 441.455 32.5896 439.908C30.7069 438.875 29.8155 437.143 29.9314 434.754C30.2258 428.681 37.1522 419.25 47.8479 414.6C55.3031 411.361 58.5091 411.055 59.7845 411.176C60.0934 411.205 60.2889 411.264 60.4056 411.306C60.2458 412.674 59.7705 413.127 54.1658 415.616Z" fill="#191D2F"/>
<path d="M39.9232 386.524C43.9905 385.404 47.0377 386.242 50.5656 387.207C51.3693 387.426 52.1919 387.657 53.0274 387.858C53.7642 388.039 56.0144 388.588 57.0476 386.917C58.0817 385.235 56.6425 383.024 55.6876 381.856C53.2733 378.902 45.7729 376.36 37.0344 375.532C30.468 374.909 26.7399 377.647 25.4413 380.422C24.2818 382.895 24.7911 385.689 26.7803 387.718C28.1285 389.087 29.3908 389.664 30.6064 389.779C32.4099 389.95 34.0988 389.104 35.7459 388.273C36.9416 387.644 38.3134 386.961 39.9232 386.524ZM29.1393 385.318C28.1401 384.298 27.888 383.034 28.443 381.846C29.2233 380.191 31.8546 378.417 36.7072 378.877C46.3525 379.791 51.8864 382.502 53.1115 384.001C53.2376 384.156 53.3618 384.33 53.4761 384.504C52.7792 384.326 52.1031 384.14 51.436 383.965C47.7815 382.957 43.9885 381.926 39.0446 383.278C37.1144 383.807 35.5309 384.602 34.2536 385.244C31.4982 386.63 30.7065 386.921 29.1393 385.318Z" fill="#191D2F"/>
<path d="M91.7269 389.951C93.4659 390.116 94.9663 389.293 95.0781 388.113C95.19 386.933 93.871 385.842 92.1321 385.678C90.3931 385.513 88.8927 386.336 88.7808 387.516C88.6689 388.696 89.9879 389.786 91.7269 389.951Z" fill="#191D2F"/>
<path d="M100.07 386.674C101.809 386.839 103.31 386.016 103.422 384.836C103.534 383.656 102.215 382.566 100.476 382.401C98.7366 382.236 97.2362 383.059 97.1243 384.239C97.0124 385.419 98.3314 386.509 100.07 386.674Z" fill="#191D2F"/>
<path d="M108.413 383.408C110.152 383.573 111.652 382.75 111.764 381.57C111.876 380.39 110.557 379.299 108.818 379.135C107.079 378.97 105.579 379.793 105.467 380.973C105.355 382.153 106.674 383.243 108.413 383.408Z" fill="#191D2F"/>
</g>
<path d="M293.908 604.787L6.67477 577.554L38.3477 243.501L325.581 270.734L293.908 604.787ZM8.36893 576.152L292.507 603.092L323.887 272.136L39.7482 245.196L8.36893 576.152Z" fill="#2A46FC"/>
<path d="M331.097 266.727L319.368 265.614L318.256 277.352L329.984 278.464L331.097 266.727Z" fill="white"/>
<path d="M330.686 279.296L317.41 278.037L318.67 264.751L331.946 266.01L330.686 279.296ZM319.12 276.637L329.301 277.602L330.267 267.413L320.086 266.448L319.12 276.637Z" fill="#2A46FC"/>
<path d="M299.629 598.627L287.9 597.515L286.787 609.253L298.516 610.365L299.629 598.627Z" fill="white"/>
<path d="M299.216 611.212L285.94 609.953L287.199 596.667L300.476 597.926L299.216 611.212ZM287.649 608.553L297.831 609.518L298.797 599.329L288.615 598.364L287.649 608.553Z" fill="#2A46FC"/>
<path d="M45.4117 239.64L33.6829 238.527L32.57 250.265L44.2988 251.377L45.4117 239.64Z" fill="white"/>
<path d="M45.0004 252.209L31.7242 250.95L32.9839 237.664L46.2601 238.923L45.0004 252.209ZM33.4184 249.549L43.5999 250.514L44.5659 240.325L34.3844 239.36L33.4184 249.549Z" fill="#2A46FC"/>
<path d="M13.9427 571.54L2.21387 570.428L1.10099 582.165L12.8298 583.278L13.9427 571.54Z" fill="white"/>
<path d="M13.5304 584.125L0.254224 582.866L1.51392 569.58L14.7901 570.839L13.5304 584.125ZM1.94838 581.465L12.1299 582.43L13.0959 572.241L2.91444 571.276L1.94838 581.465Z" fill="#2A46FC"/>
<path d="M188.419 250.74L186.865 250.727L186.836 254.311L188.39 254.323L188.419 250.74Z" fill="#2A46FC"/>
<path d="M188.459 245.891L186.905 245.878L186.965 238.616L188.519 238.628L188.459 245.891ZM188.559 233.803L187.005 233.79L187.064 226.528L188.619 226.541L188.559 233.803ZM188.658 221.715L187.104 221.702L187.164 214.44L188.718 214.453L188.658 221.715ZM188.758 209.627L187.204 209.615L187.263 202.352L188.818 202.365L188.758 209.627ZM188.857 197.54L187.303 197.527L187.363 190.265L188.917 190.278L188.857 197.54ZM188.957 185.452L187.403 185.439L187.463 178.177L189.017 178.19L188.957 185.452ZM189.057 173.34L187.502 173.328L187.562 166.065L189.117 166.078L189.057 173.34ZM189.156 161.253L187.602 161.24L187.662 153.978L189.216 153.991L189.156 161.253ZM189.256 149.165L187.702 149.152L187.761 141.914L189.315 141.927L189.256 149.165ZM189.355 137.077L187.801 137.064L187.861 129.802L189.415 129.815L189.355 137.077ZM189.455 124.99L187.901 124.977L187.96 117.715L189.515 117.727L189.455 124.99ZM189.554 112.902L188 112.889L188.06 105.627L189.614 105.64L189.554 112.902ZM189.654 100.814L188.1 100.801L188.16 93.5391L189.714 93.5519L189.654 100.814ZM189.753 88.7264L188.199 88.7136L188.259 81.4514L189.813 81.4642L189.753 88.7264ZM189.853 76.6387L188.299 76.6259L188.359 69.3637L189.913 69.3765L189.853 76.6387ZM189.953 64.551L188.398 64.5382L188.458 57.276L190.012 57.2888L189.953 64.551ZM190.052 52.4394L188.498 52.4266L188.558 45.1644L190.112 45.1772L190.052 52.4394ZM190.152 40.3516L188.598 40.3388L188.657 33.0767L190.212 33.0895L190.152 40.3516ZM190.251 28.2639L188.697 28.2511L188.757 21.0128L190.311 21.0256L190.251 28.2639ZM190.351 16.1762L188.797 16.1634L188.856 8.90123L190.411 8.91403L190.351 16.1762Z" fill="#2A46FC"/>
<path d="M190.48 0.505184L188.926 0.492386L188.897 4.0757L190.451 4.0885L190.48 0.505184Z" fill="#2A46FC"/>
<path d="M180.686 631.784L93.0293 623.473C91.7759 623.354 90.8516 622.236 90.9705 620.981L93.0979 598.544C93.2168 597.29 94.335 596.364 95.5883 596.483L183.245 604.794C184.499 604.913 185.423 606.032 185.304 607.286L183.177 629.724C183.073 630.979 181.955 631.905 180.686 631.784Z" fill="#2A46FC"/>
<path d="M98.8786 607.56C98.9551 607.083 99.1074 606.629 99.3637 606.231C99.6045 605.832 99.9182 605.487 100.32 605.197C100.707 604.906 101.164 604.699 101.677 604.56C102.189 604.421 102.755 604.381 103.359 604.438C103.931 604.493 104.464 604.637 104.925 604.884C105.402 605.116 105.795 605.419 106.136 605.78C106.476 606.14 106.719 606.538 106.879 606.991C107.041 607.428 107.091 607.886 107.049 608.335C107.006 608.784 106.89 609.179 106.689 609.488C106.488 609.797 106.276 610.058 106.055 610.256C105.784 610.48 105.501 610.657 105.191 610.799C105.546 611.005 105.865 611.269 106.132 611.576C106.372 611.848 106.558 612.194 106.738 612.602C106.901 613.024 106.962 613.529 106.908 614.102C106.862 614.582 106.71 615.037 106.468 615.451C106.225 615.866 105.895 616.225 105.492 616.515C105.09 616.805 104.6 617.039 104.056 617.175C103.512 617.311 102.898 617.362 102.248 617.301C101.599 617.239 101.019 617.091 100.511 616.855C100.002 616.619 99.5787 616.313 99.2367 615.968C98.8962 615.608 98.6374 615.209 98.4759 614.771C98.3144 614.334 98.2346 613.858 98.2492 613.375L100.168 613.557C100.177 613.792 100.218 614.015 100.321 614.243C100.425 614.472 100.562 614.672 100.762 614.863C100.947 615.053 101.182 615.215 101.465 615.352C101.749 615.488 102.07 615.565 102.41 615.598C103.184 615.671 103.791 615.525 104.245 615.178C104.7 614.83 104.962 614.371 105.015 613.813C105.068 613.256 104.896 612.755 104.515 612.329C104.134 611.902 103.548 611.659 102.79 611.587L101.893 611.502L102.056 609.783L102.86 609.859C103.51 609.921 104.053 609.801 104.458 609.48C104.861 609.174 105.088 608.758 105.137 608.247C105.189 607.69 105.048 607.208 104.71 606.816C104.373 606.425 103.863 606.205 103.213 606.143C102.563 606.081 102.021 606.202 101.6 606.521C101.181 606.825 100.923 607.238 100.813 607.744L98.8786 607.56Z" fill="white"/>
<path d="M112.273 618.283C111.638 618.222 111.076 618.06 110.555 617.792C110.034 617.523 109.599 617.17 109.251 616.73C108.886 616.29 108.62 615.811 108.437 615.263C108.255 614.714 108.2 614.147 108.257 613.543C108.292 613.171 108.389 612.805 108.55 612.43C108.709 612.07 108.88 611.743 109.063 611.463C109.266 611.138 109.499 610.817 109.76 610.529L113.793 605.537L115.898 605.737L112.681 609.697C112.744 609.687 112.839 609.681 112.933 609.674C112.996 609.664 113.091 609.658 113.185 609.651C113.295 609.646 113.387 609.654 113.496 609.665C114.022 609.715 114.522 609.871 114.981 610.134C115.44 610.396 115.844 610.747 116.178 611.185C116.511 611.622 116.762 612.099 116.929 612.646C117.096 613.193 117.167 613.763 117.109 614.366C117.052 614.97 116.891 615.518 116.609 616.022C116.327 616.526 115.973 616.962 115.534 617.311C115.094 617.675 114.6 617.941 114.054 618.108C113.507 618.275 112.892 618.341 112.273 618.283ZM110.162 613.708C110.126 614.079 110.155 614.441 110.248 614.778C110.34 615.115 110.5 615.412 110.711 615.65C110.921 615.905 111.168 616.1 111.465 616.269C111.761 616.437 112.08 616.53 112.42 616.562C112.761 616.595 113.107 616.565 113.414 616.453C113.721 616.342 114.016 616.198 114.27 615.988C114.524 615.777 114.719 615.53 114.89 615.218C115.044 614.905 115.138 614.57 115.175 614.183C115.212 613.796 115.182 613.449 115.089 613.112C114.996 612.776 114.837 612.479 114.625 612.24C114.415 611.986 114.168 611.791 113.872 611.622C113.576 611.453 113.257 611.361 112.916 611.328C112.576 611.296 112.23 611.326 111.923 611.437C111.615 611.549 111.321 611.693 111.067 611.903C110.812 612.113 110.617 612.36 110.447 612.672C110.291 613.001 110.197 613.336 110.162 613.708Z" fill="white"/>
<path d="M126.425 617.703L126.254 619.514L118.115 618.743L118.248 617.334L123.792 612.375C124.048 612.15 124.273 611.921 124.466 611.689C124.643 611.472 124.806 611.237 124.955 610.986C125.103 610.734 125.192 610.461 125.218 610.183C125.271 609.625 125.129 609.143 124.776 608.75C124.423 608.357 123.898 608.136 123.186 608.068C122.536 608.006 121.975 608.156 121.533 608.536C121.092 608.916 120.825 609.422 120.763 610.073L118.845 609.891C118.899 609.318 119.043 608.785 119.29 608.324C119.521 607.861 119.839 607.47 120.227 607.163C120.616 606.856 121.074 606.634 121.603 606.481C122.132 606.343 122.715 606.289 123.349 606.349C123.983 606.409 124.532 606.555 125.025 606.789C125.518 607.024 125.926 607.328 126.251 607.687C126.575 608.061 126.816 608.475 126.958 608.957C127.1 609.439 127.162 609.929 127.113 610.456C127.074 610.858 126.943 611.252 126.719 611.637C126.496 612.022 126.261 612.359 125.999 612.647C125.702 612.978 125.359 613.305 125.003 613.599L121.025 617.191L126.425 617.703Z" fill="white"/>
<path d="M158.74 620.048L157.332 619.914L157.094 622.423L155.175 622.241L155.413 619.732L149.781 619.198L149.933 617.588L156.082 609.547L158.295 609.756L157.502 618.118L158.91 618.252L158.74 620.048ZM155.6 617.922L156.126 612.379L152.18 617.598L155.6 617.922Z" fill="white"/>
<path d="M165.041 610.396L163.839 623.078L161.92 622.896L162.874 612.831L161.066 613.785L160.313 612.182L163.741 610.273L165.041 610.396Z" fill="white"/>
<path d="M171.581 610.907C172.215 610.967 172.778 611.13 173.299 611.398C173.82 611.666 174.255 612.019 174.603 612.459C174.952 612.898 175.234 613.378 175.416 613.926C175.599 614.475 175.654 615.043 175.597 615.647C175.56 616.034 175.463 616.399 175.304 616.759C175.145 617.119 174.975 617.431 174.792 617.711C174.59 618.035 174.356 618.357 174.096 618.629L170.062 623.637L167.957 623.437L171.174 619.477C171.11 619.502 171.031 619.51 170.936 619.517C170.873 619.526 170.78 619.518 170.686 619.524C170.578 619.514 170.468 619.519 170.359 619.509C169.833 619.459 169.333 619.302 168.874 619.04C168.415 618.778 168.011 618.427 167.678 617.989C167.345 617.551 167.093 617.074 166.911 616.526C166.744 615.979 166.673 615.41 166.731 614.806C166.788 614.202 166.949 613.655 167.231 613.15C167.513 612.646 167.866 612.211 168.306 611.862C168.746 611.497 169.24 611.232 169.786 611.065C170.364 610.901 170.962 610.848 171.581 610.907ZM173.694 615.466C173.729 615.094 173.701 614.732 173.608 614.396C173.515 614.059 173.356 613.762 173.144 613.523C172.934 613.269 172.687 613.074 172.391 612.905C172.094 612.737 171.775 612.644 171.435 612.611C171.095 612.579 170.748 612.609 170.441 612.72C170.118 612.83 169.839 612.976 169.585 613.186C169.331 613.396 169.136 613.643 168.966 613.955C168.811 614.269 168.717 614.604 168.68 614.991C168.645 615.362 168.673 615.724 168.767 616.046C168.86 616.383 169.021 616.664 169.231 616.918C169.441 617.172 169.687 617.383 169.984 617.536C170.281 617.705 170.6 617.798 170.94 617.83C171.281 617.862 171.627 617.832 171.934 617.721C172.257 617.611 172.536 617.466 172.79 617.255C173.044 617.045 173.241 616.782 173.41 616.486C173.563 616.188 173.657 615.853 173.694 615.466Z" fill="white"/>
<path d="M142.011 611.33L134.991 617.138L135.981 618.337L143.001 612.529L142.011 611.33Z" fill="white"/>
<path d="M136.686 610.836L135.488 611.827L141.29 618.852L142.488 617.861L136.686 610.836Z" fill="white"/>
<rect x="64.5225" y="223.975" width="5.63674" height="5.63674" transform="rotate(50.8133 64.5225 223.975)" fill="#2A46FC"/>
<rect x="63.3806" y="235.19" width="5.63674" height="5.63674" transform="rotate(50.8133 63.3806 235.19)" fill="#2A46FC"/>
<rect x="73.1204" y="234.522" width="5.63674" height="5.63674" transform="rotate(140.813 73.1204 234.522)" fill="#2A46FC"/>
<rect x="61.9053" y="233.381" width="5.63674" height="5.63674" transform="rotate(140.813 61.9053 233.381)" fill="#2A46FC"/>
<defs>
<clipPath id="clip0">
<rect x="37.9282" y="244.588" width="288.354" height="333.758" transform="rotate(5.41625 37.9282 244.588)" fill="white"/>
</clipPath>
</defs>
</svg>
