<svg width="11" height="14" viewBox="0 0 11 14" fill="none" xmlns="http://www.w3.org/2000/svg">
<path d="M3.27039 13.9392C4.53659 13.9392 5.56422 12.9116 5.56422 11.6454V9.35156H3.27039C2.0042 9.35156 0.976562 10.3792 0.976562 11.6454C0.976562 12.9116 2.0042 13.9392 3.27039 13.9392Z" fill="#0ACF83"/>
<path d="M0.976562 7.0575C0.976562 5.79131 2.0042 4.76367 3.27039 4.76367H5.56422V9.35133H3.27039C2.0042 9.35133 0.976562 8.3237 0.976562 7.0575Z" fill="#A259FF"/>
<path d="M0.977539 2.46961C0.977539 1.20342 2.00517 0.175781 3.27137 0.175781H5.5652V4.76344H3.27137C2.00517 4.76344 0.977539 3.7358 0.977539 2.46961Z" fill="#F24E1E"/>
<path d="M5.56445 0.175781H7.85828C9.12448 0.175781 10.1521 1.20342 10.1521 2.46961C10.1521 3.7358 9.12448 4.76344 7.85828 4.76344H5.56445V0.175781Z" fill="#FF7262"/>
<path d="M10.1521 7.0575C10.1521 8.3237 9.12448 9.35133 7.85828 9.35133C6.59209 9.35133 5.56445 8.3237 5.56445 7.0575C5.56445 5.79131 6.59209 4.76367 7.85828 4.76367C9.12448 4.76367 10.1521 5.79131 10.1521 7.0575Z" fill="#1ABCFE"/>
</svg>
