<svg width="197" height="97" viewBox="0 0 197 97" fill="none" xmlns="http://www.w3.org/2000/svg">
<path d="M8.30043 51.094L9.6264 51.0914C10.1543 51.1676 10.4026 51.5375 10.3715 52.2012C10.2892 52.7713 9.54969 53.0418 8.15287 53.0126C7.18966 53.5634 6.63188 54.3666 6.47952 55.4223L6.32868 56.4675C6.41578 58.851 6.96608 60.1159 7.97958 60.2622L8.2963 60.3079C8.8875 60.3932 9.85507 59.9617 11.199 59.0133L11.389 59.0407C11.8113 59.1016 12.1065 59.446 12.2745 60.0738C11.8479 60.939 10.7789 61.6254 9.06754 62.1328C8.75365 62.2168 8.37501 62.2268 7.9316 62.1628C5.7568 61.849 4.58895 59.9345 4.42804 56.4195L4.5286 55.7227C4.88512 53.2523 6.1424 51.7094 8.30043 51.094ZM21.2515 51.7345C22.814 51.96 23.8288 53.2919 24.296 55.7303L24.3267 56.4137C24.0006 58.673 22.6112 60.8327 20.1585 62.8928C19.2011 63.5521 18.2896 63.8194 17.4239 63.6944C16.157 63.5116 15.3648 62.6536 15.0472 61.1205C14.9547 60.4174 14.945 59.8125 15.0181 59.3058L15.073 58.9257C15.5544 55.5896 17.1342 53.2311 19.8122 51.8501C20.265 51.6999 20.7447 51.6614 21.2515 51.7345ZM16.8959 59.5121C16.6887 60.9479 16.9546 61.7191 17.6936 61.8258C19.235 62.0482 20.7973 60.2584 22.3806 56.4562L22.4675 55.8544C22.2975 54.4935 21.7268 53.743 20.7555 53.6028C20.3755 53.548 20.1474 53.7845 20.0712 54.3123C20.0194 54.6713 19.5559 54.8954 18.6809 54.9846C17.7621 56.1238 17.1671 57.6329 16.8959 59.5121ZM31.2136 54.4655C32.987 54.8723 33.7579 55.878 33.5263 57.4828L33.5302 57.9036L32.7538 62.8353C32.6715 63.4054 32.8876 64.2233 33.402 65.289L33.3928 65.3524C33.1356 65.9403 32.7852 66.2023 32.3418 66.1383C31.1119 65.4004 30.625 64.1446 30.8809 62.371L30.9404 61.9593L30.8545 61.8822L30.9678 61.7693L30.9769 61.7059L31.7027 57.3489C31.7911 56.7366 31.5713 56.3923 31.0435 56.3161L30.6634 56.2613C29.5467 56.5312 28.6852 58.7671 28.0788 62.9689C27.8685 64.4258 27.3939 65.1009 26.6549 64.9943C26.0848 64.912 25.841 64.5104 25.9235 63.7895L26.3806 60.6223C26.9717 56.526 27.6263 54.5297 28.3442 54.6333L28.6746 54.584L29.326 54.775C29.9509 54.4772 30.5801 54.374 31.2136 54.4655ZM41.8018 47.264C42.3747 47.476 42.6276 47.8143 42.5606 48.2788L42.1695 49.645L42.11 50.0567C41.976 50.9857 41.9398 51.9828 42.0017 53.0479L42.065 53.057C44.621 52.6715 46.1945 52.5214 46.7857 52.6067C47.3737 52.864 47.6357 53.2143 47.5717 53.6577C47.4681 54.3756 46.6878 54.6295 45.2309 54.4192L41.7679 55.1157C41.3565 57.9662 41.1035 61.8849 41.0089 66.8718C40.7999 67.4236 40.4526 67.6645 39.967 67.5944L39.9037 67.5853C39.1647 67.4786 38.9323 66.4751 39.2065 64.5748C39.1362 63.1205 39.3473 60.0148 39.8398 55.2578L39.2698 55.1755C37.3033 54.7624 36.3779 54.1546 36.4937 53.3523C36.5272 53.12 36.7901 52.8669 37.2822 52.5931L37.599 52.6388L39.001 53.2291L40.0145 53.3754L40.3008 49.3753C40.5202 47.855 41.0205 47.1513 41.8018 47.264ZM55.1855 56.3408C56.1145 56.4749 56.5257 56.9114 56.4191 57.6504L56.0472 58.2111L55.0207 63.9796C54.6428 66.5978 54.9361 68.2998 55.9004 69.0856L55.8952 69.5698C55.7435 70.173 55.4142 70.438 54.9075 70.3649L54.7174 70.3375C53.2893 69.0321 52.7351 67.2709 53.0551 65.0538L52.8334 65.0218C51.6475 67.2648 50.4528 68.2994 49.2493 68.1257C48.1759 67.6475 47.7368 66.7327 47.9318 65.3814C48.3614 62.4042 49.9825 59.6098 52.7951 56.9981C53.6919 56.4593 54.4887 56.2402 55.1855 56.3408ZM50.1099 64.4025L49.8553 65.271L49.7684 65.8728L50.0851 65.9185C52.2386 62.1986 53.3777 59.9058 53.5027 59.0401L53.376 59.0218C51.9533 60.2175 50.8646 62.0111 50.1099 64.4025ZM62.4767 58.9126L63.8026 58.91C64.3305 58.9862 64.5789 59.3561 64.5477 60.0198C64.4655 60.5899 63.7259 60.8604 62.3291 60.8312C61.3659 61.3819 60.8081 62.1852 60.6557 63.2409L60.5049 64.2861C60.592 66.6696 61.1423 67.9345 62.1558 68.0808L62.4725 68.1265C63.0637 68.2118 64.0313 67.7803 65.3752 66.8318L65.5652 66.8593C65.9875 66.9202 66.2827 67.2646 66.4508 67.8924C66.0241 68.7576 64.9551 69.444 63.2438 69.9514C62.9299 70.0354 62.5512 70.0454 62.1078 69.9814C59.933 69.6676 58.7652 67.7531 58.6043 64.2381L58.7048 63.5413C59.0613 61.0709 60.3186 59.528 62.4767 58.9126ZM75.1488 52.0766C75.7217 52.2886 75.9747 52.6269 75.9076 53.0914L75.5165 54.4575L75.4571 54.8693C75.323 55.7983 75.2869 56.7954 75.3487 57.8604L75.412 57.8696C77.968 57.4841 79.5415 57.3339 80.1328 57.4193C80.7207 57.6766 80.9827 58.0269 80.9187 58.4703C80.8151 59.1882 80.0348 59.442 78.5779 59.2318L75.1149 59.9283C74.7036 62.7787 74.4506 66.6974 74.3559 71.6844C74.147 72.2362 73.7997 72.4771 73.314 72.407L73.2507 72.3978C72.5117 72.2912 72.2793 71.2877 72.5535 69.3874C72.4832 67.9331 72.6943 64.8274 73.1869 60.0703L72.6168 59.988C70.6503 59.5749 69.7249 58.9672 69.8407 58.1648C69.8742 57.9326 70.1371 57.6795 70.6293 57.4057L70.946 57.4514L72.348 58.0417L73.3615 58.188L73.6478 54.1878C73.8672 52.6676 74.3675 51.9638 75.1488 52.0766ZM95.841 63.372C96.065 62.8655 96.4409 62.6503 96.9688 62.7265C97.4967 62.8027 97.7689 63.3808 97.7854 64.4609L97.9121 64.4792L99.4147 64.3728C100.09 64.4703 100.654 65.1982 101.104 66.5565L101.231 66.5748C102.37 65.2519 103.425 64.6606 104.397 64.8008C106.411 65.4795 107.251 66.9801 106.915 69.3027L106.819 70.4204L105.61 76.7769L105.524 77.3787C105.447 77.9066 105.076 78.1655 104.409 78.1555C103.755 78.061 103.539 77.2431 103.761 75.7018L104.968 70.024C105.273 67.9125 104.929 66.7852 103.937 66.642C103.367 66.5597 102.481 67.8437 101.28 70.4939C100.421 73.6032 99.8655 75.1396 99.6121 75.103C99.2531 75.0512 99.063 75.0992 99.0417 75.247C98.3993 75.0681 98.1208 74.683 98.2061 74.0918L99.1709 70.3189C99.4885 67.6704 99.415 66.3127 98.9505 66.2457L98.8554 66.2319C98.2697 66.5569 97.8915 67.3106 97.7208 68.4931L97.4786 70.1717L96.6526 74.9992C96.4286 75.5057 96.0632 75.7224 95.5565 75.6493C95.1131 75.5853 94.8813 75.1747 94.8613 74.4174L95.274 70.6618L95.9074 67.6171C96.0092 66.0152 95.9871 64.6002 95.841 63.372ZM113.187 65.5844C114.029 65.7274 115.241 67.4111 116.823 70.6355L116.809 71.1831C116.723 71.7743 115.211 72.0195 112.273 71.9188L112.164 72.0001L112.146 72.1268C112.315 74.0911 112.643 75.1083 113.128 75.1784L113.508 75.2332C114.184 75.3307 115.313 74.7501 116.896 73.4912L117.086 73.5186C117.508 73.5796 117.791 73.933 117.935 74.5788C117.862 75.0856 116.849 75.8339 114.895 76.8236C114.391 77.0311 113.803 77.1509 113.13 77.1832C111.42 76.9363 110.458 75.1595 110.246 71.8525C109.296 71.5646 108.868 71.0933 108.962 70.4387C109.029 69.9742 109.433 69.7199 110.172 69.6757L110.154 69.8024L110.489 69.7214L110.603 68.9296C110.953 66.5014 111.815 65.3863 113.187 65.5844ZM113.048 67.8922L112.763 67.8511L112.467 69.0047L112.326 69.9865L112.452 70.0048C113.641 70.1332 114.25 70.0918 114.281 69.8807C113.851 68.978 113.44 68.3152 113.048 67.8922Z" fill="white"/>
<path d="M8.30043 51.094L8.30003 50.894L8.27228 50.8941L8.24558 50.9017L8.30043 51.094ZM9.6264 51.0914L9.65497 50.8935L9.64056 50.8914L9.62601 50.8914L9.6264 51.0914ZM10.3715 52.2012L10.5695 52.2298L10.5708 52.2202L10.5713 52.2106L10.3715 52.2012ZM8.15287 53.0126L8.15704 52.8127L8.10167 52.8115L8.0536 52.839L8.15287 53.0126ZM6.32868 56.4675L6.13073 56.4389L6.12815 56.4568L6.12881 56.4748L6.32868 56.4675ZM11.199 59.0133L11.2276 58.8153L11.1487 58.8039L11.0837 58.8499L11.199 59.0133ZM12.2745 60.0738L12.4539 60.1622L12.4872 60.0947L12.4677 60.022L12.2745 60.0738ZM9.06754 62.1328L9.11928 62.3261L9.1244 62.3245L9.06754 62.1328ZM4.42804 56.4195L4.23009 56.3909L4.22738 56.4097L4.22825 56.4287L4.42804 56.4195ZM8.30083 51.294L9.6268 51.2914L9.62601 50.8914L8.30003 50.894L8.30083 51.294ZM9.59783 51.2894C9.81778 51.3211 9.95606 51.4087 10.0425 51.5375C10.1336 51.6732 10.1862 51.8828 10.1717 52.1918L10.5713 52.2106C10.5879 51.8559 10.5319 51.5488 10.3746 51.3145C10.2127 51.0734 9.96289 50.9379 9.65497 50.8935L9.59783 51.2894ZM10.1736 52.1726C10.1467 52.3587 10.0161 52.5232 9.68646 52.6438C9.35149 52.7663 8.84681 52.8271 8.15704 52.8127L8.1487 53.2126C8.85575 53.2273 9.41926 53.1674 9.82385 53.0195C10.2337 52.8696 10.514 52.6138 10.5695 52.2298L10.1736 52.1726ZM8.0536 52.839C7.03941 53.4189 6.44313 54.2743 6.28157 55.3937L6.67747 55.4509C6.82062 54.4589 7.33991 53.7078 8.25214 53.1863L8.0536 52.839ZM6.28157 55.3937L6.13073 56.4389L6.52663 56.4961L6.67747 55.4509L6.28157 55.3937ZM6.12881 56.4748C6.17271 57.676 6.33348 58.6174 6.62333 59.2836C6.91538 59.9549 7.35267 60.3738 7.95101 60.4602L8.00814 60.0643C7.59299 60.0043 7.24837 59.7176 6.99012 59.124C6.72968 58.5254 6.57175 57.6425 6.52855 56.4602L6.12881 56.4748ZM7.95101 60.4602L8.26773 60.5059L8.32486 60.11L8.00814 60.0643L7.95101 60.4602ZM8.26773 60.5059C8.61973 60.5567 9.05178 60.4517 9.54684 60.2309C10.0471 60.0078 10.6369 59.6548 11.3143 59.1767L11.0837 58.8499C10.4172 59.3202 9.85119 59.6572 9.38391 59.8656C8.91141 60.0763 8.56407 60.1445 8.32486 60.11L8.26773 60.5059ZM11.1704 59.2112L11.3604 59.2386L11.4176 58.8427L11.2276 58.8153L11.1704 59.2112ZM11.3604 59.2386C11.6652 59.2826 11.9216 59.5289 12.0813 60.1255L12.4677 60.022C12.2913 59.3631 11.9575 58.9206 11.4176 58.8427L11.3604 59.2386ZM12.0952 59.9853C11.7074 60.7718 10.71 61.4372 9.01069 61.941L9.1244 62.3245C10.8478 61.8136 11.9884 61.1062 12.4539 60.1622L12.0952 59.9853ZM9.01582 61.9396C8.73601 62.0145 8.38627 62.0264 7.96017 61.9649L7.90303 62.3608C8.36375 62.4273 8.7713 62.4191 9.11926 62.326L9.01582 61.9396ZM7.96017 61.9649C6.93316 61.8167 6.14897 61.295 5.59535 60.3875C5.03617 59.4708 4.70754 58.1516 4.62783 56.4104L4.22825 56.4287C4.30945 58.2025 4.64519 59.598 5.25387 60.5958C5.8681 61.6027 6.75524 62.1952 7.90303 62.3608L7.96017 61.9649ZM4.62599 56.4481L4.72655 55.7513L4.33065 55.6942L4.23009 56.3909L4.62599 56.4481ZM4.72655 55.7513C4.90094 54.5429 5.2934 53.5761 5.89399 52.8391C6.49355 52.1033 7.31041 51.5843 8.35528 51.2864L8.24558 50.9017C7.13242 51.2191 6.24163 51.7793 5.58391 52.5864C4.92722 53.3923 4.51279 54.4321 4.33065 55.6942L4.72655 55.7513ZM24.296 55.7303L24.4958 55.7214L24.4951 55.7069L24.4924 55.6927L24.296 55.7303ZM24.3267 56.4137L24.5246 56.4423L24.5273 56.4236L24.5265 56.4048L24.3267 56.4137ZM20.1585 62.8928L20.2719 63.0575L20.2798 63.0521L20.2871 63.0459L20.1585 62.8928ZM15.0472 61.1205L14.8489 61.1466L14.8499 61.1539L14.8514 61.1611L15.0472 61.1205ZM19.8122 51.8501L19.7493 51.6603L19.7344 51.6652L19.7206 51.6723L19.8122 51.8501ZM22.3806 56.4562L22.5653 56.5331L22.575 56.5098L22.5786 56.4848L22.3806 56.4562ZM22.4675 55.8544L22.6654 55.883L22.6693 55.8564L22.6659 55.8296L22.4675 55.8544ZM18.6809 54.9847L18.6606 54.7857L18.5776 54.7941L18.5252 54.8591L18.6809 54.9847ZM21.2229 51.9325C22.6558 52.1392 23.6377 53.3574 24.0995 55.768L24.4924 55.6927C24.0199 53.2265 22.9721 51.7807 21.2801 51.5366L21.2229 51.9325ZM24.0962 55.7393L24.1269 56.4227L24.5265 56.4048L24.4958 55.7214L24.0962 55.7393ZM24.1287 56.3852C23.8121 58.5793 22.4601 60.6984 20.0298 62.7396L20.2871 63.0459C22.7623 60.9669 24.1891 58.7667 24.5246 56.4423L24.1287 56.3852ZM20.045 62.7281C19.1152 63.3685 18.2538 63.6121 17.4525 63.4965L17.3954 63.8924C18.3254 64.0266 19.2871 63.7358 20.2719 63.0575L20.045 62.7281ZM17.4525 63.4965C16.8598 63.4109 16.3884 63.1701 16.0265 62.7781C15.6621 62.3834 15.3969 61.8227 15.243 61.08L14.8514 61.1611C15.0151 61.9515 15.3049 62.5862 15.7326 63.0495C16.163 63.5155 16.7211 63.7951 17.3954 63.8924L17.4525 63.4965ZM15.2455 61.0944C15.1545 60.4031 15.1463 59.8175 15.2161 59.3343L14.8202 59.2772C14.7436 59.8075 14.7548 60.4318 14.8489 61.1466L15.2455 61.0944ZM15.2161 59.3343L15.2709 58.9543L14.875 58.8971L14.8202 59.2772L15.2161 59.3343ZM15.2709 58.9543C15.7444 55.6734 17.2908 53.3753 19.9039 52.0279L19.7206 51.6723C16.9776 53.0868 15.3644 55.5059 14.875 58.8971L15.2709 58.9543ZM19.8752 52.0399C20.2964 51.9002 20.7446 51.8634 21.2229 51.9325L21.2801 51.5366C20.7449 51.4593 20.2336 51.4996 19.7493 51.6603L19.8752 52.0399ZM16.6979 59.4835C16.5928 60.212 16.6023 60.8017 16.7508 61.2326C16.8262 61.4511 16.9393 61.6345 17.0965 61.7718C17.2545 61.9099 17.4468 61.9922 17.665 62.0237L17.7222 61.6278C17.5709 61.606 17.4528 61.552 17.3596 61.4706C17.2656 61.3884 17.1866 61.2693 17.129 61.1022C17.0116 60.7618 16.9918 60.248 17.0938 59.5407L16.6979 59.4835ZM17.665 62.0237C18.5332 62.149 19.3711 61.6994 20.1721 60.7817C20.9741 59.8628 21.7705 58.4417 22.5653 56.5331L22.196 56.3793C21.4075 58.2728 20.631 59.6477 19.8707 60.5187C19.1094 61.3909 18.3954 61.725 17.7222 61.6278L17.665 62.0237ZM22.5786 56.4848L22.6654 55.883L22.2695 55.8259L22.1827 56.4276L22.5786 56.4848ZM22.6659 55.8296C22.5784 55.1291 22.3854 54.5631 22.0712 54.1498C21.7527 53.7309 21.3193 53.4821 20.7841 53.4049L20.727 53.8008C21.163 53.8637 21.5006 54.0603 21.7528 54.3919C22.0092 54.7292 22.1865 55.2189 22.269 55.8792L22.6659 55.8296ZM20.7841 53.4049C20.5427 53.37 20.3221 53.4274 20.1555 53.6002C19.9992 53.7622 19.9139 54.002 19.8732 54.2838L20.2691 54.3409C20.3046 54.0948 20.3715 53.9524 20.4434 53.8779C20.5048 53.8142 20.5884 53.7808 20.727 53.8008L20.7841 53.4049ZM19.8732 54.2838C19.8604 54.3724 19.7967 54.4734 19.5977 54.5696C19.3967 54.6668 19.089 54.742 18.6606 54.7857L18.7012 55.1836C19.1479 55.1381 19.5094 55.0566 19.7718 54.9297C20.0363 54.8018 20.2301 54.6112 20.2691 54.3409L19.8732 54.2838ZM18.5252 54.8591C17.5781 56.0333 16.9728 57.5791 16.6979 59.4835L17.0938 59.5407C17.3614 57.6867 17.9461 56.2142 18.8366 55.1102L18.5252 54.8591ZM31.2136 54.4655L31.2583 54.2705L31.2503 54.2687L31.2421 54.2675L31.2136 54.4655ZM33.5263 57.4828L33.3283 57.4542L33.3262 57.4693L33.3263 57.4846L33.5263 57.4828ZM33.5302 57.9036L33.7278 57.9347L33.7304 57.9183L33.7302 57.9018L33.5302 57.9036ZM32.7538 62.8353L32.5562 62.8042L32.5559 62.8067L32.7538 62.8353ZM33.402 65.289L33.5999 65.3176L33.6087 65.2571L33.5821 65.2021L33.402 65.289ZM33.3928 65.3524L33.5761 65.4326L33.5869 65.4078L33.5908 65.381L33.3928 65.3524ZM32.3418 66.1383L32.2389 66.3098L32.2734 66.3305L32.3132 66.3363L32.3418 66.1383ZM30.9404 61.9593L31.1383 61.9879L31.1536 61.8819L31.0739 61.8104L30.9404 61.9593ZM30.8545 61.8822L30.7133 61.7406L30.5636 61.8899L30.7209 62.0311L30.8545 61.8822ZM30.9678 61.7693L31.109 61.9109L31.1562 61.8638L31.1657 61.7978L30.9678 61.7693ZM30.9769 61.7059L30.7796 61.673L30.779 61.6773L30.9769 61.7059ZM31.7027 57.3489L31.9 57.3818L31.9007 57.3775L31.7027 57.3489ZM30.6634 56.2613L30.692 56.0633L30.6539 56.0578L30.6164 56.0669L30.6634 56.2613ZM25.9235 63.7895L25.7255 63.7609L25.7248 63.7667L25.9235 63.7895ZM28.3442 54.6333L28.3156 54.8313L28.3446 54.8355L28.3737 54.8311L28.3442 54.6333ZM28.6746 54.584L28.7309 54.3921L28.6886 54.3797L28.6451 54.3862L28.6746 54.584ZM29.326 54.775L29.2697 54.9669L29.343 54.9884L29.412 54.9556L29.326 54.775ZM31.1688 54.6604C32.0295 54.8578 32.616 55.1938 32.9631 55.6466C33.3072 56.0956 33.4387 56.6895 33.3283 57.4542L33.7242 57.5113C33.8455 56.6713 33.7073 55.96 33.2805 55.4032C32.8567 54.8502 32.171 54.4799 31.2583 54.2705L31.1688 54.6604ZM33.3263 57.4846L33.3302 57.9055L33.7302 57.9018L33.7263 57.4809L33.3263 57.4846ZM33.3326 57.8725L32.5563 62.8042L32.9514 62.8664L33.7278 57.9347L33.3326 57.8725ZM32.5559 62.8067C32.4645 63.4402 32.7051 64.3052 33.2219 65.376L33.5821 65.2021C33.0701 64.1414 32.8786 63.3706 32.9518 62.8639L32.5559 62.8067ZM33.204 65.2605L33.1949 65.3238L33.5908 65.381L33.5999 65.3176L33.204 65.2605ZM33.2096 65.2722C33.0888 65.5483 32.9548 65.7269 32.8173 65.8297C32.6858 65.928 32.541 65.965 32.3704 65.9404L32.3132 66.3363C32.586 66.3756 32.8381 66.3136 33.0569 66.15C33.2698 65.9908 33.4396 65.7444 33.5761 65.4326L33.2096 65.2722ZM32.4447 65.9668C31.8652 65.6191 31.467 65.1544 31.2407 64.5708C31.0131 63.9838 30.9542 63.2632 31.0789 62.3996L30.683 62.3424C30.5517 63.2524 30.6083 64.0465 30.8677 64.7154C31.1283 65.3875 31.5885 65.9196 32.2389 66.3098L32.4447 65.9668ZM31.0789 62.3996L31.1383 61.9879L30.7424 61.9307L30.683 62.3424L31.0789 62.3996ZM31.0739 61.8104L30.9881 61.7334L30.7209 62.0311L30.8068 62.1081L31.0739 61.8104ZM30.9957 62.0239L31.109 61.9109L30.8266 61.6276L30.7133 61.7406L30.9957 62.0239ZM31.1657 61.7978L31.1749 61.7345L30.779 61.6773L30.7698 61.7407L31.1657 61.7978ZM31.1742 61.7388L31.9 57.3818L31.5054 57.316L30.7796 61.673L31.1742 61.7388ZM31.9007 57.3775C31.9483 57.0474 31.9188 56.7527 31.7728 56.5239C31.6226 56.2887 31.3748 56.1619 31.072 56.1182L31.0149 56.5141C31.24 56.5466 31.366 56.63 31.4356 56.7391C31.5093 56.8545 31.5455 57.0381 31.5048 57.3203L31.9007 57.3775ZM31.072 56.1182L30.692 56.0633L30.6348 56.4592L31.0149 56.5141L31.072 56.1182ZM30.6164 56.0669C30.2796 56.1483 29.9811 56.3735 29.7168 56.7084C29.4525 57.0432 29.2125 57.4994 28.9931 58.0687C28.5544 59.2074 28.1848 60.8341 27.8809 62.9403L28.2768 62.9975C28.5792 60.9019 28.9436 59.3098 29.3664 58.2126C29.5778 57.6639 29.8004 57.248 30.0307 56.9563C30.2609 56.6647 30.4889 56.5092 30.7104 56.4557L30.6164 56.0669ZM27.8809 62.9403C27.7772 63.6585 27.6117 64.154 27.4015 64.4529C27.2983 64.5997 27.1884 64.6934 27.0748 64.7466C26.9624 64.7992 26.8342 64.8181 26.6835 64.7963L26.6263 65.1922C26.8451 65.2238 27.0534 65.1983 27.2444 65.1088C27.4342 65.0199 27.5946 64.8737 27.7287 64.6829C27.9932 64.3067 28.1701 63.7362 28.2768 62.9975L27.8809 62.9403ZM26.6835 64.7963C26.4429 64.7616 26.2994 64.6658 26.2154 64.5276C26.1261 64.3804 26.0834 64.1512 26.1222 63.8122L25.7248 63.7667C25.6811 64.1486 25.719 64.4807 25.8735 64.7352C26.0334 64.9985 26.2968 65.1447 26.6263 65.1922L26.6835 64.7963ZM26.1214 63.818L26.5785 60.6508L26.1826 60.5937L25.7255 63.7609L26.1214 63.818ZM26.5785 60.6508C26.8737 58.6054 27.1832 57.0963 27.5049 56.1152C27.6663 55.6227 27.8262 55.2782 27.9795 55.0668C28.1361 54.8509 28.2478 54.8215 28.3156 54.8313L28.3727 54.4354C28.0816 54.3934 27.8423 54.5747 27.6557 54.832C27.4659 55.0937 27.2906 55.4848 27.1248 55.9905C26.7919 57.0057 26.4786 58.5429 26.1826 60.5937L26.5785 60.6508ZM28.3737 54.8311L28.7041 54.7818L28.6451 54.3862L28.3146 54.4355L28.3737 54.8311ZM28.6183 54.7759L29.2697 54.9669L29.3823 54.5831L28.7309 54.3921L28.6183 54.7759ZM29.412 54.9556C30.0044 54.6733 30.5938 54.5781 31.185 54.6634L31.2421 54.2675C30.5664 54.17 29.8975 54.2812 29.24 54.5945L29.412 54.9556ZM41.8018 47.264L41.8712 47.0765L41.8513 47.0691L41.8303 47.0661L41.8018 47.264ZM42.5606 48.2788L42.7529 48.3339L42.7566 48.3208L42.7585 48.3074L42.5606 48.2788ZM42.1695 49.645L41.9772 49.5899L41.9734 49.603L41.9715 49.6164L42.1695 49.645ZM42.0017 53.0479L41.802 53.0595L41.8115 53.2225L41.9731 53.2458L42.0017 53.0479ZM42.065 53.057L42.0364 53.255L42.0657 53.2592L42.0948 53.2548L42.065 53.057ZM46.7857 52.6067L46.8659 52.4235L46.8411 52.4126L46.8143 52.4088L46.7857 52.6067ZM45.2309 54.4192L45.2595 54.2212L45.2253 54.2163L45.1915 54.2231L45.2309 54.4192ZM41.7679 55.1157L41.7285 54.9196L41.5901 54.9474L41.57 55.0871L41.7679 55.1157ZM41.0089 66.8718L41.1959 66.9427L41.2082 66.9103L41.2089 66.8756L41.0089 66.8718ZM39.2065 64.5748L39.4045 64.6034L39.4072 64.5844L39.4063 64.5652L39.2065 64.5748ZM39.8398 55.2578L40.0388 55.2783L40.0586 55.0872L39.8684 55.0598L39.8398 55.2578ZM39.2698 55.1755L39.2285 55.3716L39.2412 55.3734L39.2698 55.1755ZM37.2822 52.5931L37.3108 52.3952L37.244 52.3855L37.185 52.4183L37.2822 52.5931ZM37.599 52.6388L37.6766 52.4545L37.6529 52.4445L37.6275 52.4409L37.599 52.6388ZM39.001 53.2291L38.9234 53.4135L38.947 53.4234L38.9724 53.4271L39.001 53.2291ZM40.0145 53.3754L39.9859 53.5733L40.1987 53.604L40.214 53.3897L40.0145 53.3754ZM40.3008 49.3753L40.1029 49.3467L40.1018 49.3538L40.1013 49.361L40.3008 49.3753ZM41.7324 47.4516C41.998 47.5499 42.1658 47.6691 42.261 47.7965C42.352 47.9182 42.3895 48.0641 42.3627 48.2502L42.7585 48.3074C42.7987 48.029 42.7432 47.7735 42.5813 47.557C42.4236 47.3461 42.1785 47.1902 41.8712 47.0765L41.7324 47.4516ZM42.3683 48.2238L41.9772 49.5899L42.3617 49.7L42.7529 48.3339L42.3683 48.2238ZM41.9715 49.6164L41.9121 50.0281L42.308 50.0853L42.3674 49.6735L41.9715 49.6164ZM41.9121 50.0281C41.7758 50.9721 41.7395 51.9828 41.802 53.0595L42.2013 53.0363C42.1402 51.9828 42.1761 50.9993 42.308 50.0853L41.9121 50.0281ZM41.9731 53.2458L42.0364 53.255L42.0936 52.8591L42.0302 52.8499L41.9731 53.2458ZM42.0948 53.2548C43.3712 53.0623 44.3995 52.9289 45.1811 52.8544C45.9698 52.7792 46.4884 52.7659 46.7572 52.8047L46.8143 52.4088C46.4918 52.3622 45.9281 52.3813 45.1432 52.4562C44.3512 52.5317 43.3148 52.6662 42.0352 52.8593L42.0948 53.2548ZM46.7056 52.7899C46.9816 52.9107 47.1602 53.0447 47.263 53.1822C47.3614 53.3138 47.3983 53.4586 47.3737 53.6292L47.7696 53.6863C47.809 53.4135 47.747 53.1614 47.5834 52.9427C47.4242 52.7298 47.1778 52.56 46.8659 52.4235L46.7056 52.7899ZM47.3737 53.6292C47.3529 53.7734 47.3 53.8857 47.2191 53.9746C47.1372 54.0647 47.0171 54.141 46.8469 54.1963C46.5007 54.309 45.978 54.3249 45.2595 54.2212L45.2023 54.6171C45.9407 54.7237 46.5366 54.7179 46.9706 54.5767C47.1906 54.5052 47.376 54.3965 47.515 54.2437C47.6552 54.0897 47.7386 53.901 47.7696 53.6863L47.3737 53.6292ZM45.1915 54.2231L41.7285 54.9196L41.8073 55.3118L45.2703 54.6153L45.1915 54.2231ZM41.57 55.0871C41.1568 57.9496 40.9036 61.8778 40.8089 66.868L41.2089 66.8756C41.3034 61.8919 41.5562 57.9827 41.9659 55.1443L41.57 55.0871ZM40.8219 66.801C40.7262 67.0536 40.6073 67.2121 40.4777 67.302C40.3523 67.389 40.197 67.4255 39.9956 67.3965L39.9384 67.7924C40.2227 67.8334 40.4838 67.7845 40.7057 67.6307C40.9234 67.4797 41.0826 67.2419 41.1959 66.9427L40.8219 66.801ZM39.9956 67.3965L39.9322 67.3873L39.8751 67.7832L39.9384 67.7924L39.9956 67.3965ZM39.9322 67.3873C39.7941 67.3674 39.6845 67.3078 39.5949 67.2054C39.502 67.0993 39.4234 66.9384 39.37 66.7075C39.2623 66.2426 39.2684 65.5465 39.4045 64.6034L39.0086 64.5463C38.8704 65.5035 38.8556 66.2592 38.9803 66.7978C39.043 67.0687 39.1439 67.2974 39.2939 67.4688C39.4472 67.644 39.6437 67.7498 39.8751 67.7832L39.9322 67.3873ZM39.4063 64.5652C39.3368 63.1289 39.5459 60.039 40.0388 55.2783L39.6409 55.2372C39.1487 59.9907 38.9356 63.1122 39.0068 64.5845L39.4063 64.5652ZM39.8684 55.0598L39.2983 54.9775L39.2412 55.3734L39.8113 55.4557L39.8684 55.0598ZM39.3109 54.9797C38.3355 54.7748 37.6418 54.5258 37.2107 54.2427C36.785 53.9631 36.6489 53.6769 36.6917 53.3808L36.2958 53.3237C36.2227 53.8299 36.4914 54.2488 36.9911 54.577C37.4853 54.9016 38.2375 55.163 39.2286 55.3712L39.3109 54.9797ZM36.6917 53.3808C36.6994 53.3272 36.7386 53.2441 36.8547 53.1324C36.9689 53.0224 37.1413 52.9004 37.3795 52.7679L37.185 52.4183C36.931 52.5596 36.7259 52.7011 36.5773 52.8442C36.4305 52.9855 36.3215 53.1451 36.2958 53.3237L36.6917 53.3808ZM37.2537 52.7911L37.5704 52.8368L37.6275 52.4409L37.3108 52.3952L37.2537 52.7911ZM37.5213 52.8231L38.9234 53.4135L39.0786 53.0448L37.6766 52.4545L37.5213 52.8231ZM38.9724 53.4271L39.9859 53.5733L40.0431 53.1774L39.0296 53.0312L38.9724 53.4271ZM40.214 53.3897L40.5003 49.3896L40.1013 49.361L39.815 53.3611L40.214 53.3897ZM40.4988 49.4038C40.6069 48.6542 40.7811 48.1361 41.0036 47.8232C41.113 47.6693 41.2301 47.5705 41.3523 47.5142C41.4733 47.4583 41.6114 47.4386 41.7732 47.462L41.8303 47.0661C41.6015 47.033 41.3841 47.059 41.1848 47.1509C40.9865 47.2424 40.8184 47.3933 40.6776 47.5914C40.3998 47.9822 40.2141 48.5761 40.1029 49.3467L40.4988 49.4038ZM56.4191 57.6504L56.5857 57.761L56.6106 57.7235L56.617 57.679L56.4191 57.6504ZM56.0472 58.2111L55.8805 58.1005L55.8576 58.1351L55.8503 58.176L56.0472 58.2111ZM55.0207 63.9796L54.8237 63.9445L54.8227 63.951L55.0207 63.9796ZM55.9004 69.0856L56.1004 69.0878L56.1014 68.9914L56.0267 68.9306L55.9004 69.0856ZM55.8952 69.5698L56.0891 69.6186L56.0949 69.5956L56.0952 69.572L55.8952 69.5698ZM54.7174 70.3375L54.5825 70.4851L54.6279 70.5266L54.6889 70.5354L54.7174 70.3375ZM53.0551 65.0538L53.253 65.0824L53.2816 64.8845L53.0837 64.8559L53.0551 65.0538ZM52.8334 65.0218L52.862 64.8239L52.7225 64.8038L52.6566 64.9284L52.8334 65.0218ZM49.2493 68.1257L49.1679 68.3084L49.1933 68.3197L49.2207 68.3237L49.2493 68.1257ZM52.7951 56.9981L52.6921 56.8267L52.6743 56.8374L52.659 56.8515L52.7951 56.9981ZM50.1099 64.4025L49.9192 64.3423L49.918 64.3462L50.1099 64.4025ZM49.8553 65.271L49.6633 65.2147L49.6593 65.2284L49.6573 65.2424L49.8553 65.271ZM49.7684 65.8728L49.5705 65.8442L49.5419 66.0422L49.7399 66.0707L49.7684 65.8728ZM50.0851 65.9185L50.0566 66.1164L50.1905 66.1358L50.2582 66.0187L50.0851 65.9185ZM53.5027 59.0401L53.7006 59.0687L53.7292 58.8707L53.5312 58.8422L53.5027 59.0401ZM53.376 59.0218L53.4046 58.8239L53.3159 58.8111L53.2473 58.8687L53.376 59.0218ZM55.1569 56.5387C55.6005 56.6028 55.8837 56.7346 56.0451 56.9059C56.1988 57.0691 56.2681 57.2964 56.2211 57.6219L56.617 57.679C56.6767 57.2654 56.5937 56.905 56.3363 56.6316C56.0864 56.3664 55.6995 56.2129 55.2141 56.1428L55.1569 56.5387ZM56.2524 57.5399L55.8805 58.1005L56.2139 58.3216L56.5857 57.761L56.2524 57.5399ZM55.8503 58.176L54.8238 63.9445L55.2176 64.0146L56.2441 58.2461L55.8503 58.176ZM54.8227 63.951C54.6322 65.2711 54.6086 66.3741 54.7601 67.2537C54.9118 68.1338 55.2421 68.8072 55.774 69.2406L56.0267 68.9306C55.5943 68.5782 55.2959 68.0076 55.1543 67.1858C55.0126 66.3634 55.0313 65.3063 55.2186 64.0082L54.8227 63.951ZM55.7004 69.0834L55.6952 69.5677L56.0952 69.572L56.1004 69.0878L55.7004 69.0834ZM55.7012 69.521C55.6312 69.7995 55.5271 69.9701 55.409 70.0652C55.2967 70.1557 55.147 70.1974 54.936 70.1669L54.8789 70.5628C55.1747 70.6055 55.443 70.5513 55.6599 70.3768C55.871 70.2068 56.0075 69.9433 56.0891 69.6186L55.7012 69.521ZM54.936 70.1669L54.746 70.1395L54.6889 70.5354L54.8789 70.5628L54.936 70.1669ZM54.8524 70.1898C53.4814 68.9367 52.9408 67.2459 53.253 65.0824L52.8571 65.0253C52.5295 67.2959 53.0972 69.1274 54.5825 70.4851L54.8524 70.1898ZM53.0837 64.8559L52.862 64.8239L52.8048 65.2198L53.0265 65.2518L53.0837 64.8559ZM52.6566 64.9284C52.0691 66.0396 51.4878 66.8346 50.917 67.3288C50.3495 67.8203 49.8061 68.004 49.2779 67.9278L49.2207 68.3237C49.896 68.4211 50.5517 68.1744 51.1789 67.6312C51.8029 67.0908 52.4118 66.2471 53.0102 65.1153L52.6566 64.9284ZM49.3307 67.943C48.8301 67.72 48.4911 67.4024 48.2952 66.9944C48.0978 66.5832 48.036 66.0596 48.1297 65.41L47.7338 65.3528C47.6326 66.0545 47.6928 66.6639 47.9346 67.1675C48.1779 67.6743 48.5951 68.0532 49.1679 68.3084L49.3307 67.943ZM48.1297 65.41C48.5512 62.4893 50.1427 59.734 52.9312 57.1447L52.659 56.8515C49.8224 59.4856 48.1716 62.3192 47.7338 65.3528L48.1297 65.41ZM52.8981 57.1695C53.7739 56.6434 54.5233 56.4473 55.1569 56.5387L55.2141 56.1428C54.4541 56.0332 53.6099 56.2753 52.6921 56.8267L52.8981 57.1695ZM49.918 64.3462L49.6633 65.2147L50.0472 65.3273L50.3019 64.4588L49.918 64.3462ZM49.6573 65.2424L49.5705 65.8442L49.9664 65.9013L50.0532 65.2996L49.6573 65.2424ZM49.7399 66.0707L50.0566 66.1164L50.1137 65.7205L49.797 65.6748L49.7399 66.0707ZM50.2582 66.0187C51.3359 64.1572 52.1614 62.6498 52.7337 61.498C53.0198 60.9221 53.2438 60.4329 53.4045 60.0313C53.564 59.6328 53.6659 59.3093 53.7006 59.0687L53.3047 59.0115C53.277 59.2037 53.1897 59.4915 53.0331 59.8826C52.8778 60.2707 52.659 60.7495 52.3755 61.32C51.8086 62.4609 50.9879 63.9599 49.9121 65.8183L50.2582 66.0187ZM53.5312 58.8422L53.4046 58.8239L53.3474 59.2198L53.4741 59.2381L53.5312 58.8422ZM53.2473 58.8687C51.787 60.096 50.6814 61.927 49.9192 64.3423L50.3007 64.4627C51.0478 62.0952 52.1196 60.339 53.5047 59.1749L53.2473 58.8687ZM62.4767 58.9126L62.4763 58.7126L62.4485 58.7127L62.4218 58.7203L62.4767 58.9126ZM63.8026 58.91L63.8312 58.712L63.8168 58.71L63.8022 58.71L63.8026 58.91ZM64.5477 60.0198L64.7457 60.0484L64.7471 60.0388L64.7475 60.0292L64.5477 60.0198ZM62.3291 60.8312L62.3333 60.6313L62.2779 60.6301L62.2298 60.6576L62.3291 60.8312ZM60.5049 64.2861L60.307 64.2575L60.3044 64.2754L60.305 64.2934L60.5049 64.2861ZM65.3752 66.8318L65.4038 66.6339L65.325 66.6225L65.2599 66.6684L65.3752 66.8318ZM66.4508 67.8924L66.6301 67.9808L66.6634 67.9133L66.644 67.8406L66.4508 67.8924ZM63.2438 69.9514L63.2955 70.1447L63.3006 70.1431L63.2438 69.9514ZM58.6043 64.2381L58.4063 64.2095L58.4036 64.2283L58.4045 64.2473L58.6043 64.2381ZM62.477 59.1126L63.803 59.11L63.8022 58.71L62.4763 58.7126L62.477 59.1126ZM63.7741 59.1079C63.994 59.1397 64.1323 59.2273 64.2188 59.3561C64.3099 59.4918 64.3625 59.7014 64.348 60.0104L64.7475 60.0292C64.7642 59.6745 64.7081 59.3674 64.5508 59.1331C64.3889 58.892 64.1391 58.7565 63.8312 58.712L63.7741 59.1079ZM64.3498 59.9912C64.3229 60.1773 64.1923 60.3418 63.8627 60.4624C63.5277 60.5849 63.023 60.6457 62.3333 60.6313L62.3249 61.0312C63.032 61.0459 63.5955 60.986 64.0001 60.8381C64.41 60.6882 64.6903 60.4324 64.7457 60.0484L64.3498 59.9912ZM62.2298 60.6576C61.2156 61.2375 60.6194 62.0928 60.4578 63.2123L60.8537 63.2695C60.9968 62.2775 61.5161 61.5264 62.4284 61.0048L62.2298 60.6576ZM60.4578 63.2123L60.307 64.2575L60.7029 64.3146L60.8537 63.2695L60.4578 63.2123ZM60.305 64.2934C60.3489 65.4946 60.5097 66.436 60.7996 67.1022C61.0916 67.7735 61.5289 68.1924 62.1272 68.2788L62.1844 67.8829C61.7692 67.8229 61.4246 67.5362 61.1663 66.9426C60.9059 66.344 60.748 65.4611 60.7048 64.2788L60.305 64.2934ZM62.1272 68.2788L62.444 68.3245L62.5011 67.9286L62.1844 67.8829L62.1272 68.2788ZM62.444 68.3245C62.7959 68.3753 63.228 68.2703 63.7231 68.0495C64.2233 67.8264 64.8131 67.4733 65.4905 66.9953L65.2599 66.6684C64.5934 67.1388 64.0274 67.4758 63.5601 67.6842C63.0876 67.8949 62.7403 67.9631 62.5011 67.9286L62.444 68.3245ZM65.3466 67.0298L65.5367 67.0572L65.5938 66.6613L65.4038 66.6339L65.3466 67.0298ZM65.5367 67.0572C65.8414 67.1012 66.0979 67.3475 66.2576 67.9441L66.644 67.8406C66.4676 67.1817 66.1337 66.7392 65.5938 66.6613L65.5367 67.0572ZM66.2714 67.8039C65.8836 68.5904 64.8863 69.2558 63.1869 69.7596L63.3006 70.1431C65.024 69.6322 66.1647 68.9248 66.6301 67.9808L66.2714 67.8039ZM63.192 69.7582C62.9122 69.8331 62.5625 69.845 62.1364 69.7835L62.0793 70.1794C62.54 70.2459 62.9475 70.2377 63.2955 70.1446L63.192 69.7582ZM62.1364 69.7835C61.1094 69.6353 60.3252 69.1136 59.7716 68.2061C59.2124 67.2894 58.8838 65.9702 58.8041 64.229L58.4045 64.2473C58.4857 66.0211 58.8214 67.4166 59.4301 68.4144C60.0443 69.4213 60.9315 70.0137 62.0793 70.1794L62.1364 69.7835ZM58.8022 64.2667L58.9028 63.5699L58.5069 63.5128L58.4063 64.2095L58.8022 64.2667ZM58.9028 63.5699C59.0772 62.3615 59.4696 61.3947 60.0702 60.6577C60.6698 59.9219 61.4866 59.4029 62.5315 59.105L62.4218 58.7203C61.3086 59.0377 60.4179 59.5979 59.7601 60.405C59.1034 61.2109 58.689 62.2507 58.5069 63.5128L58.9028 63.5699ZM75.1488 52.0766L75.2182 51.889L75.1983 51.8817L75.1774 51.8786L75.1488 52.0766ZM75.9076 53.0914L76.0999 53.1464L76.1036 53.1334L76.1056 53.12L75.9076 53.0914ZM75.5165 54.4575L75.3242 54.4025L75.3205 54.4155L75.3185 54.429L75.5165 54.4575ZM75.3487 57.8604L75.149 57.872L75.1585 58.0351L75.3201 58.0584L75.3487 57.8604ZM75.412 57.8696L75.3835 58.0675L75.4127 58.0718L75.4419 58.0674L75.412 57.8696ZM80.1328 57.4193L80.2129 57.236L80.1881 57.2252L80.1613 57.2213L80.1328 57.4193ZM78.5779 59.2318L78.6065 59.0338L78.5723 59.0289L78.5385 59.0357L78.5779 59.2318ZM75.1149 59.9283L75.0755 59.7322L74.9371 59.76L74.917 59.8997L75.1149 59.9283ZM74.3559 71.6844L74.543 71.7552L74.5552 71.7228L74.5559 71.6882L74.3559 71.6844ZM72.5535 69.3874L72.7515 69.416L72.7542 69.3969L72.7533 69.3777L72.5535 69.3874ZM73.1869 60.0703L73.3858 60.0909L73.4056 59.8998L73.2154 59.8724L73.1869 60.0703ZM72.6168 59.988L72.5756 60.1842L72.5882 60.186L72.6168 59.988ZM70.6292 57.4057L70.6578 57.2077L70.591 57.1981L70.532 57.2309L70.6292 57.4057ZM70.946 57.4514L71.0236 57.267L70.9999 57.2571L70.9745 57.2534L70.946 57.4514ZM72.348 58.0417L72.2704 58.226L72.2941 58.236L72.3195 58.2396L72.348 58.0417ZM73.3615 58.188L73.333 58.3859L73.5457 58.4166L73.561 58.2022L73.3615 58.188ZM73.6478 54.1878L73.4499 54.1593L73.4489 54.1664L73.4483 54.1736L73.6478 54.1878ZM75.0794 52.2642C75.345 52.3624 75.5128 52.4817 75.608 52.6091C75.6991 52.7308 75.7365 52.8767 75.7097 53.0628L76.1056 53.12C76.1457 52.8416 76.0903 52.586 75.9284 52.3695C75.7707 52.1586 75.5255 52.0027 75.2182 51.889L75.0794 52.2642ZM75.7153 53.0363L75.3242 54.4025L75.7087 54.5126L76.0999 53.1464L75.7153 53.0363ZM75.3185 54.429L75.2591 54.8407L75.655 54.8978L75.7144 54.4861L75.3185 54.429ZM75.2591 54.8407C75.1229 55.7847 75.0865 56.7953 75.149 57.872L75.5483 57.8489C75.4872 56.7954 75.5231 55.8119 75.655 54.8978L75.2591 54.8407ZM75.3201 58.0584L75.3835 58.0675L75.4406 57.6716L75.3772 57.6625L75.3201 58.0584ZM75.4419 58.0674C76.7182 57.8748 77.7465 57.7415 78.5282 57.667C79.3168 57.5917 79.8355 57.5784 80.1042 57.6172L80.1613 57.2213C79.8389 57.1748 79.2751 57.1939 78.4902 57.2688C77.6982 57.3443 76.6618 57.4788 75.3822 57.6718L75.4419 58.0674ZM80.0526 57.6025C80.3287 57.7233 80.5072 57.8573 80.61 57.9948C80.7084 58.1263 80.7454 58.2711 80.7207 58.4417L81.1166 58.4989C81.156 58.2261 81.094 57.974 80.9304 57.7552C80.7712 57.5424 80.5248 57.3725 80.2129 57.236L80.0526 57.6025ZM80.7207 58.4417C80.6999 58.586 80.647 58.6983 80.5662 58.7871C80.4842 58.8772 80.3641 58.9536 80.1939 59.0089C79.8477 59.1215 79.325 59.1375 78.6065 59.0338L78.5494 59.4297C79.2877 59.5363 79.8836 59.5305 80.3177 59.3893C80.5376 59.3177 80.7231 59.2091 80.8621 59.0563C81.0022 58.9022 81.0856 58.7136 81.1166 58.4989L80.7207 58.4417ZM78.5385 59.0357L75.0755 59.7322L75.1544 60.1243L78.6174 59.4278L78.5385 59.0357ZM74.917 59.8997C74.5039 62.7622 74.2506 66.6904 74.156 71.6806L74.5559 71.6882C74.6505 66.7045 74.9032 62.7953 75.3129 59.9568L74.917 59.8997ZM74.1689 71.6136C74.0732 71.8661 73.9543 72.0247 73.8247 72.1146C73.6993 72.2016 73.544 72.2381 73.3426 72.209L73.2855 72.6049C73.5697 72.646 73.8309 72.5971 74.0527 72.4432C74.2704 72.2923 74.4296 72.0545 74.543 71.7552L74.1689 71.6136ZM73.3426 72.209L73.2792 72.1999L73.2221 72.5958L73.2855 72.6049L73.3426 72.209ZM73.2792 72.1999C73.1411 72.18 73.0315 72.1203 72.9419 72.018C72.8491 71.9119 72.7704 71.7509 72.717 71.5201C72.6093 71.0552 72.6154 70.359 72.7515 69.416L72.3556 69.3588C72.2174 70.3161 72.2026 71.0718 72.3273 71.6104C72.39 71.8813 72.4909 72.11 72.6409 72.2814C72.7942 72.4566 72.9908 72.5624 73.2221 72.5958L73.2792 72.1999ZM72.7533 69.3777C72.6839 67.9415 72.8929 64.8516 73.3858 60.0909L72.9879 60.0497C72.4958 64.8032 72.2826 67.9247 72.3538 69.3971L72.7533 69.3777ZM73.2154 59.8724L72.6453 59.7901L72.5882 60.186L73.1583 60.2683L73.2154 59.8724ZM72.6579 59.7923C71.6825 59.5874 70.9888 59.3384 70.5577 59.0552C70.1321 58.7757 69.9959 58.4895 70.0387 58.1934L69.6428 58.1363C69.5697 58.6425 69.8384 59.0614 70.3381 59.3896C70.8323 59.7141 71.5846 59.9756 72.5757 60.1838L72.6579 59.7923ZM70.0387 58.1934C70.0464 58.1398 70.0856 58.0567 70.2017 57.9449C70.3159 57.835 70.4883 57.713 70.7265 57.5804L70.532 57.2309C70.2781 57.3722 70.073 57.5136 69.9243 57.6568C69.7776 57.798 69.6686 57.9576 69.6428 58.1363L70.0387 58.1934ZM70.6007 57.6036L70.9174 57.6493L70.9745 57.2534L70.6578 57.2077L70.6007 57.6036ZM70.8684 57.6357L72.2704 58.226L72.4256 57.8574L71.0236 57.267L70.8684 57.6357ZM72.3195 58.2396L73.333 58.3859L73.3901 57.99L72.3766 57.8437L72.3195 58.2396ZM73.561 58.2022L73.8473 54.2021L73.4483 54.1736L73.162 58.1737L73.561 58.2022ZM73.8458 54.2164C73.954 53.4668 74.1281 52.9487 74.3506 52.6357C74.46 52.4819 74.5772 52.3831 74.6993 52.3267C74.8203 52.2709 74.9585 52.2512 75.1202 52.2745L75.1774 51.8786C74.9485 51.8456 74.7311 51.8716 74.5318 51.9635C74.3335 52.0549 74.1654 52.2059 74.0246 52.404C73.7468 52.7948 73.5611 53.3886 73.4499 54.1593L73.8458 54.2164ZM95.841 63.372L95.6581 63.2912L95.636 63.3413L95.6424 63.3957L95.841 63.372ZM97.7854 64.4609L97.5855 64.464L97.5881 64.6345L97.7569 64.6589L97.7854 64.4609ZM97.9121 64.4792L97.8836 64.6772L97.9048 64.6802L97.9263 64.6787L97.9121 64.4792ZM99.4147 64.3728L99.4433 64.1748L99.422 64.1718L99.4006 64.1733L99.4147 64.3728ZM101.104 66.5565L100.914 66.6194L100.953 66.7368L101.076 66.7544L101.104 66.5565ZM101.231 66.5748L101.202 66.7727L101.311 66.7884L101.382 66.7053L101.231 66.5748ZM104.397 64.8008L104.461 64.6112L104.443 64.6054L104.425 64.6028L104.397 64.8008ZM106.915 69.3027L106.717 69.2741L106.716 69.2855L106.915 69.3027ZM106.819 70.4204L107.015 70.4577L107.017 70.4477L107.018 70.4376L106.819 70.4204ZM105.61 76.7769L105.414 76.7396L105.413 76.7484L105.61 76.7769ZM104.409 78.1555L104.381 78.3535L104.393 78.3553L104.406 78.3555L104.409 78.1555ZM103.761 75.7018L103.565 75.6601L103.563 75.6732L103.761 75.7018ZM104.968 70.024L105.165 70.0657L105.166 70.0526L104.968 70.024ZM101.28 70.4939L101.097 70.4113L101.091 70.4256L101.087 70.4407L101.28 70.4939ZM99.0417 75.247L98.988 75.4397L99.2071 75.5007L99.2396 75.2756L99.0417 75.247ZM98.2061 74.0918L98.0123 74.0422L98.0097 74.0526L98.0082 74.0632L98.2061 74.0918ZM99.1709 70.3189L99.3647 70.3685L99.3679 70.3558L99.3695 70.3427L99.1709 70.3189ZM98.8555 66.2319L98.884 66.034L98.8173 66.0244L98.7584 66.0571L98.8555 66.2319ZM97.4786 70.1717L97.6758 70.2054L97.6765 70.2002L97.4786 70.1717ZM96.6526 74.9992L96.8355 75.0801L96.8455 75.0574L96.8497 75.0329L96.6526 74.9992ZM94.8613 74.4174L94.6625 74.3955L94.661 74.409L94.6614 74.4227L94.8613 74.4174ZM95.274 70.6618L95.0782 70.6211L95.0762 70.6304L95.0752 70.64L95.274 70.6618ZM95.9074 67.6171L96.1032 67.6578L96.1061 67.6439L96.107 67.6297L95.9074 67.6171ZM96.024 63.4529C96.1235 63.2278 96.2486 63.0855 96.3903 63.0043C96.5313 62.9237 96.71 62.8912 96.9402 62.9245L96.9974 62.5286C96.6998 62.4856 96.4266 62.5227 96.1916 62.6572C95.9575 62.7912 95.7825 63.0098 95.6581 63.2912L96.024 63.4529ZM96.9402 62.9245C97.1238 62.951 97.2739 63.0603 97.3879 63.3025C97.5063 63.5539 97.5774 63.9354 97.5855 64.464L97.9854 64.4579C97.977 63.9064 97.9036 63.4587 97.7498 63.1321C97.5916 62.7961 97.3417 62.5783 96.9974 62.5286L96.9402 62.9245ZM97.7569 64.6589L97.8836 64.6772L97.9407 64.2813L97.814 64.263L97.7569 64.6589ZM97.9263 64.6787L99.4289 64.5723L99.4006 64.1733L97.898 64.2797L97.9263 64.6787ZM99.3862 64.5707C99.6569 64.6098 99.9245 64.7767 100.186 65.1142C100.448 65.4532 100.693 65.9512 100.914 66.6194L101.294 66.4935C101.065 65.8035 100.803 65.2583 100.502 64.8694C100.2 64.4791 99.8483 64.2333 99.4433 64.1748L99.3862 64.5707ZM101.076 66.7544L101.202 66.7727L101.259 66.3768L101.133 66.3585L101.076 66.7544ZM101.382 66.7053C102.511 65.3943 103.504 64.874 104.368 64.9987L104.425 64.6028C103.347 64.4472 102.229 65.1095 101.079 66.4442L101.382 66.7053ZM104.333 64.9903C105.305 65.3177 105.972 65.8355 106.363 66.5329C106.754 67.2331 106.881 68.1407 106.718 69.2741L107.113 69.3313C107.285 68.1421 107.16 67.1381 106.712 66.3376C106.262 65.5344 105.503 64.9625 104.461 64.6112L104.333 64.9903ZM106.716 69.2855L106.62 70.4031L107.018 70.4376L107.115 69.3199L106.716 69.2855ZM106.622 70.383L105.414 76.7396L105.807 76.8143L107.015 70.4577L106.622 70.383ZM105.413 76.7484L105.326 77.3501L105.722 77.4073L105.808 76.8055L105.413 76.7484ZM105.326 77.3501C105.294 77.5699 105.206 77.7126 105.074 77.8047C104.935 77.9013 104.723 77.9602 104.412 77.9555L104.406 78.3555C104.763 78.3608 105.069 78.2952 105.302 78.1329C105.542 77.9661 105.677 77.7154 105.722 77.4073L105.326 77.3501ZM104.438 77.9576C104.316 77.94 104.222 77.8909 104.145 77.8109C104.066 77.7282 103.998 77.6027 103.95 77.4201C103.852 77.0506 103.849 76.493 103.959 75.7303L103.563 75.6732C103.451 76.4519 103.444 77.0739 103.563 77.5223C103.623 77.7487 103.717 77.9417 103.856 78.0871C103.997 78.2352 104.175 78.3238 104.381 78.3535L104.438 77.9576ZM103.957 75.7434L105.164 70.0656L104.773 69.9824L103.565 75.6602L103.957 75.7434ZM105.166 70.0526C105.32 68.9876 105.315 68.1427 105.13 67.5366C105.037 67.2307 104.896 66.9773 104.697 66.789C104.498 66.5991 104.251 66.4852 103.966 66.444L103.908 66.8399C104.119 66.8704 104.288 66.9511 104.422 67.0789C104.558 67.2082 104.669 67.3954 104.748 67.6532C104.907 68.1744 104.922 68.9489 104.771 69.9954L105.166 70.0526ZM103.966 66.444C103.74 66.4115 103.522 66.5183 103.323 66.6822C103.12 66.8493 102.907 67.102 102.68 67.4297C102.227 68.0865 101.7 69.0829 101.097 70.4113L101.462 70.5765C102.061 69.2546 102.577 68.284 103.01 67.6568C103.227 67.3425 103.416 67.124 103.578 66.9907C103.743 66.8542 103.849 66.8313 103.908 66.8399L103.966 66.444ZM101.087 70.4407C100.658 71.9941 100.306 73.1495 100.031 73.9101C99.8929 74.2917 99.7768 74.5663 99.6828 74.7405C99.6352 74.8288 99.5986 74.8809 99.5743 74.9074C99.54 74.9446 99.5665 74.8943 99.6407 74.905L99.5835 75.3009C99.721 75.3208 99.8204 75.2305 99.8683 75.1786C99.9262 75.1158 99.9813 75.0296 100.035 74.9305C100.143 74.7297 100.267 74.4328 100.407 74.0462C100.688 73.2704 101.043 72.1029 101.472 70.5471L101.087 70.4407ZM99.6407 74.905C99.4535 74.878 99.2849 74.8725 99.1513 74.9062C99.0825 74.9236 99.0117 74.9541 98.9534 75.0081C98.8921 75.0649 98.8553 75.1379 98.8437 75.2184L99.2396 75.2756C99.2387 75.2822 99.2337 75.2937 99.2252 75.3016C99.2198 75.3066 99.223 75.3007 99.2492 75.294C99.3058 75.2798 99.4117 75.2761 99.5835 75.3009L99.6407 74.905ZM99.0953 75.0543C98.8005 74.9722 98.6169 74.8503 98.5131 74.7068C98.4116 74.5665 98.3668 74.3784 98.4041 74.1204L98.0082 74.0632C97.9601 74.3964 98.0119 74.6965 98.189 74.9412C98.3636 75.1827 98.6405 75.3428 98.988 75.4397L99.0953 75.0543ZM98.3999 74.1413L99.3647 70.3685L98.9771 70.2694L98.0123 74.0422L98.3999 74.1413ZM99.3695 70.3427C99.5286 69.0157 99.5914 68.0002 99.5537 67.3034C99.5349 66.9569 99.4907 66.674 99.4126 66.4673C99.3366 66.266 99.2047 66.0803 98.979 66.0477L98.9219 66.4436C98.9284 66.4446 98.9799 66.4537 99.0384 66.6086C99.0949 66.7581 99.1363 66.9927 99.1543 67.3251C99.19 67.9861 99.1308 68.9736 98.9723 70.2951L99.3695 70.3427ZM98.979 66.0477L98.884 66.034L98.8269 66.4299L98.9219 66.4436L98.979 66.0477ZM98.7584 66.0571C98.0871 66.4296 97.6958 67.2667 97.5229 68.4645L97.9188 68.5216C98.0872 67.3546 98.4523 66.6843 98.9525 66.4068L98.7584 66.0571ZM97.5229 68.4645L97.2806 70.1431L97.6765 70.2002L97.9188 68.5216L97.5229 68.4645ZM97.2815 70.1379L96.4554 74.9655L96.8497 75.0329L97.6757 70.2054L97.2815 70.1379ZM96.4697 74.9183C96.3694 75.145 96.2459 75.2881 96.1085 75.3696C95.9728 75.4501 95.8028 75.4828 95.585 75.4513L95.5279 75.8472C95.8169 75.8889 96.083 75.8498 96.3126 75.7136C96.5405 75.5784 96.7118 75.3599 96.8355 75.0801L96.4697 74.9183ZM95.585 75.4513C95.4283 75.4287 95.3116 75.3496 95.2243 75.195C95.1314 75.0304 95.0709 74.7758 95.0612 74.4121L94.6614 74.4227C94.6718 74.8162 94.7371 75.1456 94.8759 75.3916C95.0204 75.6476 95.2412 75.8059 95.5279 75.8472L95.585 75.4513ZM95.0601 74.4392L95.4728 70.6836L95.0752 70.64L94.6625 74.3955L95.0601 74.4392ZM95.4698 70.7025L96.1032 67.6578L95.7116 67.5763L95.0782 70.6211L95.4698 70.7025ZM96.107 67.6297C96.2094 66.0191 96.1875 64.5915 96.0396 63.3484L95.6424 63.3957C95.7867 64.6088 95.8091 66.0112 95.7078 67.6044L96.107 67.6297ZM113.187 65.5844L113.221 65.3872L113.216 65.3865L113.187 65.5844ZM116.823 70.6355L117.023 70.6408L117.024 70.5916L117.002 70.5474L116.823 70.6355ZM116.809 71.1831L117.007 71.2117L117.008 71.2001L117.009 71.1883L116.809 71.1831ZM112.273 71.9188L112.28 71.7189L112.21 71.7165L112.153 71.7586L112.273 71.9188ZM112.164 72.0001L112.044 71.8399L111.978 71.8895L111.966 71.9715L112.164 72.0001ZM112.146 72.1268L111.948 72.0982L111.945 72.121L111.947 72.1439L112.146 72.1268ZM116.896 73.4912L116.924 73.2933L116.839 73.2809L116.771 73.3347L116.896 73.4912ZM117.935 74.5788L118.133 74.6074L118.138 74.5711L118.13 74.5353L117.935 74.5788ZM114.895 76.8236L114.971 77.0086L114.979 77.0056L114.986 77.0021L114.895 76.8236ZM113.13 77.1832L113.101 77.3811L113.12 77.3838L113.139 77.3829L113.13 77.1832ZM110.246 71.8525L110.445 71.8397L110.436 71.7014L110.304 71.6611L110.246 71.8525ZM110.172 69.6757L110.37 69.7042L110.405 69.4614L110.16 69.476L110.172 69.6757ZM110.154 69.8024L109.956 69.7738L109.913 70.0662L110.201 69.9968L110.154 69.8024ZM110.489 69.7214L110.536 69.9158L110.667 69.884L110.687 69.7499L110.489 69.7214ZM113.048 67.8922L113.195 67.7563L113.147 67.7044L113.077 67.6943L113.048 67.8922ZM112.763 67.8511L112.792 67.6531L112.614 67.6275L112.569 67.8014L112.763 67.8511ZM112.467 69.0047L112.273 68.955L112.271 68.9654L112.269 68.9761L112.467 69.0047ZM112.326 69.9865L112.128 69.9579L112.099 70.1559L112.297 70.1844L112.326 69.9865ZM112.452 70.0048L112.424 70.2028L112.431 70.2036L112.452 70.0048ZM114.281 69.8807L114.479 69.9092L114.487 69.8493L114.461 69.7946L114.281 69.8807ZM113.154 65.7816C113.311 65.8083 113.511 65.9128 113.755 66.13C113.996 66.345 114.267 66.6569 114.565 67.0713C115.161 67.8998 115.854 69.1154 116.643 70.7236L117.002 70.5474C116.209 68.9313 115.505 67.6928 114.89 66.8376C114.582 66.4101 114.292 66.0728 114.021 65.8311C113.751 65.5916 113.484 65.432 113.221 65.3872L113.154 65.7816ZM116.623 70.6303L116.609 71.1779L117.009 71.1883L117.023 70.6408L116.623 70.6303ZM116.611 71.1545C116.602 71.2113 116.557 71.2939 116.384 71.3845C116.212 71.4745 115.948 71.5531 115.579 71.613C114.842 71.7324 113.746 71.7692 112.28 71.7189L112.266 72.1187C113.739 72.1692 114.867 72.1337 115.643 72.0078C116.029 71.9452 116.342 71.8579 116.57 71.7388C116.796 71.6203 116.972 71.4505 117.007 71.2117L116.611 71.1545ZM112.153 71.7586L112.044 71.8399L112.284 72.1603L112.393 72.079L112.153 71.7586ZM111.966 71.9715L111.948 72.0982L112.344 72.1553L112.362 72.0287L111.966 71.9715ZM111.947 72.1439C112.032 73.1308 112.157 73.8939 112.328 74.4242C112.413 74.6889 112.513 74.9072 112.633 75.068C112.754 75.2298 112.908 75.3487 113.1 75.3763L113.157 74.9804C113.105 74.973 113.036 74.9385 112.954 74.8284C112.871 74.7174 112.787 74.5455 112.709 74.3016C112.552 73.8147 112.429 73.0871 112.345 72.1096L111.947 72.1439ZM113.1 75.3763L113.48 75.4312L113.537 75.0353L113.157 74.9804L113.1 75.3763ZM113.48 75.4312C113.881 75.4891 114.379 75.344 114.953 75.0487C115.534 74.7499 116.224 74.2812 117.02 73.6478L116.771 73.3347C115.985 73.9601 115.319 74.4111 114.77 74.693C114.215 74.9784 113.811 75.0748 113.537 75.0353L113.48 75.4312ZM116.867 73.6892L117.057 73.7166L117.114 73.3207L116.924 73.2933L116.867 73.6892ZM117.057 73.7166C117.355 73.7596 117.603 74.006 117.74 74.6223L118.13 74.5353C117.98 73.86 117.661 73.3996 117.114 73.3207L117.057 73.7166ZM117.737 74.5503C117.727 74.6223 117.678 74.7291 117.553 74.8733C117.43 75.0148 117.248 75.1769 117.001 75.3592C116.508 75.7236 115.778 76.1523 114.805 76.6452L114.986 77.0021C115.966 76.5052 116.719 76.0648 117.239 75.681C117.499 75.4892 117.706 75.3073 117.855 75.1351C118.002 74.9655 118.107 74.7888 118.133 74.6074L117.737 74.5503ZM114.819 76.6387C114.341 76.8357 113.775 76.952 113.12 76.9834L113.139 77.3829C113.83 77.3499 114.442 77.2265 114.971 77.0086L114.819 76.6387ZM113.158 76.9852C112.377 76.8724 111.758 76.4137 111.302 75.5702C110.841 74.7184 110.551 73.4806 110.445 71.8397L110.046 71.8654C110.153 73.5314 110.45 74.8355 110.95 75.7606C111.455 76.6939 112.172 77.2471 113.101 77.3811L113.158 76.9852ZM110.304 71.6611C109.846 71.5223 109.54 71.3465 109.36 71.1487C109.188 70.9592 109.121 70.7382 109.16 70.4673L108.764 70.4102C108.709 70.7938 108.809 71.1358 109.064 71.4175C109.312 71.691 109.696 71.8948 110.188 72.0439L110.304 71.6611ZM109.16 70.4673C109.185 70.294 109.269 70.1652 109.422 70.0687C109.583 69.9668 109.831 69.8964 110.184 69.8753L110.16 69.476C109.774 69.4991 109.45 69.578 109.208 69.7304C108.958 69.8883 108.807 70.1189 108.764 70.4102L109.16 70.4673ZM109.974 69.6471L109.956 69.7738L110.352 69.8309L110.37 69.7042L109.974 69.6471ZM110.201 69.9968L110.536 69.9158L110.442 69.527L110.107 69.608L110.201 69.9968ZM110.687 69.7499L110.801 68.9581L110.405 68.901L110.291 69.6928L110.687 69.7499ZM110.801 68.9581C110.974 67.7562 111.271 66.9113 111.67 66.3944C112.058 65.8928 112.545 65.6938 113.159 65.7824L113.216 65.3865C112.457 65.2769 111.827 65.5364 111.353 66.1499C110.891 66.7481 110.582 67.6748 110.405 68.901L110.801 68.9581ZM113.077 67.6943L112.792 67.6531L112.734 68.049L113.02 68.0902L113.077 67.6943ZM112.569 67.8014L112.273 68.955L112.661 69.0543L112.957 67.9008L112.569 67.8014ZM112.269 68.9761L112.128 69.9579L112.523 70.0151L112.665 69.0332L112.269 68.9761ZM112.297 70.1844L112.424 70.2027L112.481 69.8068L112.354 69.7885L112.297 70.1844ZM112.431 70.2036C113.028 70.2681 113.491 70.2915 113.814 70.2696C113.974 70.2588 114.114 70.236 114.223 70.1932C114.326 70.1524 114.456 70.0694 114.479 69.9092L114.083 69.8521C114.091 69.7975 114.132 69.7989 114.076 69.8212C114.024 69.8415 113.932 69.8607 113.787 69.8705C113.5 69.89 113.065 69.8698 112.474 69.8059L112.431 70.2036ZM114.461 69.7946C114.028 68.885 113.607 68.2011 113.195 67.7563L112.901 68.0281C113.273 68.4292 113.673 69.0709 114.1 69.9667L114.461 69.7946Z" fill="white"/>
<path d="M181.857 56.8459C182.749 56.3327 183.718 56.0196 184.694 55.7033C186.29 55.186 187.944 54.6437 189.615 54.4274C190.97 54.2519 192.42 54.1794 193.791 54.1875" stroke="white" stroke-width="2" stroke-linecap="round" stroke-linejoin="round"/>
<path d="M194.403 53.5806C182.973 48.492 171.317 46.4278 158.684 45.0711C147.66 43.8872 136.595 42.4669 125.44 42.1383C117.249 41.897 109.173 43.202 101 43.4828" stroke="white" stroke-width="2" stroke-linecap="round" stroke-linejoin="round"/>
<path d="M193.976 53.3722C193.02 51.4425 191.765 49.6663 190.328 48.0402C188.928 46.4563 187.436 44.8373 185.787 43.5076" stroke="white" stroke-width="2" stroke-linecap="round" stroke-linejoin="round"/>
</svg>
