<svg width="168" height="179" viewBox="0 0 168 179" fill="none" xmlns="http://www.w3.org/2000/svg">
<path d="M2.46493 106.227C3.34872 106.156 4.1117 108.052 4.75388 111.914C5.32787 113.672 5.71588 114.543 5.91789 114.527L6.14515 114.508C6.64801 112.866 6.83625 111.263 6.70987 109.697L6.27164 107.102C6.49437 106.398 6.85824 106.025 7.36326 105.985C8.29756 105.909 8.89822 107.525 9.16525 110.833C9.99799 114.223 10.5336 117.394 10.7721 120.349L10.9158 122.129C11.3541 127.558 10.1093 131.344 7.18153 133.486L6.36047 133.705C4.92116 133.821 3.47481 132.591 2.02143 130.014L1.49709 127.769L1.48791 127.656C1.35338 125.989 1.75326 125.118 2.68756 125.043L3.6834 125.572L3.76239 127.968C3.85616 129.129 4.54435 130.255 5.82696 131.346L6.31935 131.307C7.70817 131.195 8.51681 128.461 8.74528 123.105L8.6437 120.902C8.41257 118.354 8.18009 116.733 7.94626 116.04C7.00755 117.006 6.24781 117.512 5.66704 117.559C4.37923 117.663 2.95206 114.308 1.38553 107.496L1.26579 107.43C1.2189 106.849 1.61862 106.448 2.46493 106.227ZM18.2381 102.019C20.1067 101.868 21.6328 103.143 22.8166 105.843L23.0323 106.626C23.2504 109.328 22.2111 112.195 19.9142 115.227C18.9796 116.242 17.9946 116.792 16.9593 116.876C15.4443 116.998 14.3008 116.214 13.5288 114.522C13.2364 113.732 13.0657 113.035 13.0167 112.429L12.98 111.974C12.658 107.984 13.8653 104.837 16.6021 102.532C17.0867 102.239 17.632 102.068 18.2381 102.019ZM15.2454 112.172C15.384 113.889 15.8952 114.712 16.779 114.641C18.6223 114.492 19.9594 112.008 20.7903 107.188L20.7322 106.468C20.1765 104.937 19.3179 104.219 18.1564 104.313C17.7019 104.349 17.5001 104.683 17.551 105.315C17.5857 105.744 17.1082 106.126 16.1185 106.46C15.355 108.021 15.0639 109.925 15.2454 112.172ZM27.1939 104.193L27.8451 103.759C28.4512 103.71 28.9226 104.041 29.2595 104.751C29.0063 106.652 28.9592 108.587 29.1182 110.557C29.1977 111.542 29.5747 112.591 30.2493 113.706L30.4765 113.688C31.2088 113.629 31.8466 110.667 32.3899 104.803C32.7189 104.471 33.0476 104.292 33.3758 104.266C34.1586 104.203 34.6621 105.56 34.8864 108.338C35.4613 111.366 35.9507 112.865 36.3547 112.832L36.9046 112.559C37.6593 112.778 38.057 113.139 38.0978 113.644C37.7207 114.641 37.1281 115.171 36.3201 115.237C35.4111 115.31 34.4665 114.471 33.4865 112.72C32.6476 114.923 31.7106 116.066 30.6753 116.15C29.135 116.274 27.9323 114.757 27.0674 111.599L26.856 110.396L26.8254 110.018C26.6623 107.998 26.7852 106.056 27.1939 104.193ZM58.3678 100.228L59.9024 99.8753C60.5337 99.8244 60.9188 100.187 61.0578 100.964C61.1128 101.646 60.3278 102.154 58.7028 102.488C57.7327 103.38 57.2986 104.457 57.4006 105.72L57.5015 106.97C58.2307 109.706 59.2014 111.026 60.4134 110.928L60.7922 110.897C61.4992 110.84 62.5057 110.086 63.8118 108.633L64.039 108.615C64.5441 108.574 64.9766 108.895 65.3367 109.578C65.0708 110.692 64.014 111.768 62.1663 112.807C61.825 112.987 61.3892 113.099 60.8589 113.141C58.2581 113.351 56.4011 111.443 55.2881 107.415L55.2209 106.582C54.9824 103.627 56.0314 101.509 58.3678 100.228ZM74.5274 97.1317C75.6385 97.042 76.2297 97.439 76.301 98.3228L76.0182 99.07L76.3505 106.02C76.6032 109.151 77.3915 111.044 78.7152 111.7L78.8368 112.262C78.8202 113 78.5088 113.394 77.9028 113.443L77.6755 113.461C75.6777 112.326 74.5718 110.433 74.3578 107.782L74.0927 107.803C73.3109 110.713 72.2004 112.226 70.7611 112.342C69.3922 112.071 68.6425 111.128 68.512 109.512C68.2246 105.951 69.3649 102.288 71.9329 98.5229C72.8293 97.6627 73.6941 97.1989 74.5274 97.1317ZM70.776 107.804L70.7101 108.877L70.7682 109.597L71.1469 109.566C72.6596 104.691 73.3741 101.736 73.2906 100.701L73.1391 100.713C71.807 102.473 71.0193 104.836 70.776 107.804ZM84.7143 98.1774C86.8749 98.1809 88.0327 99.1422 88.1876 101.061L88.3031 101.548L88.7043 107.462C88.7594 108.144 89.2251 109.034 90.1017 110.133L90.1078 110.208C89.9649 110.957 89.6283 111.353 89.0981 111.396C87.4795 110.865 86.5846 109.54 86.4134 107.419L86.3736 106.926L86.2539 106.86L86.3553 106.699L86.3492 106.623L86.0408 101.387C85.9817 100.655 85.6365 100.314 85.0053 100.365L84.5507 100.402C83.3289 101.009 82.9209 103.825 83.3265 108.85C83.4671 110.592 83.0956 111.499 82.2118 111.57C81.53 111.625 81.1418 111.224 81.0473 110.368L80.7415 106.58C80.3461 101.682 80.5776 99.1975 81.4362 99.1282L81.8058 98.984L82.6103 99.0335C83.2554 98.5239 83.9567 98.2385 84.7143 98.1774ZM112.409 91.6338C113.596 91.538 114.518 92.7343 115.177 95.2227L115.189 95.3742C115.236 95.955 114.872 96.3275 114.097 96.4917C113.466 96.5427 112.973 95.7945 112.62 94.2473L112.459 94.1459L112.005 94.1826C111.514 95.0355 111.322 96.1184 111.428 97.4315L111.695 99.3162C112.705 99.2346 113.782 98.8808 114.926 98.2548C115.406 98.216 115.875 98.5212 116.334 99.1704C116.418 100.206 115.059 101.002 112.257 101.558L113.702 107.656C113.745 108.186 113.331 108.563 112.459 108.785C111.676 108.849 111.187 107.668 110.991 105.244L110.012 102.083L107.58 102.66C107.05 102.703 106.703 102.337 106.539 101.562C106.478 100.805 107.461 100.242 109.491 99.8753L109.149 97.5392C109.252 93.7694 110.338 91.801 112.409 91.6338ZM118.083 88.469C119.059 88.5936 119.573 88.9841 119.626 89.6406C119.431 90.368 119.055 90.7542 118.5 90.799C117.551 90.6977 117.046 90.2682 116.985 89.5107C117.187 88.859 117.553 88.5118 118.083 88.469ZM119.95 93.6556C120.354 93.623 120.725 93.9616 121.062 94.6714L120.938 97.3882L121.081 99.1684C121.249 101.239 121.821 103.925 122.799 107.226C122.586 107.726 122.176 108.001 121.57 108.05C120.534 108.134 119.608 105.158 118.79 99.1246L118.683 97.7989C118.467 95.1223 118.89 93.7412 119.95 93.6556ZM129.836 94.5349C131.997 94.5384 133.155 95.4997 133.31 97.4188L133.425 97.9051L133.827 103.82C133.882 104.502 134.347 105.392 135.224 106.49L135.23 106.566C135.087 107.315 134.751 107.71 134.22 107.753C132.602 107.223 131.707 105.897 131.536 103.776L131.496 103.284L131.376 103.217L131.477 103.057L131.471 102.981L131.163 97.7446C131.104 97.0123 130.759 96.6717 130.127 96.7226L129.673 96.7593C128.451 97.3663 128.043 100.182 128.449 105.207C128.589 106.95 128.218 107.856 127.334 107.928C126.652 107.983 126.264 107.582 126.169 106.726L125.864 102.938C125.468 98.0391 125.7 95.5551 126.558 95.4858L126.928 95.3416L127.733 95.391C128.378 94.8814 129.079 94.5961 129.836 94.5349ZM144.807 85.2443C145.236 85.2096 145.66 85.5821 146.079 86.3616L145.262 97.0258L145.5 99.9802C145.749 103.061 146.353 104.562 147.313 104.485C147.969 104.737 148.317 105.116 148.358 105.621C148.404 106.201 147.927 106.583 146.925 106.766C145.814 106.855 144.86 105.903 144.064 103.909L143.685 103.939C142.916 106.06 141.862 107.174 140.524 107.282C138.958 107.409 137.916 106.298 137.396 103.951C137.174 101.199 138.781 98.1335 142.219 94.7553C142.952 94.6962 143.235 93.644 143.07 91.5986C143.293 87.4378 143.872 85.3197 144.807 85.2443ZM139.606 103.468L139.689 104.491L140.343 105.048L140.571 105.029C141.379 104.964 142.129 102.451 142.821 97.4897L142.594 97.5081C140.482 99.9914 139.486 101.978 139.606 103.468ZM34.5408 146.878C34.6666 146.233 35.0451 145.885 35.6764 145.834C36.3077 145.783 36.7753 146.38 37.0792 147.627L37.2307 147.614L38.9425 147.095C39.7505 147.03 40.5944 147.724 41.4743 149.178L41.6258 149.166C42.5962 147.334 43.6622 146.371 44.8237 146.277C47.335 146.532 48.7028 148.048 48.927 150.826L49.1098 152.145L49.3865 159.824L49.4446 160.543C49.4956 161.175 49.1337 161.572 48.3591 161.737C47.5763 161.8 47.1105 160.91 46.9617 159.066L46.8628 152.174C46.659 149.649 45.9637 148.434 44.7769 148.53C44.0951 148.585 43.4079 150.305 42.7154 153.691C42.5414 157.517 42.3029 159.443 41.9999 159.467C41.5706 159.502 41.3631 159.607 41.3774 159.784C40.5864 159.746 40.1624 159.374 40.1053 158.667L40.2278 154.044C39.8972 150.894 39.4542 149.341 38.8987 149.386L38.785 149.395C38.1925 149.926 37.9533 150.898 38.0674 152.312L38.2295 154.32L38.5458 160.127C38.42 160.773 38.0541 161.12 37.448 161.169C36.9178 161.212 36.5412 160.797 36.3184 159.926L35.8061 155.468L35.7367 151.776C35.4323 149.894 35.0337 148.262 34.5408 146.878ZM55.2085 144.867C56.2206 144.811 58.0677 146.441 60.7499 149.757L60.8776 150.395C60.9347 151.102 59.2488 151.784 55.82 152.442L55.7155 152.565L55.7278 152.717C56.4415 154.946 57.0887 156.038 57.6695 155.991L58.124 155.954C58.9321 155.889 60.0864 154.919 61.5871 153.044L61.8144 153.026C62.3194 152.985 62.7404 153.32 63.0772 154.029C63.1262 154.635 62.1502 155.769 60.1494 157.43C59.6203 157.803 58.9705 158.097 58.2 158.312C56.1546 158.477 54.573 156.673 53.4552 152.9C52.2793 152.817 51.6598 152.384 51.5966 151.601C51.5518 151.046 51.9515 150.645 52.7958 150.399L52.808 150.55L53.1745 150.368L53.0981 149.421C52.8637 146.518 53.5672 144.999 55.2085 144.867ZM55.6559 147.576L55.315 147.603L55.2766 149.017L55.3714 150.191L55.5229 150.179C56.9329 150.014 57.6277 149.806 57.6073 149.553C56.8713 148.621 56.2208 147.962 55.6559 147.576ZM81.2981 135.403C82.0052 135.346 82.428 136.176 82.5666 137.893L83.547 144.371L83.6985 144.359L85.5343 143.486C87.6554 143.315 89.1185 145.383 89.9236 149.689C90.2002 150.912 90.4354 152.723 90.629 155.122L90.8767 158.19C90.9542 159.15 90.6394 159.658 89.9323 159.715L89.7808 159.727C89.0909 159.681 88.7204 159.343 88.6695 158.711L88.3821 155.151C87.9214 149.444 87.1111 146.333 85.9511 145.816L85.7238 145.835C84.9663 145.896 84.5045 147.102 84.3386 149.454L84.5098 151.575C84.8155 155.363 84.6528 157.282 84.0215 157.333L83.308 157.467C82.6009 157.524 82.1628 156.504 81.9936 154.409C81.89 152.18 81.8947 150.35 82.0079 148.918L80.2065 136.52C80.1535 135.864 80.5174 135.491 81.2981 135.403ZM95.9024 141.582C96.9144 141.526 98.7616 143.156 101.444 146.472L101.572 147.11C101.629 147.817 99.9427 148.499 96.5139 149.157L96.4094 149.28L96.4216 149.432C97.1354 151.661 97.7826 152.753 98.3634 152.706L98.8179 152.669C99.626 152.604 100.78 151.634 102.281 149.759L102.508 149.741C103.013 149.7 103.434 150.035 103.771 150.744C103.82 151.351 102.844 152.484 100.843 154.145C100.314 154.518 99.6644 154.812 98.8939 155.027C96.8485 155.192 95.2669 153.388 94.149 149.615C92.9732 149.532 92.3537 149.099 92.2905 148.316C92.2457 147.761 92.6454 147.36 93.4897 147.114L93.5019 147.265L93.8684 147.083L93.792 146.136C93.5576 143.233 94.261 141.714 95.9024 141.582ZM96.3498 144.291L96.0089 144.318L95.9705 145.732L96.0653 146.906L96.2168 146.894C97.6268 146.729 98.3216 146.521 98.3012 146.268C97.5652 145.336 96.9147 144.677 96.3498 144.291ZM110.47 139.072C112.061 138.943 113.097 139.978 113.58 142.175L113.607 142.516C113.805 144.966 112.724 147.315 110.364 149.564C111.945 150.885 114.566 151.398 118.227 151.102C118.797 151.234 119.106 151.603 119.155 152.209C119.21 152.891 118.796 153.268 117.912 153.339C115.437 153.539 112.786 153.118 109.957 152.075L110.045 153.174C110.255 155.774 109.805 157.12 108.694 157.209C107.911 157.273 107.398 155.802 107.156 152.797L106.917 149.842L106.718 148.791L106.885 147.558L106.326 143.943L106.314 143.791C106.259 143.11 106.575 142.614 107.262 142.304C108.087 140.255 109.157 139.178 110.47 139.072ZM109.246 147.52C109.978 147.46 110.693 146.081 111.39 143.382L111.258 141.753L110.764 141.297L110.423 141.325C109.373 142.172 108.981 144.237 109.246 147.52ZM123.956 139.317C124.968 139.261 126.816 140.891 129.498 144.207L129.625 144.845C129.683 145.552 127.997 146.235 124.568 146.893L124.463 147.015L124.476 147.167C125.189 149.397 125.837 150.488 126.417 150.441L126.872 150.405C127.68 150.339 128.834 149.369 130.335 147.495L130.562 147.476C131.067 147.435 131.488 147.77 131.825 148.48C131.874 149.086 130.898 150.219 128.897 151.88C128.368 152.254 127.718 152.547 126.948 152.762C124.902 152.927 123.321 151.123 122.203 147.35C121.027 147.267 120.408 146.835 120.344 146.052C120.3 145.496 120.699 145.095 121.544 144.849L121.556 145.001L121.922 144.819L121.846 143.872C121.612 140.968 122.315 139.45 123.956 139.317ZM124.404 142.026L124.063 142.054L124.024 143.467L124.119 144.641L124.271 144.629C125.681 144.465 126.376 144.256 126.355 144.003C125.619 143.072 124.969 142.413 124.404 142.026ZM133.638 126.336C134.342 126.559 134.715 126.935 134.758 127.466C135.539 134.621 136.247 139.774 136.883 142.925C136.681 143.577 136.341 143.922 135.861 143.96C134.927 144.036 134.338 142.571 134.096 139.566C133.779 138.474 133.264 134.461 132.552 127.529C132.501 126.898 132.863 126.5 133.638 126.336ZM135.968 152.377C136.133 151.576 136.505 151.152 137.086 151.105C137.692 151.056 138.14 151.414 138.43 152.178C138.212 152.933 137.85 153.331 137.345 153.372L137.231 153.381C136.726 153.422 136.305 153.087 135.968 152.377Z" fill="white"/>
<path d="M2.46493 106.227L2.44884 106.028L2.43138 106.03L2.41444 106.034L2.46493 106.227ZM4.75388 111.914L4.55659 111.947L4.55907 111.961L4.56376 111.976L4.75388 111.914ZM6.14515 114.508L6.16124 114.708L6.29661 114.697L6.33638 114.567L6.14515 114.508ZM6.70987 109.697L6.90922 109.681L6.90852 109.672L6.90708 109.664L6.70987 109.697ZM6.27164 107.102L6.08095 107.042L6.06639 107.088L6.07443 107.135L6.27164 107.102ZM9.16525 110.833L8.9659 110.849L8.96719 110.865L8.97102 110.881L9.16525 110.833ZM7.18153 133.486L7.23303 133.68L7.26933 133.67L7.29964 133.648L7.18153 133.486ZM6.36047 133.705L6.37657 133.904L6.39454 133.903L6.41197 133.898L6.36047 133.705ZM2.02143 130.014L1.82667 130.06L1.83318 130.088L1.84723 130.113L2.02143 130.014ZM1.49709 127.769L1.29773 127.785L1.29894 127.8L1.30233 127.815L1.49709 127.769ZM2.68756 125.043L2.78146 124.866L2.72979 124.838L2.67146 124.843L2.68756 125.043ZM3.6834 125.572L3.88329 125.566L3.87947 125.45L3.7773 125.396L3.6834 125.572ZM3.76239 127.968L3.56227 127.974L3.56304 127.984L3.76239 127.968ZM5.82696 131.346L5.69737 131.499L5.76047 131.552L5.84305 131.546L5.82696 131.346ZM8.74528 123.105L8.9451 123.113L8.94548 123.105L8.94507 123.096L8.74528 123.105ZM8.6437 120.902L8.84368 120.893L8.84288 120.884L8.6437 120.902ZM7.94626 116.04L8.13576 115.976L8.03107 115.666L7.80287 115.901L7.94626 116.04ZM1.38553 107.496L1.58044 107.452L1.5605 107.365L1.48272 107.322L1.38553 107.496ZM1.26579 107.43L1.06644 107.446L1.07505 107.553L1.1686 107.605L1.26579 107.43ZM2.48102 106.427C2.61826 106.416 2.77539 106.476 2.95667 106.677C3.13974 106.88 3.32748 107.206 3.51448 107.67C3.88764 108.597 4.23614 110.019 4.55659 111.947L4.95117 111.881C4.62945 109.946 4.27537 108.489 3.88554 107.521C3.69104 107.038 3.48219 106.662 3.25357 106.409C3.02316 106.153 2.75349 106.004 2.44884 106.028L2.48102 106.427ZM4.56376 111.976C4.8513 112.857 5.09436 113.522 5.29269 113.967C5.39129 114.188 5.4826 114.364 5.56692 114.486C5.60871 114.547 5.65478 114.603 5.70596 114.645C5.75437 114.685 5.83336 114.734 5.93398 114.726L5.90179 114.327C5.95191 114.323 5.97459 114.348 5.96087 114.337C5.94993 114.328 5.92805 114.305 5.89609 114.259C5.83291 114.167 5.75346 114.018 5.65807 113.804C5.46839 113.378 5.23045 112.729 4.944 111.852L4.56376 111.976ZM5.93398 114.726L6.16124 114.708L6.12905 114.309L5.90179 114.327L5.93398 114.726ZM6.33638 114.567C6.84595 112.903 7.03782 111.274 6.90922 109.681L6.51052 109.713C6.63468 111.251 6.45007 112.83 5.95392 114.45L6.33638 114.567ZM6.90708 109.664L6.46885 107.069L6.07443 107.135L6.51266 109.73L6.90708 109.664ZM6.46233 107.162C6.67369 106.494 6.99149 106.215 7.37936 106.184L7.34717 105.785C6.72499 105.835 6.31504 106.302 6.08095 107.042L6.46233 107.162ZM7.37936 106.184C7.54465 106.171 7.70197 106.228 7.85974 106.386C8.02302 106.55 8.18162 106.819 8.32701 107.21C8.61748 107.991 8.83276 109.2 8.9659 110.849L9.3646 110.817C9.2307 109.159 9.01214 107.905 8.70195 107.07C8.54702 106.654 8.36358 106.325 8.14312 106.104C7.91715 105.877 7.64902 105.761 7.34717 105.785L7.37936 106.184ZM8.97102 110.881C9.80165 114.262 10.3353 117.423 10.5727 120.365L10.9715 120.333C10.732 117.366 10.1943 114.183 9.35947 110.786L8.97102 110.881ZM10.5727 120.365L10.7165 122.145L11.1152 122.113L10.9715 120.333L10.5727 120.365ZM10.7165 122.145C11.1521 127.542 9.9104 131.242 7.06342 133.325L7.29964 133.648C10.3082 131.446 11.556 127.574 11.1152 122.113L10.7165 122.145ZM7.13004 133.293L6.30898 133.512L6.41197 133.898L7.23303 133.68L7.13004 133.293ZM6.34438 133.506C5.69268 133.558 5.02179 133.309 4.32581 132.717C3.62771 132.123 2.91648 131.194 2.19563 129.916L1.84723 130.113C2.57976 131.411 3.31839 132.385 4.06664 133.022C4.81701 133.66 5.58895 133.968 6.37657 133.904L6.34438 133.506ZM2.21619 129.969L1.69185 127.724L1.30233 127.815L1.82667 130.06L2.21619 129.969ZM1.69644 127.753L1.68727 127.639L1.28856 127.672L1.29773 127.785L1.69644 127.753ZM1.68727 127.639C1.62097 126.818 1.69006 126.225 1.86868 125.836C1.95655 125.644 2.06919 125.506 2.20275 125.411C2.33611 125.317 2.50061 125.258 2.70365 125.242L2.67146 124.843C2.40736 124.865 2.17151 124.943 1.97132 125.085C1.77134 125.227 1.61724 125.425 1.50516 125.669C1.28391 126.151 1.22032 126.826 1.28856 127.672L1.68727 127.639ZM2.59365 125.219L3.58949 125.749L3.7773 125.396L2.78146 124.866L2.59365 125.219ZM3.4835 125.579L3.5625 127.974L3.96228 127.961L3.88329 125.566L3.4835 125.579ZM3.56304 127.984C3.66266 129.218 4.39239 130.389 5.69737 131.499L5.95654 131.194C4.6963 130.122 4.04965 129.04 3.96174 127.951L3.56304 127.984ZM5.84305 131.546L6.33545 131.506L6.30326 131.107L5.81086 131.147L5.84305 131.546ZM6.33545 131.506C6.75404 131.472 7.11198 131.24 7.41049 130.853C7.70651 130.47 7.95369 129.924 8.15923 129.229C8.57062 127.838 8.83067 125.796 8.9451 123.113L8.54547 123.096C8.43143 125.77 8.17292 127.772 7.77566 129.115C7.57689 129.787 7.34722 130.281 7.09388 130.609C6.84302 130.934 6.57908 131.085 6.30326 131.107L6.33545 131.506ZM8.94507 123.096L8.84349 120.893L8.44391 120.911L8.5455 123.114L8.94507 123.096ZM8.84288 120.884C8.61237 118.342 8.37867 116.696 8.13576 115.976L7.75676 116.104C7.98152 116.77 8.21278 118.365 8.44452 120.92L8.84288 120.884ZM7.80287 115.901C7.33919 116.378 6.92554 116.735 6.56154 116.977C6.19542 117.221 5.8935 117.34 5.65094 117.359L5.68313 117.758C6.02135 117.731 6.38969 117.572 6.78331 117.31C7.17905 117.047 7.61462 116.668 8.08964 116.18L7.80287 115.901ZM5.65094 117.359C5.42645 117.377 5.15311 117.248 4.82854 116.86C4.50761 116.476 4.16863 115.874 3.81483 115.043C3.10831 113.382 2.363 110.855 1.58044 107.452L1.19062 107.541C1.97459 110.95 2.72613 113.506 3.44677 115.199C3.80656 116.045 4.16374 116.688 4.52156 117.116C4.87573 117.54 5.26372 117.792 5.68313 117.758L5.65094 117.359ZM1.48272 107.322L1.36298 107.255L1.1686 107.605L1.28834 107.671L1.48272 107.322ZM1.46514 107.414C1.44625 107.18 1.51489 106.992 1.67202 106.835C1.83656 106.67 2.10952 106.527 2.51542 106.421L2.41444 106.034C1.97402 106.149 1.62397 106.317 1.3888 106.552C1.14622 106.796 1.03844 107.099 1.06644 107.446L1.46514 107.414ZM22.8166 105.843L23.0094 105.79L23.0056 105.776L22.9998 105.762L22.8166 105.843ZM23.0323 106.626L23.2317 106.61L23.2301 106.591L23.2251 106.573L23.0323 106.626ZM19.9142 115.227L20.0614 115.362L20.0679 115.355L20.0737 115.347L19.9142 115.227ZM13.5288 114.522L13.3413 114.592L13.3439 114.598L13.3469 114.605L13.5288 114.522ZM16.6021 102.532L16.4985 102.361L16.4852 102.369L16.4732 102.379L16.6021 102.532ZM20.7903 107.188L20.9874 107.222L20.9917 107.197L20.9896 107.172L20.7903 107.188ZM20.7322 106.468L20.9315 106.452L20.9294 106.425L20.9202 106.4L20.7322 106.468ZM16.1185 106.46L16.0546 106.27L15.9755 106.297L15.9389 106.372L16.1185 106.46ZM18.2542 102.218C19.9923 102.078 21.461 103.249 22.6334 105.923L22.9998 105.762C21.8046 103.036 20.221 101.658 18.222 101.819L18.2542 102.218ZM22.6238 105.896L22.8395 106.679L23.2251 106.573L23.0094 105.79L22.6238 105.896ZM22.833 106.642C23.0458 109.278 22.0339 112.097 19.7548 115.106L20.0737 115.347C22.3882 112.292 23.4551 109.377 23.2317 106.61L22.833 106.642ZM19.7671 115.091C18.8551 116.082 17.9137 116.598 16.9433 116.676L16.9754 117.075C18.0756 116.986 19.1042 116.402 20.0614 115.362L19.7671 115.091ZM16.9433 116.676C16.2268 116.734 15.6088 116.578 15.0786 116.214C14.5453 115.848 14.0867 115.263 13.7108 114.439L13.3469 114.605C13.743 115.473 14.242 116.125 14.8523 116.544C15.4656 116.965 16.1768 117.14 16.9754 117.075L16.9433 116.676ZM13.7164 114.453C13.428 113.674 13.2631 112.995 13.2161 112.412L12.8174 112.445C12.8682 113.074 13.0447 113.791 13.3413 114.592L13.7164 114.453ZM13.2161 112.412L13.1794 111.958L12.7807 111.99L12.8174 112.445L13.2161 112.412ZM13.1794 111.958C12.8618 108.024 14.05 104.943 16.7309 102.685L16.4732 102.379C13.6806 104.731 12.4541 107.945 12.7807 111.99L13.1794 111.958ZM16.7056 102.703C17.1618 102.427 17.6768 102.265 18.2542 102.218L18.222 101.819C17.5873 101.871 17.0116 102.05 16.4985 102.361L16.7056 102.703ZM15.046 112.188C15.1162 113.058 15.282 113.731 15.5628 114.183C15.705 114.412 15.8798 114.589 16.0911 114.703C16.3034 114.817 16.5404 114.861 16.795 114.84L16.7629 114.442C16.5756 114.457 16.4173 114.424 16.2808 114.351C16.1433 114.277 16.0161 114.154 15.9026 113.972C15.6722 113.601 15.5131 113.004 15.4447 112.156L15.046 112.188ZM16.795 114.84C17.8148 114.758 18.6576 114.03 19.3404 112.761C20.024 111.491 20.5705 109.64 20.9874 107.222L20.5932 107.154C20.1791 109.556 19.6417 111.357 18.9882 112.571C18.3339 113.787 17.5864 114.375 16.7629 114.442L16.795 114.84ZM20.9896 107.172L20.9315 106.452L20.5328 106.485L20.5909 107.204L20.9896 107.172ZM20.9202 106.4C20.6355 105.616 20.2658 105.018 19.7999 104.628C19.3285 104.233 18.771 104.062 18.1403 104.113L18.1725 104.512C18.7033 104.469 19.1559 104.611 19.5431 104.935C19.9358 105.263 20.2733 105.79 20.5442 106.537L20.9202 106.4ZM18.1403 104.113C17.8613 104.136 17.633 104.255 17.493 104.487C17.3606 104.706 17.3248 104.997 17.3517 105.331L17.7504 105.299C17.7264 105.001 17.7659 104.809 17.8353 104.694C17.897 104.592 17.997 104.526 18.1725 104.512L18.1403 104.113ZM17.3517 105.331C17.3616 105.454 17.3044 105.598 17.094 105.767C16.8819 105.936 16.5407 106.106 16.0546 106.27L16.1825 106.649C16.686 106.479 17.0783 106.291 17.3438 106.079C17.6109 105.866 17.7751 105.605 17.7504 105.299L17.3517 105.331ZM15.9389 106.372C15.1555 107.973 14.8625 109.916 15.046 112.188L15.4447 112.156C15.2653 109.934 15.5545 108.068 16.2982 106.547L15.9389 106.372ZM27.1939 104.193L27.0831 104.027L27.0159 104.071L26.9986 104.15L27.1939 104.193ZM27.8451 103.759L27.829 103.56L27.7774 103.564L27.7343 103.593L27.8451 103.759ZM29.2595 104.751L29.4577 104.777L29.4656 104.718L29.4402 104.665L29.2595 104.751ZM30.2493 113.706L30.0782 113.81L30.1422 113.915L30.2654 113.905L30.2493 113.706ZM32.3899 104.803L32.2479 104.662L32.1973 104.713L32.1907 104.785L32.3899 104.803ZM34.8863 108.338L34.687 108.354L34.6879 108.364L34.6899 108.375L34.8863 108.338ZM36.3547 112.832L36.3708 113.031L36.4092 113.028L36.4437 113.011L36.3547 112.832ZM36.9045 112.559L36.9602 112.367L36.8854 112.345L36.8156 112.38L36.9045 112.559ZM38.0978 113.644L38.2848 113.715L38.3007 113.673L38.2971 113.628L38.0978 113.644ZM33.4865 112.72L33.661 112.623L33.4519 112.249L33.2996 112.649L33.4865 112.72ZM27.0674 111.599L26.8705 111.634L26.8721 111.643L26.8745 111.652L27.0674 111.599ZM26.856 110.396L26.6566 110.413L26.6574 110.422L26.659 110.431L26.856 110.396ZM27.3048 104.36L27.956 103.926L27.7343 103.593L27.0831 104.027L27.3048 104.36ZM27.8612 103.959C28.1206 103.938 28.3431 103.997 28.5385 104.134C28.7374 104.274 28.92 104.502 29.0788 104.836L29.4402 104.665C29.2621 104.29 29.0406 103.998 28.7681 103.807C28.4919 103.613 28.1757 103.532 27.829 103.56L27.8612 103.959ZM29.0612 104.724C28.8061 106.64 28.7588 108.59 28.9189 110.573L29.3176 110.541C29.1597 108.585 29.2065 106.664 29.4577 104.777L29.0612 104.724ZM28.9189 110.573C29.0015 111.597 29.3925 112.677 30.0782 113.81L30.4204 113.603C29.757 112.506 29.3939 111.486 29.3176 110.541L28.9189 110.573ZM30.2654 113.905L30.4926 113.887L30.4604 113.488L30.2332 113.507L30.2654 113.905ZM30.4926 113.887C30.6535 113.874 30.7873 113.783 30.8951 113.664C31.0031 113.544 31.1003 113.38 31.1902 113.182C31.3703 112.785 31.5392 112.209 31.6996 111.464C32.0211 109.972 32.3172 107.756 32.589 104.821L32.1907 104.785C31.9193 107.715 31.6249 109.911 31.3086 111.38C31.1501 112.116 30.9883 112.659 30.8259 113.017C30.7445 113.196 30.6675 113.319 30.5983 113.396C30.5289 113.472 30.4826 113.487 30.4604 113.488L30.4926 113.887ZM32.5318 104.944C32.8411 104.632 33.1278 104.487 33.3919 104.465L33.3597 104.067C32.9674 104.098 32.5967 104.311 32.2479 104.662L32.5318 104.944ZM33.3919 104.465C33.5192 104.455 33.642 104.498 33.7687 104.626C33.901 104.759 34.0319 104.98 34.153 105.306C34.395 105.958 34.5753 106.97 34.687 108.354L35.0857 108.322C34.9732 106.928 34.7896 105.872 34.5281 105.167C34.3974 104.815 34.2417 104.534 34.0524 104.344C33.8576 104.148 33.6239 104.045 33.3597 104.067L33.3919 104.465ZM34.6899 108.375C34.9777 109.891 35.2457 111.033 35.4945 111.795C35.6184 112.174 35.7411 112.47 35.8649 112.674C35.9267 112.775 35.9949 112.863 36.0721 112.927C36.1507 112.992 36.2523 113.041 36.3708 113.031L36.3387 112.633C36.3562 112.631 36.3541 112.641 36.3263 112.618C36.2973 112.594 36.2564 112.547 36.2065 112.465C36.1069 112.302 35.9956 112.041 35.8747 111.671C35.6341 110.934 35.3699 109.813 35.0828 108.3L34.6899 108.375ZM36.4437 113.011L36.9935 112.738L36.8156 112.38L36.2658 112.653L36.4437 113.011ZM36.8489 112.751C37.5746 112.961 37.8678 113.281 37.8984 113.661L38.2971 113.628C38.2462 112.998 37.7439 112.594 36.9602 112.367L36.8489 112.751ZM37.9107 113.574C37.5508 114.525 37.0099 114.98 36.304 115.037L36.3362 115.436C37.2464 115.362 37.8906 114.757 38.2848 113.715L37.9107 113.574ZM36.304 115.037C35.9221 115.068 35.5103 114.911 35.0627 114.513C34.614 114.115 34.1457 113.489 33.661 112.623L33.3119 112.818C33.8072 113.703 34.3013 114.372 34.7971 114.812C35.2941 115.253 35.8091 115.479 36.3362 115.436L36.304 115.037ZM33.2996 112.649C32.8838 113.741 32.4491 114.555 31.9999 115.103C31.551 115.651 31.1032 115.915 30.6592 115.95L30.6914 116.349C31.2827 116.301 31.821 115.952 32.3092 115.357C32.7971 114.761 33.2503 113.903 33.6734 112.792L33.2996 112.649ZM30.6592 115.95C29.9726 116.006 29.3465 115.702 28.7748 114.981C28.198 114.254 27.6899 113.115 27.2603 111.546L26.8745 111.652C27.3099 113.242 27.8356 114.44 28.4614 115.23C29.0923 116.025 29.8377 116.418 30.6914 116.349L30.6592 115.95ZM27.2644 111.565L27.053 110.362L26.659 110.431L26.8705 111.634L27.2644 111.565ZM27.0553 110.38L27.0247 110.002L26.626 110.034L26.6566 110.413L27.0553 110.38ZM27.0247 110.002C26.8632 108 26.985 106.078 27.3893 104.236L26.9986 104.15C26.5853 106.034 26.4615 107.995 26.626 110.034L27.0247 110.002ZM58.3678 100.228L58.323 100.033L58.296 100.039L58.2716 100.053L58.3678 100.228ZM59.9024 99.8753L59.8863 99.676L59.8718 99.6771L59.8576 99.6804L59.9024 99.8753ZM61.0578 100.964L61.2571 100.948L61.2563 100.938L61.2546 100.929L61.0578 100.964ZM58.7028 102.488L58.6625 102.292L58.6082 102.304L58.5674 102.341L58.7028 102.488ZM57.5015 106.97L57.3021 106.986L57.3036 107.004L57.3082 107.021L57.5015 106.97ZM63.8118 108.633L63.7957 108.434L63.7163 108.44L63.6631 108.499L63.8118 108.633ZM65.3367 109.578L65.5312 109.624L65.5487 109.551L65.5136 109.484L65.3367 109.578ZM62.1663 112.807L62.2596 112.984L62.2643 112.981L62.1663 112.807ZM55.2881 107.415L55.0888 107.431L55.0903 107.45L55.0954 107.468L55.2881 107.415ZM58.4126 100.423L59.9472 100.07L59.8576 99.6804L58.323 100.033L58.4126 100.423ZM59.9185 100.075C60.1899 100.053 60.3843 100.12 60.5276 100.255C60.6769 100.396 60.7954 100.633 60.8609 100.999L61.2546 100.929C61.1811 100.518 61.0376 100.186 60.8019 99.9637C60.5601 99.7358 60.2463 99.6469 59.8863 99.676L59.9185 100.075ZM60.8584 100.98C60.8779 101.221 60.7583 101.458 60.4016 101.688C60.0402 101.922 59.4665 102.127 58.6625 102.292L58.7431 102.684C59.5641 102.515 60.1954 102.298 60.619 102.024C61.0473 101.747 61.2927 101.388 61.2571 100.948L60.8584 100.98ZM58.5674 102.341C57.5541 103.272 57.0941 104.409 57.2012 105.736L57.5999 105.703C57.5032 104.505 57.9113 103.487 58.8381 102.636L58.5674 102.341ZM57.2012 105.736L57.3021 106.986L57.7008 106.953L57.5999 105.703L57.2012 105.736ZM57.3082 107.021C57.6753 108.399 58.1081 109.441 58.6153 110.13C59.1257 110.824 59.7312 111.184 60.4295 111.127L60.3973 110.729C59.8835 110.77 59.3977 110.519 58.9375 109.893C58.474 109.263 58.0569 108.277 57.6947 106.918L57.3082 107.021ZM60.4295 111.127L60.8083 111.097L60.7761 110.698L60.3973 110.729L60.4295 111.127ZM60.8083 111.097C61.2186 111.064 61.6842 110.833 62.1973 110.449C62.7151 110.06 63.303 109.498 63.9605 108.767L63.6631 108.499C63.0145 109.221 62.4462 109.762 61.9574 110.129C61.464 110.499 61.0728 110.674 60.7761 110.698L60.8083 111.097ZM63.8279 108.833L64.0551 108.814L64.0229 108.415L63.7957 108.434L63.8279 108.833ZM64.0551 108.814C64.4417 108.783 64.8148 109.017 65.1598 109.671L65.5136 109.484C65.1385 108.773 64.6464 108.365 64.0229 108.415L64.0551 108.814ZM65.1422 109.531C64.8967 110.56 63.9051 111.6 62.0683 112.633L62.2643 112.981C64.123 111.937 65.245 110.824 65.5312 109.624L65.1422 109.531ZM62.073 112.63C61.7629 112.794 61.3557 112.901 60.8429 112.942L60.875 113.341C61.4227 113.297 61.8871 113.18 62.2596 112.984L62.073 112.63ZM60.8429 112.942C59.6032 113.042 58.5468 112.64 57.6589 111.728C56.7636 110.807 56.0331 109.36 55.4809 107.362L55.0954 107.468C55.6562 109.498 56.4106 111.018 57.3722 112.007C58.3413 113.003 59.5138 113.451 60.875 113.341L60.8429 112.942ZM55.4875 107.399L55.4202 106.566L55.0215 106.598L55.0888 107.431L55.4875 107.399ZM55.4202 106.566C55.3032 105.116 55.5032 103.885 56.008 102.866C56.512 101.849 57.3269 101.027 58.464 100.403L58.2716 100.053C57.0723 100.71 56.1944 101.589 55.6495 102.689C55.1053 103.787 54.9001 105.094 55.0215 106.598L55.4202 106.566ZM76.301 98.3228L76.4881 98.3936L76.504 98.3515L76.5004 98.3067L76.301 98.3228ZM76.0182 99.07L75.8312 98.9992L75.8165 99.038L75.8184 99.0795L76.0182 99.07ZM76.3505 106.02L76.1506 106.029L76.1511 106.036L76.3505 106.02ZM78.7152 111.7L78.9107 111.658L78.8903 111.563L78.804 111.521L78.7152 111.7ZM78.8368 112.262L79.0367 112.266L79.0373 112.243L79.0323 112.22L78.8368 112.262ZM77.6755 113.461L77.5767 113.635L77.6303 113.666L77.6916 113.661L77.6755 113.461ZM74.3578 107.782L74.5571 107.766L74.5411 107.566L74.3417 107.582L74.3578 107.782ZM74.0927 107.803L74.0766 107.604L73.9361 107.615L73.8995 107.751L74.0927 107.803ZM70.7611 112.342L70.7223 112.538L70.7495 112.544L70.7771 112.541L70.7611 112.342ZM71.9329 98.5229L71.7945 98.3786L71.7794 98.393L71.7677 98.4102L71.9329 98.5229ZM70.776 107.804L70.5766 107.788L70.5764 107.792L70.776 107.804ZM70.7101 108.877L70.5105 108.865L70.5096 108.879L70.5107 108.893L70.7101 108.877ZM70.7682 109.597L70.5688 109.613L70.5849 109.812L70.7843 109.796L70.7682 109.597ZM71.1469 109.566L71.163 109.765L71.2979 109.754L71.338 109.625L71.1469 109.566ZM73.2906 100.701L73.4899 100.685L73.4738 100.485L73.2745 100.501L73.2906 100.701ZM73.1391 100.713L73.123 100.514L73.0337 100.521L72.9796 100.592L73.1391 100.713ZM74.5435 97.331C75.0779 97.2879 75.4505 97.3657 75.6926 97.5282C75.9254 97.6845 76.0696 97.9414 76.1017 98.3389L76.5004 98.3067C76.4611 97.8204 76.274 97.4369 75.9156 97.1962C75.5664 96.9617 75.0879 96.8858 74.5113 96.9323L74.5435 97.331ZM76.114 98.252L75.8312 98.9992L76.2053 99.1408L76.4881 98.3936L76.114 98.252ZM75.8184 99.0795L76.1507 106.029L76.5502 106.01L76.218 99.0604L75.8184 99.0795ZM76.1511 106.036C76.2784 107.612 76.5413 108.892 76.9466 109.865C77.3521 110.839 77.9071 111.523 78.6264 111.879L78.804 111.521C78.1996 111.221 77.6986 110.631 77.3159 109.711C76.9329 108.791 76.6753 107.558 76.5498 106.004L76.1511 106.036ZM78.5197 111.742L78.6413 112.304L79.0323 112.22L78.9107 111.658L78.5197 111.742ZM78.6369 112.257C78.6291 112.603 78.5526 112.837 78.4339 112.987C78.3199 113.131 78.147 113.223 77.8867 113.244L77.9189 113.642C78.2646 113.614 78.5504 113.484 78.7477 113.235C78.9404 112.991 79.0279 112.66 79.0367 112.266L78.6369 112.257ZM77.8867 113.244L77.6594 113.262L77.6916 113.661L77.9189 113.642L77.8867 113.244ZM77.7743 113.287C75.8439 112.191 74.7668 110.363 74.5571 107.766L74.1584 107.798C74.3768 110.503 75.5116 112.462 77.5767 113.635L77.7743 113.287ZM74.3417 107.582L74.0766 107.604L74.1088 108.003L74.3739 107.981L74.3417 107.582ZM73.8995 107.751C73.5116 109.195 73.0466 110.274 72.5122 111.002C71.9803 111.726 71.3905 112.091 70.745 112.143L70.7771 112.541C71.5709 112.477 72.2561 112.027 72.8347 111.239C73.4108 110.454 73.8919 109.321 74.2858 107.855L73.8995 107.751ZM70.7999 112.146C70.1542 112.018 69.6695 111.736 69.3287 111.307C68.9858 110.875 68.7745 110.278 68.7114 109.496L68.3127 109.528C68.38 110.362 68.6088 111.044 69.0156 111.556C69.4245 112.07 69.999 112.395 70.7223 112.538L70.7999 112.146ZM68.7114 109.496C68.4286 105.992 69.5487 102.374 72.0982 98.6356L71.7677 98.4102C69.1812 102.203 68.0207 105.911 68.3127 109.528L68.7114 109.496ZM72.0714 98.6672C72.9501 97.8239 73.7738 97.3931 74.5435 97.331L74.5113 96.9323C73.6144 97.0047 72.7085 97.5014 71.7945 98.3786L72.0714 98.6672ZM70.5764 107.792L70.5105 108.865L70.9097 108.889L70.9756 107.816L70.5764 107.792ZM70.5107 108.893L70.5688 109.613L70.9675 109.58L70.9094 108.861L70.5107 108.893ZM70.7843 109.796L71.163 109.765L71.1308 109.367L70.7521 109.397L70.7843 109.796ZM71.338 109.625C72.0948 107.186 72.653 105.224 73.0117 103.741C73.1911 102.999 73.3211 102.374 73.4012 101.868C73.4806 101.366 73.5128 100.968 73.4899 100.685L73.0912 100.717C73.1102 100.951 73.0843 101.311 73.0061 101.806C72.9283 102.298 72.8009 102.911 72.623 103.647C72.2671 105.118 71.7117 107.071 70.9559 109.507L71.338 109.625ZM73.2745 100.501L73.123 100.514L73.1552 100.912L73.3067 100.9L73.2745 100.501ZM72.9796 100.592C71.6179 102.391 70.822 104.795 70.5766 107.788L70.9753 107.82C71.2166 104.878 71.9961 102.554 73.2985 100.834L72.9796 100.592ZM84.7143 98.1774L84.7146 97.9774L84.7064 97.9774L84.6982 97.978L84.7143 98.1774ZM88.1876 101.061L87.9882 101.077L87.9895 101.093L87.993 101.107L88.1876 101.061ZM88.3031 101.548L88.5026 101.534L88.5015 101.517L88.4977 101.501L88.3031 101.548ZM88.7043 107.462L88.5048 107.476L88.505 107.479L88.7043 107.462ZM90.1017 110.133L90.3011 110.117L90.2961 110.056L90.258 110.008L90.1017 110.133ZM90.1078 110.208L90.3043 110.246L90.3093 110.219L90.3072 110.192L90.1078 110.208ZM89.0981 111.396L89.0358 111.586L89.074 111.598L89.1142 111.595L89.0981 111.396ZM86.3736 106.926L86.573 106.91L86.5644 106.803L86.4708 106.751L86.3736 106.926ZM86.2539 106.86L86.0847 106.753L85.9719 106.932L86.1567 107.034L86.2539 106.86ZM86.3553 106.699L86.5244 106.806L86.56 106.749L86.5546 106.683L86.3553 106.699ZM86.3492 106.623L86.1495 106.635L86.1498 106.639L86.3492 106.623ZM86.0408 101.387L86.2405 101.375L86.2402 101.371L86.0408 101.387ZM84.5507 100.402L84.5346 100.202L84.4962 100.206L84.4617 100.223L84.5507 100.402ZM81.0473 110.368L80.8478 110.384L80.8485 110.39L81.0473 110.368ZM81.4362 99.1282L81.4523 99.3276L81.4815 99.3252L81.5089 99.3146L81.4362 99.1282ZM81.8058 98.984L81.818 98.7844L81.7741 98.7817L81.7331 98.7977L81.8058 98.984ZM82.6103 99.0335L82.5981 99.2331L82.6743 99.2378L82.7343 99.1904L82.6103 99.0335ZM84.714 98.3774C85.7676 98.3791 86.545 98.6145 87.0753 99.0549C87.602 99.4921 87.9138 100.156 87.9882 101.077L88.3869 101.045C88.3064 100.048 87.9619 99.2711 87.3308 98.7471C86.7034 98.2261 85.8216 97.9792 84.7146 97.9774L84.714 98.3774ZM87.993 101.107L88.1085 101.594L88.4977 101.501L88.3822 101.015L87.993 101.107ZM88.1036 101.561L88.5048 107.476L88.9039 107.449L88.5026 101.534L88.1036 101.561ZM88.505 107.479C88.5652 108.224 89.0654 109.155 89.9454 110.257L90.258 110.008C89.3849 108.914 88.9536 108.064 88.9037 107.446L88.505 107.479ZM89.9024 110.149L89.9085 110.225L90.3072 110.192L90.3011 110.117L89.9024 110.149ZM89.9114 110.171C89.8436 110.526 89.7337 110.775 89.5959 110.937C89.4629 111.093 89.2957 111.179 89.082 111.196L89.1142 111.595C89.4307 111.569 89.697 111.436 89.9005 111.196C90.0993 110.963 90.2292 110.639 90.3043 110.246L89.9114 110.171ZM89.1603 111.205C88.3903 110.953 87.7996 110.515 87.3787 109.892C86.9559 109.265 86.6964 108.44 86.6127 107.403L86.214 107.435C86.3015 108.519 86.5752 109.416 87.0472 110.116C87.5212 110.818 88.1872 111.308 89.0358 111.586L89.1603 111.205ZM86.6127 107.403L86.573 106.91L86.1743 106.942L86.214 107.435L86.6127 107.403ZM86.4708 106.751L86.3511 106.685L86.1567 107.034L86.2764 107.101L86.4708 106.751ZM86.423 106.966L86.5244 106.806L86.1861 106.592L86.0847 106.753L86.423 106.966ZM86.5546 106.683L86.5485 106.607L86.1498 106.639L86.1559 106.715L86.5546 106.683ZM86.5488 106.611L86.2405 101.375L85.8412 101.399L86.1495 106.635L86.5488 106.611ZM86.2402 101.371C86.2087 100.981 86.0986 100.658 85.8781 100.44C85.6523 100.217 85.3439 100.137 84.9892 100.166L85.0213 100.564C85.2979 100.542 85.4778 100.607 85.5971 100.725C85.7218 100.848 85.8139 101.061 85.8415 101.403L86.2402 101.371ZM84.9892 100.166L84.5346 100.202L84.5668 100.601L85.0213 100.564L84.9892 100.166ZM84.4617 100.223C84.1032 100.401 83.822 100.732 83.6064 101.185C83.3909 101.638 83.234 102.225 83.1304 102.94C82.9232 104.37 82.9239 106.348 83.1271 108.866L83.5259 108.834C83.3235 106.326 83.3254 104.384 83.5263 102.998C83.6267 102.305 83.7756 101.76 83.9675 101.357C84.1594 100.954 84.3874 100.706 84.6397 100.581L84.4617 100.223ZM83.1271 108.866C83.1966 109.727 83.1361 110.351 82.9682 110.761C82.8855 110.963 82.7794 111.106 82.6557 111.202C82.533 111.298 82.3823 111.356 82.1957 111.371L82.2279 111.77C82.4831 111.749 82.7103 111.667 82.9015 111.518C83.0916 111.37 83.2353 111.164 83.3384 110.912C83.5421 110.415 83.597 109.715 83.5259 108.834L83.1271 108.866ZM82.1957 111.371C81.8996 111.395 81.6962 111.32 81.553 111.172C81.4026 111.016 81.291 110.753 81.2461 110.346L80.8485 110.39C80.8981 110.84 81.0279 111.205 81.2657 111.45C81.5106 111.703 81.8422 111.801 82.2279 111.77L82.1957 111.371ZM81.2466 110.352L80.9409 106.564L80.5422 106.596L80.8479 110.384L81.2466 110.352ZM80.9409 106.564C80.7434 104.118 80.7036 102.286 80.8177 101.062C80.875 100.448 80.9697 100.002 81.0938 99.7115C81.22 99.4159 81.3501 99.3358 81.4523 99.3276L81.4201 98.9289C81.093 98.9553 80.8722 99.2118 80.7259 99.5544C80.5774 99.9022 80.478 100.397 80.4195 101.025C80.302 102.285 80.3442 104.144 80.5422 106.596L80.9409 106.564ZM81.5089 99.3146L81.8785 99.1704L81.7331 98.7977L81.3635 98.9419L81.5089 99.3146ZM81.7935 99.1837L82.5981 99.2331L82.6226 98.8338L81.818 98.7844L81.7935 99.1837ZM82.7343 99.1904C83.3511 98.7032 84.0154 98.4345 84.7304 98.3767L84.6982 97.978C83.8981 98.0426 83.1598 98.3446 82.4864 98.8765L82.7343 99.1904ZM115.177 95.2227L115.376 95.2066L115.375 95.1889L115.37 95.1716L115.177 95.2227ZM114.097 96.4917L114.113 96.6911L114.126 96.69L114.139 96.6874L114.097 96.4917ZM112.62 94.2473L112.815 94.2027L112.796 94.1222L112.727 94.0782L112.62 94.2473ZM112.459 94.1459L112.566 93.9768L112.51 93.9412L112.443 93.9466L112.459 94.1459ZM112.005 94.1826L111.989 93.9832L111.884 93.9917L111.831 94.0829L112.005 94.1826ZM111.428 97.4315L111.228 97.4476L111.23 97.4595L111.428 97.4315ZM111.695 99.3162L111.497 99.3442L111.523 99.5307L111.711 99.5155L111.695 99.3162ZM114.926 98.2548L114.91 98.0554L114.867 98.0588L114.83 98.0793L114.926 98.2548ZM116.334 99.1704L116.533 99.1543L116.529 99.0997L116.497 99.0549L116.334 99.1704ZM112.257 101.558L112.218 101.362L112.014 101.402L112.062 101.604L112.257 101.558ZM113.702 107.656L113.902 107.64L113.9 107.624L113.897 107.61L113.702 107.656ZM112.459 108.785L112.475 108.985L112.492 108.983L112.509 108.979L112.459 108.785ZM110.991 105.244L111.191 105.228L111.189 105.206L111.182 105.185L110.991 105.244ZM110.012 102.083L110.203 102.023L110.148 101.845L109.966 101.888L110.012 102.083ZM107.58 102.66L107.596 102.859L107.612 102.858L107.627 102.855L107.58 102.66ZM106.539 101.562L106.339 101.578L106.34 101.591L106.343 101.604L106.539 101.562ZM109.491 99.8753L109.526 100.072L109.716 100.038L109.688 99.8464L109.491 99.8753ZM109.149 97.5392L108.95 97.5338L108.949 97.551L108.952 97.5681L109.149 97.5392ZM112.425 91.8332C112.933 91.7922 113.4 92.0204 113.833 92.5813C114.27 93.1486 114.657 94.0398 114.983 95.2739L115.37 95.1716C115.038 93.9172 114.634 92.9661 114.149 92.337C113.659 91.7016 113.072 91.3796 112.393 91.4345L112.425 91.8332ZM114.977 95.2388L114.989 95.3903L115.388 95.3582L115.376 95.2066L114.977 95.2388ZM114.989 95.3903C115.009 95.6308 114.944 95.8098 114.808 95.9494C114.665 96.0963 114.423 96.2182 114.056 96.2961L114.139 96.6874C114.546 96.6011 114.874 96.4546 115.094 96.229C115.322 95.9961 115.416 95.6985 115.388 95.3582L114.989 95.3903ZM114.081 96.2924C113.867 96.3097 113.646 96.2003 113.421 95.8589C113.195 95.5145 112.99 94.9682 112.815 94.2027L112.425 94.2919C112.604 95.0737 112.822 95.675 113.087 96.0788C113.355 96.4855 113.696 96.7247 114.113 96.6911L114.081 96.2924ZM112.727 94.0782L112.566 93.9768L112.352 94.315L112.513 94.4164L112.727 94.0782ZM112.443 93.9466L111.989 93.9832L112.021 94.3819L112.475 94.3453L112.443 93.9466ZM111.831 94.0829C111.315 94.981 111.121 96.1076 111.229 97.4476L111.628 97.4154C111.524 96.1293 111.714 95.09 112.178 94.2823L111.831 94.0829ZM111.23 97.4595L111.497 99.3442L111.893 99.2882L111.626 97.4035L111.23 97.4595ZM111.711 99.5155C112.756 99.4312 113.86 99.0661 115.022 98.4302L114.83 98.0793C113.704 98.6956 112.654 99.0381 111.679 99.1168L111.711 99.5155ZM114.942 98.4541C115.314 98.4241 115.725 98.6554 116.171 99.2859L116.497 99.0549C116.025 98.3871 115.497 98.008 114.91 98.0554L114.942 98.4541ZM116.135 99.1865C116.167 99.5916 115.928 99.9897 115.276 100.371C114.626 100.752 113.612 101.085 112.218 101.362L112.296 101.754C113.704 101.475 114.77 101.131 115.478 100.716C116.186 100.302 116.584 99.7845 116.533 99.1543L116.135 99.1865ZM112.062 101.604L113.508 107.702L113.897 107.61L112.452 101.512L112.062 101.604ZM113.503 107.672C113.519 107.871 113.453 108.039 113.289 108.188C113.116 108.345 112.831 108.484 112.41 108.592L112.509 108.979C112.959 108.864 113.316 108.704 113.558 108.484C113.808 108.256 113.928 107.97 113.902 107.64L113.503 107.672ZM112.443 108.586C112.188 108.607 111.925 108.439 111.69 107.871C111.457 107.31 111.288 106.434 111.191 105.228L110.792 105.26C110.89 106.478 111.063 107.404 111.32 108.024C111.574 108.636 111.948 109.027 112.475 108.985L112.443 108.586ZM111.182 105.185L110.203 102.023L109.821 102.142L110.8 105.303L111.182 105.185ZM109.966 101.888L107.534 102.465L107.627 102.855L110.058 102.277L109.966 101.888ZM107.564 102.461C107.356 102.478 107.197 102.416 107.067 102.28C106.93 102.135 106.813 101.891 106.734 101.521L106.343 101.604C106.429 102.008 106.568 102.334 106.777 102.555C106.995 102.785 107.275 102.885 107.596 102.859L107.564 102.461ZM106.738 101.546C106.717 101.28 106.868 101.01 107.33 100.746C107.792 100.482 108.519 100.254 109.526 100.072L109.455 99.6785C108.433 99.8634 107.653 100.101 107.132 100.399C106.61 100.697 106.3 101.087 106.339 101.578L106.738 101.546ZM109.688 99.8464L109.347 97.5103L108.952 97.5681L109.293 99.9042L109.688 99.8464ZM109.349 97.5446C109.4 95.6727 109.695 94.2755 110.216 93.3322C110.73 92.4009 111.463 91.9108 112.425 91.8332L112.393 91.4345C111.284 91.5239 110.438 92.1016 109.866 93.1389C109.3 94.164 109.001 95.6359 108.95 97.5338L109.349 97.5446ZM118.083 88.469L118.108 88.2706L118.087 88.268L118.067 88.2697L118.083 88.469ZM119.626 89.6406L119.819 89.6925L119.828 89.6591L119.825 89.6245L119.626 89.6406ZM118.5 90.799L118.478 90.9979L118.497 90.9999L118.516 90.9984L118.5 90.799ZM116.985 89.5107L116.794 89.4516L116.783 89.4884L116.786 89.5268L116.985 89.5107ZM121.062 94.6714L121.261 94.6805L121.264 94.6307L121.242 94.5857L121.062 94.6714ZM120.938 97.3882L120.738 97.3791L120.737 97.3917L120.738 97.4043L120.938 97.3882ZM122.799 107.226L122.983 107.305L123.012 107.239L122.991 107.17L122.799 107.226ZM118.79 99.1246L118.591 99.1407L118.592 99.1515L118.79 99.1246ZM118.057 88.6674C118.527 88.7274 118.861 88.8488 119.08 89.0146C119.29 89.1747 119.405 89.3839 119.427 89.6567L119.825 89.6245C119.794 89.2408 119.625 88.9265 119.321 88.696C119.025 88.4713 118.614 88.3352 118.108 88.2706L118.057 88.6674ZM119.433 89.5887C119.341 89.9319 119.211 90.1756 119.054 90.3364C118.902 90.4934 118.715 90.581 118.484 90.5997L118.516 90.9984C118.84 90.9722 119.118 90.8443 119.341 90.6152C119.56 90.3899 119.716 90.0767 119.819 89.6925L119.433 89.5887ZM118.521 90.6002C118.07 90.552 117.75 90.4281 117.539 90.2486C117.333 90.0734 117.211 89.8289 117.184 89.4946L116.786 89.5268C116.82 89.95 116.981 90.2991 117.28 90.5533C117.574 90.8032 117.981 90.9447 118.478 90.9979L118.521 90.6002ZM117.176 89.5698C117.27 89.2657 117.397 89.0498 117.548 88.9066C117.696 88.7662 117.877 88.6863 118.099 88.6684L118.067 88.2697C117.759 88.2945 117.491 88.4096 117.273 88.6165C117.058 88.8206 116.901 89.1041 116.794 89.4516L117.176 89.5698ZM119.966 93.8549C120.1 93.8441 120.241 93.8913 120.396 94.0327C120.554 94.1775 120.718 94.4139 120.881 94.7572L121.242 94.5857C121.068 94.2191 120.878 93.9313 120.666 93.7375C120.45 93.5402 120.204 93.4344 119.934 93.4562L119.966 93.8549ZM120.862 94.6623L120.738 97.3791L121.137 97.3973L121.261 94.6805L120.862 94.6623ZM120.738 97.4043L120.882 99.1845L121.281 99.1523L121.137 97.3721L120.738 97.4043ZM120.882 99.1845C121.051 101.275 121.628 103.976 122.608 107.283L122.991 107.17C122.015 103.874 121.446 101.203 121.281 99.1523L120.882 99.1845ZM122.615 107.148C122.522 107.366 122.39 107.528 122.22 107.641C122.05 107.755 121.83 107.828 121.554 107.851L121.586 108.249C121.915 108.223 122.204 108.134 122.443 107.974C122.683 107.813 122.863 107.587 122.983 107.305L122.615 107.148ZM121.554 107.851C121.406 107.863 121.212 107.771 120.979 107.427C120.75 107.09 120.519 106.559 120.289 105.822C119.831 104.351 119.397 102.112 118.989 99.0978L118.592 99.1515C119.001 102.171 119.439 104.437 119.907 105.941C120.141 106.691 120.386 107.266 120.648 107.651C120.905 108.03 121.216 108.279 121.586 108.249L121.554 107.851ZM118.99 99.1085L118.883 97.7828L118.484 97.815L118.591 99.1407L118.99 99.1085ZM118.883 97.7828C118.775 96.4518 118.829 95.4679 119.029 94.8141C119.129 94.4889 119.261 94.2577 119.415 94.1049C119.566 93.9554 119.747 93.8726 119.966 93.8549L119.934 93.4562C119.623 93.4813 119.353 93.6033 119.134 93.8205C118.918 94.0344 118.759 94.3318 118.647 94.6971C118.424 95.4245 118.375 96.4694 118.484 97.815L118.883 97.7828ZM129.836 94.5349L129.837 94.3349L129.829 94.3349L129.82 94.3356L129.836 94.5349ZM133.31 97.4188L133.11 97.4349L133.112 97.4502L133.115 97.465L133.31 97.4188ZM133.425 97.9051L133.625 97.8916L133.624 97.875L133.62 97.8589L133.425 97.9051ZM133.827 103.82L133.627 103.834L133.627 103.836L133.827 103.82ZM135.224 106.49L135.423 106.474L135.418 106.413L135.38 106.365L135.224 106.49ZM135.23 106.566L135.426 106.603L135.432 106.577L135.429 106.55L135.23 106.566ZM134.22 107.753L134.158 107.943L134.196 107.956L134.236 107.952L134.22 107.753ZM131.496 103.284L131.695 103.268L131.687 103.161L131.593 103.109L131.496 103.284ZM131.376 103.217L131.207 103.11L131.094 103.289L131.279 103.392L131.376 103.217ZM131.477 103.057L131.647 103.163L131.682 103.107L131.677 103.04L131.477 103.057ZM131.471 102.981L131.272 102.993L131.272 102.997L131.471 102.981ZM131.163 97.7446L131.363 97.7329L131.362 97.7285L131.163 97.7446ZM129.673 96.7593L129.657 96.56L129.618 96.5631L129.584 96.5802L129.673 96.7593ZM126.169 106.726L125.97 106.742L125.971 106.747L126.169 106.726ZM126.558 95.4858L126.574 95.6851L126.604 95.6828L126.631 95.6721L126.558 95.4858ZM126.928 95.3416L126.94 95.142L126.896 95.1393L126.855 95.1553L126.928 95.3416ZM127.733 95.391L127.72 95.5906L127.797 95.5953L127.857 95.548L127.733 95.391ZM129.836 94.7349C130.89 94.7366 131.667 94.9721 132.198 95.4124C132.724 95.8497 133.036 96.5133 133.11 97.4349L133.509 97.4027C133.429 96.4053 133.084 95.6287 132.453 95.1047C131.826 94.5837 130.944 94.3367 129.837 94.3349L129.836 94.7349ZM133.115 97.465L133.231 97.9513L133.62 97.8589L133.504 97.3726L133.115 97.465ZM133.226 97.9186L133.627 103.834L134.026 103.806L133.625 97.8916L133.226 97.9186ZM133.627 103.836C133.687 104.582 134.188 105.512 135.068 106.615L135.38 106.365C134.507 105.271 134.076 104.422 134.026 103.804L133.627 103.836ZM135.025 106.506L135.031 106.582L135.429 106.55L135.423 106.474L135.025 106.506ZM135.034 106.528C134.966 106.884 134.856 107.133 134.718 107.295C134.585 107.451 134.418 107.536 134.204 107.554L134.236 107.952C134.553 107.927 134.819 107.793 135.023 107.554C135.222 107.32 135.351 106.997 135.426 106.603L135.034 106.528ZM134.283 107.563C133.513 107.311 132.922 106.873 132.501 106.249C132.078 105.623 131.819 104.797 131.735 103.76L131.336 103.792C131.424 104.876 131.697 105.774 132.169 106.473C132.643 107.175 133.309 107.665 134.158 107.943L134.283 107.563ZM131.735 103.76L131.695 103.268L131.296 103.3L131.336 103.792L131.735 103.76ZM131.593 103.109L131.473 103.042L131.279 103.392L131.399 103.459L131.593 103.109ZM131.545 103.324L131.647 103.163L131.308 102.95L131.207 103.11L131.545 103.324ZM131.677 103.04L131.671 102.965L131.272 102.997L131.278 103.073L131.677 103.04ZM131.671 102.969L131.363 97.7329L130.963 97.7564L131.272 102.993L131.671 102.969ZM131.362 97.7285C131.331 97.3383 131.221 97.0152 131 96.7975C130.774 96.5747 130.466 96.4946 130.111 96.5233L130.144 96.922C130.42 96.8997 130.6 96.9645 130.719 97.0823C130.844 97.2053 130.936 97.4186 130.964 97.7607L131.362 97.7285ZM130.111 96.5233L129.657 96.56L129.689 96.9587L130.144 96.922L130.111 96.5233ZM129.584 96.5802C129.225 96.7583 128.944 97.0899 128.729 97.5427C128.513 97.9954 128.356 98.5829 128.253 99.2978C128.045 100.728 128.046 102.705 128.249 105.223L128.648 105.191C128.446 102.684 128.448 100.741 128.648 99.3552C128.749 98.6621 128.898 98.1178 129.09 97.7147C129.282 97.3118 129.51 97.0638 129.762 96.9384L129.584 96.5802ZM128.249 105.223C128.319 106.084 128.258 106.709 128.09 107.118C128.008 107.32 127.902 107.463 127.778 107.56C127.655 107.655 127.505 107.713 127.318 107.728L127.35 108.127C127.605 108.106 127.833 108.024 128.024 107.875C128.214 107.727 128.358 107.521 128.461 107.27C128.664 106.773 128.719 106.073 128.648 105.191L128.249 105.223ZM127.318 107.728C127.022 107.752 126.818 107.677 126.675 107.529C126.525 107.374 126.413 107.11 126.368 106.704L125.971 106.747C126.02 107.197 126.15 107.562 126.388 107.808C126.633 108.061 126.964 108.158 127.35 108.127L127.318 107.728ZM126.369 106.709L126.063 102.922L125.664 102.954L125.97 106.742L126.369 106.709ZM126.063 102.922C125.866 100.475 125.826 98.6435 125.94 97.4193C125.997 96.8053 126.092 96.3597 126.216 96.0691C126.342 95.7734 126.472 95.6934 126.574 95.6851L126.542 95.2864C126.215 95.3128 125.994 95.5693 125.848 95.912C125.7 96.2597 125.6 96.7542 125.542 97.3822C125.424 98.6421 125.466 100.502 125.664 102.954L126.063 102.922ZM126.631 95.6721L127.001 95.5279L126.855 95.1553L126.486 95.2995L126.631 95.6721ZM126.916 95.5412L127.72 95.5906L127.745 95.1914L126.94 95.142L126.916 95.5412ZM127.857 95.548C128.473 95.0608 129.138 94.792 129.853 94.7343L129.82 94.3356C129.02 94.4002 128.282 94.7021 127.609 95.2341L127.857 95.548ZM146.079 86.3616L146.278 86.3768L146.282 86.3185L146.255 86.2669L146.079 86.3616ZM145.262 97.0258L145.063 97.0106L145.061 97.0263L145.063 97.0419L145.262 97.0258ZM147.313 104.485L147.385 104.298L147.342 104.282L147.297 104.286L147.313 104.485ZM146.925 106.766L146.941 106.965L146.951 106.964L146.961 106.962L146.925 106.766ZM144.064 103.909L144.25 103.834L144.195 103.697L144.048 103.709L144.064 103.909ZM143.685 103.939L143.669 103.74L143.541 103.75L143.497 103.871L143.685 103.939ZM137.396 103.951L137.196 103.967L137.197 103.981L137.2 103.994L137.396 103.951ZM142.219 94.7553L142.203 94.5559L142.131 94.5618L142.079 94.6126L142.219 94.7553ZM143.07 91.5986L142.87 91.5879L142.87 91.6013L142.871 91.6147L143.07 91.5986ZM139.689 104.491L139.489 104.507L139.496 104.589L139.559 104.643L139.689 104.491ZM140.343 105.048L140.214 105.2L140.277 105.254L140.36 105.247L140.343 105.048ZM142.821 97.4897L143.019 97.5174L143.054 97.2703L142.805 97.2904L142.821 97.4897ZM142.594 97.5081L142.578 97.3087L142.495 97.3154L142.442 97.3785L142.594 97.5081ZM144.823 85.4436C144.968 85.4319 145.13 85.4858 145.315 85.6479C145.501 85.812 145.699 86.0769 145.902 86.4562L146.255 86.2669C146.04 85.8667 145.816 85.5557 145.578 85.3474C145.339 85.137 145.074 85.022 144.79 85.0449L144.823 85.4436ZM145.879 86.3463L145.063 97.0106L145.461 97.0411L146.278 86.3768L145.879 86.3463ZM145.063 97.0419L145.301 99.9963L145.7 99.9641L145.461 97.0098L145.063 97.0419ZM145.301 99.9963C145.426 101.542 145.641 102.712 145.955 103.492C146.264 104.26 146.709 104.734 147.329 104.684L147.297 104.286C146.957 104.313 146.621 104.075 146.326 103.342C146.035 102.62 145.824 101.499 145.7 99.9641L145.301 99.9963ZM147.241 104.672C147.857 104.909 148.126 105.238 148.158 105.637L148.557 105.605C148.508 104.994 148.08 104.566 147.385 104.298L147.241 104.672ZM148.158 105.637C148.176 105.857 148.1 106.034 147.91 106.186C147.709 106.347 147.377 106.48 146.889 106.569L146.961 106.962C147.475 106.869 147.883 106.72 148.159 106.499C148.447 106.269 148.586 105.965 148.557 105.605L148.158 105.637ZM146.909 106.566C146.424 106.605 145.963 106.421 145.518 105.977C145.068 105.528 144.643 104.82 144.25 103.834L143.878 103.983C144.281 104.992 144.731 105.757 145.235 106.26C145.744 106.768 146.315 107.016 146.941 106.965L146.909 106.566ZM144.048 103.709L143.669 103.74L143.701 104.138L144.08 104.108L144.048 103.709ZM143.497 103.871C142.735 105.972 141.724 106.985 140.508 107.083L140.54 107.482C142.001 107.364 143.097 106.148 143.873 104.007L143.497 103.871ZM140.508 107.083C139.783 107.141 139.192 106.917 138.713 106.407C138.227 105.889 137.847 105.065 137.591 103.908L137.2 103.994C137.464 105.185 137.866 106.089 138.422 106.681C138.986 107.282 139.699 107.55 140.54 107.482L140.508 107.083ZM137.595 103.935C137.38 101.274 138.934 98.2642 142.36 94.898L142.079 94.6126C138.629 98.0029 136.967 101.124 137.196 103.967L137.595 103.935ZM142.236 94.9547C142.47 94.9357 142.672 94.8349 142.832 94.6597C142.988 94.489 143.099 94.2549 143.174 93.9738C143.325 93.4138 143.353 92.6116 143.27 91.5825L142.871 91.6147C142.953 92.631 142.921 93.3776 142.788 93.8697C142.722 94.1148 142.635 94.2827 142.537 94.3898C142.443 94.4924 142.335 94.5453 142.203 94.5559L142.236 94.9547ZM143.27 91.6093C143.381 89.5329 143.581 87.9803 143.865 86.9422C144.007 86.4222 144.166 86.0449 144.337 85.7974C144.507 85.5509 144.671 85.4559 144.823 85.4436L144.79 85.0449C144.475 85.0704 144.216 85.2684 144.008 85.5703C143.8 85.8712 143.626 86.2976 143.479 86.8367C143.184 87.9167 142.982 89.5035 142.87 91.5879L143.27 91.6093ZM139.407 103.484L139.489 104.507L139.888 104.474L139.805 103.452L139.407 103.484ZM139.559 104.643L140.214 105.2L140.473 104.895L139.818 104.338L139.559 104.643ZM140.36 105.247L140.587 105.229L140.555 104.83L140.327 104.848L140.36 105.247ZM140.587 105.229C140.892 105.204 141.136 104.957 141.337 104.625C141.545 104.281 141.742 103.787 141.931 103.153C142.311 101.881 142.673 100.001 143.019 97.5174L142.623 97.4621C142.277 99.9399 141.918 101.796 141.548 103.038C141.362 103.66 141.177 104.117 140.995 104.418C140.806 104.73 140.654 104.822 140.555 104.83L140.587 105.229ZM142.805 97.2904L142.578 97.3087L142.61 97.7074L142.837 97.6891L142.805 97.2904ZM142.442 97.3785C141.38 98.6273 140.592 99.7583 140.084 100.771C139.577 101.782 139.342 102.689 139.407 103.484L139.805 103.452C139.749 102.757 139.953 101.926 140.442 100.95C140.93 99.9762 141.696 98.8722 142.746 97.6377L142.442 97.3785ZM34.5408 146.878L34.3445 146.84L34.334 146.894L34.3524 146.945L34.5408 146.878ZM37.0792 147.627L36.8849 147.674L36.9253 147.84L37.0953 147.826L37.0792 147.627ZM37.2307 147.614L37.2468 147.814L37.2682 147.812L37.2888 147.806L37.2307 147.614ZM38.9425 147.095L38.9264 146.896L38.905 146.897L38.8844 146.904L38.9425 147.095ZM41.4743 149.178L41.3032 149.281L41.3672 149.387L41.4904 149.377L41.4743 149.178ZM41.6258 149.166L41.6419 149.365L41.7512 149.356L41.8025 149.259L41.6258 149.166ZM44.8237 146.277L44.8439 146.078L44.8258 146.076L44.8076 146.078L44.8237 146.277ZM48.927 150.826L48.7273 150.842L48.7289 150.853L48.927 150.826ZM49.1098 152.145L49.3097 152.138L49.3093 152.128L49.3079 152.118L49.1098 152.145ZM49.3865 159.824L49.1865 159.831L49.1872 159.84L49.3865 159.824ZM48.3591 161.737L48.3752 161.936L48.388 161.935L48.4006 161.932L48.3591 161.737ZM46.9617 159.066L46.7613 159.069L46.7624 159.083L46.9617 159.066ZM46.8628 152.174L47.0632 152.171L47.0622 152.158L46.8628 152.174ZM42.7154 153.691L42.5195 153.651L42.5163 153.666L42.5156 153.682L42.7154 153.691ZM41.3774 159.784L41.3678 159.984L41.595 159.995L41.5767 159.768L41.3774 159.784ZM40.1053 158.667L39.9054 158.662L39.9051 158.672L39.906 158.683L40.1053 158.667ZM40.2278 154.044L40.4277 154.049L40.4281 154.036L40.4267 154.023L40.2278 154.044ZM38.785 149.395L38.7689 149.196L38.7018 149.201L38.6516 149.246L38.785 149.395ZM38.2295 154.32L38.4293 154.309L38.4288 154.304L38.2295 154.32ZM38.5458 160.127L38.7421 160.165L38.7468 160.141L38.7455 160.116L38.5458 160.127ZM36.3184 159.926L36.1197 159.948L36.1212 159.962L36.1246 159.975L36.3184 159.926ZM35.806 155.468L35.6061 155.472L35.6063 155.482L35.6074 155.491L35.806 155.468ZM35.7367 151.776L35.9367 151.772L35.9364 151.758L35.9342 151.744L35.7367 151.776ZM34.7371 146.917C34.7941 146.624 34.9043 146.418 35.0544 146.28C35.2038 146.143 35.4108 146.056 35.6925 146.033L35.6603 145.634C35.3107 145.662 35.0127 145.775 34.7836 145.986C34.5552 146.196 34.4132 146.487 34.3445 146.84L34.7371 146.917ZM35.6925 146.033C35.9272 146.014 36.1412 146.109 36.343 146.367C36.5512 146.633 36.7356 147.062 36.8849 147.674L37.2735 147.579C37.1188 146.945 36.9175 146.452 36.6581 146.12C36.3923 145.781 36.0569 145.602 35.6603 145.634L35.6925 146.033ZM37.0953 147.826L37.2468 147.814L37.2146 147.415L37.0631 147.427L37.0953 147.826ZM37.2888 147.806L39.0005 147.286L38.8844 146.904L37.1726 147.423L37.2888 147.806ZM38.9586 147.294C39.2949 147.267 39.6582 147.395 40.0544 147.721C40.452 148.048 40.8692 148.564 41.3032 149.281L41.6454 149.074C41.1995 148.338 40.7548 147.78 40.3085 147.412C39.8608 147.044 39.398 146.857 38.9264 146.896L38.9586 147.294ZM41.4904 149.377L41.6419 149.365L41.6097 148.966L41.4582 148.979L41.4904 149.377ZM41.8025 149.259C42.7656 147.441 43.786 146.561 44.8398 146.476L44.8076 146.078C43.5384 146.18 42.4268 147.226 41.4491 149.072L41.8025 149.259ZM44.8035 146.476C46.022 146.6 46.9413 147.026 47.5845 147.739C48.2299 148.455 48.6178 149.481 48.7277 150.842L49.1264 150.81C49.012 149.393 48.6039 148.272 47.8815 147.471C47.157 146.668 46.1368 146.209 44.8439 146.078L44.8035 146.476ZM48.7289 150.853L48.9117 152.173L49.3079 152.118L49.1251 150.798L48.7289 150.853ZM48.9099 152.152L49.1867 159.831L49.5864 159.817L49.3097 152.138L48.9099 152.152ZM49.1872 159.84L49.2453 160.56L49.644 160.527L49.5859 159.808L49.1872 159.84ZM49.2453 160.56C49.2672 160.831 49.2005 161.03 49.0635 161.181C48.9213 161.337 48.6824 161.464 48.3176 161.541L48.4006 161.932C48.8104 161.845 49.1398 161.691 49.3594 161.45C49.5842 161.203 49.673 160.888 49.644 160.527L49.2453 160.56ZM48.343 161.537C48.1896 161.55 48.0587 161.516 47.9419 161.439C47.8219 161.359 47.7058 161.226 47.5999 161.024C47.3859 160.615 47.2348 159.964 47.1611 159.05L46.7624 159.083C46.8374 160.012 46.9937 160.728 47.2455 161.209C47.3724 161.452 47.5288 161.645 47.721 161.772C47.9163 161.901 48.1372 161.955 48.3752 161.936L48.343 161.537ZM47.1617 159.064L47.0628 152.171L46.6629 152.177L46.7617 159.069L47.1617 159.064ZM47.0622 152.158C46.9595 150.886 46.7318 149.916 46.362 149.27C46.1757 148.944 45.9491 148.694 45.677 148.532C45.403 148.369 45.095 148.304 44.7608 148.331L44.793 148.729C45.0521 148.709 45.2761 148.759 45.4726 148.876C45.6711 148.994 45.8535 149.187 46.0149 149.469C46.3405 150.037 46.5623 150.937 46.6635 152.19L47.0622 152.158ZM44.7608 148.331C44.5069 148.351 44.2904 148.522 44.1061 148.761C43.9188 149.004 43.7392 149.35 43.5644 149.787C43.2142 150.664 42.8664 151.954 42.5195 153.651L42.9114 153.731C43.2569 152.042 43.599 150.779 43.9359 149.936C44.1047 149.513 44.268 149.207 44.4229 149.006C44.5808 148.801 44.7059 148.736 44.793 148.729L44.7608 148.331ZM42.5156 153.682C42.4287 155.594 42.3258 157.025 42.2075 157.98C42.1482 158.459 42.086 158.81 42.0223 159.039C41.9901 159.155 41.9606 159.228 41.937 159.269C41.9062 159.323 41.9151 159.273 41.9838 159.268L42.016 159.666C42.1604 159.655 42.2431 159.539 42.2839 159.468C42.3321 159.384 42.3722 159.274 42.4077 159.146C42.4795 158.887 42.5445 158.513 42.6045 158.029C42.7247 157.058 42.8281 155.614 42.9152 153.7L42.5156 153.682ZM41.9838 159.268C41.7614 159.286 41.5707 159.323 41.4315 159.394C41.3601 159.43 41.2918 159.481 41.2432 159.552C41.1922 159.627 41.1709 159.712 41.178 159.8L41.5767 159.768C41.5767 159.768 41.576 159.774 41.5733 159.778C41.573 159.778 41.5807 159.767 41.6131 159.75C41.6814 159.716 41.809 159.683 42.016 159.666L41.9838 159.268ZM41.3869 159.584C41.0188 159.567 40.7647 159.473 40.5981 159.326C40.4345 159.182 40.3302 158.966 40.3047 158.651L39.906 158.683C39.9376 159.074 40.0737 159.398 40.3342 159.627C40.5916 159.853 40.945 159.964 41.3678 159.984L41.3869 159.584ZM40.3053 158.672L40.4277 154.049L40.0278 154.039L39.9054 158.662L40.3053 158.672ZM40.4267 154.023C40.2611 152.445 40.0663 151.255 39.8399 150.462C39.7272 150.067 39.6027 149.755 39.461 149.541C39.3225 149.332 39.1318 149.166 38.8826 149.187L38.9148 149.585C38.9433 149.583 39.0163 149.594 39.1275 149.762C39.2354 149.925 39.3464 150.19 39.4553 150.572C39.6719 151.331 39.8639 152.493 40.0289 154.065L40.4267 154.023ZM38.8826 149.187L38.7689 149.196L38.8011 149.594L38.9148 149.585L38.8826 149.187ZM38.6516 149.246C37.9861 149.842 37.7527 150.899 37.8681 152.328L38.2668 152.296C38.1539 150.898 38.3988 150.009 38.9185 149.544L38.6516 149.246ZM37.8681 152.328L38.0301 154.336L38.4288 154.304L38.2668 152.296L37.8681 152.328ZM38.0298 154.331L38.3461 160.138L38.7455 160.116L38.4292 154.309L38.0298 154.331ZM38.3495 160.089C38.2921 160.383 38.1841 160.589 38.0393 160.727C37.8959 160.863 37.6991 160.948 37.4319 160.969L37.4641 161.368C37.803 161.341 38.0921 161.228 38.3147 161.017C38.5358 160.807 38.6736 160.517 38.7421 160.165L38.3495 160.089ZM37.4319 160.969C37.2323 160.986 37.0651 160.92 36.9159 160.756C36.759 160.583 36.6198 160.297 36.5121 159.876L36.1246 159.975C36.2397 160.425 36.4002 160.783 36.6199 161.025C36.8473 161.275 37.1335 161.395 37.4641 161.368L37.4319 160.969ZM36.517 159.903L36.0047 155.446L35.6074 155.491L36.1197 159.948L36.517 159.903ZM36.006 155.465L35.9367 151.772L35.5368 151.78L35.6061 155.472L36.006 155.465ZM35.9342 151.744C35.6284 149.854 35.2272 148.209 34.7292 146.811L34.3524 146.945C34.8402 148.315 35.2363 149.935 35.5393 151.808L35.9342 151.744ZM55.2085 144.867L55.1974 144.667L55.1924 144.668L55.2085 144.867ZM60.7499 149.757L60.946 149.718L60.9364 149.669L60.9054 149.631L60.7499 149.757ZM60.8776 150.395L61.077 150.379L61.076 150.367L61.0737 150.355L60.8776 150.395ZM55.82 152.442L55.7823 152.246L55.7132 152.259L55.6677 152.313L55.82 152.442ZM55.7155 152.565L55.5632 152.435L55.5095 152.499L55.5162 152.581L55.7155 152.565ZM55.7278 152.717L55.5284 152.733L55.5303 152.756L55.5373 152.778L55.7278 152.717ZM61.5871 153.044L61.571 152.845L61.485 152.852L61.431 152.919L61.5871 153.044ZM63.0772 154.029L63.2766 154.013L63.2736 153.977L63.2579 153.944L63.0772 154.029ZM60.1494 157.43L60.2646 157.593L60.2711 157.589L60.2771 157.584L60.1494 157.43ZM58.2 158.312L58.2161 158.511L58.2352 158.51L58.2537 158.504L58.2 158.312ZM53.4552 152.9L53.6469 152.843L53.6075 152.71L53.4692 152.7L53.4552 152.9ZM52.7958 150.399L52.9951 150.383L52.9754 150.138L52.7398 150.207L52.7958 150.399ZM52.808 150.55L52.6087 150.567L52.6324 150.861L52.897 150.73L52.808 150.55ZM53.1746 150.368L53.2635 150.547L53.3848 150.487L53.3739 150.352L53.1746 150.368ZM55.6559 147.576L55.7688 147.411L55.7104 147.371L55.6398 147.376L55.6559 147.576ZM55.315 147.603L55.2989 147.404L55.1199 147.418L55.1151 147.598L55.315 147.603ZM55.2766 149.017L55.0767 149.011L55.0764 149.022L55.0773 149.033L55.2766 149.017ZM55.3714 150.191L55.1721 150.207L55.1881 150.406L55.3875 150.39L55.3714 150.191ZM55.5229 150.179L55.539 150.378L55.5461 150.377L55.5229 150.179ZM57.6073 149.553L57.8067 149.537L57.8018 149.477L57.7643 149.429L57.6073 149.553ZM55.2196 145.067C55.4188 145.055 55.685 145.127 56.0277 145.316C56.3675 145.503 56.7648 145.795 57.2206 146.197C58.1318 147.001 59.256 148.228 60.5944 149.883L60.9054 149.631C59.5616 147.97 58.4211 146.723 57.4852 145.897C57.0174 145.484 56.5955 145.172 56.2206 144.966C55.8485 144.761 55.5042 144.65 55.1974 144.667L55.2196 145.067ZM60.5538 149.796L60.6815 150.434L61.0737 150.355L60.946 149.718L60.5538 149.796ZM60.6783 150.411C60.6852 150.496 60.6445 150.614 60.4638 150.768C60.2841 150.922 59.9944 151.084 59.581 151.251C58.7566 151.585 57.4933 151.917 55.7823 152.246L55.8577 152.639C57.5755 152.309 58.8696 151.971 59.7311 151.622C60.1606 151.448 60.496 151.267 60.7234 151.072C60.95 150.879 61.0987 150.647 61.077 150.379L60.6783 150.411ZM55.6677 152.313L55.5632 152.435L55.8679 152.695L55.9723 152.572L55.6677 152.313ZM55.5162 152.581L55.5284 152.733L55.9271 152.7L55.9149 152.549L55.5162 152.581ZM55.5373 152.778C55.8956 153.897 56.2413 154.744 56.5765 155.31C56.7439 155.592 56.9148 155.814 57.0919 155.965C57.27 156.116 57.47 156.208 57.6856 156.19L57.6534 155.792C57.5787 155.798 57.48 155.77 57.3511 155.66C57.2212 155.55 57.0768 155.369 56.9205 155.105C56.6085 154.579 56.2737 153.766 55.9182 152.656L55.5373 152.778ZM57.6856 156.19L58.1401 156.154L58.108 155.755L57.6534 155.792L57.6856 156.19ZM58.1401 156.154C58.6083 156.116 59.1391 155.823 59.7245 155.331C60.3159 154.834 60.9889 154.112 61.7433 153.169L61.431 152.919C60.6846 153.852 60.0302 154.552 59.4672 155.025C58.8983 155.503 58.4479 155.727 58.108 155.755L58.1401 156.154ZM61.6032 153.244L61.8305 153.225L61.7983 152.826L61.571 152.845L61.6032 153.244ZM61.8305 153.225C62.2102 153.195 62.5726 153.433 62.8965 154.115L63.2579 153.944C62.9081 153.207 62.4286 152.776 61.7983 152.826L61.8305 153.225ZM62.8779 154.046C62.8857 154.142 62.8533 154.286 62.7453 154.489C62.6389 154.688 62.4692 154.926 62.2304 155.204C61.7531 155.758 61.0187 156.448 60.0216 157.276L60.2771 157.584C61.2808 156.751 62.0349 156.044 62.5335 155.465C62.7827 155.175 62.9729 154.912 63.0983 154.677C63.222 154.445 63.2933 154.22 63.2766 154.013L62.8779 154.046ZM60.0341 157.267C59.5276 157.624 58.8998 157.909 58.1463 158.119L58.2537 158.504C59.0413 158.285 59.7131 157.982 60.2646 157.593L60.0341 157.267ZM58.1839 158.112C57.2355 158.189 56.3873 157.814 55.6302 156.951C54.8668 156.08 54.2023 154.718 53.6469 152.843L53.2634 152.957C53.8259 154.855 54.5111 156.281 55.3294 157.215C56.1539 158.155 57.1192 158.6 58.2161 158.511L58.1839 158.112ZM53.4692 152.7C52.899 152.66 52.4911 152.536 52.2232 152.349C51.9645 152.168 51.823 151.92 51.796 151.585L51.3973 151.617C51.4335 152.066 51.6333 152.425 51.9941 152.677C52.3457 152.923 52.8355 153.057 53.4411 153.1L53.4692 152.7ZM51.796 151.585C51.7784 151.367 51.8452 151.185 52.0044 151.025C52.1708 150.858 52.4457 150.709 52.8517 150.591L52.7398 150.207C52.3016 150.335 51.9545 150.509 51.7212 150.743C51.4807 150.984 51.3701 151.28 51.3973 151.617L51.796 151.585ZM52.5964 150.415L52.6087 150.567L53.0074 150.534L52.9951 150.383L52.5964 150.415ZM52.897 150.73L53.2635 150.547L53.0856 150.189L52.719 150.371L52.897 150.73ZM53.3739 150.352L53.2975 149.405L52.8988 149.438L52.9752 150.384L53.3739 150.352ZM53.2975 149.405C53.1812 147.966 53.3012 146.901 53.6314 146.189C53.9534 145.494 54.4772 145.127 55.2246 145.066L55.1924 144.668C54.2984 144.74 53.6499 145.198 53.2684 146.021C52.8951 146.827 52.7806 147.973 52.8988 149.438L53.2975 149.405ZM55.6398 147.376L55.2989 147.404L55.3311 147.803L55.672 147.775L55.6398 147.376ZM55.1151 147.598L55.0767 149.011L55.4765 149.022L55.5149 147.609L55.1151 147.598ZM55.0773 149.033L55.1721 150.207L55.5708 150.175L55.476 149.001L55.0773 149.033ZM55.3875 150.39L55.539 150.378L55.5068 149.979L55.3553 149.992L55.3875 150.39ZM55.5461 150.377C56.2539 150.295 56.7943 150.2 57.159 150.09C57.3396 150.036 57.4918 149.974 57.6014 149.899C57.7066 149.827 57.8205 149.708 57.8067 149.537L57.408 149.569C57.4043 149.524 57.439 149.526 57.3756 149.569C57.3166 149.609 57.2108 149.657 57.044 149.707C56.7139 149.806 56.2019 149.898 55.4997 149.98L55.5461 150.377ZM57.7643 149.429C57.0235 148.491 56.3583 147.814 55.7688 147.411L55.543 147.741C56.0833 148.11 56.7191 148.751 57.4504 149.677L57.7643 149.429ZM81.2981 135.403L81.282 135.204L81.2756 135.204L81.2981 135.403ZM82.5666 137.893L82.3668 137.909L82.3689 137.923L82.5666 137.893ZM83.547 144.371L83.3493 144.401L83.3772 144.585L83.5631 144.57L83.547 144.371ZM83.6985 144.359L83.7146 144.558L83.7512 144.555L83.7844 144.539L83.6985 144.359ZM85.5343 143.486L85.5182 143.287L85.4816 143.29L85.4484 143.306L85.5343 143.486ZM89.9236 149.689L89.7269 149.726L89.7285 149.733L89.9236 149.689ZM89.7808 159.727L89.7675 159.927L89.7822 159.928L89.7969 159.927L89.7808 159.727ZM85.9511 145.816L86.0324 145.634L85.9858 145.613L85.935 145.617L85.9511 145.816ZM84.3386 149.454L84.1391 149.44L84.138 149.455L84.1392 149.47L84.3386 149.454ZM84.0215 157.333L84.0054 157.134L83.9949 157.134L83.9846 157.136L84.0215 157.333ZM83.308 157.467L83.324 157.666L83.3345 157.665L83.3448 157.663L83.308 157.467ZM81.9936 154.409L81.7937 154.418L81.7943 154.425L81.9936 154.409ZM82.0079 148.918L82.2072 148.933L82.209 148.911L82.2058 148.889L82.0079 148.918ZM80.2065 136.52L80.0067 136.537L80.0086 136.549L80.2065 136.52ZM81.3142 135.602C81.4471 135.592 81.5602 135.622 81.6622 135.692C81.7676 135.764 81.8716 135.885 81.9673 136.073C82.1607 136.453 82.2986 137.058 82.3672 137.909L82.7659 137.877C82.696 137.011 82.5532 136.342 82.3237 135.892C82.2081 135.665 82.0651 135.483 81.888 135.361C81.7075 135.238 81.5027 135.186 81.282 135.204L81.3142 135.602ZM82.3689 137.923L83.3493 144.401L83.7448 144.341L82.7643 137.863L82.3689 137.923ZM83.5631 144.57L83.7146 144.558L83.6824 144.16L83.5309 144.172L83.5631 144.57ZM83.7844 144.539L85.6201 143.667L85.4484 143.306L83.6127 144.178L83.7844 144.539ZM85.5504 143.686C86.5261 143.607 87.3593 144.035 88.0592 145.024C88.7661 146.023 89.3264 147.583 89.727 149.726L90.1202 149.652C89.7157 147.489 89.1419 145.862 88.3857 144.793C87.6225 143.715 86.6636 143.195 85.5182 143.287L85.5504 143.686ZM89.7285 149.733C90.002 150.942 90.2362 152.742 90.4297 155.138L90.8284 155.106C90.6345 152.705 90.3985 150.882 90.1187 149.645L89.7285 149.733ZM90.4297 155.138L90.6773 158.206L91.0761 158.174L90.8284 155.106L90.4297 155.138ZM90.6773 158.206C90.7146 158.667 90.6536 158.984 90.5287 159.186C90.4112 159.375 90.2198 159.491 89.9162 159.516L89.9484 159.914C90.3519 159.882 90.6714 159.715 90.8687 159.396C91.0586 159.09 91.1163 158.672 91.0761 158.174L90.6773 158.206ZM89.9162 159.516L89.7647 159.528L89.7969 159.927L89.9484 159.914L89.9162 159.516ZM89.7941 159.528C89.4775 159.507 89.2615 159.42 89.1205 159.291C88.9817 159.164 88.8914 158.974 88.8688 158.695L88.4701 158.728C88.4986 159.08 88.619 159.375 88.8506 159.586C89.08 159.796 89.3942 159.902 89.7675 159.927L89.7941 159.528ZM88.8688 158.695L88.5814 155.135L88.1827 155.167L88.4701 158.728L88.8688 158.695ZM88.5814 155.135C88.3508 152.277 88.0319 150.059 87.6224 148.487C87.4177 147.701 87.1883 147.068 86.9313 146.595C86.6761 146.125 86.3809 145.789 86.0324 145.634L85.8698 145.999C86.1013 146.102 86.3424 146.349 86.5798 146.786C86.8153 147.219 87.0348 147.818 87.2353 148.588C87.6361 150.127 87.9527 152.318 88.1827 155.167L88.5814 155.135ZM85.935 145.617L85.7077 145.635L85.7399 146.034L85.9672 146.016L85.935 145.617ZM85.7077 145.635C85.2081 145.676 84.8605 146.092 84.6226 146.714C84.3811 147.345 84.2225 148.258 84.1391 149.44L84.5381 149.468C84.6206 148.298 84.7759 147.432 84.9962 146.857C85.22 146.272 85.4821 146.055 85.7399 146.034L85.7077 145.635ZM84.1392 149.47L84.3104 151.591L84.7091 151.559L84.5379 149.438L84.1392 149.47ZM84.3104 151.591C84.4631 153.482 84.4977 154.896 84.4177 155.838C84.3776 156.312 84.3097 156.651 84.2216 156.87C84.1303 157.096 84.0455 157.13 84.0054 157.134L84.0376 157.532C84.3131 157.51 84.4854 157.285 84.5926 157.019C84.7031 156.745 84.7751 156.358 84.8163 155.872C84.8991 154.895 84.8622 153.455 84.7091 151.559L84.3104 151.591ZM83.9846 157.136L83.2711 157.27L83.3448 157.663L84.0584 157.53L83.9846 157.136ZM83.2919 157.267C83.0694 157.285 82.8405 157.149 82.6328 156.666C82.4269 156.187 82.2771 155.435 82.193 154.393L81.7943 154.425C81.8793 155.479 82.0331 156.284 82.2654 156.824C82.4959 157.36 82.8395 157.705 83.324 157.666L83.2919 157.267ZM82.1934 154.399C82.09 152.175 82.095 150.354 82.2072 148.933L81.8085 148.902C81.6945 150.346 81.69 152.185 81.7938 154.418L82.1934 154.399ZM82.2058 148.889L80.4044 136.492L80.0086 136.549L81.8099 148.946L82.2058 148.889ZM80.4059 136.504C80.3827 136.217 80.4515 136.023 80.5827 135.888C80.7197 135.748 80.9537 135.643 81.3206 135.602L81.2756 135.204C80.8618 135.251 80.5235 135.377 80.2966 135.609C80.064 135.847 79.9773 136.167 80.0072 136.537L80.4059 136.504ZM95.9024 141.582L95.8913 141.382L95.8863 141.383L95.9024 141.582ZM101.444 146.472L101.64 146.433L101.63 146.384L101.599 146.346L101.444 146.472ZM101.572 147.11L101.771 147.094L101.77 147.082L101.768 147.07L101.572 147.11ZM96.5139 149.157L96.4762 148.961L96.4071 148.974L96.3615 149.028L96.5139 149.157ZM96.4094 149.28L96.2571 149.15L96.2034 149.214L96.2101 149.296L96.4094 149.28ZM96.4216 149.432L96.2223 149.448L96.2241 149.471L96.2312 149.493L96.4216 149.432ZM102.281 149.759L102.265 149.56L102.179 149.567L102.125 149.634L102.281 149.759ZM103.771 150.744L103.97 150.728L103.968 150.692L103.952 150.659L103.771 150.744ZM100.843 154.145L100.959 154.309L100.965 154.304L100.971 154.299L100.843 154.145ZM98.8939 155.027L98.91 155.226L98.9291 155.225L98.9475 155.219L98.8939 155.027ZM94.149 149.615L94.3408 149.558L94.3014 149.425L94.1631 149.416L94.149 149.615ZM93.4897 147.114L93.689 147.098L93.6693 146.853L93.4337 146.922L93.4897 147.114ZM93.5019 147.265L93.3025 147.282L93.3263 147.576L93.5909 147.445L93.5019 147.265ZM93.8684 147.083L93.9574 147.263L94.0787 147.202L94.0678 147.067L93.8684 147.083ZM96.3498 144.291L96.4627 144.126L96.4042 144.086L96.3337 144.091L96.3498 144.291ZM96.0089 144.318L95.9928 144.119L95.8138 144.133L95.809 144.313L96.0089 144.318ZM95.9705 145.732L95.7706 145.726L95.7703 145.737L95.7711 145.748L95.9705 145.732ZM96.0653 146.906L95.8659 146.922L95.882 147.121L96.0814 147.105L96.0653 146.906ZM96.2168 146.894L96.2329 147.093L96.24 147.092L96.2168 146.894ZM98.3012 146.268L98.5006 146.252L98.4957 146.192L98.4581 146.144L98.3012 146.268ZM95.9135 141.782C96.1127 141.771 96.3788 141.842 96.7216 142.031C97.0614 142.218 97.4587 142.51 97.9145 142.912C98.8257 143.716 99.9499 144.943 101.288 146.598L101.599 146.346C100.255 144.685 99.115 143.438 98.1791 142.612C97.7113 142.199 97.2894 141.887 96.9144 141.681C96.5423 141.476 96.1981 141.365 95.8913 141.382L95.9135 141.782ZM101.248 146.511L101.375 147.149L101.768 147.07L101.64 146.433L101.248 146.511ZM101.372 147.126C101.379 147.211 101.338 147.329 101.158 147.483C100.978 147.637 100.688 147.799 100.275 147.966C99.4504 148.3 98.1872 148.632 96.4762 148.961L96.5516 149.354C98.2694 149.024 99.5635 148.686 100.425 148.337C100.854 148.163 101.19 147.982 101.417 147.788C101.644 147.594 101.793 147.362 101.771 147.094L101.372 147.126ZM96.3615 149.028L96.2571 149.15L96.5618 149.41L96.6662 149.287L96.3615 149.028ZM96.2101 149.296L96.2223 149.448L96.621 149.415L96.6088 149.264L96.2101 149.296ZM96.2312 149.493C96.5895 150.612 96.9351 151.459 97.2704 152.025C97.4377 152.307 97.6086 152.529 97.7858 152.68C97.9639 152.832 98.1638 152.923 98.3795 152.905L98.3473 152.507C98.2726 152.513 98.1738 152.485 98.0449 152.375C97.9151 152.265 97.7707 152.084 97.6144 151.821C97.3024 151.294 96.9676 150.481 96.6121 149.371L96.2312 149.493ZM98.3795 152.905L98.834 152.869L98.8018 152.47L98.3473 152.507L98.3795 152.905ZM98.834 152.869C99.3021 152.831 99.833 152.538 100.418 152.046C101.01 151.549 101.683 150.827 102.437 149.884L102.125 149.634C101.379 150.567 100.724 151.267 100.161 151.74C99.5921 152.218 99.1418 152.442 98.8018 152.47L98.834 152.869ZM102.297 149.959L102.524 149.94L102.492 149.541L102.265 149.56L102.297 149.959ZM102.524 149.94C102.904 149.91 103.267 150.148 103.59 150.83L103.952 150.659C103.602 149.922 103.123 149.491 102.492 149.541L102.524 149.94ZM103.572 150.761C103.58 150.857 103.547 151.001 103.439 151.204C103.333 151.403 103.163 151.641 102.924 151.919C102.447 152.473 101.713 153.163 100.715 153.991L100.971 154.299C101.975 153.466 102.729 152.759 103.227 152.18C103.477 151.89 103.667 151.627 103.792 151.392C103.916 151.16 103.987 150.935 103.97 150.728L103.572 150.761ZM100.728 153.982C100.221 154.339 99.5937 154.624 98.8402 154.834L98.9475 155.219C99.7352 155 100.407 154.698 100.959 154.309L100.728 153.982ZM98.8778 154.827C97.9293 154.904 97.0811 154.529 96.324 153.666C95.5607 152.795 94.8961 151.433 94.3408 149.558L93.9573 149.672C94.5198 151.57 95.205 152.996 96.0233 153.93C96.8478 154.87 97.813 155.315 98.91 155.226L98.8778 154.827ZM94.1631 149.416C93.5928 149.375 93.185 149.251 92.9171 149.064C92.6584 148.883 92.5169 148.635 92.4899 148.3L92.0912 148.332C92.1273 148.781 92.3272 149.14 92.688 149.392C93.0396 149.638 93.5294 149.772 94.135 149.815L94.1631 149.416ZM92.4899 148.3C92.4722 148.082 92.539 147.9 92.6983 147.74C92.8647 147.573 93.1396 147.424 93.5456 147.306L93.4337 146.922C92.9955 147.05 92.6484 147.224 92.4151 147.458C92.1746 147.699 92.064 147.995 92.0912 148.332L92.4899 148.3ZM93.2903 147.13L93.3025 147.282L93.7012 147.249L93.689 147.098L93.2903 147.13ZM93.5909 147.445L93.9574 147.263L93.7795 146.904L93.4129 147.086L93.5909 147.445ZM94.0678 147.067L93.9913 146.12L93.5926 146.153L93.6691 147.099L94.0678 147.067ZM93.9913 146.12C93.8751 144.681 93.9951 143.616 94.3252 142.904C94.6473 142.209 95.1711 141.842 95.9184 141.781L95.8863 141.383C94.9923 141.455 94.3437 141.913 93.9623 142.736C93.589 143.542 93.4744 144.688 93.5926 146.153L93.9913 146.12ZM96.3337 144.091L95.9928 144.119L96.025 144.518L96.3659 144.49L96.3337 144.091ZM95.809 144.313L95.7706 145.726L96.1704 145.737L96.2088 144.324L95.809 144.313ZM95.7711 145.748L95.8659 146.922L96.2646 146.89L96.1699 145.716L95.7711 145.748ZM96.0814 147.105L96.2329 147.093L96.2007 146.694L96.0492 146.707L96.0814 147.105ZM96.24 147.092C96.9478 147.01 97.4882 146.915 97.8529 146.805C98.0335 146.751 98.1857 146.689 98.2953 146.614C98.4005 146.542 98.5144 146.423 98.5006 146.252L98.1018 146.284C98.0982 146.239 98.1329 146.241 98.0695 146.284C98.0105 146.324 97.9046 146.372 97.7379 146.422C97.4078 146.521 96.8957 146.613 96.1936 146.695L96.24 147.092ZM98.4581 146.144C97.7174 145.206 97.0522 144.529 96.4627 144.126L96.2368 144.456C96.7772 144.825 97.413 145.466 98.1443 146.392L98.4581 146.144ZM113.58 142.175L113.779 142.159L113.778 142.146L113.775 142.133L113.58 142.175ZM110.364 149.564L110.226 149.419L110.064 149.574L110.236 149.718L110.364 149.564ZM118.227 151.102L118.272 150.908L118.242 150.901L118.211 150.903L118.227 151.102ZM109.957 152.075L110.026 151.887L109.732 151.779L109.757 152.091L109.957 152.075ZM106.917 149.842L107.116 149.826L107.116 149.816L107.114 149.805L106.917 149.842ZM106.718 148.791L106.52 148.764L106.515 148.796L106.521 148.828L106.718 148.791ZM106.885 147.558L107.083 147.584L107.087 147.556L107.083 147.527L106.885 147.558ZM106.326 143.943L106.127 143.959L106.128 143.966L106.129 143.973L106.326 143.943ZM107.262 142.304L107.344 142.487L107.417 142.454L107.447 142.379L107.262 142.304ZM109.246 147.52L109.046 147.536L109.062 147.735L109.262 147.719L109.246 147.52ZM111.39 143.382L111.583 143.432L111.592 143.399L111.589 143.366L111.39 143.382ZM111.258 141.753L111.458 141.737L111.451 141.659L111.394 141.606L111.258 141.753ZM110.764 141.297L110.9 141.15L110.835 141.091L110.748 141.098L110.764 141.297ZM110.423 141.325L110.407 141.125L110.345 141.13L110.297 141.169L110.423 141.325ZM110.486 139.271C111.229 139.211 111.826 139.421 112.299 139.893C112.78 140.372 113.147 141.138 113.384 142.218L113.775 142.133C113.53 141.015 113.138 140.165 112.582 139.61C112.018 139.047 111.302 138.804 110.454 138.872L110.486 139.271ZM113.38 142.192L113.408 142.532L113.807 142.5L113.779 142.159L113.38 142.192ZM113.408 142.532C113.599 144.903 112.557 147.197 110.226 149.419L110.502 149.709C112.89 147.433 114.011 145.028 113.807 142.5L113.408 142.532ZM110.236 149.718C111.878 151.091 114.567 151.599 118.243 151.302L118.211 150.903C114.564 151.197 112.011 150.68 110.492 149.411L110.236 149.718ZM118.182 151.297C118.434 151.356 118.612 151.462 118.733 151.607C118.855 151.752 118.934 151.953 118.956 152.225L119.355 152.193C119.328 151.86 119.227 151.573 119.04 151.35C118.852 151.125 118.59 150.981 118.272 150.908L118.182 151.297ZM118.956 152.225C118.98 152.52 118.902 152.718 118.751 152.855C118.591 153.001 118.318 153.106 117.896 153.14L117.928 153.538C118.39 153.501 118.766 153.382 119.02 153.151C119.283 152.912 119.386 152.581 119.355 152.193L118.956 152.225ZM117.896 153.14C115.456 153.337 112.833 152.922 110.026 151.887L109.887 152.263C112.738 153.313 115.419 153.741 117.928 153.538L117.896 153.14ZM109.757 152.091L109.846 153.19L110.245 153.157L110.156 152.059L109.757 152.091ZM109.846 153.19C109.95 154.482 109.887 155.436 109.675 156.07C109.57 156.384 109.431 156.609 109.268 156.759C109.107 156.907 108.913 156.991 108.677 157.01L108.71 157.409C109.029 157.383 109.309 157.265 109.538 157.054C109.765 156.845 109.935 156.555 110.054 156.197C110.293 155.485 110.35 154.466 110.245 153.157L109.846 153.19ZM108.677 157.01C108.557 157.02 108.435 156.975 108.304 156.834C108.169 156.687 108.035 156.444 107.911 156.088C107.663 155.377 107.476 154.279 107.355 152.781L106.956 152.813C107.078 154.32 107.268 155.459 107.533 156.219C107.665 156.599 107.822 156.9 108.01 157.105C108.203 157.315 108.439 157.431 108.71 157.409L108.677 157.01ZM107.355 152.781L107.116 149.826L106.718 149.859L106.956 152.813L107.355 152.781ZM107.114 149.805L106.914 148.754L106.521 148.828L106.721 149.88L107.114 149.805ZM106.916 148.818L107.083 147.584L106.687 147.531L106.52 148.764L106.916 148.818ZM107.083 147.527L106.524 143.912L106.129 143.973L106.687 147.588L107.083 147.527ZM106.526 143.927L106.514 143.775L106.115 143.807L106.127 143.959L106.526 143.927ZM106.514 143.775C106.489 143.47 106.548 143.221 106.678 143.016C106.81 142.809 107.026 142.63 107.344 142.487L107.179 142.122C106.811 142.288 106.525 142.512 106.341 142.801C106.156 143.091 106.084 143.43 106.115 143.807L106.514 143.775ZM107.447 142.379C108.265 140.35 109.291 139.367 110.486 139.271L110.454 138.872C109.023 138.988 107.91 140.161 107.076 142.229L107.447 142.379ZM109.262 147.719C109.507 147.699 109.731 147.57 109.933 147.369C110.134 147.17 110.325 146.887 110.508 146.533C110.876 145.823 111.234 144.786 111.583 143.432L111.196 143.332C110.849 144.676 110.5 145.679 110.153 146.349C109.98 146.684 109.811 146.926 109.651 147.086C109.49 147.245 109.35 147.31 109.23 147.32L109.262 147.719ZM111.589 143.366L111.458 141.737L111.059 141.769L111.19 143.398L111.589 143.366ZM111.394 141.606L110.9 141.15L110.628 141.444L111.123 141.9L111.394 141.606ZM110.748 141.098L110.407 141.125L110.439 141.524L110.78 141.497L110.748 141.098ZM110.297 141.169C109.72 141.635 109.345 142.417 109.145 143.471C108.944 144.529 108.913 145.885 109.046 147.536L109.445 147.503C109.313 145.871 109.346 144.554 109.538 143.546C109.73 142.536 110.076 141.861 110.549 141.48L110.297 141.169ZM123.956 139.317L123.945 139.118L123.94 139.118L123.956 139.317ZM129.498 144.207L129.694 144.168L129.684 144.12L129.653 144.081L129.498 144.207ZM129.625 144.845L129.825 144.829L129.824 144.817L129.822 144.806L129.625 144.845ZM124.568 146.893L124.53 146.696L124.461 146.709L124.416 146.763L124.568 146.893ZM124.463 147.015L124.311 146.886L124.257 146.949L124.264 147.032L124.463 147.015ZM124.476 147.167L124.276 147.183L124.278 147.206L124.285 147.228L124.476 147.167ZM130.335 147.495L130.319 147.295L130.233 147.302L130.179 147.37L130.335 147.495ZM131.825 148.48L132.024 148.464L132.021 148.427L132.006 148.394L131.825 148.48ZM128.897 151.88L129.012 152.044L129.019 152.039L129.025 152.034L128.897 151.88ZM126.948 152.762L126.964 152.962L126.983 152.96L127.002 152.955L126.948 152.762ZM122.203 147.35L122.395 147.294L122.355 147.161L122.217 147.151L122.203 147.35ZM121.544 144.849L121.743 144.833L121.723 144.589L121.488 144.657L121.544 144.849ZM121.556 145.001L121.357 145.017L121.38 145.311L121.645 145.18L121.556 145.001ZM121.922 144.819L122.011 144.998L122.133 144.938L122.122 144.803L121.922 144.819ZM124.404 142.026L124.517 141.861L124.458 141.821L124.388 141.827L124.404 142.026ZM124.063 142.054L124.047 141.854L123.868 141.869L123.863 142.048L124.063 142.054ZM124.024 143.467L123.825 143.462L123.824 143.473L123.825 143.483L124.024 143.467ZM124.119 144.641L123.92 144.658L123.936 144.857L124.135 144.841L124.119 144.641ZM124.271 144.629L124.287 144.829L124.294 144.828L124.271 144.629ZM126.355 144.003L126.555 143.987L126.55 143.927L126.512 143.879L126.355 144.003ZM123.967 139.517C124.167 139.506 124.433 139.578 124.776 139.766C125.115 139.953 125.513 140.245 125.968 140.648C126.88 141.452 128.004 142.678 129.342 144.333L129.653 144.081C128.309 142.42 127.169 141.173 126.233 140.348C125.765 139.935 125.343 139.622 124.968 139.416C124.596 139.211 124.252 139.101 123.945 139.118L123.967 139.517ZM129.302 144.247L129.429 144.884L129.822 144.806L129.694 144.168L129.302 144.247ZM129.426 144.861C129.433 144.946 129.392 145.064 129.212 145.219C129.032 145.372 128.742 145.534 128.329 145.702C127.504 146.036 126.241 146.368 124.53 146.696L124.606 147.089C126.323 146.759 127.617 146.421 128.479 146.073C128.908 145.899 129.244 145.717 129.471 145.523C129.698 145.33 129.847 145.097 129.825 144.829L129.426 144.861ZM124.416 146.763L124.311 146.886L124.616 147.145L124.72 147.022L124.416 146.763ZM124.264 147.032L124.276 147.183L124.675 147.151L124.663 146.999L124.264 147.032ZM124.285 147.228C124.643 148.347 124.989 149.195 125.324 149.76C125.492 150.042 125.663 150.265 125.84 150.415C126.018 150.567 126.218 150.658 126.433 150.641L126.401 150.242C126.327 150.248 126.228 150.22 126.099 150.111C125.969 150 125.825 149.819 125.668 149.556C125.356 149.03 125.022 148.216 124.666 147.106L124.285 147.228ZM126.433 150.641L126.888 150.604L126.856 150.205L126.401 150.242L126.433 150.641ZM126.888 150.604C127.356 150.566 127.887 150.273 128.472 149.781C129.064 149.284 129.737 148.562 130.491 147.62L130.179 147.37C129.433 148.302 128.778 149.002 128.215 149.475C127.646 149.953 127.196 150.178 126.856 150.205L126.888 150.604ZM130.351 147.694L130.578 147.676L130.546 147.277L130.319 147.295L130.351 147.694ZM130.578 147.676C130.958 147.645 131.32 147.883 131.644 148.566L132.006 148.394C131.656 147.657 131.176 147.226 130.546 147.277L130.578 147.676ZM131.626 148.496C131.634 148.592 131.601 148.737 131.493 148.939C131.387 149.139 131.217 149.377 130.978 149.654C130.501 150.208 129.767 150.899 128.769 151.727L129.025 152.034C130.029 151.201 130.783 150.494 131.281 149.915C131.531 149.626 131.721 149.363 131.846 149.127C131.97 148.895 132.041 148.67 132.024 148.464L131.626 148.496ZM128.782 151.717C128.275 152.074 127.648 152.36 126.894 152.569L127.002 152.955C127.789 152.735 128.461 152.433 129.012 152.044L128.782 151.717ZM126.932 152.563C125.983 152.639 125.135 152.265 124.378 151.401C123.615 150.531 122.95 149.168 122.395 147.294L122.011 147.407C122.574 149.306 123.259 150.732 124.077 151.665C124.902 152.605 125.867 153.05 126.964 152.962L126.932 152.563ZM122.217 147.151C121.647 147.111 121.239 146.987 120.971 146.8C120.712 146.619 120.571 146.37 120.544 146.036L120.145 146.068C120.181 146.516 120.381 146.875 120.742 147.127C121.094 147.373 121.583 147.507 122.189 147.55L122.217 147.151ZM120.544 146.036C120.526 145.817 120.593 145.635 120.752 145.476C120.919 145.309 121.194 145.16 121.6 145.041L121.488 144.657C121.049 144.785 120.702 144.959 120.469 145.193C120.229 145.434 120.118 145.731 120.145 146.068L120.544 146.036ZM121.344 144.865L121.357 145.017L121.755 144.985L121.743 144.833L121.344 144.865ZM121.645 145.18L122.011 144.998L121.833 144.64L121.467 144.822L121.645 145.18ZM122.122 144.803L122.045 143.856L121.647 143.888L121.723 144.835L122.122 144.803ZM122.045 143.856C121.929 142.416 122.049 141.352 122.379 140.639C122.701 139.944 123.225 139.577 123.972 139.517L123.94 139.118C123.046 139.19 122.398 139.648 122.016 140.471C121.643 141.277 121.528 142.424 121.647 143.888L122.045 143.856ZM124.388 141.827L124.047 141.854L124.079 142.253L124.42 142.225L124.388 141.827ZM123.863 142.048L123.825 143.462L124.224 143.473L124.263 142.059L123.863 142.048ZM123.825 143.483L123.92 144.658L124.319 144.625L124.224 143.451L123.825 143.483ZM124.135 144.841L124.287 144.829L124.255 144.43L124.103 144.442L124.135 144.841ZM124.294 144.828C125.002 144.745 125.542 144.65 125.907 144.541C126.087 144.487 126.24 144.425 126.349 144.35C126.454 144.278 126.568 144.159 126.555 143.987L126.156 144.02C126.152 143.975 126.187 143.976 126.123 144.019C126.064 144.06 125.959 144.108 125.792 144.158C125.462 144.257 124.95 144.349 124.248 144.431L124.294 144.828ZM126.512 143.879C125.771 142.942 125.106 142.264 124.517 141.861L124.291 142.191C124.831 142.561 125.467 143.202 126.198 144.127L126.512 143.879ZM133.638 126.336L133.698 126.146L133.648 126.13L133.596 126.141L133.638 126.336ZM134.758 127.466L134.559 127.482L134.559 127.487L134.758 127.466ZM136.883 142.925L137.074 142.984L137.089 142.935L137.079 142.885L136.883 142.925ZM134.096 139.566L134.295 139.55L134.293 139.53L134.288 139.511L134.096 139.566ZM132.552 127.529L132.353 127.546L132.353 127.55L132.552 127.529ZM135.968 152.377L135.772 152.337L135.759 152.402L135.788 152.463L135.968 152.377ZM138.43 152.178L138.623 152.234L138.641 152.17L138.617 152.107L138.43 152.178ZM133.577 126.527C133.91 126.632 134.147 126.768 134.304 126.926C134.457 127.081 134.541 127.264 134.559 127.482L134.957 127.45C134.932 127.138 134.808 126.867 134.588 126.645C134.371 126.426 134.069 126.263 133.698 126.146L133.577 126.527ZM134.559 127.487C135.34 134.643 136.049 139.804 136.687 142.964L137.079 142.885C136.445 139.744 135.738 134.599 134.957 127.444L134.559 127.487ZM136.692 142.866C136.502 143.478 136.209 143.732 135.845 143.761L135.877 144.16C136.472 144.112 136.86 143.675 137.074 142.984L136.692 142.866ZM135.845 143.761C135.518 143.787 135.192 143.559 134.904 142.844C134.622 142.14 134.416 141.047 134.295 139.55L133.896 139.582C134.018 141.09 134.227 142.232 134.533 142.993C134.834 143.743 135.269 144.209 135.877 144.16L135.845 143.761ZM134.288 139.511C134.134 138.982 133.928 137.723 133.67 135.712C133.413 133.708 133.107 130.974 132.751 127.509L132.353 127.55C132.709 131.016 133.016 133.754 133.274 135.763C133.53 137.765 133.74 139.058 133.903 139.622L134.288 139.511ZM132.751 127.513C132.73 127.242 132.796 127.043 132.933 126.892C133.075 126.736 133.314 126.609 133.679 126.532L133.596 126.141C133.186 126.227 132.857 126.382 132.637 126.623C132.412 126.87 132.324 127.185 132.353 127.546L132.751 127.513ZM136.164 152.417C136.242 152.036 136.366 151.767 136.521 151.59C136.672 151.419 136.861 151.324 137.102 151.304L137.07 150.906C136.729 150.933 136.442 151.074 136.221 151.326C136.003 151.574 135.859 151.917 135.772 152.337L136.164 152.417ZM137.102 151.304C137.357 151.284 137.57 151.348 137.752 151.493C137.938 151.642 138.106 151.887 138.243 152.249L138.617 152.107C138.465 151.705 138.263 151.389 138.001 151.18C137.735 150.968 137.42 150.877 137.07 150.906L137.102 151.304ZM138.238 152.123C138.028 152.848 137.709 153.142 137.329 153.172L137.361 153.571C137.991 153.52 138.395 153.018 138.623 152.234L138.238 152.123ZM137.329 153.172L137.215 153.181L137.247 153.58L137.361 153.571L137.329 153.172ZM137.215 153.181C136.835 153.212 136.473 152.974 136.149 152.291L135.788 152.463C136.138 153.2 136.617 153.631 137.247 153.58L137.215 153.181Z" fill="white"/>
<path d="M75.5 66C82.5 32 109.191 7.4603 113 2.9999" stroke="white" stroke-width="2" stroke-linecap="round" stroke-linejoin="round"/>
<path d="M103 9.41433C105.176 6.00795 108.617 3.61362 112.388 2.25195" stroke="white" stroke-width="2" stroke-linecap="round" stroke-linejoin="round"/>
<path d="M114.543 13.5863C114.543 11.0474 114.574 8.50666 114.535 5.96808C114.509 4.27681 114.507 2.51735 113.708 1" stroke="white" stroke-width="2" stroke-linecap="round" stroke-linejoin="round"/>
</svg>
