<svg width="44" height="43" viewBox="0 0 44 43" fill="none" xmlns="http://www.w3.org/2000/svg">
<g clip-path="url(#clip0)">
<path d="M14.7153 28.4023C13.2023 26.8893 13.2023 24.4295 14.7153 22.9165L18.2545 19.3773L16.5734 17.6962L13.0341 21.2354C10.5921 23.6775 10.5921 27.6414 13.0341 30.0835C15.4762 32.5255 19.4402 32.5255 21.8822 30.0835L25.4215 26.5442L23.7403 24.8631L20.2011 28.4023C18.6881 29.9153 16.2283 29.9153 14.7153 28.4023ZM19.2278 25.6594L26.3063 18.581L24.5366 16.8113L17.4582 23.8898L19.2278 25.6594ZM21.8822 12.3873L18.343 15.9265L20.0241 17.6077L23.5634 14.0684C25.0764 12.5554 27.5361 12.5554 29.0492 14.0684C30.5622 15.5815 30.5622 18.0412 29.0492 19.5543L25.5099 23.0935L27.1911 24.7746L30.7303 21.2354C33.1724 18.7933 33.1724 14.8294 30.7303 12.3873C28.2882 9.94524 24.3243 9.94524 21.8822 12.3873Z" fill="white"/>
</g>
<defs>
<clipPath id="clip0">
<rect x="0.646973" y="21.2354" width="30.0314" height="30.0314" transform="rotate(-45 0.646973 21.2354)" fill="white"/>
</clipPath>
</defs>
</svg>
