<svg width="81" height="36" viewBox="0 0 81 36" fill="none" xmlns="http://www.w3.org/2000/svg">
<g clip-path="url(#clip0)">
<path d="M13.1153 23.2513C12.4198 23.2513 11.7702 23.1242 11.165 22.8685C10.5598 22.6143 10.029 22.2547 9.57273 21.7928C9.11486 21.3309 8.75996 20.7822 8.50646 20.1451C8.25297 19.5097 8.12622 18.8029 8.12622 18.0263C8.12622 17.2575 8.25297 16.5554 8.50646 15.9199C8.75996 15.2844 9.11486 14.7341 9.57273 14.2722C10.029 13.8103 10.5614 13.4507 11.165 13.1904C11.7702 12.9315 12.4198 12.8029 13.1153 12.8029C13.6144 12.8029 14.0406 12.8633 14.3971 12.9858C14.752 13.1082 15.0546 13.2353 15.3033 13.3686C15.5838 13.5391 15.8214 13.7313 16.0179 13.9452V8.83179H18.1045V23.1397H16.5978L16.132 22.1183C15.9276 22.3322 15.6899 22.5213 15.4174 22.684C15.1687 22.8313 14.8534 22.963 14.4763 23.0777C14.0992 23.194 13.6445 23.2513 13.1153 23.2513ZM13.2294 14.7326C12.8286 14.7326 12.4467 14.8116 12.0839 14.9713C11.7211 15.1309 11.3995 15.3572 11.1206 15.6533C10.8402 15.9493 10.62 16.2981 10.4568 16.7011C10.2936 17.1041 10.2128 17.5458 10.2128 18.0263C10.2128 18.5146 10.2936 18.9579 10.4568 19.3578C10.62 19.7561 10.8402 20.1048 11.1206 20.3993C11.3995 20.6954 11.7211 20.9232 12.0839 21.0813C12.4467 21.241 12.8286 21.32 13.2294 21.32C13.6303 21.32 14.0137 21.241 14.3797 21.0813C14.7456 20.9217 15.0673 20.6954 15.3429 20.3993C15.6186 20.1048 15.8388 19.7561 16.0005 19.3578C16.1636 18.9579 16.2444 18.5146 16.2444 18.0263C16.2444 17.5381 16.1636 17.0948 16.0005 16.6949C15.8373 16.295 15.6186 15.9478 15.3429 15.6517C15.0673 15.3557 14.7456 15.1294 14.3797 14.9697C14.0137 14.8132 13.6303 14.7326 13.2294 14.7326Z" fill="black"/>
<path d="M28.672 20.1901C28.4977 20.6117 28.2791 21.0085 28.0145 21.3774C27.7499 21.7463 27.433 22.0718 27.0623 22.3539C26.6915 22.6344 26.2622 22.8545 25.7758 23.0142C25.2878 23.1738 24.7428 23.2529 24.1376 23.2529C23.442 23.2529 22.7924 23.1258 22.1872 22.87C21.582 22.6158 21.0544 22.2563 20.5997 21.7944C20.1466 21.3325 19.7901 20.7838 19.5334 20.1467C19.2768 19.5112 19.1484 18.8044 19.1484 18.0279C19.1484 17.2591 19.2768 16.5569 19.5334 15.9215C19.7901 15.286 20.1387 14.7357 20.5775 14.2738C21.0164 13.8119 21.5329 13.4523 22.1302 13.1919C22.7275 12.9331 23.3581 12.8044 24.0235 12.8044C24.6889 12.8044 25.3195 12.9331 25.9168 13.1919C26.5141 13.4508 27.0322 13.8119 27.4695 14.2738C27.9083 14.7357 28.2553 15.2844 28.5135 15.9215C28.7702 16.5569 28.8985 17.2606 28.8985 18.0279C28.8985 18.1472 28.8906 18.2635 28.8764 18.3782C28.8605 18.4929 28.8463 18.5905 28.832 18.6711C28.8162 18.775 28.8019 18.8633 28.7861 18.9377H21.3491C21.3792 19.2555 21.4743 19.5593 21.6327 19.8476C21.7911 20.1359 21.9892 20.3901 22.2284 20.6071C22.4661 20.8256 22.7513 20.9992 23.084 21.1279C23.4167 21.2581 23.7684 21.3216 24.1391 21.3216C24.7745 21.3216 25.2783 21.1883 25.6522 20.9217C26.0261 20.6551 26.297 20.4118 26.4634 20.1901H28.672ZM24.0251 14.7326C23.3295 14.7326 22.7417 14.9636 22.2617 15.4255C21.7816 15.8874 21.4774 16.4918 21.3491 17.2389H26.9276C26.8072 16.4996 26.4982 15.8967 26.0039 15.4317C25.508 14.9667 24.8489 14.7326 24.0251 14.7326Z" fill="black"/>
<path d="M34.1161 23.2513C33.4206 23.2513 32.771 23.1242 32.1657 22.8685C31.5605 22.6143 31.0298 22.2547 30.5735 21.7928C30.1156 21.3309 29.7607 20.7822 29.5072 20.1451C29.2537 19.5097 29.127 18.8029 29.127 18.0263C29.127 17.2575 29.2537 16.5554 29.5072 15.9199C29.7607 15.2844 30.1156 14.7341 30.5735 14.2722C31.0298 13.8103 31.5621 13.4507 32.1657 13.1904C32.771 12.9315 33.4206 12.8029 34.1161 12.8029C34.6152 12.8029 35.0413 12.8633 35.3978 12.9858C35.7527 13.1082 36.0553 13.2353 36.3041 13.3686C36.5845 13.5391 36.8222 13.7313 37.0186 13.9452V8.83179H39.1052V23.1397H37.5985L37.1327 22.1183C36.9283 22.3322 36.6907 22.5213 36.4181 22.684C36.1694 22.8313 35.8541 22.963 35.477 23.0777C35.0984 23.194 34.6453 23.2513 34.1161 23.2513ZM34.2302 14.7326C33.8293 14.7326 33.4475 14.8116 33.0847 14.9713C32.7219 15.1309 32.4002 15.3572 32.1214 15.6533C31.841 15.9493 31.6207 16.2981 31.4575 16.7011C31.2943 17.1041 31.2135 17.5458 31.2135 18.0263C31.2135 18.5146 31.2943 18.9579 31.4575 19.3578C31.6207 19.7561 31.841 20.1048 32.1214 20.3993C32.4002 20.6954 32.7219 20.9232 33.0847 21.0813C33.4475 21.241 33.8293 21.32 34.2302 21.32C34.631 21.32 35.0144 21.241 35.3804 21.0813C35.7464 20.9217 36.068 20.6954 36.3437 20.3993C36.6194 20.1048 36.8396 19.7561 37.0012 19.3578C37.1644 18.9579 37.2452 18.5146 37.2452 18.0263C37.2452 17.5381 37.1644 17.0948 37.0012 16.6949C36.838 16.295 36.6194 15.9478 36.3437 15.6517C36.068 15.3557 35.7464 15.1294 35.3804 14.9697C35.0144 14.8132 34.6294 14.7326 34.2302 14.7326Z" fill="black"/>
<path d="M44.7977 23.2513C44.2083 23.2513 43.6617 23.1428 43.1595 22.9242C42.6556 22.7057 42.2136 22.4034 41.8334 22.0144C41.4515 21.6253 41.1537 21.1604 40.9382 20.6163C40.7227 20.0723 40.615 19.4755 40.615 18.8261V12.9144H42.7016V18.8261C42.7016 19.1733 42.7681 19.4988 42.8996 19.8026C43.0311 20.1064 43.2086 20.3699 43.432 20.5962C43.6554 20.8225 43.9136 20.9992 44.2083 21.1294C44.503 21.2596 44.8135 21.3231 45.1383 21.3231C45.4789 21.3231 45.8037 21.258 46.1127 21.1294C46.4216 21.0007 46.6941 20.8225 46.9286 20.5962C47.1631 20.3714 47.3501 20.1064 47.4895 19.8026C47.6289 19.4988 47.6986 19.1748 47.6986 18.8261V12.9144H49.7852V23.1412H48.2785L47.8127 22.1198C47.6083 22.3337 47.3659 22.5228 47.0871 22.6855C46.8367 22.8328 46.5262 22.9645 46.1507 23.0792C45.7784 23.1939 45.3268 23.2513 44.7977 23.2513Z" fill="black"/>
<path d="M57.4407 23.1413L53.3705 18.2604V23.1413H51.2839V8.83179H53.3705V17.3505L56.9765 12.9145H59.4132L55.3541 17.6838L59.9915 23.1413H57.4407Z" fill="black"/>
<path d="M64.8572 12.8029C65.4323 12.8029 65.9741 12.9145 66.4843 13.1361C66.9945 13.3577 67.4397 13.6615 67.8215 14.0459C68.2033 14.4303 68.5012 14.8938 68.7166 15.4378C68.9321 15.9819 69.0399 16.5817 69.0399 17.2405V23.1413H66.9548V17.2405C66.9548 16.9072 66.8883 16.5895 66.7568 16.2872C66.6237 15.985 66.4463 15.7184 66.2245 15.489C66.0011 15.2596 65.7428 15.0767 65.4481 14.9403C65.1534 14.8039 64.8429 14.7357 64.5181 14.7357C64.1632 14.7357 63.8305 14.8039 63.52 14.9403C63.2094 15.0767 62.9385 15.2596 62.704 15.489C62.4695 15.7184 62.2858 15.9819 62.1543 16.2826C62.0212 16.5817 61.9562 16.9026 61.9562 17.242V23.1428H59.8696V8.83179H61.9562V13.9452C62.1749 13.7313 62.4252 13.5391 62.704 13.3686C62.9528 13.2353 63.2601 13.1082 63.623 12.9858C63.9842 12.8633 64.3961 12.8029 64.8572 12.8029Z" fill="black"/>
<path d="M72.1721 22.0097C72.1721 22.3585 72.047 22.6514 71.7982 22.8917C71.5495 23.1319 71.2469 23.2513 70.892 23.2513C70.5371 23.2513 70.2345 23.1304 69.9857 22.8917C69.7354 22.6514 69.6118 22.3569 69.6118 22.0097C69.6118 21.6625 69.737 21.3665 69.9857 21.1231C70.2345 20.8798 70.5371 20.7573 70.892 20.7573C71.2469 20.7573 71.5495 20.8798 71.7982 21.1231C72.047 21.3665 72.1721 21.6625 72.1721 22.0097Z" fill="black"/>
<path d="M80.2206 14.4613C80.2919 14.7078 80.3996 14.5497 80.2855 13.8863C80.2063 13.7359 80.1065 13.5933 80.0115 13.4523C80.1144 13.7824 80.1525 14.1234 80.2206 14.4613Z" fill="#2A46FC"/>
<path d="M79.0941 10.0687C78.5934 9.40994 77.8836 8.7884 78.0579 9.30144C78.3653 9.56339 78.5301 9.74939 78.6869 9.94934C78.8549 10.1446 79.0181 10.3477 79.3159 10.6778C79.6566 11.2777 79.7643 11.7845 79.6534 11.7024C79.7168 11.8062 79.8055 12.0542 79.8974 12.3162C79.9734 12.5843 80.0701 12.8602 80.1715 13.023C80.1018 12.1333 79.6898 11.0297 78.9578 10.0888C78.8564 9.85324 79.0323 10.0361 79.0941 10.0687Z" fill="#2A46FC"/>
<path d="M13.1121 3.4596L13.5414 3.3325C13.421 3.3604 13.2752 3.40535 13.1121 3.4596Z" fill="#2A46FC"/>
<path d="M17.1111 29.6605C16.7926 29.5908 16.6563 29.5784 16.6357 29.5908C16.9336 29.6481 17.1776 29.6931 17.1111 29.6605Z" fill="#2A46FC"/>
<path d="M24.2264 31.3578C24.0727 31.3237 23.9444 31.2958 23.8049 31.2648C23.9634 31.3128 24.1234 31.3531 24.2264 31.3578Z" fill="#2A46FC"/>
<path d="M13.1123 3.45959L12.0222 3.82694C11.9715 3.91219 12.5863 3.65024 13.1123 3.45959Z" fill="#2A46FC"/>
<path d="M71.7744 4.57868C71.9946 4.65773 72.1753 4.72593 72.3464 4.78018C72.1689 4.70733 71.9994 4.63293 71.8204 4.56628C71.8061 4.57093 71.795 4.57558 71.7744 4.57868Z" fill="#2A46FC"/>
<path d="M31.6777 0.108503L32.0263 0.0930032C32.1277 0.0666534 32.2227 0.0372037 32.3131 0.00465393L31.6777 0.108503Z" fill="#2A46FC"/>
<path d="M46.1791 0.0681882C45.8512 0.0495884 45.7308 0.204587 45.604 0.269687C45.791 0.210787 46.0349 0.185987 46.3233 0.187537C46.328 0.156537 46.2869 0.119338 46.1791 0.0681882Z" fill="#2A46FC"/>
<path d="M68.9622 2.9248L69.363 3.01315C69.2584 2.9899 69.0826 2.95115 68.9622 2.9248Z" fill="#2A46FC"/>
<path d="M21.3207 1.10507C21.2922 1.08647 21.2367 1.07562 21.1797 1.07253C21.1829 1.09267 21.2383 1.10197 21.3207 1.10507Z" fill="#2A46FC"/>
<path d="M6.74619 25.3314C6.73034 25.333 6.73668 25.3485 6.72876 25.3531C6.79848 25.395 6.82542 25.4027 6.74619 25.3314Z" fill="#2A46FC"/>
<path d="M20.6759 34.0749L20.4541 34.0067C20.4208 34.0269 20.386 34.047 20.3765 34.0749H20.6759Z" fill="#2A46FC"/>
<path d="M37.5095 33.348C37.4841 33.3449 37.4746 33.3434 37.4508 33.3403C37.0944 33.3341 37.2956 33.3449 37.5095 33.348Z" fill="#2A46FC"/>
<path d="M13.4941 2.56374C14.2039 2.47539 13.6478 2.64899 13.1867 2.80244C12.7272 2.97294 12.3597 3.11244 13.4069 2.93264C13.1915 2.90939 15.2416 2.2739 13.4941 2.56374Z" fill="#2A46FC"/>
<path d="M71.4465 4.419C71.2722 4.3446 71.0869 4.2826 70.9062 4.2113C71.1518 4.30585 71.3182 4.3694 71.4465 4.419Z" fill="#2A46FC"/>
<path d="M13.407 2.93257L13.624 2.90002C13.5337 2.91242 13.483 2.92017 13.407 2.93257Z" fill="#2A46FC"/>
<path d="M68.0686 29.1909C67.9989 29.1878 67.8737 29.2126 67.7454 29.2405C67.7628 29.2514 67.8357 29.2452 68.0686 29.1909Z" fill="#2A46FC"/>
<path d="M45.4219 33.2611L45.9938 33.2704C45.7673 33.2596 45.5835 33.2596 45.4219 33.2611Z" fill="#2A46FC"/>
<path d="M78.3669 23.0514C78.6093 22.8468 78.6981 22.7817 78.9848 22.4562C78.95 22.4794 78.9183 22.5042 78.8787 22.5383C78.7852 22.6623 78.6521 22.8266 78.3669 23.0514Z" fill="#2A46FC"/>
<path d="M78.8469 11.6001C78.877 11.6606 78.9182 11.7396 78.9531 11.8094C79.026 11.9101 79.1115 12.0279 79.1876 12.1317L78.8469 11.6001Z" fill="#2A46FC"/>
<path d="M21.0832 3.56032C20.8107 3.58047 20.6364 3.57272 20.497 3.55567C20.7093 3.62077 18.9713 4.08422 21.0832 3.56032Z" fill="#2A46FC"/>
<path d="M71.8044 4.49501C71.7221 4.50431 71.6191 4.48261 71.4448 4.41906C71.5747 4.47021 71.6983 4.51826 71.8187 4.56631C71.8615 4.55856 71.8789 4.53996 71.8044 4.49501Z" fill="#2A46FC"/>
<path d="M77.8171 21.8207C78.2481 21.3975 78.641 20.9449 78.9595 20.4583C78.6885 20.8628 78.2719 21.3603 77.8171 21.8207Z" fill="#2A46FC"/>
<path d="M59.052 32.5141L59.4782 32.3823C59.3118 32.4226 59.1597 32.466 59.052 32.5141Z" fill="#2A46FC"/>
<path d="M79.5757 15.6177C79.5393 15.303 79.4489 14.9744 79.3285 14.6427C79.2858 14.5792 79.2414 14.5063 79.2034 14.4691C79.3555 14.8473 79.4822 15.2317 79.5757 15.6177Z" fill="#2A46FC"/>
<path d="M20.4937 3.5563C20.5017 3.5563 20.5017 3.5563 20.5017 3.5563C20.5017 3.5563 20.499 3.55348 20.4937 3.5563Z" fill="#2A46FC"/>
<path d="M8.67418 8.34513C10.3203 7.52984 9.35387 7.77783 9.65014 7.49574C10.1334 7.22914 10.4455 7.09274 10.6483 7.02764C10.8479 6.95634 10.9351 6.94704 10.981 6.95944C11.0729 6.98424 11.0079 7.10049 11.3739 7.00129C11.9934 6.70679 12.5273 6.4123 13.0264 6.1426C13.5207 5.8636 14.0071 5.6714 14.4903 5.49315C14.5743 5.49935 14.7676 5.44355 14.5632 5.5629C15.8656 4.87626 18.6619 4.17411 20.259 3.55722C20.3873 3.54482 20.4538 3.54637 20.4887 3.55412C20.1924 3.51847 20.1227 3.42547 20.1592 3.33867C20.9703 3.13717 21.6374 2.84268 21.9764 2.90158C21.4773 3.01937 21.4488 3.08292 21.2254 3.18057L22.062 2.91553C22.8731 2.92018 20.9165 3.26427 20.9529 3.40532C22.5816 2.90313 24.513 2.39783 25.8105 2.20253C26.1131 2.34048 22.8193 2.84423 24.5652 2.68148C23.8998 2.78998 23.2296 2.87678 22.5674 3.00232C23.3548 2.98372 23.0538 3.04572 22.7385 3.10927C22.4248 3.18367 22.0984 3.26272 22.8209 3.25342C25.4335 2.81168 25.706 2.55748 28.3392 2.25213C28.9143 2.06148 28.1221 2.12503 28.6988 1.93283C30.5588 1.58874 31.3209 1.67709 31.942 1.71274C32.5662 1.75459 33.0637 1.82588 34.4373 1.61974C35.1455 1.46629 35.4117 1.14854 37.3969 1.24929L36.7299 1.48024C38.018 1.46319 38.384 1.37639 38.7674 1.30509C39.1492 1.22914 39.55 1.17334 40.9015 1.27254C40.4198 1.34539 38.8735 1.32369 39.2633 1.35624C41.0124 1.53604 40.5007 1.24619 41.8489 1.26014L42.123 1.45544C43.4951 1.45854 44.9384 1.51124 46.4214 1.53759C47.8996 1.62129 49.4221 1.65694 50.9384 1.82433C50.7641 1.86308 50.2397 1.86773 50.9415 2.00103C54.7614 2.30638 59.1009 3.04882 62.6515 3.92767C63.1173 3.97572 63.5815 4.03152 64.0457 4.09662C64.3578 4.18341 64.6034 4.32601 64.258 4.26556C65.5952 4.71506 64.3594 4.18031 65.0312 4.31051C65.8059 4.53836 66.0087 4.73056 65.5112 4.61431C66.7106 4.92741 68.3916 5.51795 69.8745 6.4774C70.2516 6.70989 70.5891 6.98579 70.9186 7.26169C71.0834 7.39964 71.2482 7.53604 71.4098 7.67089C71.5539 7.82588 71.695 7.97778 71.8344 8.12658C72.1148 8.42418 72.3826 8.71248 72.5806 9.03022C72.7866 9.33867 72.9989 9.61612 73.1446 9.89822C73.0543 9.75872 72.9276 9.64712 72.8198 9.52157C72.8911 9.62232 72.9593 9.71532 73.0226 9.80522C73.0797 9.89977 73.1336 9.98967 73.1842 10.0749C73.2888 10.2439 73.387 10.3942 73.4821 10.5291C73.6786 10.7972 73.8497 11.0189 73.9859 11.256C74.1317 11.487 74.2759 11.7179 74.42 12.0015C74.5642 12.2836 74.6561 12.6417 74.7734 13.0896L74.6308 12.7626C75.2914 14.8163 75.5798 17.1274 75.274 19.2555C75.0015 21.3836 74.1951 23.2963 73.1906 24.5781C73.1494 24.7331 73.0036 25.0493 72.7375 25.3888C72.4539 25.7143 72.1338 26.1219 71.7631 26.4784C71.0279 27.1976 70.2247 27.7789 70.2136 27.9974C69.1378 28.6624 68.7085 28.8251 68.184 29.0716C67.6485 29.301 67.0211 29.6249 65.3544 30.2743C64.464 30.6169 64.1154 31.0214 62.9874 31.4229L62.8986 31.2679L61.4204 31.953L60.5364 32.0274C60.191 32.17 59.8297 32.2645 59.4733 32.3777C59.909 32.2769 60.4144 32.2087 60.3621 32.2692C58.6874 32.8008 56.2 33.2627 56.1303 33.1356L54.1134 33.6068L53.1026 33.8393L52.0791 34.0129C52.1583 33.9246 52.8475 33.83 53.3783 33.6859C51.2188 34.1819 52.9537 33.565 50.9716 34.0005C51.2457 34.0036 50.8401 34.123 50.7989 34.1633C49.7865 34.2408 47.4908 34.3663 45.794 34.526C45.9017 34.4872 46.0079 34.4423 46.1156 34.3927C45.3472 34.4035 44.5598 34.4144 43.7549 34.4268C43.3525 34.4345 42.9453 34.4423 42.5365 34.45C42.1262 34.4578 41.7143 34.4252 41.2976 34.4144C40.4642 34.3834 39.6198 34.3524 38.7674 34.3214C37.9197 34.2361 37.0642 34.1493 36.2055 34.0625C37.4286 34.2501 37.126 34.4268 36.112 34.3384L35.7317 34.1121C35.0647 34.1555 36.7774 34.2935 35.4196 34.2888C34.1395 34.0889 34.5894 33.9633 35.3309 34.0083C34.8097 33.9695 34.2932 33.8858 33.7719 33.8254C33.6895 33.7556 34.0571 33.7882 34.1632 33.7339C33.5121 33.7246 31.5269 33.1511 30.5937 33.0938L30.5192 33.0209C29.6795 32.8334 28.9555 32.6706 28.2964 32.5234C27.6405 32.3715 27.0638 32.187 26.4966 32.0382C25.9325 31.8817 25.3875 31.7313 24.814 31.5732C24.242 31.4105 23.6622 31.1842 22.9983 30.9563C22.8922 31.0865 21.8703 30.6866 21.0337 30.5208C20.0989 30.0852 19.1119 29.6233 18.0773 29.1413C17.057 28.6345 16.0192 28.047 14.9054 27.5061C13.3385 26.7388 14.3921 27.379 13.6633 27.0752C13.6253 26.8845 11.4817 25.6476 12.6462 26.2056C11.3406 25.4926 10.5754 24.93 9.69292 24.3673C8.81678 23.7969 7.81863 23.208 6.37687 22.0486C6.63829 22.357 6.98051 22.6593 6.76346 22.5492C6.21844 22.1416 5.64966 21.4968 5.77165 21.5107L5.91107 21.6192C5.11415 20.962 4.35841 20.1405 3.77695 19.1981C3.49018 18.7254 3.24936 18.2247 3.06399 17.7086C2.9721 17.4498 2.89605 17.1878 2.84694 16.9212C2.78198 16.6593 2.72653 16.3958 2.71068 16.1276C2.46511 13.984 3.21451 12.0031 3.85142 10.5663L3.77695 10.7275C4.23958 9.73547 4.85273 8.79463 5.59103 7.94988C6.15031 7.41204 6.00614 7.59959 5.82869 7.81813C5.65124 8.03668 5.46904 8.31258 5.88889 7.93283C7.0724 6.57349 8.3082 5.8078 9.55508 5.24516C10.802 4.67786 12.033 4.27951 13.5017 3.83932C14.7042 3.75872 16.7702 3.39757 19.0057 3.18832C21.2349 2.97132 23.613 2.82098 25.2608 2.85973L25.0659 2.76983C25.9088 2.62723 26.0957 2.77448 26.7215 2.76363C26.6281 2.69078 25.7963 2.72178 26.3207 2.63963C33.4994 2.14208 41.1645 2.16223 48.4747 2.68768C49.8119 2.77293 50.2001 2.68148 50.6754 2.61483C51.1491 2.55748 51.7163 2.49548 53.3862 2.79618L52.4134 2.88453C55.1179 3.01937 57.862 3.39292 60.5633 3.88427C63.271 4.36321 65.9057 5.00181 68.3948 5.80005C68.0874 5.7334 68.062 5.77835 67.5772 5.62025C68.0795 5.8543 69.0317 6.19685 69.8492 6.51615C70.6715 6.82304 71.3575 7.10824 71.3955 7.05554C72.1037 7.43684 71.5143 7.23069 71.9247 7.50969C72.3937 7.78713 72.991 8.10643 73.5407 8.39473C74.0667 8.71248 74.5547 8.98837 74.729 9.22862C74.7892 9.30922 74.4707 9.06897 74.2949 8.97597C74.4549 9.05502 74.6815 9.23637 74.9461 9.43167C75.2106 9.62542 75.4958 9.85327 75.7303 10.0703C76.223 10.4826 76.5589 10.8112 76.3815 10.5182C77.0231 11.2188 77.641 11.8791 78.1385 12.5735C78.6598 13.2539 79.0749 13.9437 79.3268 14.6334C79.6072 15.0333 79.856 15.7897 79.951 16.4686C80.0588 17.1491 80.016 17.7396 80.1285 17.8961C79.9985 17.8249 79.9146 18.589 79.5613 19.4399C79.2222 20.2971 78.5679 21.2147 78.2035 21.6828C78.4205 21.3511 77.4256 22.3586 77.6743 21.9556C76.7189 22.8902 75.6701 23.6249 75.9521 23.5986C73.6659 24.775 71.5666 26.4893 70.0456 26.7419C66.2923 28.6515 62.5453 29.9194 58.8253 30.8044C58.8617 30.6556 59.8963 30.4417 60.8754 30.1674C61.365 30.0325 61.8466 29.9008 62.1904 29.7892C62.5311 29.6667 62.7339 29.566 62.6752 29.5149C61.8213 29.8062 61.0418 30.0201 60.3193 30.2557C59.5858 30.4572 58.9013 30.6603 58.2105 30.837C56.8258 31.1749 55.4316 31.4818 53.6397 31.6833C52.7097 31.7716 54.1498 31.5035 54.454 31.4198C50.8782 32.032 47.4829 32.1359 44.254 32.2707C44.2635 32.2444 44.612 32.2289 44.94 32.1979C44.3031 32.2149 43.4586 32.1576 43.5299 32.2769L44.151 32.2475C45.1729 32.4257 41.6129 32.5854 41.4925 32.6474C42.0406 32.4939 41.239 32.4583 40.5197 32.3963C39.8004 32.3281 39.1635 32.2537 40.0333 32.0878C39.6134 32.0894 39.0842 32.1173 39.1761 32.1994C38.5551 32.1467 38.3618 32.0816 38.9971 32.0351C36.7156 31.939 37.5126 32.1343 35.4482 31.9421C35.4608 31.8863 35.8791 31.9034 36.0993 31.8569C35.0457 31.8739 33.981 31.8786 32.2478 31.6151C32.3571 31.5949 32.1606 31.5252 32.6787 31.5934C29.6938 31.2353 27.547 31.178 24.3133 30.4696C25.3178 30.4123 23.2233 30.1813 23.095 29.9411L21.3411 29.6512L22.0192 29.893C20.495 29.5815 19.1151 29.4374 17.8238 29.0747L18.9725 29.2421L16.1175 28.6329L17.7097 29.0824C16.146 28.8375 17.8127 29.3831 15.8038 28.8561C16.2189 28.9336 14.286 28.495 13.5271 28.1819H13.5318C12.7697 28.061 11.9776 27.9432 10.8907 27.5665C10.6245 27.4193 11.1901 27.41 11.0174 27.3123C10.6293 27.2953 9.76105 27.0349 8.8849 26.7326C8.01509 26.4149 7.13578 26.0584 6.67473 25.9158C6.97893 26.0181 7.0423 25.9251 6.95992 25.8584L6.33251 25.7065C5.73363 25.3237 5.66075 25.2493 5.80492 25.2322C4.90976 24.6789 5.02701 24.8029 5.09038 24.9207C5.12365 24.9765 5.15059 25.023 5.0381 24.9641C4.92561 24.9052 4.67053 24.7455 4.19522 24.3363C4.35999 24.4464 4.2982 24.372 4.63884 24.6029C3.63594 23.8465 2.75821 23.008 2.09279 22.0408C1.42736 21.0783 0.96948 19.9964 0.82372 18.8726C0.88234 18.527 0.959974 19.0137 1.08038 19.4725C1.21189 19.9297 1.36398 20.3637 1.33705 19.9809C0.82372 18.4805 0.741333 16.7662 1.07563 15.1263C1.40518 13.4833 2.14032 11.9225 3.14796 10.6717C3.01488 10.822 2.89922 10.9848 2.77406 11.1398C2.77723 10.8747 3.15747 10.3942 3.70407 9.87342C4.2475 9.34642 4.94462 8.78068 5.53083 8.20718C5.23772 8.48308 5.24089 8.66908 5.3011 8.57608C7.00586 7.18884 8.91659 5.82485 12.0393 4.41901C11.9174 4.49186 11.7985 4.57401 11.6813 4.65461C12.9234 4.18651 14.9561 3.43477 16.3504 3.08447C16.7385 2.89848 17.5371 2.69388 17.0237 2.71713C19.226 2.35443 21.2825 1.90648 23.3136 1.54844C25.34 1.19194 27.3331 0.931542 29.3199 0.985792C28.8477 1.01989 28.2013 1.13304 28.5768 1.10669C29.6938 0.998192 30.8139 0.919142 31.9341 0.847843C31.6615 0.730044 31.4889 0.785843 30.7759 0.719194C31.1989 0.623095 32.1479 0.514596 32.9861 0.491346C31.4714 0.627745 33.0082 0.699044 33.6642 0.751744C33.5533 0.716094 33.7767 0.663394 33.7196 0.624645C35.4893 0.815293 34.008 0.347197 36.4209 0.461896L36.2942 0.531646C37.1941 0.480496 38.0259 0.387497 38.9987 0.404547C39.4011 0.553345 38.0386 0.478946 37.9784 0.602945C39.3425 0.585895 40.6733 0.316197 41.9091 0.486696C41.3293 0.517696 40.4943 0.509946 39.9144 0.550245C41.258 0.731594 41.4132 0.697494 42.413 0.737794L42.3147 0.731594L44.62 0.867993L44.0338 0.802893C45.7528 0.458796 47.5098 0.844743 49.8214 0.720744C47.5732 0.841643 49.4443 0.841643 49.2621 1.00129C49.8452 1.08034 50.7324 1.19194 50.4757 1.22294C51.5689 1.15164 52.2756 1.44769 53.8187 1.36864C53.8821 1.42909 54.9769 1.46784 54.7202 1.58564C56.1303 1.66934 54.397 1.45854 54.5206 1.40429C56.7102 1.39809 59.5905 2.10488 62.7228 2.25368C64.0663 2.36838 64.8648 2.43503 65.6396 2.50168C66.4143 2.56988 67.1669 2.64273 68.3963 2.90468C68.7956 3.05347 68.6134 3.05657 68.333 3.02712C68.0525 2.99767 67.6739 2.93413 67.6739 2.93413C68.9762 3.32782 69.9506 3.60372 71.1658 3.99432C70.906 3.94937 71.1436 4.07647 71.4763 4.27796C71.9469 4.46706 72.1243 4.48566 72.3303 4.54301C72.5378 4.59726 72.7834 4.67321 73.3585 5.02041C73.1209 4.97236 72.8214 4.91191 72.3509 4.76931C73.4473 5.22346 74.523 5.71635 75.5307 6.43555C75.7303 6.70679 74.8526 6.09765 74.4501 5.9287C75.0332 6.2852 75.7667 6.79204 76.3545 7.28959C76.9518 7.77628 77.4224 8.23198 77.6236 8.34048C77.4335 8.11418 77.2576 7.87548 77.0548 7.65849C77.4161 8.01343 77.1435 7.92663 76.8584 7.69103C75.9331 6.95944 75.6131 6.53785 75.5972 6.44485C75.8349 6.61689 76.0757 6.78739 76.3007 6.97649C76.0757 6.55179 75.3611 5.99535 74.485 5.504C73.6104 5.00646 72.5743 4.59571 71.7552 4.24541C72.0166 4.26711 72.278 4.29501 72.5378 4.33221C71.9516 4.12762 71.3527 3.96332 70.7554 3.80987C70.4069 3.62697 70.1977 3.40532 71.0501 3.67657C69.865 3.13252 69.9411 3.37432 68.9081 2.94033C68.7956 2.88763 68.851 2.89228 68.9651 2.91398C68.5516 2.81943 68.1333 2.74348 67.7167 2.66753C67.9701 2.67683 67.5519 2.45208 68.3029 2.67528C66.1054 1.99638 64.6589 2.12658 63.8429 1.81813L64.033 1.83053C60.8897 1.48024 63.7051 1.94988 61.3317 1.85068L59.8012 1.24154L59.4717 1.37949C59.1485 1.33764 58.51 1.25549 58.6351 1.19969C57.4168 1.18884 58.8316 1.29424 58.1202 1.33144C56.5787 1.00749 53.8124 1.00439 53.4828 0.706794C52.9109 0.792043 54.969 0.928442 53.2927 0.885043C52.8396 0.553345 51.3598 0.790493 49.9402 0.570395C50.3886 0.444846 51.7385 0.610695 50.3157 0.385947C49.438 0.584345 47.532 0.175149 46.32 0.176699C46.255 0.376647 43.69 0.161199 41.6604 0.206148C41.7903 0.128649 37.8453 0.0526996 35.9551 0.0247998L36.0074 0C35.6446 0.209248 33.699 0.213898 32.2842 0.309997C32.3349 0.182898 32.5884 0.125549 33.3536 0.0449496L32.0196 0.0929992C31.7075 0.175149 31.294 0.220098 30.4305 0.292948L30.7569 0.119349C28.9792 0.218548 27.1968 0.514596 24.9122 0.669594C24.8061 0.830793 26.7596 0.866443 24.3815 1.23999C24.2832 1.17334 24.1771 1.05244 24.7981 0.940842C24.5938 0.978042 24.0757 1.09894 23.6574 1.11909L24.5969 0.864893C23.5576 0.940842 24.0709 1.04159 23.2471 1.13924C23.2471 1.02609 22.626 1.15319 22.7306 1.04779C22.9397 1.00439 23.4562 0.982692 23.7667 0.903642C22.8351 1.00594 21.7007 1.11599 21.3157 1.10514C21.4076 1.15319 21.3427 1.25239 20.6677 1.38879C18.9234 1.73909 20.0435 1.37639 19.0105 1.52674C18.6049 1.69104 17.48 1.88633 17.4927 2.05218C16.9873 2.18083 16.8748 2.13743 16.6672 2.14518C16.2284 2.29088 15.1985 2.61018 14.4111 2.88143C13.6316 3.17437 13.0898 3.39912 13.611 3.30922L13.8376 3.24257C13.7964 3.25962 13.7489 3.27822 13.6982 3.29992C13.7045 3.29682 13.6982 3.29992 13.7045 3.29682L13.6982 3.29992C10.9351 4.45156 7.84874 5.6187 5.52291 7.54844L5.49122 7.50194C4.80678 8.08008 4.07481 8.75743 3.46167 9.45647C2.84694 10.154 2.3542 10.8701 2.07536 11.4405C1.79176 11.8791 1.37666 12.4712 1.41944 12.2433C1.12475 12.8618 1.01067 13.226 0.861744 13.6554C0.714399 14.0847 0.532199 14.5823 0.299299 15.5433C0.373763 14.8566 0.354751 14.9729 0.324649 15.0225C0.311974 15.0767 0.291377 15.0612 0.567054 14.1545C0.281871 15.0008 0.148785 15.5402 0.0679835 16.1028C-0.0144028 16.6639 -0.0460898 17.2607 0.0996706 18.2154C0.0141156 17.8915 -0.0413368 18.234 0.020453 18.7672C0.0553087 19.302 0.253353 20.0119 0.410204 20.4195C0.310389 20.001 0.232756 19.5825 0.188394 19.1609C0.389607 20.1049 0.677959 20.9109 1.07405 21.675L0.693803 21.3356C1.02335 22.2299 1.57787 22.9739 2.14982 23.6187C2.74712 24.2495 3.39671 24.7657 4.05738 25.1935C5.37715 26.0646 6.70167 26.6241 7.92637 27.3263C8.40643 27.4394 7.94538 27.2472 7.48592 27.0209C7.02646 26.79 6.56066 26.5544 6.9916 26.6598C8.50624 27.3836 10.1049 28.1524 10.6134 28.3028C12.8062 29.0344 12.7618 28.6004 15.0591 29.2359C14.7787 29.0964 14.541 28.8639 16.2902 29.2064C17.9046 29.6094 18.2215 29.9318 17.1806 29.7582C16.7892 29.6745 16.607 29.6094 16.6292 29.5908C16.1 29.4932 15.4045 29.3599 16.0303 29.58L16.2569 29.5645C17.0443 29.8248 19.2862 30.31 18.7364 30.3022C19.9833 30.5068 19.2862 30.3146 18.3847 30.0744C20.4523 30.6293 21.65 30.7858 23.8 31.2632C23.4625 31.1609 23.1615 31.0245 23.5037 31.0896C26.6629 31.767 24.9265 31.2245 27.0859 31.5779C28.2964 31.877 26.6043 31.7468 28.7955 32.0134C30.1184 32.2754 29.049 32.2351 28.5119 32.2025C30.5208 32.3808 32.224 32.8194 33.3695 32.9682L32.308 32.8969C32.9417 32.9496 33.4614 32.9977 33.9874 33.0597L33.3996 32.8597C34.0159 32.9512 34.5419 33.0101 34.5245 33.0643C35.1725 33.0426 34.0603 32.7993 35.3388 32.7977C36.1579 32.9512 37.8611 32.9388 38.1352 33.131C35.5337 32.8799 38.4093 33.3402 36.2007 33.1899C36.6269 33.2116 37.1466 33.2472 37.7708 33.3154C37.8627 33.3418 37.6805 33.3464 37.5078 33.3433C38.7515 33.5154 39.0446 33.4766 39.3472 33.4208C39.6499 33.3604 39.9636 33.3046 41.2596 33.348C40.9268 33.4394 41.8553 33.5541 42.2799 33.5448C41.2326 33.5138 41.7856 33.365 42.7441 33.3123C44.4061 33.3945 44.5503 33.2705 45.4201 33.2565C45.0889 33.2488 44.7578 33.2519 44.4267 33.2333C44.7626 33.1403 45.5928 33.1263 46.7477 33.0721C46.8491 33.1496 45.6989 33.148 46.1124 33.1744C47.3878 32.9713 49.026 33.2395 50.8069 32.9698C51.6402 32.9512 50.9051 33.1496 51.6386 33.1201C52.6352 32.9589 53.1802 32.9186 53.7395 32.8799C54.2988 32.8458 54.8739 32.8101 55.9116 32.5776C55.2842 32.5435 55.1876 32.5931 56.6341 32.2227C55.4965 32.4474 54.3574 32.6629 53.2087 32.8349C53.9375 32.6691 54.6679 32.5203 55.3888 32.325C54.3574 32.5032 53.2103 32.7156 52.5861 32.7791C53.6254 32.5358 53.5193 32.5792 53.0091 32.5358C54.4588 32.5528 55.8023 32.0367 57.4469 31.8522L57.4627 32.1886C59.9502 31.8429 61.7722 31.1051 64.8743 30.1798C64.5416 30.279 64.2026 30.3611 63.8635 30.4417C64.2406 30.2015 65.7584 29.8078 66.7217 29.3909C66.671 29.5303 67.2984 29.3335 67.7436 29.2359C67.6691 29.2018 69.9411 28.3291 70.1106 28.0005L71.4795 27.5107C73.8402 26.3668 73.9701 25.8677 76.1074 24.5688C75.5386 25.0772 76.5589 24.5425 75.1679 25.505C75.8919 25.0772 76.5336 24.6541 76.4971 24.5828C76.7221 24.4712 77.1816 24.1007 77.6442 23.6791C78.1068 23.256 78.5695 22.7864 78.8768 22.5322C79.0828 22.2315 79.0939 22.0873 79.6706 21.3294C79.7482 21.2565 79.715 21.3635 79.715 21.3635C79.6896 21.3433 79.8971 21.0302 80.0049 20.7822C80.1158 20.5342 80.1633 20.3808 79.9019 20.7063C80.3107 20.1994 80.683 19.4864 80.8652 18.6525C81.0616 17.8202 81.03 16.8871 80.8398 16.0176C80.4517 14.2599 79.5011 12.7905 78.9513 11.8062C78.6867 11.4296 78.3445 11.0793 78.0308 10.6996C77.6901 10.3431 77.3368 9.98502 76.974 9.64402C76.2325 8.98062 75.4705 8.37613 74.7765 7.91268C74.8843 7.94523 74.8145 7.87083 75.068 8.05683C74.1507 7.35469 73.7942 7.24774 73.414 7.11754C73.0369 6.98114 72.6297 6.82924 71.4922 6.2046C70.9297 5.8419 71.2529 5.9659 71.6284 6.1302C72.0071 6.2883 72.4158 6.52854 72.0657 6.29915C71.9928 6.05115 71.2688 5.71015 70.3641 5.3645C69.461 5.00801 68.3694 4.67786 67.5646 4.30741L67.9781 4.42056C66.7344 3.86722 64.7856 3.59442 62.6483 3.12942C62.6483 3.12942 62.7592 3.12012 62.6721 3.07827C61.9179 3.01007 60.8406 2.89383 59.6951 2.72488C58.5433 2.59933 57.3249 2.41643 56.2776 2.32498C56.9446 2.26453 57.2362 2.36993 56.8591 2.17463C55.9212 2.07543 57.0999 2.44123 55.2304 2.24438C54.6362 2.08008 53.2927 1.89098 53.1295 1.71274L54.8977 1.88788C54.0152 1.59494 52.6099 1.64454 51.6798 1.54224L51.8066 1.46474C50.4472 1.37174 49.7548 1.37329 49.0356 1.39654C48.3178 1.41669 47.5764 1.40739 46.1172 1.35159L46.4166 1.43064C44.8148 1.58874 45.0842 1.24929 43.4872 1.38104L43.0103 1.14854C41.9567 1.19504 39.3203 1.31439 37.4333 1.39809C38.4996 1.21829 40.7098 1.12219 42.0802 1.04159C41.5574 1.03849 40.6702 1.03694 39.8447 1.05089C39.0193 1.07569 38.2572 1.11444 37.9863 1.17179C38.4061 1.14699 38.9369 1.08809 39.352 1.11909C38.0718 1.30044 36.3908 1.40584 34.3138 1.46164C34.6686 1.00594 28.8969 1.53759 27.3759 1.29269C25.5444 1.46629 23.7239 1.54689 21.8259 1.62439C19.9263 1.70344 17.9316 1.78558 15.7784 2.12038C17.3548 2.22733 14.5236 2.31878 14.8532 2.63498C13.8677 2.83958 13.497 2.93878 13.4019 2.93103C12.399 3.09997 11.3945 3.32627 10.4043 3.62697C10.0462 3.72152 10.2601 3.60372 10.5596 3.47817C10.859 3.35417 11.2361 3.20692 11.179 3.18522C10.1096 3.53862 9.88621 3.62542 9.73412 3.63007C9.5836 3.64247 9.51864 3.60372 8.81361 3.88737C9.14791 3.87807 8.16878 4.33996 7.04072 5.02971C7.31798 4.89021 7.59207 4.74451 7.86933 4.61431L8.70904 4.25781C7.34808 5.04521 6.77772 5.44045 6.17249 5.78455C5.61163 6.17825 4.96363 6.53785 4.00035 7.82588C4.19047 7.54534 4.39326 7.27409 4.59289 6.99509C4.04471 7.61354 3.05924 8.79152 2.38589 10.1617C1.69511 11.5226 1.3925 13.0478 1.44162 13.86C1.37824 14.1421 1.24674 14.5265 1.28793 13.7918C1.1596 14.7791 1.19921 15.8548 1.45588 16.8995C1.70462 17.9519 2.20369 18.9315 2.78356 19.7933C3.97341 21.5154 5.48488 22.7352 6.58918 23.7148L6.30716 23.6017C6.88703 24.0232 7.37977 24.2433 8.06262 24.8029C8.004 24.806 7.77586 24.7114 8.04361 24.899C8.37157 25.085 9.68658 25.8274 10.4328 26.3916L9.7151 26.0243C10.0922 26.2909 10.4423 26.5513 10.7956 26.7667C11.1553 26.9729 11.4975 27.1682 11.8255 27.3542C12.4861 27.72 13.1009 28.0393 13.6997 28.3446C14.9292 28.9011 16.1095 29.38 17.5101 30.0294C17.4515 30.1395 18.0837 30.5006 18.8964 30.9098C19.7108 31.319 20.6994 31.7918 21.3886 32.0336L21.3284 32.0491C22.3456 32.4164 23.2882 32.759 24.1993 33.0426C25.1229 33.2922 26.0038 33.5169 26.8768 33.7355C27.7419 33.9773 28.6291 34.0966 29.5243 34.2764C30.4226 34.4423 31.3399 34.6407 32.3349 34.7569C32.9338 34.9259 33.7529 35.1026 34.7035 35.287C35.6589 35.4405 36.7552 35.5505 37.896 35.6838C40.1822 35.8899 42.668 35.9829 44.6722 35.9953C44.0591 35.9581 44.7689 35.8 45.4771 35.7675C46.4182 35.814 48.0485 35.4281 47.917 35.6791L47.5827 35.6993C47.9423 35.7861 48.6046 35.7799 49.3651 35.738C50.124 35.6946 50.9732 35.5366 51.7226 35.4498L51.9254 35.1212C52.4197 35.1057 52.9521 35.0855 53.5034 35.022C54.0532 34.9414 54.6251 34.8422 55.2066 34.7337C55.7881 34.6174 56.3806 34.4996 56.9732 34.3818C57.5546 34.2191 58.1345 34.0579 58.7017 33.8998C59.2673 33.7401 59.8202 33.5836 60.3462 33.4348C60.8707 33.2829 61.3571 33.0938 61.8149 32.9512C62.7275 32.6536 63.4975 32.435 64.0425 32.356C64.9092 31.9669 66.004 31.5221 66.8326 31.0617L66.8548 31.2276C68.0731 30.6959 68.9635 30.2232 69.8904 29.6512C70.803 29.0623 71.7773 28.3834 72.9387 27.1682L72.5347 27.7339C72.7058 27.5681 72.8547 27.41 72.9878 27.2627C73.1114 27.1031 73.2175 26.9512 73.3126 26.8055C73.5027 26.5156 73.6485 26.2537 73.7879 25.9995C73.9083 25.7313 74.0081 25.4585 74.146 25.1733C74.2806 24.885 74.4596 24.5859 74.6355 24.1984L75.0871 23.8465C75.7905 22.3787 76.3038 20.807 76.5146 19.1904C76.7078 17.5753 76.6286 15.9292 76.2199 14.3823C76.2611 14.4273 76.3751 14.5032 76.4464 15.024C76.4179 14.6412 76.2801 14.0956 76.1549 13.4895C76.101 13.1842 75.9965 12.8757 75.8967 12.5688C75.7953 12.2619 75.7002 11.9519 75.5925 11.6652C75.3358 11.1057 75.1077 10.605 74.9159 10.2997C74.7052 10.0021 74.5737 9.88117 74.5706 10.0393C74.6403 9.98347 74.2854 9.20847 73.5851 8.39628C72.9355 7.54999 71.9437 6.71299 71.2181 6.2077L71.5334 6.2635C70.8949 5.84655 70.532 5.7024 70.1264 5.49005C69.7161 5.28856 69.2566 5.02816 68.3219 4.60501C67.8878 4.38956 67.9923 4.30741 68.5579 4.62671C67.845 4.23456 67.5313 4.15551 67.1859 4.05477C66.8373 3.95712 66.4539 3.84397 65.5382 3.50452L66.2654 3.63782C64.6858 3.10927 64.7872 3.22397 63.8778 3.10152C62.859 2.89383 60.8326 2.40403 60.6172 2.22578C60.3827 2.26918 59.4764 2.23198 58.5274 2.04133C58.407 1.96693 58.7603 1.99018 58.9393 2.00258C56.2459 1.44149 54.8739 1.57944 53.0234 1.17334C52.9901 1.11754 52.8713 1.07879 52.7176 1.04624C54.885 1.31904 56.6246 1.57944 56.4598 1.56394C56.4836 1.41979 54.7345 1.15939 56.1572 1.14854C55.4458 1.10824 54.4826 1.05244 53.4828 0.995092C52.4831 0.934642 51.4469 0.878843 50.5961 0.750194C50.5153 0.726944 50.4345 0.705244 50.3743 0.675794L50.5534 0.678894C50.1589 0.624645 49.8055 0.590545 49.4681 0.593645C48.9215 0.526996 48.5761 0.482046 48.0485 0.438646C47.8552 0.303797 46.0316 0.206148 45.1491 0.178248C45.2125 0.340997 44.0623 0.260398 45.1349 0.441746C44.9955 0.423146 45.3028 0.430896 45.8874 0.451046C46.0205 0.452596 46.1758 0.457246 46.2629 0.452596C46.2455 0.455696 46.2249 0.460346 46.2027 0.463446C46.7794 0.505296 47.532 0.557995 48.386 0.619995C47.6857 0.650994 46.9585 0.647895 45.992 0.503746C45.5341 0.584345 45.0335 0.666494 44.7515 0.702144C44.1573 0.568845 43.2812 0.424696 42.5112 0.339447C41.7412 0.254198 41.0789 0.181348 40.9189 0.110049C39.5706 0.113149 37.9847 0.185998 36.5255 0.255748C35.0663 0.348747 33.737 0.520796 32.9068 0.712994C32.1479 0.809093 32.0244 0.709894 31.736 0.688194C32.1733 0.616895 32.6961 0.559545 32.9306 0.509946C31.4128 0.711444 28.42 0.985792 28.0936 1.27874C26.1734 1.46164 29.1377 0.933092 26.5219 1.34694L26.8657 1.23224C24.2595 1.46784 22.1982 2.04598 20.1132 2.70318C18.0219 3.36502 15.9178 4.13537 13.1389 4.94446C13.5255 4.83286 13.7172 4.77706 13.8075 4.78171C13.0185 5.01886 12.258 5.34745 11.488 5.6621C10.7228 5.98915 9.93533 6.279 9.19544 6.67579C8.44604 7.05399 7.69505 7.43219 6.94407 7.81193C6.19943 8.20718 5.46904 8.64273 4.764 9.11702C3.36185 10.0625 2.04525 11.2297 1.2008 12.7207C0.364257 14.2165 0.0584774 15.9649 0.299299 17.611C0.437138 18.5471 0.649441 19.0338 0.83481 19.4182C1.01384 19.8073 1.22456 20.0801 1.51291 20.5637L1.55094 20.9946C1.92009 21.5324 2.33044 22.0346 2.76297 22.5105C3.62485 23.5598 4.3394 24.4882 5.20445 25.4275C6.07743 26.3622 7.093 27.2767 8.56486 28.1912L8.27968 27.8347C8.76449 28.216 9.57726 28.7616 10.2427 29.2018C10.9129 29.6357 11.431 29.9721 11.3074 29.9721C11.4278 30.0201 11.7193 30.0821 12.0996 30.3844L12.0853 30.4789C12.9884 30.9486 13.9025 31.3903 14.8294 31.8026C15.8719 32.3482 15.7515 32.387 15.7531 32.48C15.7594 32.5637 15.8751 32.7373 17.4673 33.427C18.6667 33.9184 20.9973 34.4671 20.5584 34.2516C20.0704 34.0796 19.3305 33.7618 19.329 33.6595C19.6981 33.7851 20.072 33.8936 20.4443 34.0083C20.7406 33.8223 21.6421 33.8843 19.0644 32.7435C18.4354 32.5544 17.808 32.356 17.1853 32.1405C17.0079 32.0212 16.8368 31.8894 16.6625 31.7639C17.1616 31.9948 17.6717 32.2041 18.1787 32.4164C17.3628 31.9483 16.7813 31.798 16.1444 31.5841C16.0335 31.4539 15.8069 31.2911 15.4695 31.0989C14.8579 30.8881 14.2479 30.6665 13.6427 30.4262C13.4906 30.2247 14.4998 30.6634 13.4003 29.9922C12.559 29.6419 14.0325 30.6246 12.6969 29.9442C11.9522 29.3599 12.2374 29.4265 11.2503 28.9243C11.1584 28.7833 11.3787 28.8747 11.7621 29.0824C10.8828 28.6391 9.58836 27.6843 9.09562 27.4983C8.38583 26.8241 6.46401 25.4942 6.71751 25.3578C6.44659 25.2136 5.31536 24.3766 4.71172 23.7257C5.38507 24.2046 4.79886 23.6187 4.18413 22.8763C3.56148 22.1354 2.97369 21.2054 3.22718 21.2937C2.79307 20.8861 2.21478 19.9948 1.80285 18.93C1.38141 17.8667 1.1897 16.6453 1.21505 15.6595C1.22931 15.7727 1.261 15.9881 1.23565 16.1602C1.26259 15.8858 1.28635 15.6611 1.30536 15.4658C1.34656 15.2751 1.39725 15.117 1.43845 14.9713C1.50658 14.6753 1.64283 14.4505 1.76799 14.1297C1.67452 14.0258 1.77275 13.567 2.00565 13.04C2.24013 12.513 2.63147 11.9395 2.92299 11.5381C3.50444 11.0964 3.39829 11.3087 3.205 11.5831C3.01963 11.8682 2.78673 12.2464 3.00696 12.1488C2.90714 12.1147 3.26679 11.6373 3.65337 11.2266C4.03679 10.8158 4.43446 10.4733 4.19205 10.5647C5.15375 9.99897 5.00482 10.0517 5.57994 9.88272C5.58945 9.54482 6.42757 9.28907 7.17222 8.69853C8.71379 8.07698 7.67604 8.73728 9.25723 7.85378C10.0668 7.54224 8.67418 8.34513 8.67418 8.34513ZM50.9494 1.77473V1.77784C50.5755 1.74064 50.2555 1.70964 50.0527 1.69104C50.2381 1.70809 50.4979 1.73134 50.9494 1.77473ZM54.5935 2.20563C54.1514 2.14363 53.6001 2.06768 53.017 1.98708C52.8966 1.91888 53.0424 1.87548 53.4068 1.92973C53.2024 1.94058 54.0564 2.08783 54.5935 2.20563ZM46.9521 0.317747C47.5383 0.340997 47.7316 0.387497 47.8093 0.426246C47.5336 0.409197 47.2104 0.390597 46.7858 0.365797C46.7683 0.368897 46.7335 0.376647 46.7161 0.379747C46.7731 0.353397 46.8381 0.330147 46.9521 0.317747Z" fill="#2A46FC"/>
<path d="M45.8908 0.457275C45.8069 0.457275 45.7593 0.457275 45.6484 0.457275C45.7673 0.475875 45.8798 0.491375 45.9954 0.509975C46.0683 0.496025 46.1412 0.482075 46.2061 0.469675C46.1 0.465025 45.9907 0.460375 45.8908 0.457275Z" fill="#2A46FC"/>
<path d="M13.616 3.30922L13.5415 3.33247C13.6049 3.31697 13.6635 3.30302 13.7031 3.29992C13.6508 3.30922 13.6492 3.30457 13.616 3.30922Z" fill="#2A46FC"/>
<path d="M62.8862 31.2354L62.9052 31.2726L63.1936 31.1393L62.8862 31.2354Z" fill="#2A46FC"/>
<path d="M33.6614 0.759521C33.701 0.771921 33.777 0.784321 33.9275 0.792071C33.9164 0.781221 33.8008 0.770371 33.6614 0.759521Z" fill="#2A46FC"/>
<path d="M42.4084 0.748657L43.6442 0.833906C43.1087 0.788957 42.719 0.761057 42.4084 0.748657Z" fill="#2A46FC"/>
<path d="M49.1228 1.07408C49.2099 1.05083 49.2353 1.03068 49.2575 1.01363L49.2448 1.01208L49.1228 1.07408Z" fill="#2A46FC"/>
<path d="M44.9434 32.2087C45.0337 32.2041 45.1224 32.1994 45.2016 32.1963C45.8036 32.1514 45.3933 32.1731 44.9434 32.2087Z" fill="#2A46FC"/>
<path d="M13.5334 28.1927C13.8693 28.2438 14.1989 28.2934 14.5458 28.3585C13.9992 28.2144 13.5715 28.109 13.5334 28.1927Z" fill="#2A46FC"/>
<path d="M77.676 21.9602C77.6744 21.9633 77.6776 21.9617 77.676 21.9648C77.7251 21.9152 77.7679 21.8703 77.817 21.8207L77.676 21.9602Z" fill="#2A46FC"/>
<path d="M15.9847 28.7042C15.4413 28.5461 14.9787 28.4423 14.5461 28.3601C14.9945 28.4795 15.5221 28.6221 15.9847 28.7042Z" fill="#2A46FC"/>
<path d="M76.594 7.71899L76.811 7.93909C76.8158 7.92824 76.8348 7.93444 76.857 7.94684L76.594 7.71899Z" fill="#2A46FC"/>
<path d="M76.8569 7.94836C76.9457 8.02276 77.0265 8.10491 77.1088 8.18396C77.0027 8.06616 76.9076 7.96851 76.8569 7.94836Z" fill="#2A46FC"/>
<path d="M77.6222 8.69856C77.4638 8.51566 77.28 8.35446 77.1089 8.18396C77.2784 8.36996 77.4875 8.59626 77.6222 8.69856Z" fill="#2A46FC"/>
<path d="M69.1126 3.57433L68.9985 3.60223C69.0556 3.60533 69.0952 3.59758 69.1126 3.57433Z" fill="#2A46FC"/>
<path d="M66.5127 2.96204C67.1385 3.09843 68.0479 3.41773 68.9067 3.62543L68.9985 3.60373C68.5834 3.55878 67.1353 2.97599 66.5127 2.96204Z" fill="#2A46FC"/>
<path d="M55.4158 0.829249L57.675 1.0912C57.2853 0.990447 56.7736 0.857148 57.805 0.945498C54.9674 0.482052 58.3801 1.1284 55.4158 0.829249Z" fill="#2A46FC"/>
<path d="M48.3847 0.247989C49.6078 0.283639 48.3751 0.15809 48.4417 0.12709C47.6638 0.14259 47.4752 0.14724 48.3847 0.247989Z" fill="#2A46FC"/>
<path d="M1.1423 12.682L1.06149 12.5084C0.68917 13.395 1.10902 12.5379 1.1423 12.682Z" fill="#2A46FC"/>
<path d="M2.04561 21.7696C1.90777 21.5169 1.80954 21.2457 1.71448 20.9775C1.61466 20.8752 1.50851 20.7729 1.41187 20.6644C1.621 21.0364 1.78894 21.4286 2.04561 21.7696Z" fill="#2A46FC"/>
<path d="M5.56262 26.2971L5.18237 26.1049C5.65926 26.3668 6.14883 26.5977 6.63998 26.8163C6.28191 26.6427 5.91118 26.4939 5.56262 26.2971Z" fill="#2A46FC"/>
<path d="M80.1856 13.4214L80.1555 13.7608C80.4565 14.3359 80.7211 14.3793 80.1856 13.4214Z" fill="#2A46FC"/>
<path d="M46.4611 1.26787C46.0618 1.16712 45.0225 1.05707 44.3777 1.13612C45.2095 1.16402 46.0365 1.27717 46.4611 1.26787Z" fill="#2A46FC"/>
<path d="M53.819 35.0731C53.5766 35.1429 53.3342 35.2111 53.0886 35.2576C53.556 35.1894 54.0107 35.053 54.4718 34.9553L53.819 35.0731Z" fill="#2A46FC"/>
</g>
<defs>
<clipPath id="clip0">
<rect width="81" height="36" fill="white"/>
</clipPath>
</defs>
</svg>
