<svg width="14" height="22" viewBox="0 0 14 22" fill="none" xmlns="http://www.w3.org/2000/svg">
<path d="M3.49997 21.4995C5.43196 21.4995 6.99995 19.9315 6.99995 17.9995V14.4995H3.49997C1.56799 14.4995 0 16.0675 0 17.9995C0 19.9315 1.56799 21.4995 3.49997 21.4995Z" fill="#0ACF83"/>
<path d="M0 11C0 9.06799 1.56799 7.5 3.49997 7.5H6.99995V14.4999H3.49997C1.56799 14.4999 0 12.932 0 11Z" fill="#A259FF"/>
<path d="M0.000244141 3.99997C0.000244141 2.06799 1.56823 0.5 3.50022 0.5H7.00019V7.49995H3.50022C1.56823 7.49995 0.000244141 5.93196 0.000244141 3.99997Z" fill="#F24E1E"/>
<path d="M6.99976 0.5H10.4997C12.4317 0.5 13.9997 2.06799 13.9997 3.99997C13.9997 5.93196 12.4317 7.49995 10.4997 7.49995H6.99976V0.5Z" fill="#FF7262"/>
<path d="M13.9997 11C13.9997 12.932 12.4317 14.4999 10.4997 14.4999C8.56774 14.4999 6.99976 12.932 6.99976 11C6.99976 9.06799 8.56774 7.5 10.4997 7.5C12.4317 7.5 13.9997 9.06799 13.9997 11Z" fill="#1ABCFE"/>
</svg>
