<svg width="22" height="22" viewBox="0 0 22 22" fill="none" xmlns="http://www.w3.org/2000/svg">
<path fill-rule="evenodd" clip-rule="evenodd" d="M2 0C0.895431 0 0 0.89543 0 2V20C0 21.1046 0.89543 22 2 22H20C21.1046 22 22 21.1046 22 20V2C22 0.895431 21.1046 0 20 0H2ZM12.8629 8.00187C12.3675 8.4897 12.0607 9.0856 11.8443 9.76159C11.8283 9.73964 11.8142 9.72089 11.8016 9.70408C11.7803 9.67566 11.7631 9.65278 11.7475 9.62936C11.0383 8.53596 10.4665 7.38112 10.0694 6.14963C10.0327 6.03604 9.98554 5.99738 9.86061 6.00014C9.57601 6.00635 9.29103 6.00523 9.00608 6.00411C8.89489 6.00368 8.7837 6.00324 8.67253 6.00324H8.19658V6.23111C8.19658 6.66367 8.19713 7.09626 8.19767 7.52886C8.19895 8.54678 8.20023 9.56476 8.19442 10.5826C8.1883 11.6691 7.14099 12.4476 6.05516 12.1869C5.28363 12.0019 4.758 11.3425 4.7562 10.5436C4.75388 9.5199 4.75432 8.49606 4.75476 7.4723C4.75494 7.06281 4.75512 6.65333 4.75512 6.24388V6.04985H3V6.1845C3.0001 6.60718 3.00009 7.02983 3.00007 7.45247C3.00004 8.50907 3 9.56559 3.0018 10.6223C3.00216 10.777 3.01476 10.9327 3.03528 11.0863C3.23618 12.5916 4.4995 13.8182 6.04652 14.0143C7.66411 14.219 9.19709 13.3704 9.81417 11.9366C10.0511 11.3867 10.104 10.8132 10.0896 10.228C10.0879 10.16 10.0883 10.0921 10.0888 10.0242C10.089 9.99286 10.0892 9.96148 10.0892 9.93007C10.1488 9.97088 10.1762 10.0154 10.2029 10.0587C10.2056 10.063 10.2082 10.0673 10.2109 10.0716C10.3006 10.2147 10.39 10.3578 10.4794 10.501C10.7502 10.9347 11.021 11.3684 11.2982 11.7982C11.3605 11.8952 11.3785 11.9781 11.3544 12.0851C11.0822 13.2869 10.8122 14.489 10.5425 15.6915C10.4797 15.9721 10.4178 16.2529 10.3551 16.5376C10.3214 16.6904 10.2875 16.8443 10.253 17H12.1032L12.8819 13.3045C12.9633 13.3487 13.0202 13.3794 13.0771 13.4101C13.9868 13.9 14.9625 14.1068 15.9897 13.9287C18.1001 13.5624 19.4228 11.5727 18.8767 9.57653C18.5246 8.28911 17.6476 7.43394 16.3079 7.09146C14.9967 6.75622 13.8234 7.0559 12.8629 8.00187ZM17.1486 9.95907C17.5302 11.0666 16.5733 12.257 15.1944 12.2315C14.609 12.2108 13.98 11.9384 13.414 11.5141C13.3813 11.4892 13.3525 11.4253 13.3615 11.3891L13.3688 11.36C13.4758 10.9343 13.5829 10.5084 13.7075 10.0875C13.7557 9.92351 13.8382 9.76573 13.9264 9.61658C14.2842 9.01102 14.8225 8.69063 15.5558 8.75381C16.3493 8.82217 16.8984 9.23302 17.1486 9.95907Z" fill="white"/>
</svg>
