<svg width="22" height="22" viewBox="0 0 22 22" fill="none" xmlns="http://www.w3.org/2000/svg">
<path fill-rule="evenodd" clip-rule="evenodd" d="M11 0C8.01259 0 7.63799 0.0126617 6.46473 0.0661945C5.29391 0.119596 4.49426 0.305562 3.79458 0.577505C3.07123 0.858573 2.4578 1.2347 1.84623 1.84622C1.23471 2.45779 0.858573 3.07123 0.577505 3.79458C0.305562 4.49426 0.119603 5.29389 0.0662015 6.46471C0.0126687 7.63798 0 8.01258 0 11C0 13.9874 0.0126687 14.362 0.0662015 15.5353C0.119603 16.7061 0.305562 17.5057 0.577505 18.2054C0.858573 18.9288 1.23471 19.5422 1.84623 20.1538C2.4578 20.7653 3.07123 21.1414 3.79458 21.4225C4.49426 21.6944 5.29391 21.8804 6.46473 21.9338C7.63799 21.9873 8.01259 22 11 22C13.9874 22 14.362 21.9873 15.5353 21.9338C16.7061 21.8804 17.5057 21.6944 18.2054 21.4225C18.9288 21.1414 19.5422 20.7653 20.1538 20.1538C20.7653 19.5422 21.1414 18.9288 21.4225 18.2054C21.6944 17.5057 21.8804 16.7061 21.9338 15.5353C21.9873 14.362 22 13.9874 22 11C22 8.01258 21.9873 7.63798 21.9338 6.46471C21.8804 5.29389 21.6944 4.49426 21.4225 3.79458C21.1414 3.07123 20.7653 2.45779 20.1538 1.84622C19.5422 1.2347 18.9288 0.858573 18.2054 0.577505C17.5057 0.305562 16.7061 0.119596 15.5353 0.0661945C14.362 0.0126617 13.9874 0 11 0ZM11 1.98198C13.9371 1.98198 14.285 1.9932 15.4449 2.04612C16.5174 2.09503 17.0999 2.27422 17.4875 2.42487C18.0009 2.62441 18.3674 2.86278 18.7523 3.24773C19.1372 3.63263 19.3756 3.99906 19.5751 4.51252C19.7258 4.90013 19.905 5.48257 19.9539 6.55506C20.0068 7.71496 20.018 8.06288 20.018 11C20.018 13.9371 20.0068 14.285 19.9539 15.4449C19.905 16.5174 19.7258 17.0999 19.5751 17.4875C19.3756 18.0009 19.1372 18.3674 18.7523 18.7523C18.3674 19.1372 18.0009 19.3756 17.4875 19.5751C17.0999 19.7258 16.5174 19.905 15.4449 19.9539C14.2852 20.0068 13.9373 20.018 11 20.018C8.06267 20.018 7.71483 20.0068 6.55506 19.9539C5.48257 19.905 4.90013 19.7258 4.51252 19.5751C3.99906 19.3756 3.63262 19.1372 3.24772 18.7523C2.86282 18.3674 2.62441 18.0009 2.42487 17.4875C2.27422 17.0999 2.09503 16.5174 2.04612 15.4449C1.9932 14.285 1.98198 13.9371 1.98198 11C1.98198 8.06288 1.9932 7.71496 2.04612 6.55506C2.09503 5.48257 2.27422 4.90013 2.42487 4.51252C2.62441 3.99906 2.86277 3.63263 3.24772 3.24773C3.63262 2.86278 3.99906 2.62441 4.51252 2.42487C4.90013 2.27422 5.48257 2.09503 6.55506 2.04612C7.71496 1.9932 8.06289 1.98198 11 1.98198ZM11 5.35136C7.88033 5.35136 5.35136 7.88032 5.35136 11C5.35136 14.1197 7.88033 16.6486 11 16.6486C14.1197 16.6486 16.6487 14.1197 16.6487 11C16.6487 7.88032 14.1197 5.35136 11 5.35136ZM11 14.6667C8.97495 14.6667 7.33333 13.0251 7.33333 11C7.33333 8.97495 8.97495 7.33333 11 7.33333C13.0251 7.33333 14.6667 8.97495 14.6667 11C14.6667 13.0251 13.0251 14.6667 11 14.6667ZM18.1918 5.12818C18.1918 5.85721 17.6008 6.44817 16.8718 6.44817C16.1428 6.44817 15.5518 5.85721 15.5518 5.12818C15.5518 4.39916 16.1428 3.80816 16.8718 3.80816C17.6008 3.80816 18.1918 4.39916 18.1918 5.12818Z" fill="white"/>
</svg>
