<svg width="22" height="22" viewBox="0 0 22 22" fill="none" xmlns="http://www.w3.org/2000/svg">
<path fill-rule="evenodd" clip-rule="evenodd" d="M2 0C0.895431 0 0 0.89543 0 2V20C0 21.1046 0.89543 22 2 22H20C21.1046 22 22 21.1046 22 20V2C22 0.895431 21.1046 0 20 0H2ZM10.9712 8.60742C10.9712 10.3597 9.45733 10.4706 9.45733 10.4706C11.4527 10.4706 11.3153 12.9021 11.3153 12.902C11.3153 15.8906 8.16379 15.7923 8.16379 15.7923H3.00127V5.99987H8.16379C9.73266 5.99987 10.9712 6.85506 10.9712 8.60742ZM8.16379 7.74037H7.7922H5.27594V9.92567H7.98473C8.45283 9.92567 8.86553 9.77797 8.86553 8.75923C8.86553 7.74037 8.16379 7.74037 8.16379 7.74037ZM5.27594 14.0519H8.01791C8.42851 14.0432 9.2097 13.9252 9.2097 12.7798C9.2097 11.4214 8.16379 11.435 8.16379 11.435H5.27594V14.0519ZM11.7065 12.2539C11.7065 12.2539 11.7032 8.49136 15.5184 8.49136C19.5338 8.49136 18.9713 12.7422 18.9713 12.7422H13.8305C13.8305 14.5614 15.5767 14.4459 15.5767 14.4459C17.2255 14.4459 17.1673 13.3932 17.1673 13.3932H18.9131C18.9131 16.1886 15.5184 15.9972 15.5184 15.9972C11.4448 15.9972 11.7065 12.2539 11.7065 12.2539ZM15.5572 9.92564C14.0245 9.92564 13.8114 11.435 13.8114 11.435H17.0704C17.0704 11.435 17.0896 9.92564 15.5572 9.92564ZM13.3839 7.78264H17.4771V6.57677H13.3839V7.78264Z" fill="white"/>
</svg>
