<svg width="539" height="284" viewBox="0 0 539 284" fill="none" xmlns="http://www.w3.org/2000/svg">
<rect x="7" y="8.95508" width="523" height="268" stroke="black" stroke-width="2"/>
<path d="M535.679 268.847H522.847V281.678H535.679V268.847Z" fill="white"/>
<path d="M536.525 282.524H522V268H536.525V282.524ZM523.71 280.831H534.849V269.693H523.71V280.831Z" fill="black"/>
<path d="M537.679 1.84668H524.847V14.6779H537.679V1.84668Z" fill="white"/>
<path d="M538.525 15.5241H524V1H538.525V15.5241ZM525.71 13.8314H536.849V2.69279H525.71V13.8314Z" fill="black"/>
<path d="M13.6791 269.802H0.84668V282.633H13.6791V269.802Z" fill="white"/>
<path d="M14.5253 283.479H0V268.955H14.5253V283.479ZM1.70985 281.786H12.8493V270.648H1.70985V281.786Z" fill="black"/>
<path d="M13.6791 1.80176H0.84668V14.633H13.6791V1.80176Z" fill="white"/>
<path d="M14.5253 15.4792H0V0.955078H14.5253V15.4792ZM1.70985 13.7864H12.8493V2.64787H1.70985V13.7864Z" fill="black"/>
</svg>
