<svg width="263" height="162" viewBox="0 0 263 162" fill="none" xmlns="http://www.w3.org/2000/svg">
<path d="M22.8873 71.3652C23.7711 71.2938 24.5341 73.1892 25.1762 77.0514C25.7502 78.8096 26.1382 79.6805 26.3402 79.6642L26.5675 79.6459C27.0704 78.0041 27.2586 76.4004 27.1322 74.8349L26.694 72.2397C26.9167 71.5355 27.2806 71.163 27.7856 71.1222C28.7199 71.0468 29.3206 72.6631 29.5876 75.971C30.4204 79.3603 30.956 82.5321 31.1945 85.4865L31.3382 87.2667C31.7764 92.6957 30.5317 96.4815 27.6039 98.624L26.7828 98.8428C25.3435 98.959 23.8972 97.7287 22.4438 95.152L21.9194 92.9069L21.9103 92.7932C21.7757 91.1267 22.1756 90.2557 23.1099 90.1803L24.1058 90.7098L24.1848 93.1053C24.2785 94.2668 24.9667 95.3931 26.2493 96.4841L26.7417 96.4443C28.1305 96.3322 28.9392 93.5983 29.1676 88.2425L29.0661 86.0396C28.8349 83.4912 28.6025 81.8707 28.3686 81.1779C27.4299 82.1433 26.6702 82.6494 26.0894 82.6962C24.8016 82.8002 23.3744 79.4462 21.8079 72.6341L21.6881 72.5675C21.6413 71.9868 22.041 71.586 22.8873 71.3652ZM38.6604 67.1564C40.529 67.0055 42.0552 68.2802 43.239 70.9804L43.4547 71.7636C43.6728 74.4654 42.6334 77.3324 40.3366 80.3643C39.402 81.3802 38.417 81.9299 37.3817 82.0134C35.8666 82.1357 34.7231 81.3512 33.9512 79.6598C33.6587 78.8701 33.488 78.1723 33.4391 77.5662L33.4024 77.1117C33.0803 73.122 34.2877 69.9747 37.0244 67.6697C37.5091 67.3764 38.0544 67.2053 38.6604 67.1564ZM35.6677 77.3101C35.8063 79.0272 36.3175 79.85 37.2013 79.7787C39.0447 79.6299 40.3818 77.1456 41.2126 72.3258L41.1545 71.6061C40.5989 70.0752 39.7403 69.3566 38.5787 69.4504C38.1242 69.4871 37.9224 69.8211 37.9734 70.4523C38.0081 70.8816 37.5305 71.2633 36.5409 71.5973C35.7774 73.1585 35.4863 75.0627 35.6677 77.3101ZM47.6163 69.3308L48.2675 68.897C48.8735 68.8481 49.345 69.1786 49.6819 69.8884C49.4287 71.7896 49.3816 73.725 49.5406 75.6946C49.6201 76.6794 49.9971 77.7291 50.6716 78.8438L50.8989 78.8255C51.6312 78.7664 52.269 75.8048 52.8122 69.9407C53.1413 69.6092 53.4699 69.4301 53.7982 69.4036C54.581 69.3404 55.0845 70.6977 55.3087 73.4753C55.8836 76.5042 56.3731 78.0023 56.7771 77.9697L57.3269 77.6966C58.0816 77.9152 58.4794 78.2771 58.5201 78.7821C58.1431 79.7783 57.5505 80.3091 56.7425 80.3743C55.8334 80.4477 54.8889 79.609 53.9088 77.8581C53.07 80.0608 52.1329 81.2039 51.0976 81.2875C49.5573 81.4118 48.3547 79.895 47.4898 76.737L47.2783 75.5341L47.2478 75.1553C47.0847 73.1353 47.2075 71.1937 47.6163 69.3308ZM78.7902 65.3656L80.3248 65.013C80.9561 64.962 81.3412 65.3249 81.4801 66.1016C81.5352 66.7834 80.7502 67.2915 79.1251 67.626C78.1551 68.5176 77.721 69.5947 77.8229 70.8573L77.9238 72.1072C78.6531 74.8441 79.6237 76.1636 80.8358 76.0657L81.2145 76.0352C81.9216 75.9781 82.9281 75.2233 84.2341 73.7709L84.4614 73.7525C84.9664 73.7117 85.399 74.0326 85.7591 74.7152C85.4932 75.8296 84.4364 76.9061 82.5887 77.9448C82.2474 78.1248 81.8116 78.2363 81.2813 78.2791C78.6804 78.489 76.8235 76.5802 75.7105 72.5527L75.6432 71.7194C75.4047 68.7651 76.4537 66.6471 78.7902 65.3656ZM94.9498 62.2694C96.0608 62.1797 96.652 62.5767 96.7234 63.4605L96.4406 64.2077L96.7728 71.1575C97.0256 74.2886 97.8138 76.182 99.1375 76.8376L99.2592 77.3997C99.2425 78.1381 98.9312 78.5317 98.3252 78.5806L98.0979 78.599C96.1001 77.4641 94.9942 75.5709 94.7802 72.9195L94.515 72.9409C93.7333 75.8506 92.6227 77.3635 91.1834 77.4797C89.8145 77.209 89.0649 76.2656 88.9344 74.6495C88.647 71.0891 89.7873 67.4261 92.3553 63.6606C93.2517 62.8004 94.1165 62.3366 94.9498 62.2694ZM91.1983 72.9418L91.1324 74.0146L91.1905 74.7342L91.5693 74.7037C93.082 69.8288 93.7965 66.8737 93.7129 65.8384L93.5614 65.8507C92.2294 67.6102 91.4417 69.9739 91.1983 72.9418ZM105.137 63.3151C107.297 63.3186 108.455 64.2799 108.61 66.199L108.725 66.6852L109.127 72.6001C109.182 73.2819 109.648 74.172 110.524 75.2704L110.53 75.3461C110.387 76.0947 110.051 76.4904 109.52 76.5332C107.902 76.0031 107.007 74.6774 106.836 72.5563L106.796 72.0639L106.676 71.9974L106.778 71.8367L106.772 71.7609L106.463 66.5248C106.404 65.7925 106.059 65.4518 105.428 65.5028L104.973 65.5395C103.751 66.1464 103.343 68.9624 103.749 73.9874C103.89 75.7297 103.518 76.6365 102.634 76.7079C101.952 76.7629 101.564 76.3622 101.47 75.5057L101.164 71.718C100.768 66.8193 101 64.3352 101.859 64.2659L102.228 64.1217L103.033 64.1711C103.678 63.6616 104.379 63.3762 105.137 63.3151ZM132.831 56.7715C134.018 56.6757 134.941 57.872 135.599 60.3604L135.611 60.5119C135.658 61.0927 135.294 61.4652 134.52 61.6294C133.888 61.6804 133.396 60.9322 133.042 59.385L132.882 59.2836L132.427 59.3203C131.937 60.1732 131.745 61.2561 131.851 62.5692L132.117 64.4539C133.127 64.3723 134.204 64.0185 135.348 63.3925C135.828 63.3537 136.297 63.6589 136.756 64.3081C136.84 65.3434 135.481 66.1393 132.679 66.6959L134.125 72.7934C134.167 73.3237 133.753 73.7002 132.881 73.9231C132.099 73.9863 131.609 72.8058 131.414 70.3817L130.434 67.2202L128.003 67.7978C127.472 67.8406 127.125 67.4747 126.961 66.7C126.9 65.9425 127.884 65.3802 129.913 65.013L129.572 62.6769C129.674 58.9071 130.761 56.9386 132.831 56.7715ZM138.505 53.6067C139.481 53.7313 139.995 54.1218 140.048 54.7783C139.853 55.5057 139.478 55.8919 138.922 55.9367C137.973 55.8354 137.469 55.4059 137.407 54.6484C137.609 53.9967 137.975 53.6495 138.505 53.6067ZM140.373 58.7933C140.777 58.7606 141.147 59.0993 141.484 59.8091L141.36 62.5259L141.504 64.3061C141.671 66.3767 142.244 69.0627 143.222 72.364C143.008 72.8642 142.598 73.1387 141.992 73.1876C140.957 73.2712 140.03 70.2961 139.213 64.2623L139.106 62.9366C138.89 60.26 139.312 58.8789 140.373 58.7933ZM150.259 59.6726C152.419 59.6761 153.577 60.6374 153.732 62.5565L153.848 63.0428L154.249 68.9577C154.304 69.6395 154.77 70.5296 155.646 71.6279L155.652 71.7037C155.509 72.4523 155.173 72.848 154.643 72.8908C153.024 72.3606 152.129 71.035 151.958 68.9139L151.918 68.4215L151.798 68.3549L151.9 68.1942L151.894 68.1185L151.585 62.8823C151.526 62.15 151.181 61.8094 150.55 61.8603L150.095 61.897C148.874 62.504 148.465 65.3199 148.871 70.3449C149.012 72.0872 148.64 72.9941 147.756 73.0654C147.075 73.1205 146.686 72.7197 146.592 71.8632L146.286 68.0755C145.891 63.1768 146.122 60.6928 146.981 60.6235L147.35 60.4793L148.155 60.5287C148.8 60.0191 149.501 59.7338 150.259 59.6726ZM165.229 50.382C165.658 50.3473 166.082 50.7198 166.501 51.4993L165.684 62.1635L165.923 65.1179C166.172 68.1986 166.776 69.7002 167.735 69.6227C168.391 69.8748 168.739 70.2533 168.78 70.7583C168.827 71.3391 168.349 71.7208 167.347 71.9033C166.236 71.993 165.283 71.0406 164.486 69.0463L164.107 69.0768C163.338 71.1976 162.285 72.312 160.946 72.42C159.381 72.5464 158.338 71.4361 157.818 69.0889C157.596 66.3366 159.204 63.2712 162.642 59.893C163.374 59.8339 163.658 58.7817 163.493 56.7363C163.716 52.5755 164.295 50.4574 165.229 50.382ZM160.028 68.6055L160.111 69.6282L160.766 70.1853L160.993 70.167C161.801 70.1017 162.551 67.5886 163.244 62.6274L163.016 62.6458C160.904 65.1291 159.908 67.1157 160.028 68.6055ZM54.9631 112.016C55.0889 111.371 55.4675 111.022 56.0988 110.971C56.73 110.92 57.1976 111.518 57.5016 112.764L57.6531 112.752L59.3648 112.233C60.1729 112.167 61.0168 112.862 61.8966 114.316L62.0482 114.303C63.0186 112.471 64.0845 111.508 65.2461 111.415C67.7574 111.669 69.1252 113.186 69.3494 115.963L69.5322 117.283L69.8089 124.962L69.867 125.681C69.9179 126.312 69.5561 126.71 68.7815 126.874C67.9987 126.938 67.5329 126.048 67.3841 124.204L67.2852 117.312C67.0814 114.787 66.386 113.572 65.1992 113.668C64.5174 113.723 63.8303 115.443 63.1378 118.828C62.9638 122.655 62.7252 124.58 62.4222 124.605C61.993 124.639 61.7855 124.745 61.7997 124.922C61.0088 124.884 60.5848 124.512 60.5277 123.805L60.6501 119.182C60.3196 116.031 59.8766 114.479 59.321 114.524L59.2074 114.533C58.6148 115.063 58.3756 116.036 58.4898 117.45L58.6518 119.457L58.9681 125.265C58.8423 125.91 58.4764 126.258 57.8704 126.306C57.3401 126.349 56.9636 125.935 56.7407 125.063L56.2284 120.606L56.1591 116.914C55.8547 115.032 55.4561 113.4 54.9631 112.016ZM75.6308 110.005C76.6429 109.948 78.4901 111.578 81.1723 114.895L81.3 115.532C81.3571 116.239 79.6712 116.922 76.2424 117.58L76.1379 117.703L76.1501 117.854C76.8639 120.084 77.5111 121.176 78.0919 121.129L78.5464 121.092C79.3545 121.027 80.5088 120.057 82.0095 118.182L82.2367 118.164C82.7418 118.123 83.1627 118.457 83.4996 119.167C83.5485 119.773 82.5726 120.907 80.5717 122.568C80.0427 122.941 79.3929 123.235 78.6224 123.449C76.577 123.615 74.9954 121.811 73.8775 118.038C72.7017 117.955 72.0822 117.522 72.019 116.739C71.9742 116.183 72.3739 115.783 73.2181 115.537L73.2304 115.688L73.5969 115.506L73.5205 114.559C73.2861 111.655 73.9895 110.137 75.6308 110.005ZM76.0782 112.713L75.7374 112.741L75.699 114.155L75.7938 115.329L75.9453 115.316C77.3553 115.152 78.0501 114.943 78.0297 114.691C77.2937 113.759 76.6432 113.1 76.0782 112.713ZM101.72 100.541C102.428 100.484 102.85 101.314 102.989 103.031L103.969 109.509L104.121 109.497L105.957 108.624C108.078 108.453 109.541 110.52 110.346 114.827C110.623 116.05 110.858 117.861 111.051 120.26L111.299 123.328C111.377 124.287 111.062 124.796 110.355 124.853L110.203 124.865C109.513 124.819 109.143 124.48 109.092 123.849L108.804 120.289C108.344 114.582 107.533 111.47 106.373 110.954L106.146 110.972C105.389 111.034 104.927 112.24 104.761 114.592L104.932 116.713C105.238 120.5 105.075 122.42 104.444 122.471L103.73 122.604C103.023 122.662 102.585 121.642 102.416 119.546C102.312 117.318 102.317 115.488 102.43 114.055L100.629 101.658C100.576 101.002 100.94 100.629 101.72 100.541ZM116.325 106.72C117.337 106.663 119.184 108.293 121.866 111.61L121.994 112.247C122.051 112.954 120.365 113.637 116.936 114.295L116.832 114.418L116.844 114.569C117.558 116.799 118.205 117.891 118.786 117.844L119.24 117.807C120.048 117.742 121.203 116.772 122.703 114.897L122.931 114.879C123.436 114.838 123.857 115.172 124.193 115.882C124.242 116.488 123.266 117.622 121.266 119.283C120.737 119.656 120.087 119.95 119.316 120.164C117.271 120.33 115.689 118.526 114.571 114.753C113.396 114.67 112.776 114.237 112.713 113.454C112.668 112.899 113.068 112.498 113.912 112.252L113.924 112.403L114.291 112.221L114.214 111.274C113.98 108.37 114.683 106.852 116.325 106.72ZM116.772 109.428L116.431 109.456L116.393 110.87L116.488 112.044L116.639 112.032C118.049 111.867 118.744 111.658 118.724 111.406C117.988 110.474 117.337 109.815 116.772 109.428ZM130.892 104.209C132.483 104.081 133.52 105.116 134.002 107.313L134.03 107.654C134.227 110.103 133.146 112.453 130.786 114.702C132.367 116.023 134.988 116.536 138.649 116.24C139.219 116.372 139.529 116.741 139.578 117.347C139.633 118.029 139.218 118.405 138.334 118.477C135.86 118.677 133.208 118.255 130.379 117.213L130.468 118.311C130.678 120.912 130.227 122.257 129.116 122.347C128.333 122.41 127.82 120.939 127.578 117.935L127.339 114.98L127.14 113.929L127.307 112.695L126.749 109.081L126.737 108.929C126.682 108.247 126.997 107.752 127.684 107.442C128.51 105.393 129.579 104.315 130.892 104.209ZM129.668 112.657C130.4 112.598 131.115 111.219 131.812 108.519L131.681 106.891L131.186 106.435L130.845 106.462C129.796 107.31 129.403 109.375 129.668 112.657ZM144.379 104.455C145.391 104.399 147.238 106.029 149.92 109.345L150.048 109.983C150.105 110.69 148.419 111.372 144.99 112.03L144.886 112.153L144.898 112.305C145.612 114.534 146.259 115.626 146.84 115.579L147.294 115.542C148.102 115.477 149.257 114.507 150.757 112.632L150.985 112.614C151.49 112.573 151.911 112.908 152.247 113.618C152.296 114.224 151.32 115.357 149.32 117.018C148.791 117.391 148.141 117.685 147.37 117.9C145.325 118.065 143.743 116.261 142.625 112.488C141.45 112.405 140.83 111.972 140.767 111.189C140.722 110.634 141.122 110.233 141.966 109.987L141.978 110.139L142.345 109.956L142.268 109.01C142.034 106.106 142.737 104.587 144.379 104.455ZM144.826 107.164L144.485 107.191L144.447 108.605L144.542 109.779L144.693 109.767C146.103 109.602 146.798 109.394 146.778 109.141C146.042 108.209 145.391 107.55 144.826 107.164ZM154.06 91.4739C154.764 91.6966 155.138 92.0731 155.18 92.6034C155.961 99.7584 156.67 104.911 157.305 108.063C157.104 108.714 156.763 109.059 156.283 109.098C155.349 109.174 154.761 107.709 154.518 104.704C154.201 103.611 153.686 99.599 152.974 92.6671C152.923 92.0358 153.285 91.6381 154.06 91.4739ZM156.391 117.515C156.555 116.714 156.927 116.29 157.508 116.243C158.114 116.194 158.562 116.552 158.853 117.316C158.634 118.071 158.272 118.468 157.767 118.509L157.654 118.518C157.149 118.559 156.728 118.225 156.391 117.515Z" fill="black"/>
<path d="M22.8873 71.3652L22.8712 71.1658L22.8537 71.1672L22.8368 71.1716L22.8873 71.3652ZM25.1762 77.0514L24.979 77.0842L24.9814 77.0991L24.9861 77.1135L25.1762 77.0514ZM26.5675 79.6459L26.5836 79.8452L26.719 79.8343L26.7587 79.7045L26.5675 79.6459ZM27.1322 74.8349L27.3316 74.8188L27.3309 74.8101L27.3294 74.8015L27.1322 74.8349ZM26.694 72.2397L26.5033 72.1794L26.4888 72.2254L26.4968 72.273L26.694 72.2397ZM29.5876 75.971L29.3883 75.9871L29.3896 76.0031L29.3934 76.0187L29.5876 75.971ZM27.6039 98.624L27.6554 98.8173L27.6917 98.8076L27.722 98.7854L27.6039 98.624ZM26.7828 98.8428L26.7989 99.0422L26.8169 99.0407L26.8343 99.0361L26.7828 98.8428ZM22.4438 95.152L22.249 95.1975L22.2555 95.2253L22.2696 95.2502L22.4438 95.152ZM21.9194 92.9069L21.7201 92.923L21.7213 92.9378L21.7247 92.9524L21.9194 92.9069ZM23.1099 90.1803L23.2038 90.0037L23.1522 89.9762L23.0938 89.9809L23.1099 90.1803ZM24.1058 90.7098L24.3057 90.7032L24.3018 90.5876L24.1997 90.5333L24.1058 90.7098ZM24.1848 93.1053L23.9846 93.1118L23.9854 93.1213L24.1848 93.1053ZM26.2493 96.4841L26.1197 96.6364L26.1828 96.6901L26.2654 96.6834L26.2493 96.4841ZM29.1676 88.2426L29.3675 88.2511L29.3678 88.2422L29.3674 88.2333L29.1676 88.2426ZM29.0661 86.0396L29.266 86.0304L29.2652 86.0215L29.0661 86.0396ZM28.3686 81.1779L28.5581 81.114L28.4534 80.8038L28.2252 81.0385L28.3686 81.1779ZM21.8079 72.6341L22.0028 72.5893L21.9829 72.5026L21.9051 72.4593L21.8079 72.6341ZM21.6881 72.5675L21.4888 72.5836L21.4974 72.6903L21.591 72.7423L21.6881 72.5675ZM22.9034 71.5645C23.0406 71.5534 23.1977 71.6136 23.379 71.8144C23.5621 72.0172 23.7498 72.3434 23.9368 72.8079C24.31 73.7349 24.6585 75.157 24.979 77.0842L25.3735 77.0186C25.0518 75.0837 24.6977 73.6269 24.3079 72.6585C24.1134 72.1754 23.9046 71.7996 23.6759 71.5464C23.4455 71.2912 23.1759 71.1412 22.8712 71.1658L22.9034 71.5645ZM24.9861 77.1135C25.2737 77.9943 25.5167 78.6595 25.7151 79.1047C25.8137 79.326 25.905 79.5016 25.9893 79.6237C26.0311 79.6843 26.0771 79.7406 26.1283 79.7829C26.1767 79.8229 26.2557 79.8717 26.3563 79.8636L26.3242 79.4649C26.3743 79.4608 26.397 79.486 26.3832 79.4746C26.3723 79.4656 26.3504 79.4428 26.3185 79.3965C26.2553 79.305 26.1758 79.156 26.0804 78.9419C25.8908 78.5161 25.6528 77.8668 25.3664 76.9894L24.9861 77.1135ZM26.3563 79.8636L26.5836 79.8452L26.5514 79.4465L26.3242 79.4649L26.3563 79.8636ZM26.7587 79.7045C27.2683 78.0408 27.4602 76.4118 27.3316 74.8188L26.9329 74.8509C27.057 76.3891 26.8724 77.9674 26.3763 79.5873L26.7587 79.7045ZM27.3294 74.8015L26.8912 72.2064L26.4968 72.273L26.935 74.8682L27.3294 74.8015ZM26.8847 72.3C27.0961 71.6317 27.4139 71.3529 27.8017 71.3216L27.7695 70.9229C27.1474 70.9731 26.7374 71.4393 26.5033 72.1794L26.8847 72.3ZM27.8017 71.3216C27.967 71.3082 28.1243 71.3656 28.2821 71.524C28.4454 71.6879 28.604 71.9563 28.7494 72.3475C29.0398 73.1291 29.2551 74.3378 29.3883 75.9871L29.787 75.9549C29.6531 74.2962 29.4345 73.0428 29.1243 72.2082C28.9694 71.7913 28.7859 71.463 28.5655 71.2417C28.3395 71.0149 28.0714 70.8985 27.7695 70.9229L27.8017 71.3216ZM29.3934 76.0187C30.224 79.3994 30.7576 82.5606 30.9951 85.5026L31.3938 85.4704C31.1543 82.5037 30.6167 79.3212 29.7818 75.9233L29.3934 76.0187ZM30.9951 85.5026L31.1388 87.2828L31.5375 87.2506L31.3938 85.4704L30.9951 85.5026ZM31.1388 87.2828C31.5745 92.6799 30.3328 96.3792 27.4858 98.4626L27.722 98.7854C30.7306 96.5838 31.9784 92.7116 31.5375 87.2506L31.1388 87.2828ZM27.5524 98.4308L26.7313 98.6496L26.8343 99.0361L27.6554 98.8173L27.5524 98.4308ZM26.7667 98.6435C26.115 98.6961 25.4442 98.4469 24.7482 97.8549C24.0501 97.2611 23.3388 96.3317 22.618 95.0537L22.2696 95.2502C23.0021 96.549 23.7408 97.5231 24.489 98.1596C25.2394 98.7979 26.0113 99.1057 26.7989 99.0422L26.7667 98.6435ZM22.6386 95.1065L22.1142 92.8614L21.7247 92.9524L22.249 95.1975L22.6386 95.1065ZM22.1188 92.8908L22.1096 92.7772L21.7109 92.8093L21.7201 92.923L22.1188 92.8908ZM22.1096 92.7772C22.0433 91.956 22.1124 91.3626 22.291 90.9735C22.3789 90.7821 22.4916 90.6439 22.6251 90.5491C22.7585 90.4545 22.923 90.396 23.126 90.3796L23.0938 89.9809C22.8297 90.0022 22.5939 90.0809 22.3937 90.2229C22.1937 90.3647 22.0396 90.5625 21.9275 90.8066C21.7063 91.2886 21.6427 91.964 21.7109 92.8093L22.1096 92.7772ZM23.016 90.3568L24.0119 90.8864L24.1997 90.5333L23.2038 90.0037L23.016 90.3568ZM23.9059 90.7164L23.9849 93.1118L24.3846 93.0987L24.3057 90.7032L23.9059 90.7164ZM23.9854 93.1213C24.085 94.3554 24.8147 95.5264 26.1197 96.6364L26.3789 96.3317C25.1187 95.2598 24.472 94.1782 24.3841 93.0892L23.9854 93.1213ZM26.2654 96.6834L26.7578 96.6437L26.7256 96.245L26.2332 96.2847L26.2654 96.6834ZM26.7578 96.6437C27.1764 96.6099 27.5343 96.3775 27.8329 95.9909C28.1289 95.6075 28.3761 95.0615 28.5816 94.3665C28.993 92.9757 29.253 90.9336 29.3675 88.2511L28.9678 88.234C28.8538 90.9072 28.5953 92.91 28.198 94.2531C27.9993 94.9251 27.7696 95.4183 27.5162 95.7464C27.2654 96.0713 27.0014 96.2227 26.7256 96.245L26.7578 96.6437ZM29.3674 88.2333L29.2659 86.0304L28.8663 86.0488L28.9679 88.2518L29.3674 88.2333ZM29.2652 86.0215C29.0347 83.4799 28.801 81.8336 28.5581 81.114L28.1791 81.2419C28.4039 81.9078 28.6351 83.5026 28.8669 86.0576L29.2652 86.0215ZM28.2252 81.0385C27.7616 81.5153 27.3479 81.8726 26.9839 82.1151C26.6178 82.359 26.3159 82.4773 26.0733 82.4969L26.1055 82.8956C26.4437 82.8683 26.8121 82.7102 27.2057 82.448C27.6014 82.1843 28.037 81.8059 28.512 81.3174L28.2252 81.0385ZM26.0733 82.4969C25.8488 82.515 25.5755 82.3862 25.2509 81.9976C24.93 81.6134 24.591 81.0118 24.2372 80.1804C23.5307 78.5199 22.7854 75.9922 22.0028 72.5893L21.613 72.6789C22.397 76.088 23.1485 78.6434 23.8691 80.337C24.2289 81.1825 24.5861 81.8257 24.9439 82.2541C25.2981 82.678 25.6861 82.9295 26.1055 82.8956L26.0733 82.4969ZM21.9051 72.4593L21.7853 72.3927L21.591 72.7423L21.7107 72.8089L21.9051 72.4593ZM21.8875 72.5515C21.8686 72.3175 21.9373 72.1302 22.0944 71.9726C22.2589 71.8076 22.5319 71.6646 22.9378 71.5587L22.8368 71.1716C22.3964 71.2865 22.0463 71.4543 21.8112 71.6901C21.5686 71.9334 21.4608 72.2369 21.4888 72.5836L21.8875 72.5515ZM43.239 70.9804L43.4318 70.9273L43.4279 70.9133L43.4221 70.9001L43.239 70.9804ZM43.4547 71.7636L43.654 71.7475L43.6525 71.7286L43.6475 71.7104L43.4547 71.7636ZM40.3366 80.3643L40.4838 80.4997L40.4903 80.4927L40.496 80.4851L40.3366 80.3643ZM33.9512 79.6598L33.7637 79.7293L33.7662 79.7362L33.7693 79.7429L33.9512 79.6598ZM37.0244 67.6697L36.9209 67.4986L36.9075 67.5066L36.8956 67.5167L37.0244 67.6697ZM41.2126 72.3258L41.4097 72.3597L41.414 72.3349L41.412 72.3097L41.2126 72.3258ZM41.1545 71.6061L41.3539 71.59L41.3517 71.5632L41.3425 71.5379L41.1545 71.6061ZM36.5409 71.5973L36.4769 71.4078L36.3979 71.4345L36.3612 71.5094L36.5409 71.5973ZM38.6765 67.3557C40.4146 67.2154 41.8834 68.3864 43.0558 71.0607L43.4221 70.9001C42.227 68.174 40.6434 66.7956 38.6443 66.957L38.6765 67.3557ZM43.0461 71.0335L43.2619 71.8167L43.6475 71.7104L43.4318 70.9273L43.0461 71.0335ZM43.2553 71.7796C43.4681 74.4159 42.4563 77.235 40.1772 80.2436L40.496 80.4851C42.8106 77.4297 43.8774 74.515 43.654 71.7475L43.2553 71.7796ZM40.1894 80.2289C39.2774 81.2201 38.3361 81.7357 37.3656 81.8141L37.3978 82.2128C38.4979 82.124 39.5265 81.5402 40.4838 80.4997L40.1894 80.2289ZM37.3656 81.8141C36.6491 81.8719 36.0311 81.7156 35.5009 81.3518C34.9677 80.986 34.509 80.4003 34.1332 79.5768L33.7693 79.7429C34.1653 80.6107 34.6644 81.263 35.2746 81.6817C35.8879 82.1025 36.5992 82.2772 37.3978 82.2128L37.3656 81.8141ZM34.1388 79.5904C33.8504 78.8118 33.6855 78.1324 33.6384 77.5501L33.2397 77.5823C33.2906 78.2121 33.4671 78.9285 33.7637 79.7293L34.1388 79.5904ZM33.6384 77.5501L33.6018 77.0956L33.2031 77.1278L33.2397 77.5823L33.6384 77.5501ZM33.6018 77.0956C33.2842 73.1615 34.4724 70.0806 37.1533 67.8226L36.8956 67.5167C34.103 69.8688 32.8765 73.0826 33.2031 77.1278L33.6018 77.0956ZM37.128 67.8408C37.5841 67.5647 38.0991 67.4023 38.6765 67.3557L38.6443 66.957C38.0097 67.0083 37.434 67.188 36.9209 67.4986L37.128 67.8408ZM35.4684 77.3262C35.5385 78.1954 35.7044 78.8685 35.9852 79.3206C36.1273 79.5494 36.3022 79.7268 36.5135 79.8406C36.7258 79.955 36.9627 79.9986 37.2174 79.9781L37.1852 79.5793C36.998 79.5945 36.8396 79.562 36.7032 79.4885C36.5657 79.4144 36.4384 79.2921 36.325 79.1095C36.0946 78.7387 35.9355 78.1419 35.8671 77.294L35.4684 77.3262ZM37.2174 79.9781C38.2372 79.8957 39.0799 79.1674 39.7628 77.8987C40.4464 76.6285 40.9929 74.7777 41.4097 72.3597L41.0156 72.2918C40.6015 74.6936 40.064 76.4949 39.4105 77.7091C38.7563 78.9247 38.0088 79.5129 37.1852 79.5793L37.2174 79.9781ZM41.412 72.3097L41.3539 71.59L40.9552 71.6222L41.0133 72.3419L41.412 72.3097ZM41.3425 71.5379C41.0578 70.7534 40.6881 70.1555 40.2222 69.7656C39.7509 69.3711 39.1934 69.2001 38.5626 69.251L38.5948 69.6497C39.1257 69.6069 39.5782 69.7483 39.9655 70.0724C40.3582 70.401 40.6956 70.9279 40.9665 71.6743L41.3425 71.5379ZM38.5626 69.251C38.2836 69.2736 38.0554 69.3931 37.9153 69.625C37.783 69.844 37.7471 70.1348 37.774 70.4684L38.1728 70.4362C38.1487 70.1385 38.1883 69.9468 38.2577 69.8318C38.3194 69.7297 38.4193 69.6639 38.5948 69.6497L38.5626 69.251ZM37.774 70.4684C37.784 70.5916 37.7267 70.7362 37.5164 70.9043C37.3043 71.0738 36.963 71.2437 36.4769 71.4078L36.6048 71.7868C37.1084 71.6168 37.5007 71.4289 37.7661 71.2168C38.0333 71.0032 38.1975 70.7424 38.1728 70.4362L37.774 70.4684ZM36.3612 71.5094C35.5779 73.1111 35.2849 75.0534 35.4684 77.3262L35.8671 77.294C35.6877 75.072 35.9768 73.2058 36.7205 71.6852L36.3612 71.5094ZM47.6163 69.3308L47.5054 69.1644L47.4382 69.2091L47.4209 69.2879L47.6163 69.3308ZM48.2675 68.897L48.2514 68.6977L48.1998 68.7018L48.1566 68.7306L48.2675 68.897ZM49.6819 69.8884L49.8801 69.9148L49.8879 69.8561L49.8625 69.8027L49.6819 69.8884ZM50.6716 78.8438L50.5005 78.9474L50.5645 79.0531L50.6877 79.0432L50.6716 78.8438ZM52.8122 69.9407L52.6703 69.7998L52.6197 69.8508L52.6131 69.9223L52.8122 69.9407ZM55.3087 73.4753L55.1094 73.4914L55.1102 73.5021L55.1122 73.5126L55.3087 73.4753ZM56.7771 77.9697L56.7932 78.1691L56.8316 78.166L56.8661 78.1488L56.7771 77.9697ZM57.3269 77.6966L57.3826 77.5045L57.3077 77.4828L57.2379 77.5175L57.3269 77.6966ZM58.5201 78.7821L58.7072 78.8529L58.7231 78.8108L58.7195 78.766L58.5201 78.7821ZM53.9088 77.8581L54.0833 77.7605L53.8743 77.3869L53.7219 77.787L53.9088 77.8581ZM47.4898 76.737L47.2928 76.7716L47.2944 76.7808L47.2969 76.7898L47.4898 76.737ZM47.2783 75.5341L47.079 75.5502L47.0797 75.5595L47.0814 75.5687L47.2783 75.5341ZM47.7272 69.4973L48.3784 69.0635L48.1566 68.7306L47.5054 69.1644L47.7272 69.4973ZM48.2836 69.0964C48.543 69.0754 48.7655 69.135 48.9608 69.2719C49.1597 69.4114 49.3424 69.6396 49.5012 69.9742L49.8625 69.8027C49.6845 69.4274 49.463 69.1354 49.1904 68.9444C48.9143 68.7508 48.5981 68.6697 48.2514 68.6977L48.2836 69.0964ZM49.4836 69.862C49.2285 71.7777 49.1811 73.7274 49.3412 75.7107L49.7399 75.6785C49.5821 73.7227 49.6289 71.8015 49.8801 69.9148L49.4836 69.862ZM49.3412 75.7107C49.4239 76.7347 49.8148 77.8142 50.5005 78.9474L50.8428 78.7403C50.1794 77.644 49.8163 76.6241 49.7399 75.6785L49.3412 75.7107ZM50.6877 79.0432L50.915 79.0248L50.8828 78.6261L50.6556 78.6445L50.6877 79.0432ZM50.915 79.0248C51.0759 79.0118 51.2097 78.9207 51.3175 78.8013C51.4255 78.6818 51.5227 78.5177 51.6125 78.3195C51.7927 77.9224 51.9615 77.347 52.122 76.602C52.4434 75.1092 52.7396 72.8932 53.0114 69.9592L52.6131 69.9223C52.3416 72.8523 52.0472 75.0491 51.7309 76.5178C51.5725 77.2537 51.4107 77.7962 51.2483 78.1543C51.1669 78.3337 51.0899 78.4565 51.0206 78.5332C50.9513 78.61 50.905 78.6243 50.8828 78.6261L50.915 79.0248ZM52.9542 70.0816C53.2635 69.7699 53.5502 69.6243 53.8143 69.603L53.7821 69.2043C53.3897 69.236 53.0191 69.4484 52.6703 69.7998L52.9542 70.0816ZM53.8143 69.603C53.9415 69.5927 54.0643 69.6361 54.1911 69.7636C54.3233 69.8966 54.4543 70.1172 54.5754 70.4437C54.8173 71.0959 54.9976 72.1073 55.1094 73.4914L55.5081 73.4592C55.3956 72.0657 55.212 71.0097 54.9504 70.3046C54.8198 69.9525 54.6641 69.672 54.4748 69.4816C54.2799 69.2856 54.0463 69.183 53.7821 69.2043L53.8143 69.603ZM55.1122 73.5126C55.4001 75.0291 55.6681 76.1711 55.9169 76.9327C56.0408 77.3119 56.1635 77.6082 56.2873 77.8113C56.349 77.9125 56.4172 78.001 56.4945 78.0646C56.5731 78.1293 56.6747 78.1786 56.7932 78.1691L56.761 77.7704C56.7786 77.769 56.7765 77.7786 56.7487 77.7558C56.7196 77.7319 56.6788 77.685 56.6288 77.6031C56.5293 77.4398 56.418 77.1783 56.2971 76.8085C56.0565 76.0719 55.7923 74.9504 55.5052 73.438L55.1122 73.5126ZM56.8661 78.1488L57.4159 77.8757L57.2379 77.5175L56.6881 77.7906L56.8661 78.1488ZM57.2713 77.8887C57.997 78.0989 58.2901 78.4185 58.3208 78.7982L58.7195 78.766C58.6686 78.1357 58.1663 77.7316 57.3826 77.5045L57.2713 77.8887ZM58.3331 78.7113C57.9732 79.6622 57.4323 80.118 56.7264 80.175L56.7586 80.5737C57.6687 80.5002 58.313 79.8945 58.7072 78.8529L58.3331 78.7113ZM56.7264 80.175C56.3445 80.2058 55.9327 80.0482 55.4851 79.6508C55.0364 79.2523 54.5681 78.6264 54.0833 77.7605L53.7343 77.9558C54.2296 78.8407 54.7236 79.5096 55.2195 79.9499C55.7164 80.3911 56.2314 80.6162 56.7586 80.5737L56.7264 80.175ZM53.7219 77.787C53.3062 78.8786 52.8714 79.6927 52.4222 80.2407C51.9734 80.7882 51.5256 81.0523 51.0816 81.0881L51.1137 81.4868C51.705 81.4391 52.2434 81.0898 52.7316 80.4942C53.2194 79.8991 53.6726 79.0403 54.0957 77.9293L53.7219 77.787ZM51.0816 81.0881C50.3949 81.1435 49.7689 80.8399 49.1972 80.1188C48.6203 79.3913 48.1123 78.2527 47.6827 76.6842L47.2969 76.7898C47.7322 78.3793 48.2579 79.5781 48.8837 80.3674C49.5146 81.1631 50.26 81.5557 51.1137 81.4868L51.0816 81.0881ZM47.6868 76.7024L47.4753 75.4995L47.0814 75.5687L47.2928 76.7716L47.6868 76.7024ZM47.4777 75.518L47.4471 75.1393L47.0484 75.1714L47.079 75.5502L47.4777 75.518ZM47.4471 75.1393C47.2855 73.1377 47.4074 71.2161 47.8117 69.3737L47.4209 69.2879C47.0077 71.1714 46.8838 73.1328 47.0484 75.1714L47.4471 75.1393ZM78.7902 65.3656L78.7454 65.1707L78.7183 65.1769L78.694 65.1903L78.7902 65.3656ZM80.3248 65.013L80.3087 64.8137L80.2942 64.8148L80.28 64.8181L80.3248 65.013ZM81.4801 66.1016L81.6795 66.0855L81.6787 66.0759L81.677 66.0664L81.4801 66.1016ZM79.1251 67.626L79.0848 67.4301L79.0306 67.4413L78.9898 67.4788L79.1251 67.626ZM77.9238 72.1072L77.7245 72.1233L77.7259 72.1413L77.7306 72.1587L77.9238 72.1072ZM84.2341 73.7709L84.218 73.5715L84.1387 73.5779L84.0854 73.6371L84.2341 73.7709ZM85.7591 74.7152L85.9536 74.7616L85.9711 74.6884L85.936 74.6219L85.7591 74.7152ZM82.5887 77.9448L82.682 78.1217L82.6867 78.1191L82.5887 77.9448ZM75.7105 72.5527L75.5111 72.5688L75.5127 72.5877L75.5177 72.606L75.7105 72.5527ZM78.835 65.5606L80.3696 65.2079L80.28 64.8181L78.7454 65.1707L78.835 65.5606ZM80.3409 65.2124C80.6122 65.1905 80.8066 65.2575 80.9499 65.3925C81.0993 65.5332 81.2178 65.771 81.2833 66.1368L81.677 66.0664C81.6035 65.6555 81.46 65.3235 81.2242 65.1014C80.9824 64.8735 80.6686 64.7846 80.3087 64.8137L80.3409 65.2124ZM81.2808 66.1177C81.3002 66.3589 81.1806 66.5953 80.824 66.8261C80.4626 67.0601 79.8889 67.2646 79.0848 67.4301L79.1655 67.8219C79.9865 67.6529 80.6177 67.4361 81.0413 67.1619C81.4697 66.8846 81.715 66.5261 81.6795 66.0855L81.2808 66.1177ZM78.9898 67.4788C77.9765 68.4101 77.5165 69.5466 77.6236 70.8734L78.0223 70.8412C77.9255 69.6428 78.3337 68.6251 79.2605 67.7733L78.9898 67.4788ZM77.6236 70.8734L77.7245 72.1233L78.1232 72.0911L78.0223 70.8412L77.6236 70.8734ZM77.7306 72.1587C78.0976 73.5363 78.5305 74.5785 79.0376 75.268C79.5481 75.9619 80.1536 76.3214 80.8519 76.2651L80.8197 75.8664C80.3059 75.9079 79.8201 75.6566 79.3598 75.031C78.8964 74.4009 78.4793 73.415 78.1171 72.0557L77.7306 72.1587ZM80.8519 76.2651L81.2306 76.2345L81.1984 75.8358L80.8197 75.8664L80.8519 76.2651ZM81.2306 76.2345C81.6409 76.2014 82.1066 75.9711 82.6197 75.5863C83.1374 75.1981 83.7253 74.6358 84.3829 73.9046L84.0854 73.6371C83.4369 74.3584 82.8685 74.8997 82.3797 75.2663C81.8863 75.6362 81.4952 75.8119 81.1984 75.8358L81.2306 76.2345ZM84.2502 73.9702L84.4775 73.9519L84.4453 73.5532L84.218 73.5715L84.2502 73.9702ZM84.4775 73.9519C84.8641 73.9206 85.2371 74.1545 85.5822 74.8085L85.936 74.6219C85.5608 73.9108 85.0688 73.5028 84.4453 73.5532L84.4775 73.9519ZM85.5645 74.6688C85.319 75.6977 84.3275 76.7379 82.4906 77.7704L82.6867 78.1191C84.5453 77.0743 85.6674 75.9614 85.9536 74.7616L85.5645 74.6688ZM82.4953 77.7679C82.1852 77.9315 81.7781 78.0383 81.2652 78.0797L81.2974 78.4784C81.8451 78.4342 82.3095 78.3182 82.682 78.1217L82.4953 77.7679ZM81.2652 78.0797C80.0256 78.1798 78.9692 77.7782 78.0813 76.8655C77.186 75.9452 76.4554 74.4975 75.9033 72.4995L75.5177 72.606C76.0786 74.6355 76.833 76.1559 77.7946 77.1444C78.7636 78.1405 79.9361 78.5883 81.2974 78.4784L81.2652 78.0797ZM75.9098 72.5366L75.8426 71.7034L75.4439 71.7355L75.5111 72.5688L75.9098 72.5366ZM75.8426 71.7034C75.7255 70.2532 75.9255 69.0231 76.4303 68.004C76.9344 66.9863 77.7493 66.1647 78.8864 65.541L78.694 65.1903C77.4946 65.8481 76.6168 66.7262 76.0719 67.8264C75.5277 68.9252 75.3224 70.2313 75.4439 71.7355L75.8426 71.7034ZM96.7234 63.4605L96.9104 63.5313L96.9263 63.4892L96.9227 63.4444L96.7234 63.4605ZM96.4406 64.2077L96.2535 64.1369L96.2388 64.1757L96.2408 64.2172L96.4406 64.2077ZM96.7728 71.1575L96.573 71.167L96.5735 71.1736L96.7728 71.1575ZM99.1375 76.8376L99.333 76.7953L99.3126 76.7012L99.2263 76.6584L99.1375 76.8376ZM99.2592 77.3997L99.4591 77.4042L99.4596 77.3805L99.4546 77.3574L99.2592 77.3997ZM98.0979 78.599L97.9991 78.7729L98.0526 78.8033L98.114 78.7983L98.0979 78.599ZM94.7802 72.9195L94.9795 72.9034L94.9634 72.7041L94.7641 72.7202L94.7802 72.9195ZM94.515 72.9409L94.4989 72.7416L94.3584 72.7529L94.3219 72.889L94.515 72.9409ZM91.1834 77.4797L91.1446 77.6759L91.1718 77.6813L91.1995 77.6791L91.1834 77.4797ZM92.3553 63.6606L92.2168 63.5163L92.2018 63.5307L92.1901 63.5479L92.3553 63.6606ZM91.1983 72.9418L90.999 72.9255L90.9987 72.9295L91.1983 72.9418ZM91.1324 74.0146L90.9328 74.0023L90.9319 74.0165L90.9331 74.0307L91.1324 74.0146ZM91.1905 74.7342L90.9912 74.7503L91.0073 74.9497L91.2066 74.9336L91.1905 74.7342ZM91.5693 74.7037L91.5854 74.903L91.7202 74.8921L91.7603 74.7629L91.5693 74.7037ZM93.7129 65.8384L93.9123 65.8224L93.8962 65.623L93.6968 65.6391L93.7129 65.8384ZM93.5614 65.8507L93.5453 65.6513L93.456 65.6585L93.402 65.73L93.5614 65.8507ZM94.9659 62.4687C95.5003 62.4256 95.8729 62.5033 96.115 62.6659C96.3477 62.8222 96.4919 63.0791 96.524 63.4766L96.9227 63.4444C96.8835 62.9581 96.6964 62.5746 96.338 62.3338C95.9888 62.0994 95.5103 62.0235 94.9337 62.07L94.9659 62.4687ZM96.5363 63.3897L96.2535 64.1369L96.6276 64.2785L96.9104 63.5313L96.5363 63.3897ZM96.2408 64.2172L96.5731 71.167L96.9726 71.1479L96.6403 64.1981L96.2408 64.2172ZM96.5735 71.1736C96.7008 72.7502 96.9637 74.0293 97.3689 75.0027C97.7744 75.9767 98.3294 76.6606 99.0488 77.0169L99.2263 76.6584C98.622 76.3591 98.121 75.7684 97.7382 74.849C97.3553 73.9291 97.0977 72.6959 96.9722 71.1414L96.5735 71.1736ZM98.9421 76.8799L99.0637 77.442L99.4546 77.3574L99.333 76.7953L98.9421 76.8799ZM99.0592 77.3952C99.0514 77.7405 98.9749 77.9747 98.8563 78.1247C98.7422 78.2689 98.5694 78.3603 98.3091 78.3813L98.3412 78.78C98.687 78.7521 98.9728 78.6222 99.17 78.3728C99.3628 78.1291 99.4503 77.7972 99.4591 77.4042L99.0592 77.3952ZM98.3091 78.3813L98.0818 78.3996L98.114 78.7983L98.3412 78.78L98.3091 78.3813ZM98.1967 78.4251C96.2662 77.3284 95.1892 75.5009 94.9795 72.9034L94.5808 72.9356C94.7992 75.641 95.934 77.5997 97.9991 78.7729L98.1967 78.4251ZM94.7641 72.7202L94.4989 72.7416L94.5311 73.1403L94.7963 73.1189L94.7641 72.7202ZM94.3219 72.889C93.934 74.3327 93.469 75.4115 92.9346 76.1395C92.4027 76.8642 91.8129 77.2283 91.1673 77.2804L91.1995 77.6791C91.9932 77.615 92.6784 77.1645 93.257 76.3762C93.8331 75.5914 94.3143 74.4589 94.7082 72.9928L94.3219 72.889ZM91.2222 77.2835C90.5765 77.1558 90.0918 76.8735 89.7511 76.4447C89.4081 76.0131 89.1969 75.4153 89.1338 74.6334L88.7351 74.6656C88.8024 75.4998 89.0312 76.1817 89.4379 76.6935C89.8468 77.2081 90.4214 77.5329 91.1446 77.6759L91.2222 77.2835ZM89.1338 74.6334C88.8509 71.1299 89.971 67.5116 92.5205 63.7733L92.1901 63.5479C89.6035 67.3406 88.443 71.0483 88.7351 74.6656L89.1338 74.6334ZM92.4938 63.8049C93.3725 62.9616 94.1962 62.5308 94.9659 62.4687L94.9337 62.07C94.0368 62.1424 93.1308 62.6391 92.2168 63.5163L92.4938 63.8049ZM90.9987 72.9295L90.9328 74.0023L91.3321 74.0268L91.398 72.9541L90.9987 72.9295ZM90.9331 74.0307L90.9912 74.7503L91.3899 74.7182L91.3318 73.9985L90.9331 74.0307ZM91.2066 74.9336L91.5854 74.903L91.5532 74.5043L91.1744 74.5349L91.2066 74.9336ZM91.7603 74.7629C92.5172 72.3238 93.0754 70.3617 93.4341 68.8782C93.6134 68.1366 93.7435 67.5121 93.8235 67.0061C93.903 66.5034 93.9352 66.1056 93.9123 65.8224L93.5136 65.8545C93.5325 66.089 93.5067 66.4487 93.4284 66.9436C93.3507 67.4352 93.2232 68.0483 93.0453 68.7842C92.6895 70.2558 92.1341 72.2087 91.3783 74.6444L91.7603 74.7629ZM93.6968 65.6391L93.5453 65.6513L93.5775 66.05L93.729 66.0378L93.6968 65.6391ZM93.402 65.73C92.0403 67.5287 91.2444 69.9326 90.999 72.9255L91.3977 72.9581C91.6389 70.0153 92.4185 67.6918 93.7209 65.9714L93.402 65.73ZM105.137 63.3151L105.137 63.1151L105.129 63.1151L105.121 63.1157L105.137 63.3151ZM108.61 66.199L108.411 66.2151L108.412 66.2303L108.415 66.2452L108.61 66.199ZM108.725 66.6852L108.925 66.6717L108.924 66.6552L108.92 66.639L108.725 66.6852ZM109.127 72.6001L108.927 72.6137L108.927 72.6162L109.127 72.6001ZM110.524 75.2704L110.723 75.2543L110.719 75.1934L110.68 75.1456L110.524 75.2704ZM110.53 75.3461L110.727 75.3836L110.732 75.357L110.73 75.33L110.53 75.3461ZM109.52 76.5332L109.458 76.7233L109.496 76.7358L109.537 76.7326L109.52 76.5332ZM106.796 72.0639L106.995 72.0478L106.987 71.9412L106.893 71.8891L106.796 72.0639ZM106.676 71.9974L106.507 71.8906L106.394 72.0694L106.579 72.1722L106.676 71.9974ZM106.778 71.8367L106.947 71.9434L106.982 71.887L106.977 71.8206L106.778 71.8367ZM106.772 71.7609L106.572 71.7727L106.572 71.777L106.772 71.7609ZM106.463 66.5248L106.663 66.513L106.663 66.5087L106.463 66.5248ZM104.973 65.5395L104.957 65.3401L104.919 65.3432L104.884 65.3603L104.973 65.5395ZM101.47 75.5057L101.27 75.5218L101.271 75.5276L101.47 75.5057ZM101.859 64.2659L101.875 64.4653L101.904 64.4629L101.931 64.4523L101.859 64.2659ZM102.228 64.1217L102.24 63.9221L102.196 63.9194L102.155 63.9354L102.228 64.1217ZM103.033 64.1711L103.02 64.3708L103.097 64.3755L103.157 64.3281L103.033 64.1711ZM105.136 63.5151C106.19 63.5168 106.967 63.7522 107.498 64.1926C108.024 64.6298 108.336 65.2934 108.411 66.2151L108.809 66.1829C108.729 65.1854 108.384 64.4088 107.753 63.8848C107.126 63.3638 106.244 63.1169 105.137 63.1151L105.136 63.5151ZM108.415 66.2452L108.531 66.7315L108.92 66.639L108.805 66.1527L108.415 66.2452ZM108.526 66.6988L108.927 72.6137L109.326 72.5866L108.925 66.6717L108.526 66.6988ZM108.927 72.6162C108.988 73.3618 109.488 74.2924 110.368 75.3951L110.68 75.1456C109.807 74.0516 109.376 73.202 109.326 72.5841L108.927 72.6162ZM110.325 75.2865L110.331 75.3622L110.73 75.33L110.723 75.2543L110.325 75.2865ZM110.334 75.3086C110.266 75.6637 110.156 75.9128 110.018 76.0748C109.885 76.2311 109.718 76.3166 109.504 76.3339L109.537 76.7326C109.853 76.707 110.119 76.5733 110.323 76.3339C110.522 76.1002 110.652 75.7771 110.727 75.3836L110.334 75.3086ZM109.583 76.3431C108.813 76.0909 108.222 75.653 107.801 75.0295C107.378 74.4031 107.119 73.5774 107.035 72.5402L106.636 72.5724C106.724 73.6563 106.998 74.5541 107.47 75.2533C107.944 75.9554 108.61 76.4453 109.458 76.7233L109.583 76.3431ZM107.035 72.5402L106.995 72.0478L106.597 72.08L106.636 72.5724L107.035 72.5402ZM106.893 71.8891L106.773 71.8226L106.579 72.1722L106.699 72.2387L106.893 71.8891ZM106.845 72.1041L106.947 71.9434L106.608 71.7299L106.507 71.8906L106.845 72.1041ZM106.977 71.8206L106.971 71.7448L106.572 71.777L106.578 71.8528L106.977 71.8206ZM106.971 71.7492L106.663 66.513L106.264 66.5365L106.572 71.7727L106.971 71.7492ZM106.663 66.5087C106.631 66.1184 106.521 65.7953 106.3 65.5777C106.075 65.3548 105.766 65.2748 105.412 65.3034L105.444 65.7021C105.72 65.6798 105.9 65.7446 106.019 65.8624C106.144 65.9855 106.236 66.1988 106.264 66.5408L106.663 66.5087ZM105.412 65.3034L104.957 65.3401L104.989 65.7388L105.444 65.7021L105.412 65.3034ZM104.884 65.3603C104.526 65.5385 104.244 65.8701 104.029 66.3229C103.813 66.7755 103.656 67.363 103.553 68.078C103.346 69.5079 103.346 71.4856 103.55 74.0034L103.948 73.9713C103.746 71.4641 103.748 69.5213 103.949 68.1353C104.049 67.4423 104.198 66.8979 104.39 66.4948C104.582 66.0919 104.81 65.8439 105.062 65.7186L104.884 65.3603ZM103.55 74.0034C103.619 74.8642 103.558 75.4887 103.391 75.8984C103.308 76.1003 103.202 76.2435 103.078 76.3399C102.955 76.4355 102.805 76.4934 102.618 76.5085L102.65 76.9072C102.905 76.8866 103.133 76.8044 103.324 76.6555C103.514 76.5073 103.658 76.3016 103.761 76.0501C103.964 75.5529 104.019 74.8528 103.948 73.9713L103.55 74.0034ZM102.618 76.5085C102.322 76.5324 102.119 76.4573 101.975 76.3094C101.825 76.1542 101.713 75.8905 101.668 75.4837L101.271 75.5276C101.32 75.9773 101.45 76.3423 101.688 76.5877C101.933 76.8407 102.265 76.9384 102.65 76.9072L102.618 76.5085ZM101.669 75.4896L101.363 71.7019L100.965 71.7341L101.27 75.5218L101.669 75.4896ZM101.363 71.7019C101.166 69.2553 101.126 67.4236 101.24 66.1995C101.297 65.5855 101.392 65.1398 101.516 64.8492C101.642 64.5535 101.772 64.4735 101.875 64.4653L101.842 64.0666C101.515 64.093 101.295 64.3495 101.148 64.6921C101 65.0399 100.9 65.5344 100.842 66.1624C100.724 67.4222 100.767 69.282 100.965 71.7341L101.363 71.7019ZM101.931 64.4523L102.301 64.308L102.155 63.9354L101.786 64.0796L101.931 64.4523ZM102.216 64.3214L103.02 64.3708L103.045 63.9715L102.24 63.9221L102.216 64.3214ZM103.157 64.3281C103.773 63.8409 104.438 63.5721 105.153 63.5144L105.121 63.1157C104.32 63.1803 103.582 63.4823 102.909 64.0142L103.157 64.3281ZM135.599 60.3604L135.798 60.3443L135.797 60.3265L135.792 60.3093L135.599 60.3604ZM134.52 61.6294L134.536 61.8288L134.548 61.8277L134.561 61.8251L134.52 61.6294ZM133.042 59.385L133.237 59.3404L133.219 59.2599L133.149 59.2159L133.042 59.385ZM132.882 59.2836L132.988 59.1145L132.932 59.0789L132.865 59.0842L132.882 59.2836ZM132.427 59.3203L132.411 59.1209L132.306 59.1294L132.254 59.2206L132.427 59.3203ZM131.851 62.5692L131.651 62.5853L131.653 62.5972L131.851 62.5692ZM132.117 64.4539L131.919 64.4819L131.945 64.6684L132.133 64.6532L132.117 64.4539ZM135.348 63.3925L135.332 63.1931L135.29 63.1965L135.252 63.217L135.348 63.3925ZM136.756 64.3081L136.956 64.292L136.951 64.2374L136.92 64.1926L136.756 64.3081ZM132.679 66.6959L132.64 66.4997L132.437 66.5402L132.485 66.742L132.679 66.6959ZM134.125 72.7934L134.324 72.7773L134.323 72.7621L134.319 72.7473L134.125 72.7934ZM132.881 73.9231L132.898 74.1224L132.914 74.1211L132.931 74.1168L132.881 73.9231ZM131.414 70.3817L131.613 70.3656L131.611 70.3436L131.605 70.3225L131.414 70.3817ZM130.434 67.2203L130.625 67.1611L130.57 66.9825L130.388 67.0257L130.434 67.2203ZM128.003 67.7978L128.019 67.9971L128.034 67.9959L128.049 67.9923L128.003 67.7978ZM126.961 66.7L126.762 66.7161L126.763 66.7289L126.765 66.7415L126.961 66.7ZM129.913 65.013L129.948 65.2098L130.139 65.1754L130.111 64.9841L129.913 65.013ZM129.572 62.6769L129.372 62.6715L129.371 62.6887L129.374 62.7058L129.572 62.6769ZM132.847 56.9709C133.355 56.9299 133.822 57.1581 134.255 57.719C134.692 58.2862 135.079 59.1775 135.406 60.4116L135.792 60.3093C135.46 59.0549 135.057 58.1038 134.572 57.4747C134.082 56.8393 133.494 56.5173 132.815 56.5721L132.847 56.9709ZM135.4 60.3765L135.412 60.528L135.811 60.4959L135.798 60.3443L135.4 60.3765ZM135.412 60.528C135.431 60.7685 135.367 60.9475 135.23 61.0871C135.087 61.234 134.846 61.3559 134.478 61.4337L134.561 61.8251C134.968 61.7387 135.296 61.5923 135.517 61.3667C135.744 61.1338 135.838 60.8362 135.811 60.4959L135.412 60.528ZM134.503 61.4301C134.289 61.4473 134.069 61.338 133.844 60.9966C133.617 60.6522 133.412 60.1059 133.237 59.3404L132.847 59.4296C133.026 60.2113 133.244 60.8127 133.51 61.2165C133.777 61.6231 134.119 61.8624 134.536 61.8288L134.503 61.4301ZM133.149 59.2159L132.988 59.1145L132.775 59.4527L132.935 59.5541L133.149 59.2159ZM132.865 59.0842L132.411 59.1209L132.443 59.5196L132.898 59.483L132.865 59.0842ZM132.254 59.2206C131.737 60.1187 131.543 61.2453 131.651 62.5853L132.05 62.5531C131.946 61.267 132.136 60.2277 132.6 59.42L132.254 59.2206ZM131.653 62.5972L131.919 64.4819L132.315 64.4259L132.049 62.5412L131.653 62.5972ZM132.133 64.6532C133.178 64.5689 134.282 64.2038 135.444 63.5679L135.252 63.217C134.126 63.8333 133.076 64.1758 132.101 64.2545L132.133 64.6532ZM135.364 63.5918C135.736 63.5618 136.147 63.7931 136.593 64.4236L136.92 64.1926C136.447 63.5248 135.919 63.1457 135.332 63.1931L135.364 63.5918ZM136.557 64.3242C136.59 64.7293 136.35 65.1274 135.699 65.509C135.048 65.89 134.034 66.2229 132.64 66.4997L132.718 66.8921C134.126 66.6124 135.192 66.269 135.901 65.8541C136.608 65.4398 137.007 64.9222 136.956 64.292L136.557 64.3242ZM132.485 66.742L133.93 72.8395L134.319 72.7473L132.874 66.6498L132.485 66.742ZM133.925 72.8095C133.941 73.0091 133.875 73.1764 133.711 73.3255C133.539 73.4824 133.253 73.6216 132.832 73.7293L132.931 74.1168C133.381 74.0017 133.739 73.8412 133.98 73.6215C134.231 73.3941 134.351 73.1079 134.324 72.7773L133.925 72.8095ZM132.865 73.7237C132.61 73.7443 132.348 73.577 132.112 73.0085C131.88 72.4479 131.71 71.5721 131.613 70.3656L131.214 70.3978C131.313 71.6154 131.486 72.5419 131.743 73.1617C131.996 73.7737 132.37 74.165 132.898 74.1224L132.865 73.7237ZM131.605 70.3225L130.625 67.1611L130.243 67.2794L131.223 70.4409L131.605 70.3225ZM130.388 67.0257L127.957 67.6032L128.049 67.9923L130.48 67.4148L130.388 67.0257ZM127.987 67.5984C127.778 67.6153 127.619 67.5542 127.49 67.4178C127.352 67.2728 127.235 67.0286 127.157 66.6585L126.765 66.7415C126.851 67.1461 126.99 67.4722 127.2 67.6931C127.417 67.9226 127.697 68.0231 128.019 67.9971L127.987 67.5984ZM127.16 66.6839C127.139 66.4178 127.29 66.1478 127.752 65.8838C128.215 65.6196 128.941 65.3921 129.948 65.2098L129.877 64.8162C128.856 65.0011 128.076 65.2383 127.554 65.5365C127.032 65.8347 126.722 66.2247 126.762 66.7161L127.16 66.6839ZM130.111 64.9841L129.77 62.648L129.374 62.7058L129.715 65.0419L130.111 64.9841ZM129.772 62.6823C129.823 60.8104 130.118 59.4132 130.639 58.4699C131.152 57.5386 131.885 57.0485 132.847 56.9709L132.815 56.5721C131.707 56.6616 130.861 57.2393 130.288 58.2766C129.723 59.3017 129.423 60.7736 129.372 62.6715L129.772 62.6823ZM138.505 53.6067L138.53 53.4083L138.51 53.4057L138.489 53.4073L138.505 53.6067ZM140.048 54.7783L140.242 54.8302L140.251 54.7968L140.248 54.7622L140.048 54.7783ZM138.922 55.9367L138.901 56.1356L138.919 56.1376L138.938 56.1361L138.922 55.9367ZM137.407 54.6484L137.216 54.5893L137.205 54.6261L137.208 54.6645L137.407 54.6484ZM141.484 59.8091L141.684 59.8182L141.686 59.7684L141.665 59.7234L141.484 59.8091ZM141.36 62.5259L141.16 62.5168L141.16 62.5294L141.161 62.542L141.36 62.5259ZM143.222 72.364L143.406 72.4426L143.434 72.3763L143.413 72.3072L143.222 72.364ZM139.213 64.2623L139.013 64.2784L139.015 64.2892L139.213 64.2623ZM138.48 53.8051C138.95 53.8651 139.284 53.9865 139.502 54.1523C139.713 54.3124 139.827 54.5216 139.849 54.7944L140.248 54.7622C140.217 54.3785 140.047 54.0642 139.744 53.8337C139.448 53.609 139.036 53.4729 138.53 53.4083L138.48 53.8051ZM139.855 54.7264C139.763 55.0696 139.633 55.3133 139.477 55.4741C139.324 55.6311 139.137 55.7187 138.906 55.7374L138.938 56.1361C139.262 56.1099 139.541 55.982 139.764 55.7529C139.983 55.5276 140.138 55.2144 140.242 54.8302L139.855 54.7264ZM138.943 55.7378C138.492 55.6897 138.173 55.5658 137.961 55.3863C137.755 55.2111 137.634 54.9666 137.607 54.6323L137.208 54.6645C137.242 55.0877 137.403 55.4368 137.702 55.691C137.996 55.9409 138.403 56.0824 138.901 56.1356L138.943 55.7378ZM137.598 54.7075C137.693 54.4034 137.82 54.1874 137.971 54.0443C138.119 53.9039 138.299 53.824 138.521 53.8061L138.489 53.4073C138.181 53.4322 137.913 53.5473 137.695 53.7542C137.48 53.9582 137.324 54.2418 137.216 54.5893L137.598 54.7075ZM140.389 58.9926C140.523 58.9818 140.664 59.029 140.818 59.1704C140.977 59.3152 141.14 59.5516 141.303 59.8949L141.665 59.7234C141.491 59.3568 141.3 59.069 141.088 58.8752C140.873 58.6779 140.626 58.5721 140.356 58.5939L140.389 58.9926ZM141.284 59.8L141.16 62.5168L141.56 62.535L141.684 59.8182L141.284 59.8ZM141.161 62.542L141.304 64.3222L141.703 64.29L141.559 62.5098L141.161 62.542ZM141.304 64.3222C141.473 66.4126 142.05 69.1137 143.03 72.4208L143.413 72.3072C142.437 69.0117 141.869 66.3408 141.703 64.29L141.304 64.3222ZM143.038 72.2854C142.945 72.5037 142.812 72.6653 142.643 72.7789C142.472 72.8932 142.253 72.9659 141.976 72.9883L142.008 73.387C142.337 73.3604 142.626 73.2714 142.865 73.1112C143.106 72.9502 143.285 72.7245 143.406 72.4426L143.038 72.2854ZM141.976 72.9883C141.828 73.0002 141.635 72.9085 141.401 72.5645C141.173 72.2273 140.941 71.6968 140.712 70.9595C140.254 69.4884 139.819 67.2496 139.411 64.2355L139.015 64.2892C139.424 67.3088 139.861 69.5744 140.33 71.0784C140.563 71.8287 140.809 72.4034 141.07 72.7891C141.327 73.168 141.638 73.4169 142.008 73.387L141.976 72.9883ZM139.412 64.2462L139.305 62.9205L138.906 62.9527L139.013 64.2784L139.412 64.2462ZM139.305 62.9205C139.198 61.5895 139.252 60.6056 139.452 59.9518C139.551 59.6266 139.683 59.3954 139.837 59.2426C139.989 59.0931 140.169 59.0103 140.389 58.9926L140.356 58.5939C140.045 58.619 139.776 58.741 139.556 58.9582C139.34 59.172 139.181 59.4695 139.069 59.8348C138.847 60.5622 138.798 61.6071 138.906 62.9527L139.305 62.9205ZM150.259 59.6726L150.259 59.4726L150.251 59.4726L150.243 59.4733L150.259 59.6726ZM153.732 62.5565L153.533 62.5726L153.534 62.5879L153.538 62.6027L153.732 62.5565ZM153.848 63.0428L154.047 63.0293L154.046 63.0127L154.042 62.9966L153.848 63.0428ZM154.249 68.9577L154.049 68.9712L154.05 68.9738L154.249 68.9577ZM155.646 71.6279L155.846 71.6118L155.841 71.5509L155.803 71.5032L155.646 71.6279ZM155.652 71.7037L155.849 71.7412L155.854 71.7146L155.852 71.6876L155.652 71.7037ZM154.643 72.8908L154.58 73.0808L154.619 73.0934L154.659 73.0901L154.643 72.8908ZM151.918 68.4215L152.118 68.4054L152.109 68.2987L152.015 68.2467L151.918 68.4215ZM151.798 68.3549L151.629 68.2482L151.516 68.427L151.701 68.5297L151.798 68.3549ZM151.9 68.1942L152.069 68.301L152.105 68.2446L152.099 68.1781L151.9 68.1942ZM151.894 68.1185L151.694 68.1302L151.694 68.1346L151.894 68.1185ZM151.585 62.8823L151.785 62.8706L151.785 62.8662L151.585 62.8823ZM150.095 61.897L150.079 61.6977L150.041 61.7008L150.006 61.7179L150.095 61.897ZM146.592 71.8632L146.392 71.8793L146.393 71.8852L146.592 71.8632ZM146.981 60.6235L146.997 60.8228L147.026 60.8205L147.053 60.8098L146.981 60.6235ZM147.35 60.4793L147.363 60.2797L147.319 60.277L147.278 60.293L147.35 60.4793ZM148.155 60.5287L148.143 60.7283L148.219 60.733L148.279 60.6856L148.155 60.5287ZM150.259 59.8726C151.312 59.8743 152.09 60.1098 152.62 60.5501C153.147 60.9874 153.458 61.651 153.533 62.5726L153.932 62.5404C153.851 61.543 153.507 60.7664 152.875 60.2424C152.248 59.7214 151.366 59.4744 150.259 59.4726L150.259 59.8726ZM153.538 62.6027L153.653 63.089L154.042 62.9966L153.927 62.5103L153.538 62.6027ZM153.648 63.0563L154.049 68.9712L154.448 68.9442L154.047 63.0293L153.648 63.0563ZM154.05 68.9738C154.11 69.7194 154.61 70.65 155.49 71.7527L155.803 71.5032C154.929 70.4091 154.498 69.5596 154.448 68.9416L154.05 68.9738ZM155.447 71.644L155.453 71.7198L155.852 71.6876L155.846 71.6118L155.447 71.644ZM155.456 71.6662C155.388 72.0213 155.278 72.2703 155.14 72.4323C155.007 72.5887 154.84 72.6742 154.627 72.6914L154.659 73.0901C154.975 73.0646 155.242 72.9308 155.445 72.6915C155.644 72.4578 155.774 72.1347 155.849 71.7412L155.456 71.6662ZM154.705 72.7007C153.935 72.4485 153.344 72.0105 152.923 71.387C152.5 70.7606 152.241 69.935 152.157 68.8978L151.759 68.93C151.846 70.0139 152.12 70.9116 152.592 71.6108C153.066 72.313 153.732 72.8029 154.58 73.0808L154.705 72.7007ZM152.157 68.8978L152.118 68.4054L151.719 68.4376L151.759 68.93L152.157 68.8978ZM152.015 68.2467L151.896 68.1801L151.701 68.5297L151.821 68.5963L152.015 68.2467ZM151.968 68.4616L152.069 68.301L151.731 68.0875L151.629 68.2482L151.968 68.4616ZM152.099 68.1781L152.093 68.1024L151.694 68.1346L151.7 68.2103L152.099 68.1781ZM152.093 68.1067L151.785 62.8706L151.386 62.8941L151.694 68.1302L152.093 68.1067ZM151.785 62.8662C151.753 62.476 151.643 62.1529 151.423 61.9352C151.197 61.7124 150.888 61.6323 150.534 61.661L150.566 62.0597C150.842 62.0373 151.022 62.1022 151.142 62.2199C151.266 62.343 151.358 62.5563 151.386 62.8984L151.785 62.8662ZM150.534 61.661L150.079 61.6977L150.111 62.0964L150.566 62.0597L150.534 61.661ZM150.006 61.7179C149.648 61.896 149.367 62.2276 149.151 62.6804C148.935 63.1331 148.779 63.7206 148.675 64.4355C148.468 65.8655 148.468 67.8431 148.672 70.361L149.07 70.3288C148.868 67.8217 148.87 65.8789 149.071 64.4929C149.171 63.7998 149.32 63.2555 149.512 62.8524C149.704 62.4495 149.932 62.2015 150.184 62.0761L150.006 61.7179ZM148.672 70.361C148.741 71.2218 148.681 71.8463 148.513 72.256C148.43 72.4578 148.324 72.6011 148.2 72.6975C148.078 72.7931 147.927 72.851 147.74 72.8661L147.772 73.2648C148.028 73.2442 148.255 73.162 148.446 73.013C148.636 72.8649 148.78 72.6592 148.883 72.4076C149.087 71.9105 149.142 71.2104 149.07 70.3288L148.672 70.361ZM147.74 72.8661C147.444 72.89 147.241 72.8148 147.098 72.667C146.947 72.5117 146.836 72.2481 146.791 71.8413L146.393 71.8852C146.443 72.3349 146.572 72.6999 146.81 72.9453C147.055 73.1982 147.387 73.2959 147.772 73.2648L147.74 72.8661ZM146.791 71.8471L146.485 68.0594L146.087 68.0916L146.392 71.8793L146.791 71.8471ZM146.485 68.0594C146.288 65.6128 146.248 63.7812 146.362 62.557C146.42 61.943 146.514 61.4974 146.638 61.2068C146.765 60.9111 146.895 60.8311 146.997 60.8228L146.965 60.4241C146.638 60.4505 146.417 60.707 146.27 61.0497C146.122 61.3974 146.023 61.8919 145.964 62.5199C145.847 63.7798 145.889 65.6395 146.087 68.0916L146.485 68.0594ZM147.053 60.8098L147.423 60.6656L147.278 60.293L146.908 60.4372L147.053 60.8098ZM147.338 60.6789L148.143 60.7283L148.167 60.3291L147.363 60.2797L147.338 60.6789ZM148.279 60.6856C148.896 60.1985 149.56 59.9297 150.275 59.872L150.243 59.4733C149.443 59.5379 148.704 59.8398 148.031 60.3718L148.279 60.6856ZM166.501 51.4993L166.7 51.5145L166.705 51.4562L166.677 51.4046L166.501 51.4993ZM165.684 62.1635L165.485 62.1483L165.484 62.164L165.485 62.1796L165.684 62.1635ZM167.735 69.6227L167.807 69.436L167.764 69.4197L167.719 69.4234L167.735 69.6227ZM167.347 71.9033L167.364 72.1027L167.373 72.1019L167.383 72.1001L167.347 71.9033ZM164.486 69.0463L164.672 68.9721L164.617 68.835L164.47 68.8469L164.486 69.0463ZM164.107 69.0768L164.091 68.8775L163.963 68.8878L163.919 69.0086L164.107 69.0768ZM157.818 69.0889L157.619 69.105L157.62 69.1187L157.623 69.1322L157.818 69.0889ZM162.642 59.893L162.626 59.6936L162.553 59.6995L162.502 59.7503L162.642 59.893ZM163.493 56.7363L163.293 56.7256L163.292 56.739L163.293 56.7524L163.493 56.7363ZM160.111 69.6282L159.912 69.6443L159.918 69.7269L159.981 69.7805L160.111 69.6282ZM160.766 70.1853L160.636 70.3376L160.699 70.3913L160.782 70.3847L160.766 70.1853ZM163.244 62.6274L163.442 62.6551L163.476 62.408L163.228 62.4281L163.244 62.6274ZM163.016 62.6458L163 62.4464L162.918 62.4531L162.864 62.5162L163.016 62.6458ZM165.245 50.5813C165.39 50.5696 165.552 50.6235 165.737 50.7856C165.924 50.9497 166.121 51.2146 166.325 51.5939L166.677 51.4046C166.462 51.0044 166.238 50.6934 166.001 50.4851C165.761 50.2747 165.497 50.1597 165.213 50.1826L165.245 50.5813ZM166.302 51.484L165.485 62.1483L165.884 62.1788L166.7 51.5145L166.302 51.484ZM165.485 62.1796L165.723 65.134L166.122 65.1018L165.884 62.1475L165.485 62.1796ZM165.723 65.134C165.848 66.6797 166.063 67.8497 166.377 68.6293C166.686 69.3977 167.131 69.8721 167.751 69.8221L167.719 69.4234C167.38 69.4508 167.043 69.2131 166.748 68.48C166.457 67.7579 166.246 66.6368 166.122 65.1018L165.723 65.134ZM167.663 69.8094C168.28 70.0462 168.548 70.3753 168.581 70.7744L168.979 70.7422C168.93 70.1313 168.502 69.7033 167.807 69.436L167.663 69.8094ZM168.581 70.7744C168.598 70.9948 168.522 71.1722 168.332 71.3239C168.131 71.4846 167.799 71.6177 167.312 71.7065L167.383 72.1001C167.898 72.0064 168.305 71.8573 168.582 71.6364C168.869 71.4065 169.008 71.1027 168.979 70.7422L168.581 70.7744ZM167.331 71.704C166.846 71.7431 166.385 71.5591 165.94 71.1148C165.491 70.6658 165.065 69.9573 164.672 68.9721L164.301 69.1204C164.703 70.1296 165.153 70.8944 165.658 71.3978C166.166 71.9059 166.737 72.1532 167.364 72.1027L167.331 71.704ZM164.47 68.8469L164.091 68.8775L164.124 69.2762L164.502 69.2456L164.47 68.8469ZM163.919 69.0086C163.157 71.1098 162.146 72.1225 160.93 72.2207L160.962 72.6194C162.423 72.5015 163.519 71.2854 164.295 69.145L163.919 69.0086ZM160.93 72.2207C160.206 72.2792 159.614 72.0544 159.136 71.5451C158.649 71.0272 158.27 70.2026 158.013 69.0457L157.623 69.1322C157.886 70.3224 158.288 71.2266 158.844 71.819C159.409 72.4201 160.121 72.6873 160.962 72.6194L160.93 72.2207ZM158.017 69.0728C157.803 66.4115 159.356 63.4019 162.782 60.0356L162.502 59.7503C159.051 63.1406 157.389 66.2616 157.619 69.105L158.017 69.0728ZM162.658 60.0923C162.893 60.0734 163.094 59.9726 163.254 59.7974C163.411 59.6267 163.521 59.3926 163.597 59.1115C163.748 58.5515 163.775 57.7493 163.692 56.7202L163.293 56.7524C163.375 57.7687 163.343 58.5153 163.211 59.0074C163.145 59.2525 163.057 59.4204 162.959 59.5275C162.865 59.6301 162.757 59.683 162.626 59.6936L162.658 60.0923ZM163.692 56.747C163.804 54.6706 164.003 53.1179 164.287 52.0799C164.429 51.5599 164.589 51.1826 164.759 50.9351C164.929 50.6886 165.093 50.5936 165.245 50.5813L165.213 50.1826C164.897 50.2081 164.638 50.4061 164.43 50.708C164.223 51.0089 164.048 51.4353 163.901 51.9744C163.606 53.0544 163.405 54.6412 163.293 56.7256L163.692 56.747ZM159.829 68.6216L159.912 69.6443L160.31 69.6121L160.228 68.5894L159.829 68.6216ZM159.981 69.7805L160.636 70.3376L160.895 70.033L160.24 69.4759L159.981 69.7805ZM160.782 70.3847L161.009 70.3663L160.977 69.9676L160.75 69.986L160.782 70.3847ZM161.009 70.3663C161.314 70.3417 161.558 70.0951 161.759 69.7625C161.967 69.4189 162.164 68.9248 162.353 68.2904C162.733 67.019 163.095 65.1384 163.442 62.6551L163.046 62.5998C162.7 65.0776 162.341 66.9342 161.97 68.1759C161.784 68.7981 161.599 69.2546 161.417 69.5556C161.229 69.8677 161.076 69.9596 160.977 69.9676L161.009 70.3663ZM163.228 62.4281L163 62.4464L163.033 62.8451L163.26 62.8268L163.228 62.4281ZM162.864 62.5162C161.802 63.765 161.014 64.896 160.506 65.9086C159.999 66.9197 159.765 67.8266 159.829 68.6216L160.228 68.5894C160.172 67.8946 160.375 67.0633 160.864 66.0879C161.352 65.1139 162.119 64.0099 163.169 62.7754L162.864 62.5162ZM54.9631 112.016L54.7668 111.978L54.7563 112.032L54.7747 112.083L54.9631 112.016ZM57.5016 112.764L57.3073 112.812L57.3477 112.977L57.5177 112.964L57.5016 112.764ZM57.6531 112.752L57.6692 112.951L57.6906 112.95L57.7111 112.943L57.6531 112.752ZM59.3648 112.233L59.3487 112.033L59.3273 112.035L59.3068 112.041L59.3648 112.233ZM61.8966 114.316L61.7255 114.419L61.7895 114.525L61.9127 114.515L61.8966 114.316ZM62.0482 114.303L62.0642 114.503L62.1736 114.494L62.2249 114.397L62.0482 114.303ZM65.2461 111.415L65.2663 111.216L65.2482 111.214L65.23 111.215L65.2461 111.415ZM69.3494 115.963L69.1497 115.979L69.1513 115.991L69.3494 115.963ZM69.5322 117.283L69.732 117.276L69.7317 117.266L69.7303 117.255L69.5322 117.283ZM69.8089 124.962L69.6088 124.969L69.6095 124.978L69.8089 124.962ZM68.7815 126.874L68.7976 127.074L68.8104 127.073L68.8229 127.07L68.7815 126.874ZM67.3841 124.204L67.1837 124.207L67.1847 124.22L67.3841 124.204ZM67.2852 117.312L67.4856 117.309L67.4845 117.296L67.2852 117.312ZM63.1378 118.828L62.9418 118.788L62.9387 118.804L62.938 118.819L63.1378 118.828ZM61.7997 124.922L61.7902 125.122L62.0174 125.132L61.9991 124.906L61.7997 124.922ZM60.5277 123.805L60.3278 123.799L60.3275 123.81L60.3284 123.821L60.5277 123.805ZM60.6501 119.182L60.8501 119.187L60.8504 119.174L60.849 119.161L60.6501 119.182ZM59.2074 114.533L59.1913 114.333L59.1241 114.339L59.074 114.384L59.2074 114.533ZM58.6518 119.457L58.8516 119.447L58.8512 119.441L58.6518 119.457ZM58.9681 125.265L59.1645 125.303L59.1692 125.279L59.1678 125.254L58.9681 125.265ZM56.7407 125.063L56.542 125.086L56.5436 125.1L56.5469 125.113L56.7407 125.063ZM56.2284 120.606L56.0284 120.61L56.0286 120.619L56.0297 120.629L56.2284 120.606ZM56.1591 116.914L56.3591 116.91L56.3588 116.896L56.3565 116.882L56.1591 116.914ZM55.1594 112.054C55.2165 111.762 55.3267 111.556 55.4768 111.418C55.6262 111.28 55.8331 111.193 56.1148 111.171L56.0827 110.772C55.7331 110.8 55.4351 110.913 55.206 111.124C54.9775 111.334 54.8356 111.625 54.7668 111.978L55.1594 112.054ZM56.1148 111.171C56.3495 111.152 56.5636 111.247 56.7654 111.505C56.9736 111.771 57.158 112.2 57.3073 112.812L57.6959 112.717C57.5412 112.083 57.3398 111.59 57.0804 111.258C56.8147 110.918 56.4793 110.74 56.0827 110.772L56.1148 111.171ZM57.5177 112.964L57.6692 112.951L57.637 112.553L57.4855 112.565L57.5177 112.964ZM57.7111 112.943L59.4229 112.424L59.3068 112.041L57.595 112.561L57.7111 112.943ZM59.3809 112.432C59.7173 112.405 60.0806 112.533 60.4767 112.859C60.8744 113.186 61.2916 113.702 61.7255 114.419L62.0678 114.212C61.6219 113.475 61.1772 112.917 60.7309 112.55C60.2831 112.182 59.8204 111.995 59.3487 112.033L59.3809 112.432ZM61.9127 114.515L62.0642 114.503L62.0321 114.104L61.8806 114.116L61.9127 114.515ZM62.2249 114.397C63.188 112.579 64.2084 111.699 65.2622 111.614L65.23 111.215C63.9607 111.318 62.8492 112.364 61.8714 114.21L62.2249 114.397ZM65.2259 111.614C66.4444 111.737 67.3636 112.164 68.0069 112.877C68.6522 113.592 69.0402 114.619 69.15 115.979L69.5487 115.947C69.4344 114.53 69.0263 113.41 68.3039 112.609C67.5794 111.806 66.5591 111.347 65.2663 111.216L65.2259 111.614ZM69.1513 115.991L69.334 117.31L69.7303 117.255L69.5475 115.936L69.1513 115.991ZM69.3323 117.29L69.609 124.969L70.0088 124.954L69.732 117.276L69.3323 117.29ZM69.6095 124.978L69.6676 125.697L70.0663 125.665L70.0082 124.945L69.6095 124.978ZM69.6676 125.697C69.6895 125.968 69.6229 126.168 69.4859 126.318C69.3437 126.475 69.1048 126.601 68.74 126.679L68.8229 127.07C69.2328 126.983 69.5621 126.829 69.7818 126.588C70.0066 126.34 70.0954 126.025 70.0663 125.665L69.6676 125.697ZM68.7654 126.675C68.612 126.687 68.4811 126.654 68.3643 126.576C68.2443 126.497 68.1282 126.364 68.0222 126.161C67.8083 125.753 67.6572 125.102 67.5834 124.188L67.1847 124.22C67.2598 125.15 67.416 125.866 67.6678 126.347C67.7948 126.59 67.9512 126.783 68.1434 126.91C68.3387 127.039 68.5596 127.093 68.7976 127.074L68.7654 126.675ZM67.5841 124.201L67.4852 117.309L67.0852 117.315L67.1841 124.207L67.5841 124.201ZM67.4845 117.296C67.3819 116.024 67.1541 115.053 66.7844 114.408C66.5981 114.082 66.3714 113.831 66.0994 113.67C65.8253 113.507 65.5173 113.441 65.1831 113.468L65.2153 113.867C65.4745 113.846 65.6985 113.897 65.895 114.014C66.0934 114.132 66.2759 114.324 66.4372 114.606C66.7628 115.175 66.9847 116.075 67.0858 117.328L67.4845 117.296ZM65.1831 113.468C64.9293 113.489 64.7128 113.66 64.5285 113.899C64.3412 114.142 64.1616 114.487 63.9868 114.925C63.6365 115.802 63.2888 117.092 62.9418 118.788L63.3337 118.868C63.6793 117.179 64.0214 115.917 64.3583 115.073C64.527 114.651 64.6904 114.344 64.8453 114.143C65.0032 113.939 65.1283 113.874 65.2153 113.867L65.1831 113.468ZM62.938 118.819C62.851 120.731 62.7482 122.163 62.6299 123.118C62.5706 123.596 62.5083 123.947 62.4447 124.176C62.4125 124.292 62.383 124.366 62.3594 124.407C62.3285 124.461 62.3375 124.411 62.4061 124.405L62.4383 124.804C62.5827 124.792 62.6654 124.677 62.7063 124.606C62.7545 124.522 62.7946 124.411 62.8301 124.283C62.9018 124.025 62.9669 123.651 63.0269 123.167C63.1471 122.196 63.2505 120.752 63.3376 118.837L62.938 118.819ZM62.4061 124.405C62.1838 124.423 61.993 124.461 61.8539 124.532C61.7824 124.568 61.7142 124.619 61.6655 124.69C61.6145 124.764 61.5933 124.85 61.6004 124.938L61.9991 124.906C61.9991 124.905 61.9984 124.912 61.9957 124.916C61.9953 124.916 62.0031 124.905 62.0354 124.888C62.1038 124.853 62.2314 124.821 62.4383 124.804L62.4061 124.405ZM61.8093 124.722C61.4411 124.704 61.1871 124.61 61.0205 124.464C60.8569 124.32 60.7525 124.104 60.7271 123.788L60.3284 123.821C60.3599 124.212 60.4961 124.536 60.7565 124.764C61.014 124.991 61.3674 125.101 61.7902 125.122L61.8093 124.722ZM60.7276 123.81L60.8501 119.187L60.4502 119.176L60.3278 123.799L60.7276 123.81ZM60.849 119.161C60.6835 117.583 60.4887 116.393 60.2623 115.6C60.1496 115.205 60.025 114.893 59.8833 114.679C59.7448 114.47 59.5542 114.304 59.3049 114.324L59.3371 114.723C59.3656 114.721 59.4387 114.732 59.5498 114.9C59.6577 115.063 59.7688 115.328 59.8776 115.709C60.0942 116.468 60.2862 117.63 60.4512 119.203L60.849 119.161ZM59.3049 114.324L59.1913 114.333L59.2235 114.732L59.3371 114.723L59.3049 114.324ZM59.074 114.384C58.4085 114.98 58.175 116.036 58.2904 117.466L58.6891 117.434C58.5762 116.035 58.8212 115.147 59.3408 114.682L59.074 114.384ZM58.2904 117.466L58.4525 119.473L58.8512 119.441L58.6891 117.434L58.2904 117.466ZM58.4521 119.468L58.7684 125.276L59.1678 125.254L58.8515 119.447L58.4521 119.468ZM58.7718 125.227C58.7145 125.521 58.6065 125.727 58.4617 125.864C58.3183 126 58.1215 126.086 57.8543 126.107L57.8865 126.506C58.2254 126.478 58.5145 126.366 58.737 126.154C58.9582 125.945 59.096 125.654 59.1645 125.303L58.7718 125.227ZM57.8543 126.107C57.6546 126.123 57.4874 126.057 57.3383 125.893C57.1814 125.721 57.0422 125.435 56.9345 125.014L56.5469 125.113C56.6621 125.563 56.8226 125.921 57.0423 126.162C57.2697 126.413 57.5559 126.533 57.8865 126.506L57.8543 126.107ZM56.9394 125.041L56.4271 120.583L56.0297 120.629L56.542 125.086L56.9394 125.041ZM56.4284 120.602L56.3591 116.91L55.9591 116.917L56.0284 120.61L56.4284 120.602ZM56.3565 116.882C56.0507 114.992 55.6495 113.347 55.1515 111.949L54.7747 112.083C55.2626 113.452 55.6587 115.073 55.9617 116.946L56.3565 116.882ZM75.6308 110.005L75.6197 109.805L75.6147 109.805L75.6308 110.005ZM81.1723 114.895L81.3684 114.855L81.3587 114.807L81.3278 114.769L81.1723 114.895ZM81.3 115.532L81.4994 115.516L81.4984 115.505L81.4961 115.493L81.3 115.532ZM76.2424 117.58L76.2047 117.384L76.1356 117.397L76.09 117.45L76.2424 117.58ZM76.1379 117.703L75.9856 117.573L75.9319 117.636L75.9385 117.719L76.1379 117.703ZM76.1501 117.854L75.9508 117.87L75.9526 117.893L75.9597 117.915L76.1501 117.854ZM82.0095 118.182L81.9934 117.982L81.9073 117.989L81.8533 118.057L82.0095 118.182ZM83.4996 119.167L83.699 119.151L83.696 119.115L83.6803 119.081L83.4996 119.167ZM80.5717 122.568L80.687 122.731L80.6934 122.727L80.6995 122.722L80.5717 122.568ZM78.6224 123.449L78.6384 123.649L78.6576 123.647L78.676 123.642L78.6224 123.449ZM73.8775 118.038L74.0693 117.981L74.0299 117.848L73.8916 117.838L73.8775 118.038ZM73.2181 115.537L73.4175 115.521L73.3978 115.276L73.1622 115.345L73.2181 115.537ZM73.2304 115.688L73.031 115.704L73.0548 115.999L73.3194 115.867L73.2304 115.688ZM73.5969 115.506L73.6859 115.685L73.8072 115.625L73.7963 115.49L73.5969 115.506ZM76.0782 112.713L76.1912 112.548L76.1327 112.508L76.0622 112.514L76.0782 112.713ZM75.7374 112.741L75.7213 112.542L75.5423 112.556L75.5374 112.735L75.7374 112.741ZM75.699 114.155L75.4991 114.149L75.4988 114.16L75.4996 114.171L75.699 114.155ZM75.7938 115.329L75.5944 115.345L75.6105 115.544L75.8099 115.528L75.7938 115.329ZM75.9453 115.316L75.9614 115.516L75.9685 115.515L75.9453 115.316ZM78.0297 114.691L78.229 114.675L78.2242 114.614L78.1866 114.567L78.0297 114.691ZM75.6419 110.204C75.8412 110.193 76.1073 110.265 76.45 110.454C76.7899 110.641 77.1872 110.933 77.6429 111.335C78.5542 112.139 79.6784 113.366 81.0168 115.02L81.3278 114.769C79.9839 113.107 78.8435 111.861 77.9076 111.035C77.4398 110.622 77.0179 110.31 76.6429 110.103C76.2708 109.899 75.9266 109.788 75.6197 109.805L75.6419 110.204ZM80.9762 114.934L81.1039 115.572L81.4961 115.493L81.3684 114.855L80.9762 114.934ZM81.1006 115.548C81.1075 115.634 81.0668 115.752 80.8862 115.906C80.7065 116.059 80.4168 116.222 80.0033 116.389C79.1789 116.723 77.9157 117.055 76.2047 117.384L76.2801 117.776C77.9979 117.447 79.292 117.109 80.1534 116.76C80.583 116.586 80.9184 116.404 81.1458 116.21C81.3724 116.017 81.521 115.785 81.4994 115.516L81.1006 115.548ZM76.09 117.45L75.9856 117.573L76.2902 117.832L76.3947 117.71L76.09 117.45ZM75.9385 117.719L75.9508 117.87L76.3495 117.838L76.3373 117.687L75.9385 117.719ZM75.9597 117.915C76.3179 119.035 76.6636 119.882 76.9988 120.447C77.1662 120.729 77.3371 120.952 77.5143 121.103C77.6924 121.254 77.8923 121.345 78.108 121.328L78.0758 120.929C78.0011 120.935 77.9023 120.908 77.7734 120.798C77.6436 120.688 77.4991 120.507 77.3429 120.243C77.0309 119.717 76.696 118.904 76.3406 117.793L75.9597 117.915ZM78.108 121.328L78.5625 121.291L78.5303 120.893L78.0758 120.929L78.108 121.328ZM78.5625 121.291C79.0306 121.253 79.5614 120.961 80.1469 120.469C80.7382 119.972 81.4113 119.249 82.1656 118.307L81.8533 118.057C81.107 118.989 80.4526 119.689 79.8895 120.162C79.3206 120.64 78.8702 120.865 78.5303 120.893L78.5625 121.291ZM82.0256 118.381L82.2528 118.363L82.2207 117.964L81.9934 117.982L82.0256 118.381ZM82.2528 118.363C82.6325 118.332 82.995 118.57 83.3189 119.253L83.6803 119.081C83.3305 118.344 82.851 117.913 82.2207 117.964L82.2528 118.363ZM83.3002 119.183C83.308 119.28 83.2756 119.424 83.1676 119.627C83.0613 119.826 82.8915 120.064 82.6528 120.341C82.1755 120.896 81.4411 121.586 80.444 122.414L80.6995 122.722C81.7032 121.888 82.4572 121.181 82.9559 120.602C83.2051 120.313 83.3952 120.05 83.5206 119.815C83.6444 119.582 83.7156 119.358 83.699 119.151L83.3002 119.183ZM80.4565 122.404C79.95 122.762 79.3222 123.047 78.5687 123.257L78.676 123.642C79.4636 123.423 80.1354 123.12 80.687 122.731L80.4565 122.404ZM78.6063 123.25C77.6578 123.327 76.8096 122.952 76.0525 122.089C75.2892 121.218 74.6246 119.855 74.0693 117.981L73.6858 118.095C74.2483 119.993 74.9335 121.419 75.7517 122.352C76.5762 123.293 77.5415 123.737 78.6384 123.649L78.6063 123.25ZM73.8916 117.838C73.3213 117.798 72.9135 117.674 72.6456 117.487C72.3869 117.306 72.2454 117.058 72.2184 116.723L71.8197 116.755C71.8558 117.203 72.0557 117.563 72.4165 117.815C72.7681 118.06 73.2579 118.194 73.8634 118.237L73.8916 117.838ZM72.2184 116.723C72.2007 116.505 72.2675 116.323 72.4268 116.163C72.5932 115.996 72.868 115.847 73.2741 115.729L73.1622 115.345C72.724 115.472 72.3769 115.647 72.1435 115.881C71.9031 116.122 71.7924 116.418 71.8197 116.755L72.2184 116.723ZM73.0188 115.553L73.031 115.704L73.4297 115.672L73.4175 115.521L73.0188 115.553ZM73.3194 115.867L73.6859 115.685L73.5079 115.327L73.1414 115.509L73.3194 115.867ZM73.7963 115.49L73.7198 114.543L73.3211 114.575L73.3976 115.522L73.7963 115.49ZM73.7198 114.543C73.6036 113.103 73.7236 112.039 74.0537 111.327C74.3757 110.632 74.8996 110.264 75.6469 110.204L75.6147 109.805C74.7208 109.877 74.0722 110.335 73.6908 111.159C73.3174 111.964 73.2029 113.111 73.3211 114.575L73.7198 114.543ZM76.0622 112.514L75.7213 112.542L75.7535 112.94L76.0943 112.913L76.0622 112.514ZM75.5374 112.735L75.4991 114.149L75.8989 114.16L75.9373 112.746L75.5374 112.735ZM75.4996 114.171L75.5944 115.345L75.9931 115.313L75.8983 114.138L75.4996 114.171ZM75.8099 115.528L75.9614 115.516L75.9292 115.117L75.7777 115.129L75.8099 115.528ZM75.9685 115.515C76.6763 115.432 77.2167 115.338 77.5814 115.228C77.762 115.174 77.9142 115.112 78.0238 115.037C78.129 114.965 78.2429 114.846 78.229 114.675L77.8303 114.707C77.8267 114.662 77.8614 114.663 77.798 114.707C77.739 114.747 77.6331 114.795 77.4664 114.845C77.1363 114.944 76.6242 115.036 75.9221 115.118L75.9685 115.515ZM78.1866 114.567C77.4458 113.629 76.7806 112.952 76.1912 112.548L75.9653 112.878C76.5057 113.248 77.1415 113.889 77.8727 114.815L78.1866 114.567ZM101.72 100.541L101.704 100.341L101.698 100.342L101.72 100.541ZM102.989 103.031L102.789 103.047L102.791 103.061L102.989 103.031ZM103.969 109.509L103.772 109.539L103.8 109.723L103.985 109.708L103.969 109.509ZM104.121 109.497L104.137 109.696L104.174 109.693L104.207 109.677L104.121 109.497ZM105.957 108.624L105.941 108.425L105.904 108.428L105.871 108.443L105.957 108.624ZM110.346 114.827L110.149 114.864L110.151 114.871L110.346 114.827ZM110.203 124.865L110.19 125.065L110.205 125.066L110.219 125.064L110.203 124.865ZM106.373 110.954L106.455 110.771L106.408 110.751L106.357 110.755L106.373 110.954ZM104.761 114.592L104.561 114.577L104.56 114.593L104.562 114.608L104.761 114.592ZM104.444 122.471L104.428 122.271L104.417 122.272L104.407 122.274L104.444 122.471ZM103.73 122.604L103.746 122.804L103.757 122.803L103.767 122.801L103.73 122.604ZM102.416 119.546L102.216 119.556L102.217 119.562L102.416 119.546ZM102.43 114.055L102.63 114.071L102.631 114.049L102.628 114.027L102.43 114.055ZM100.629 101.658L100.429 101.674L100.431 101.687L100.629 101.658ZM101.737 100.74C101.869 100.729 101.983 100.759 102.085 100.829C102.19 100.901 102.294 101.023 102.39 101.211C102.583 101.591 102.721 102.196 102.79 103.047L103.188 103.015C103.118 102.148 102.976 101.48 102.746 101.03C102.63 100.803 102.487 100.62 102.31 100.499C102.13 100.376 101.925 100.323 101.704 100.341L101.737 100.74ZM102.791 103.061L103.772 109.539L104.167 109.479L103.187 103.001L102.791 103.061ZM103.985 109.708L104.137 109.696L104.105 109.297L103.953 109.309L103.985 109.708ZM104.207 109.677L106.042 108.805L105.871 108.443L104.035 109.316L104.207 109.677ZM105.973 108.823C106.948 108.745 107.782 109.173 108.482 110.162C109.188 111.161 109.749 112.721 110.149 114.864L110.543 114.79C110.138 112.626 109.564 110.999 108.808 109.931C108.045 108.852 107.086 108.332 105.941 108.425L105.973 108.823ZM110.151 114.871C110.424 116.08 110.659 117.88 110.852 120.276L111.251 120.244C111.057 117.842 110.821 116.02 110.541 114.783L110.151 114.871ZM110.852 120.276L111.1 123.344L111.498 123.312L111.251 120.244L110.852 120.276ZM111.1 123.344C111.137 123.805 111.076 124.122 110.951 124.323C110.834 124.513 110.642 124.629 110.339 124.653L110.371 125.052C110.774 125.02 111.094 124.853 111.291 124.534C111.481 124.227 111.539 123.81 111.498 123.312L111.1 123.344ZM110.339 124.653L110.187 124.666L110.219 125.064L110.371 125.052L110.339 124.653ZM110.216 124.665C109.9 124.644 109.684 124.558 109.543 124.429C109.404 124.302 109.314 124.112 109.291 123.833L108.893 123.865C108.921 124.218 109.041 124.512 109.273 124.724C109.502 124.934 109.817 125.04 110.19 125.065L110.216 124.665ZM109.291 123.833L109.004 120.273L108.605 120.305L108.893 123.865L109.291 123.833ZM109.004 120.273C108.773 117.415 108.454 115.197 108.045 113.625C107.84 112.839 107.611 112.206 107.354 111.732C107.098 111.263 106.803 110.926 106.455 110.771L106.292 111.137C106.524 111.24 106.765 111.486 107.002 111.923C107.238 112.357 107.457 112.955 107.658 113.725C108.058 115.264 108.375 117.456 108.605 120.305L109.004 120.273ZM106.357 110.755L106.13 110.773L106.162 111.172L106.39 111.153L106.357 110.755ZM106.13 110.773C105.63 110.813 105.283 111.23 105.045 111.852C104.803 112.482 104.645 113.395 104.561 114.577L104.96 114.606C105.043 113.436 105.198 112.57 105.419 111.995C105.642 111.41 105.904 111.193 106.162 111.172L106.13 110.773ZM104.562 114.608L104.733 116.729L105.131 116.697L104.96 114.575L104.562 114.608ZM104.733 116.729C104.885 118.62 104.92 120.033 104.84 120.976C104.8 121.449 104.732 121.789 104.644 122.007C104.553 122.234 104.468 122.268 104.428 122.271L104.46 122.67C104.735 122.648 104.908 122.423 105.015 122.157C105.125 121.883 105.197 121.496 105.239 121.01C105.322 120.033 105.285 118.593 105.131 116.697L104.733 116.729ZM104.407 122.274L103.693 122.408L103.767 122.801L104.481 122.667L104.407 122.274ZM103.714 122.405C103.492 122.423 103.263 122.287 103.055 121.804C102.849 121.325 102.699 120.572 102.615 119.53L102.217 119.562C102.302 120.616 102.455 121.421 102.688 121.962C102.918 122.498 103.262 122.843 103.746 122.804L103.714 122.405ZM102.616 119.537C102.512 117.313 102.517 115.492 102.63 114.071L102.231 114.04C102.117 115.484 102.112 117.323 102.216 119.556L102.616 119.537ZM102.628 114.027L100.827 101.629L100.431 101.687L102.232 114.084L102.628 114.027ZM100.828 101.642C100.805 101.355 100.874 101.16 101.005 101.026C101.142 100.886 101.376 100.781 101.743 100.739L101.698 100.342C101.284 100.389 100.946 100.514 100.719 100.747C100.486 100.985 100.4 101.305 100.43 101.674L100.828 101.642ZM116.325 106.72L116.314 106.52L116.309 106.52L116.325 106.72ZM121.866 111.61L122.062 111.57L122.053 111.522L122.022 111.484L121.866 111.61ZM121.994 112.247L122.193 112.231L122.192 112.22L122.19 112.208L121.994 112.247ZM116.936 114.295L116.899 114.099L116.829 114.112L116.784 114.165L116.936 114.295ZM116.832 114.418L116.679 114.288L116.626 114.351L116.632 114.434L116.832 114.418ZM116.844 114.569L116.645 114.585L116.647 114.608L116.654 114.63L116.844 114.569ZM122.703 114.897L122.687 114.698L122.601 114.704L122.547 114.772L122.703 114.897ZM124.193 115.882L124.393 115.866L124.39 115.83L124.374 115.796L124.193 115.882ZM121.266 119.283L121.381 119.446L121.387 119.442L121.393 119.437L121.266 119.283ZM119.316 120.164L119.332 120.364L119.351 120.362L119.37 120.357L119.316 120.164ZM114.571 114.753L114.763 114.696L114.724 114.563L114.585 114.553L114.571 114.753ZM113.912 112.252L114.111 112.236L114.092 111.991L113.856 112.06L113.912 112.252ZM113.924 112.403L113.725 112.419L113.749 112.714L114.013 112.582L113.924 112.403ZM114.291 112.221L114.38 112.4L114.501 112.34L114.49 112.205L114.291 112.221ZM116.772 109.428L116.885 109.263L116.827 109.223L116.756 109.229L116.772 109.428ZM116.431 109.456L116.415 109.257L116.236 109.271L116.231 109.45L116.431 109.456ZM116.393 110.87L116.193 110.864L116.193 110.875L116.194 110.886L116.393 110.87ZM116.488 112.044L116.288 112.06L116.304 112.259L116.504 112.243L116.488 112.044ZM116.639 112.032L116.655 112.231L116.662 112.23L116.639 112.032ZM118.724 111.406L118.923 111.39L118.918 111.329L118.881 111.282L118.724 111.406ZM116.336 106.919C116.535 106.908 116.801 106.98 117.144 107.169C117.484 107.356 117.881 107.648 118.337 108.05C119.248 108.854 120.372 110.081 121.711 111.735L122.022 111.484C120.678 109.822 119.537 108.576 118.601 107.75C118.134 107.337 117.712 107.025 117.337 106.818C116.965 106.614 116.62 106.503 116.314 106.52L116.336 106.919ZM121.67 111.649L121.798 112.287L122.19 112.208L122.062 111.57L121.67 111.649ZM121.795 112.263C121.801 112.349 121.761 112.467 121.58 112.621C121.4 112.774 121.111 112.937 120.697 113.104C119.873 113.438 118.61 113.77 116.899 114.099L116.974 114.491C118.692 114.162 119.986 113.824 120.847 113.475C121.277 113.301 121.612 113.119 121.84 112.925C122.066 112.732 122.215 112.5 122.193 112.231L121.795 112.263ZM116.784 114.165L116.679 114.288L116.984 114.547L117.089 114.425L116.784 114.165ZM116.632 114.434L116.645 114.585L117.043 114.553L117.031 114.402L116.632 114.434ZM116.654 114.63C117.012 115.75 117.357 116.597 117.693 117.162C117.86 117.444 118.031 117.667 118.208 117.818C118.386 117.969 118.586 118.06 118.802 118.043L118.77 117.644C118.695 117.65 118.596 117.623 118.467 117.513C118.337 117.403 118.193 117.222 118.037 116.958C117.725 116.432 117.39 115.619 117.034 114.508L116.654 114.63ZM118.802 118.043L119.256 118.006L119.224 117.608L118.77 117.644L118.802 118.043ZM119.256 118.006C119.724 117.969 120.255 117.676 120.841 117.184C121.432 116.687 122.105 115.964 122.86 115.022L122.547 114.772C121.801 115.704 121.146 116.404 120.583 116.877C120.014 117.355 119.564 117.58 119.224 117.608L119.256 118.006ZM122.719 115.096L122.947 115.078L122.915 114.679L122.687 114.698L122.719 115.096ZM122.947 115.078C123.326 115.047 123.689 115.285 124.013 115.968L124.374 115.796C124.024 115.059 123.545 114.628 122.915 114.679L122.947 115.078ZM123.994 115.898C124.002 115.995 123.97 116.139 123.862 116.342C123.755 116.541 123.585 116.779 123.347 117.056C122.869 117.611 122.135 118.301 121.138 119.129L121.393 119.437C122.397 118.603 123.151 117.897 123.65 117.317C123.899 117.028 124.089 116.765 124.215 116.53C124.338 116.297 124.41 116.073 124.393 115.866L123.994 115.898ZM121.15 119.119C120.644 119.477 120.016 119.762 119.263 119.972L119.37 120.357C120.158 120.138 120.829 119.835 121.381 119.446L121.15 119.119ZM119.3 119.965C118.352 120.042 117.504 119.667 116.746 118.804C115.983 117.933 115.319 116.57 114.763 114.696L114.38 114.81C114.942 116.708 115.627 118.134 116.446 119.067C117.27 120.008 118.235 120.452 119.332 120.364L119.3 119.965ZM114.585 114.553C114.015 114.513 113.607 114.389 113.339 114.202C113.081 114.021 112.939 113.773 112.912 113.438L112.514 113.47C112.55 113.918 112.75 114.278 113.11 114.53C113.462 114.775 113.952 114.909 114.557 114.952L114.585 114.553ZM112.912 113.438C112.895 113.22 112.961 113.038 113.121 112.878C113.287 112.711 113.562 112.562 113.968 112.444L113.856 112.06C113.418 112.187 113.071 112.362 112.837 112.596C112.597 112.837 112.486 113.133 112.514 113.47L112.912 113.438ZM113.713 112.268L113.725 112.419L114.124 112.387L114.111 112.236L113.713 112.268ZM114.013 112.582L114.38 112.4L114.202 112.042L113.835 112.224L114.013 112.582ZM114.49 112.205L114.414 111.258L114.015 111.29L114.091 112.237L114.49 112.205ZM114.414 111.258C114.297 109.818 114.417 108.754 114.748 108.042C115.07 107.347 115.593 106.979 116.341 106.919L116.309 106.52C115.415 106.592 114.766 107.05 114.385 107.874C114.011 108.679 113.897 109.826 114.015 111.29L114.414 111.258ZM116.756 109.229L116.415 109.257L116.447 109.655L116.788 109.628L116.756 109.229ZM116.231 109.45L116.193 110.864L116.593 110.875L116.631 109.461L116.231 109.45ZM116.194 110.886L116.288 112.06L116.687 112.028L116.592 110.853L116.194 110.886ZM116.504 112.243L116.655 112.231L116.623 111.832L116.472 111.844L116.504 112.243ZM116.662 112.23C117.37 112.148 117.911 112.053 118.275 111.943C118.456 111.889 118.608 111.827 118.718 111.752C118.823 111.68 118.937 111.561 118.923 111.39L118.524 111.422C118.521 111.377 118.555 111.378 118.492 111.422C118.433 111.462 118.327 111.51 118.16 111.56C117.83 111.659 117.318 111.751 116.616 111.833L116.662 112.23ZM118.881 111.282C118.14 110.344 117.475 109.667 116.885 109.263L116.659 109.593C117.2 109.963 117.835 110.604 118.567 111.53L118.881 111.282ZM134.002 107.313L134.201 107.297L134.2 107.284L134.197 107.27L134.002 107.313ZM130.786 114.702L130.648 114.557L130.486 114.712L130.658 114.855L130.786 114.702ZM138.649 116.24L138.695 116.045L138.664 116.038L138.633 116.041L138.649 116.24ZM130.379 117.213L130.448 117.025L130.154 116.917L130.18 117.229L130.379 117.213ZM127.339 114.98L127.539 114.964L127.538 114.953L127.536 114.943L127.339 114.98ZM127.14 113.929L126.942 113.902L126.938 113.934L126.944 113.966L127.14 113.929ZM127.307 112.695L127.506 112.722L127.51 112.693L127.505 112.665L127.307 112.695ZM126.749 109.081L126.549 109.097L126.55 109.104L126.551 109.111L126.749 109.081ZM127.684 107.442L127.766 107.624L127.839 107.591L127.87 107.517L127.684 107.442ZM129.668 112.657L129.469 112.673L129.485 112.873L129.684 112.857L129.668 112.657ZM131.812 108.519L132.006 108.569L132.014 108.537L132.011 108.503L131.812 108.519ZM131.681 106.891L131.88 106.874L131.874 106.797L131.816 106.744L131.681 106.891ZM131.186 106.435L131.322 106.288L131.258 106.228L131.17 106.236L131.186 106.435ZM130.845 106.462L130.829 106.263L130.768 106.268L130.72 106.307L130.845 106.462ZM130.908 104.409C131.651 104.349 132.249 104.559 132.722 105.031C133.202 105.51 133.57 106.276 133.807 107.356L134.197 107.27C133.952 106.153 133.56 105.303 133.004 104.747C132.44 104.185 131.724 103.942 130.876 104.01L130.908 104.409ZM133.803 107.329L133.83 107.67L134.229 107.638L134.201 107.297L133.803 107.329ZM133.83 107.67C134.022 110.041 132.98 112.335 130.648 114.557L130.924 114.847C133.313 112.57 134.433 110.166 134.229 107.638L133.83 107.67ZM130.658 114.855C132.301 116.228 134.989 116.736 138.666 116.44L138.633 116.041C134.987 116.335 132.433 115.818 130.914 114.548L130.658 114.855ZM138.604 116.435C138.856 116.493 139.034 116.6 139.156 116.744C139.277 116.89 139.356 117.091 139.378 117.363L139.777 117.331C139.75 116.998 139.65 116.711 139.462 116.487C139.274 116.263 139.012 116.119 138.695 116.045L138.604 116.435ZM139.378 117.363C139.402 117.657 139.325 117.856 139.174 117.993C139.013 118.138 138.74 118.243 138.318 118.277L138.351 118.676C138.812 118.639 139.188 118.52 139.443 118.289C139.706 118.05 139.808 117.718 139.777 117.331L139.378 117.363ZM138.318 118.277C135.878 118.474 133.256 118.06 130.448 117.025L130.31 117.4C133.16 118.451 135.841 118.879 138.351 118.676L138.318 118.277ZM130.18 117.229L130.268 118.327L130.667 118.295L130.578 117.197L130.18 117.229ZM130.268 118.327C130.373 119.62 130.31 120.574 130.097 121.207C129.992 121.522 129.853 121.747 129.69 121.897C129.529 122.045 129.336 122.129 129.1 122.148L129.132 122.546C129.452 122.521 129.731 122.403 129.961 122.192C130.188 121.983 130.357 121.692 130.477 121.334C130.715 120.623 130.773 119.604 130.667 118.295L130.268 118.327ZM129.1 122.148C128.979 122.157 128.857 122.113 128.727 121.971C128.591 121.824 128.457 121.582 128.333 121.225C128.085 120.515 127.898 119.417 127.777 117.918L127.379 117.951C127.5 119.457 127.691 120.597 127.955 121.357C128.088 121.736 128.244 122.037 128.432 122.242C128.626 122.453 128.862 122.568 129.132 122.546L129.1 122.148ZM127.777 117.918L127.539 114.964L127.14 114.996L127.379 117.951L127.777 117.918ZM127.536 114.943L127.337 113.891L126.944 113.966L127.143 115.017L127.536 114.943ZM127.338 113.956L127.506 112.722L127.109 112.668L126.942 113.902L127.338 113.956ZM127.505 112.665L126.946 109.05L126.551 109.111L127.11 112.726L127.505 112.665ZM126.948 109.064L126.936 108.913L126.537 108.945L126.549 109.097L126.948 109.064ZM126.936 108.913C126.911 108.608 126.97 108.359 127.101 108.153C127.233 107.946 127.448 107.768 127.766 107.624L127.602 107.26C127.233 107.426 126.947 107.65 126.763 107.938C126.578 108.229 126.507 108.568 126.537 108.945L126.936 108.913ZM127.87 107.517C128.687 105.487 129.713 104.505 130.908 104.409L130.876 104.01C129.445 104.125 128.332 105.298 127.498 107.367L127.87 107.517ZM129.684 112.857C129.93 112.837 130.154 112.707 130.355 112.507C130.556 112.307 130.747 112.025 130.931 111.67C131.299 110.961 131.656 109.924 132.006 108.569L131.618 108.469C131.271 109.814 130.923 110.817 130.576 111.486C130.402 111.821 130.234 112.064 130.073 112.224C129.913 112.383 129.772 112.448 129.652 112.458L129.684 112.857ZM132.011 108.503L131.88 106.874L131.481 106.907L131.613 108.535L132.011 108.503ZM131.816 106.744L131.322 106.288L131.051 106.582L131.545 107.038L131.816 106.744ZM131.17 106.236L130.829 106.263L130.862 106.662L131.202 106.634L131.17 106.236ZM130.72 106.307C130.142 106.773 129.768 107.555 129.567 108.609C129.366 109.666 129.335 111.023 129.469 112.673L129.867 112.641C129.736 111.009 129.769 109.692 129.96 108.684C130.152 107.673 130.499 106.999 130.971 106.618L130.72 106.307ZM144.379 104.455L144.368 104.255L144.363 104.256L144.379 104.455ZM149.92 109.345L150.116 109.306L150.107 109.257L150.076 109.219L149.92 109.345ZM150.048 109.983L150.247 109.967L150.246 109.955L150.244 109.943L150.048 109.983ZM144.99 112.03L144.953 111.834L144.883 111.847L144.838 111.901L144.99 112.03ZM144.886 112.153L144.733 112.024L144.68 112.087L144.686 112.169L144.886 112.153ZM144.898 112.305L144.699 112.321L144.7 112.344L144.708 112.366L144.898 112.305ZM150.757 112.632L150.741 112.433L150.655 112.44L150.601 112.507L150.757 112.632ZM152.247 113.618L152.447 113.601L152.444 113.565L152.428 113.532L152.247 113.618ZM149.32 117.018L149.435 117.182L149.441 117.177L149.447 117.172L149.32 117.018ZM147.37 117.9L147.386 118.099L147.405 118.098L147.424 118.093L147.37 117.9ZM142.625 112.488L142.817 112.431L142.778 112.298L142.639 112.289L142.625 112.488ZM141.966 109.987L142.165 109.971L142.146 109.726L141.91 109.795L141.966 109.987ZM141.978 110.139L141.779 110.155L141.803 110.449L142.067 110.318L141.978 110.139ZM142.345 109.956L142.434 110.136L142.555 110.075L142.544 109.94L142.345 109.956ZM144.826 107.164L144.939 106.999L144.881 106.959L144.81 106.964L144.826 107.164ZM144.485 107.191L144.469 106.992L144.29 107.006L144.285 107.186L144.485 107.191ZM144.447 108.605L144.247 108.6L144.247 108.61L144.247 108.621L144.447 108.605ZM144.542 109.779L144.342 109.795L144.358 109.995L144.558 109.978L144.542 109.779ZM144.693 109.767L144.709 109.966L144.716 109.966L144.693 109.767ZM146.778 109.141L146.977 109.125L146.972 109.065L146.934 109.017L146.778 109.141ZM144.39 104.655C144.589 104.644 144.855 104.716 145.198 104.904C145.538 105.091 145.935 105.383 146.391 105.785C147.302 106.589 148.426 107.816 149.765 109.471L150.076 109.219C148.732 107.558 147.591 106.311 146.655 105.485C146.188 105.072 145.766 104.76 145.391 104.554C145.019 104.349 144.674 104.238 144.368 104.255L144.39 104.655ZM149.724 109.384L149.852 110.022L150.244 109.943L150.116 109.306L149.724 109.384ZM149.849 109.999C149.855 110.084 149.815 110.202 149.634 110.356C149.454 110.51 149.165 110.672 148.751 110.84C147.927 111.173 146.664 111.506 144.953 111.834L145.028 112.227C146.746 111.897 148.04 111.559 148.901 111.21C149.331 111.036 149.666 110.855 149.894 110.661C150.12 110.467 150.269 110.235 150.247 109.967L149.849 109.999ZM144.838 111.901L144.733 112.024L145.038 112.283L145.143 112.16L144.838 111.901ZM144.686 112.169L144.699 112.321L145.097 112.289L145.085 112.137L144.686 112.169ZM144.708 112.366C145.066 113.485 145.411 114.332 145.747 114.898C145.914 115.18 146.085 115.402 146.262 115.553C146.44 115.705 146.64 115.796 146.856 115.778L146.824 115.38C146.749 115.386 146.65 115.358 146.521 115.248C146.391 115.138 146.247 114.957 146.091 114.694C145.779 114.167 145.444 113.354 145.088 112.244L144.708 112.366ZM146.856 115.778L147.31 115.742L147.278 115.343L146.824 115.38L146.856 115.778ZM147.31 115.742C147.778 115.704 148.309 115.411 148.895 114.919C149.486 114.422 150.159 113.7 150.913 112.757L150.601 112.507C149.855 113.44 149.2 114.14 148.637 114.613C148.068 115.091 147.618 115.316 147.278 115.343L147.31 115.742ZM150.773 112.832L151.001 112.813L150.969 112.415L150.741 112.433L150.773 112.832ZM151.001 112.813C151.38 112.783 151.743 113.021 152.067 113.703L152.428 113.532C152.078 112.795 151.599 112.364 150.969 112.415L151.001 112.813ZM152.048 113.634C152.056 113.73 152.023 113.874 151.915 114.077C151.809 114.276 151.639 114.514 151.401 114.792C150.923 115.346 150.189 116.036 149.192 116.864L149.447 117.172C150.451 116.339 151.205 115.632 151.704 115.053C151.953 114.763 152.143 114.5 152.268 114.265C152.392 114.033 152.463 113.808 152.447 113.601L152.048 113.634ZM149.204 116.855C148.698 117.212 148.07 117.497 147.317 117.707L147.424 118.093C148.211 117.873 148.883 117.571 149.435 117.182L149.204 116.855ZM147.354 117.701C146.406 117.777 145.557 117.402 144.8 116.539C144.037 115.668 143.372 114.306 142.817 112.431L142.434 112.545C142.996 114.444 143.681 115.869 144.5 116.803C145.324 117.743 146.289 118.188 147.386 118.099L147.354 117.701ZM142.639 112.289C142.069 112.248 141.661 112.124 141.393 111.937C141.135 111.756 140.993 111.508 140.966 111.173L140.568 111.206C140.604 111.654 140.804 112.013 141.164 112.265C141.516 112.511 142.006 112.645 142.611 112.688L142.639 112.289ZM140.966 111.173C140.949 110.955 141.015 110.773 141.175 110.613C141.341 110.447 141.616 110.297 142.022 110.179L141.91 109.795C141.472 109.923 141.125 110.097 140.891 110.331C140.651 110.572 140.54 110.868 140.568 111.206L140.966 111.173ZM141.767 110.003L141.779 110.155L142.178 110.122L142.165 109.971L141.767 110.003ZM142.067 110.318L142.434 110.136L142.256 109.777L141.889 109.959L142.067 110.318ZM142.544 109.94L142.468 108.993L142.069 109.026L142.145 109.973L142.544 109.94ZM142.468 108.993C142.351 107.554 142.471 106.49 142.802 105.777C143.124 105.082 143.647 104.715 144.395 104.654L144.363 104.256C143.469 104.328 142.82 104.786 142.439 105.609C142.065 106.415 141.951 107.561 142.069 109.026L142.468 108.993ZM144.81 106.964L144.469 106.992L144.501 107.391L144.842 107.363L144.81 106.964ZM144.285 107.186L144.247 108.6L144.647 108.61L144.685 107.197L144.285 107.186ZM144.247 108.621L144.342 109.795L144.741 109.763L144.646 108.589L144.247 108.621ZM144.558 109.978L144.709 109.966L144.677 109.568L144.526 109.58L144.558 109.978ZM144.716 109.966C145.424 109.883 145.965 109.788 146.329 109.679C146.51 109.624 146.662 109.562 146.772 109.487C146.877 109.415 146.991 109.296 146.977 109.125L146.578 109.157C146.575 109.112 146.609 109.114 146.546 109.157C146.487 109.198 146.381 109.245 146.214 109.295C145.884 109.395 145.372 109.486 144.67 109.568L144.716 109.966ZM146.934 109.017C146.194 108.079 145.529 107.402 144.939 106.999L144.713 107.329C145.254 107.698 145.889 108.339 146.621 109.265L146.934 109.017ZM154.06 91.4739L154.12 91.2832L154.07 91.2673L154.018 91.2783L154.06 91.4739ZM155.18 92.6034L154.981 92.6195L154.982 92.6251L155.18 92.6034ZM157.305 108.063L157.496 108.122L157.511 108.073L157.501 108.023L157.305 108.063ZM154.518 104.704L154.717 104.688L154.716 104.668L154.71 104.648L154.518 104.704ZM152.974 92.6671L152.775 92.6832L152.775 92.6876L152.974 92.6671ZM156.391 117.515L156.195 117.475L156.181 117.54L156.21 117.601L156.391 117.515ZM158.853 117.316L159.045 117.372L159.063 117.308L159.04 117.245L158.853 117.316ZM154 91.6646C154.332 91.7698 154.569 91.9061 154.726 92.0642C154.88 92.2188 154.963 92.4013 154.981 92.6195L155.38 92.5873C155.355 92.2753 155.23 92.0044 155.01 91.7825C154.793 91.564 154.492 91.4007 154.12 91.2832L154 91.6646ZM154.982 92.6251C155.763 99.7807 156.472 104.941 157.109 108.102L157.501 108.023C156.868 104.882 156.16 99.7362 155.379 92.5817L154.982 92.6251ZM157.114 108.003C156.925 108.616 156.631 108.869 156.267 108.899L156.299 109.298C156.895 109.249 157.283 108.813 157.496 108.122L157.114 108.003ZM156.267 108.899C155.94 108.925 155.614 108.697 155.327 107.982C155.044 107.278 154.838 106.185 154.717 104.688L154.319 104.72C154.44 106.228 154.65 107.37 154.956 108.131C155.257 108.881 155.692 109.347 156.299 109.298L156.267 108.899ZM154.71 104.648C154.557 104.12 154.351 102.86 154.093 100.85C153.836 98.8461 153.529 96.1119 153.173 92.6467L152.775 92.6876C153.132 96.1541 153.438 98.8921 153.696 100.901C153.953 102.902 154.162 104.195 154.326 104.76L154.71 104.648ZM153.174 92.651C153.152 92.3799 153.218 92.1806 153.356 92.0299C153.498 91.8736 153.737 91.7469 154.101 91.6696L154.018 91.2783C153.609 91.3651 153.279 91.5194 153.06 91.7608C152.835 92.0079 152.746 92.3231 152.775 92.6832L153.174 92.651ZM156.587 117.555C156.665 117.174 156.788 116.905 156.943 116.728C157.094 116.556 157.284 116.462 157.524 116.442L157.492 116.043C157.152 116.071 156.865 116.212 156.643 116.464C156.426 116.711 156.281 117.054 156.195 117.475L156.587 117.555ZM157.524 116.442C157.78 116.421 157.992 116.486 158.174 116.631C158.361 116.78 158.528 117.025 158.666 117.387L159.04 117.245C158.887 116.843 158.685 116.527 158.424 116.318C158.157 116.105 157.842 116.015 157.492 116.043L157.524 116.442ZM158.661 117.26C158.45 117.986 158.131 118.279 157.751 118.31L157.783 118.709C158.414 118.658 158.818 118.155 159.045 117.372L158.661 117.26ZM157.751 118.31L157.638 118.319L157.67 118.718L157.783 118.709L157.751 118.31ZM157.638 118.319C157.258 118.35 156.895 118.112 156.571 117.429L156.21 117.601C156.56 118.338 157.039 118.769 157.67 118.718L157.638 118.319Z" fill="white"/>
<path d="M188 89.0215C222.7 89.9748 252.689 69.5967 257.902 66.9074" stroke="black" stroke-width="2" stroke-linecap="round" stroke-linejoin="round"/>
<path d="M249.372 75.177C253.185 73.8366 256.302 71.0341 258.49 67.6742" stroke="black" stroke-width="2" stroke-linecap="round" stroke-linejoin="round"/>
<path d="M247.948 62.9867C250.42 63.5668 252.9 64.1171 255.363 64.7349C257.004 65.1464 258.716 65.5506 260.011 66.6748" stroke="black" stroke-width="2" stroke-linecap="round" stroke-linejoin="round"/>
</svg>
