<svg width="180" height="96" viewBox="0 0 180 96" fill="none" xmlns="http://www.w3.org/2000/svg">
<path d="M3.02246 42.9821C3.58065 42.937 4.06253 44.1341 4.46812 46.5734C4.83064 47.6838 5.07569 48.2339 5.20328 48.2236L5.34681 48.212C5.66441 47.1751 5.7833 46.1622 5.70348 45.1735L5.4267 43.5344C5.56737 43.0897 5.79719 42.8544 6.11615 42.8287C6.70623 42.781 7.08559 43.8018 7.25424 45.891C7.78019 48.0316 8.11847 50.0349 8.2691 51.9008L8.35986 53.0252C8.63665 56.454 7.85049 58.845 6.00137 60.1982L5.48281 60.3364C4.57376 60.4098 3.66028 59.6327 2.74236 58.0053L2.41119 56.5874L2.4054 56.5156C2.32043 55.463 2.57299 54.9129 3.16307 54.8653L3.79202 55.1998L3.84191 56.7127C3.90113 57.4463 4.33578 58.1576 5.14585 58.8467L5.45684 58.8216C6.33398 58.7508 6.84471 57.0241 6.989 53.6415L6.92484 52.2501C6.77887 50.6407 6.63204 49.6172 6.48436 49.1796C5.89149 49.7893 5.41165 50.1089 5.04485 50.1386C4.23149 50.2042 3.33012 48.0859 2.34074 43.7835L2.26511 43.7415C2.2355 43.3747 2.48795 43.1215 3.02246 42.9821ZM12.9844 40.3239C14.1646 40.2286 15.1285 41.0337 15.8761 42.7391L16.0124 43.2337C16.1501 44.9401 15.4937 46.7508 14.0431 48.6658C13.4528 49.3073 12.8307 49.6545 12.1768 49.7073C11.2199 49.7845 10.4977 49.2891 10.0102 48.2208C9.82547 47.7221 9.71766 47.2813 9.68676 46.8986L9.66359 46.6115C9.46018 44.0917 10.2227 42.1039 11.9512 40.6481C12.2573 40.4629 12.6017 40.3548 12.9844 40.3239ZM11.0943 46.7368C11.1819 47.8212 11.5047 48.341 12.0629 48.2959C13.2271 48.2019 14.0716 46.6329 14.5964 43.5888L14.5597 43.1343C14.2087 42.1674 13.6665 41.7135 12.9329 41.7727C12.6458 41.7959 12.5183 42.0069 12.5505 42.4056C12.5724 42.6767 12.2708 42.9177 11.6458 43.1287C11.1636 44.1147 10.9797 45.3174 11.0943 46.7368ZM18.6408 41.6972L19.0521 41.4232C19.4348 41.3923 19.7326 41.6011 19.9453 42.0494C19.7854 43.2502 19.7557 44.4725 19.8561 45.7165C19.9063 46.3384 20.1444 47.0014 20.5705 47.7054L20.714 47.6939C21.1765 47.6565 21.5793 45.786 21.9224 42.0824C22.1302 41.873 22.3378 41.76 22.5451 41.7432C23.0395 41.7033 23.3575 42.5605 23.4992 44.3148C23.8623 46.2278 24.1714 47.174 24.4266 47.1534L24.7738 46.9809C25.2505 47.119 25.5017 47.3475 25.5274 47.6665C25.2893 48.2957 24.915 48.6309 24.4047 48.6721C23.8306 48.7184 23.234 48.1887 22.615 47.0829C22.0852 48.4741 21.4934 49.196 20.8395 49.2488C19.8667 49.3273 19.1071 48.3693 18.5609 46.3748L18.4273 45.6151L18.408 45.3759C18.305 44.1 18.3826 42.8738 18.6408 41.6972ZM38.3296 39.1929L39.2988 38.9702C39.6975 38.938 39.9407 39.1672 40.0285 39.6577C40.0632 40.0883 39.5674 40.4092 38.5411 40.6205C37.9284 41.1836 37.6543 41.8639 37.7186 42.6613L37.7824 43.4507C38.243 45.1793 38.856 46.0127 39.6215 45.9509L39.8607 45.9316C40.3073 45.8955 40.943 45.4188 41.7678 44.5015L41.9114 44.4899C42.2303 44.4641 42.5035 44.6668 42.731 45.0979C42.563 45.8017 41.8956 46.4816 40.7286 47.1376C40.513 47.2513 40.2378 47.3217 39.9029 47.3488C38.2602 47.4814 37.0874 46.2758 36.3845 43.7321L36.342 43.2058C36.1914 41.3399 36.8539 40.0023 38.3296 39.1929ZM48.5356 37.2374C49.2373 37.1807 49.6107 37.4315 49.6558 37.9897L49.4772 38.4616L49.687 42.8509C49.8467 44.8285 50.3445 46.0243 51.1805 46.4384L51.2573 46.7933C51.2468 47.2597 51.0502 47.5083 50.6674 47.5392L50.5239 47.5508C49.2621 46.834 48.5637 45.6383 48.4285 43.9638L48.261 43.9773C47.7673 45.815 47.0659 46.7705 46.1569 46.8439C45.2923 46.6729 44.8188 46.0771 44.7364 45.0564C44.5549 42.8077 45.2751 40.4943 46.897 38.1161C47.4631 37.5727 48.0093 37.2798 48.5356 37.2374ZM46.1663 43.9779L46.1247 44.6554L46.1614 45.1099L46.4006 45.0906C47.3559 42.0118 47.8072 40.1454 47.7545 39.4915L47.6588 39.4992C46.8175 40.6105 46.32 42.1034 46.1663 43.9779ZM54.9694 37.8978C56.334 37.9 57.0652 38.5072 57.1631 39.7192L57.236 40.0263L57.4894 43.7621C57.5242 44.1927 57.8184 44.7548 58.372 45.4485L58.3759 45.4964C58.2856 45.9692 58.073 46.2191 57.7381 46.2461C56.7159 45.9113 56.1507 45.074 56.0425 43.7344L56.0174 43.4234L55.9418 43.3814L56.0058 43.2799L56.002 43.232L55.8073 39.925C55.7699 39.4625 55.5519 39.2473 55.1532 39.2795L54.8661 39.3027C54.0945 39.686 53.8367 41.4645 54.0929 44.6382C54.1818 45.7386 53.9471 46.3114 53.3889 46.3564C52.9583 46.3912 52.7131 46.1381 52.6534 45.5971L52.4603 43.2049C52.2106 40.111 52.3568 38.5421 52.899 38.4984L53.1325 38.4073L53.6406 38.4385C54.048 38.1167 54.491 37.9364 54.9694 37.8978ZM72.4607 33.765C73.2103 33.7045 73.793 34.4601 74.2088 36.0317L74.2165 36.1274C74.2461 36.4942 74.0163 36.7295 73.5271 36.8332C73.1284 36.8654 72.8173 36.3929 72.594 35.4157L72.4925 35.3516L72.2054 35.3748C71.8958 35.9135 71.7744 36.5974 71.8414 37.4267L72.0097 38.6171C72.6476 38.5656 73.3278 38.3421 74.0504 37.9467C74.3534 37.9222 74.6498 38.115 74.9398 38.525C74.9926 39.1789 74.1342 39.6816 72.3648 40.0331L73.2776 43.8841C73.3046 44.219 73.0429 44.4569 72.4924 44.5976C71.9981 44.6375 71.6891 43.892 71.5655 42.3609L70.9468 40.3642L69.4112 40.729C69.0763 40.756 68.857 40.5249 68.7533 40.0357C68.7146 39.5572 69.3361 39.2021 70.6176 38.9702L70.4022 37.4948C70.4668 35.1138 71.153 33.8706 72.4607 33.765ZM76.0443 31.7662C76.6606 31.8449 76.9855 32.0915 77.019 32.5062C76.8955 32.9656 76.6584 33.2095 76.3075 33.2378C75.7084 33.1738 75.3896 32.9026 75.351 32.4241C75.4783 32.0126 75.7094 31.7932 76.0443 31.7662ZM77.2237 35.0419C77.4788 35.0213 77.7128 35.2352 77.9256 35.6835L77.8474 37.3994L77.9381 38.5237C78.0437 39.8315 78.4054 41.5279 79.0231 43.6129C78.8881 43.9288 78.6292 44.1022 78.2465 44.1331C77.5926 44.1859 77.0075 42.3069 76.4912 38.4961L76.4236 37.6588C76.2872 35.9683 76.5538 35.096 77.2237 35.0419ZM83.4677 35.5973C84.8323 35.5995 85.5635 36.2067 85.6613 37.4187L85.7343 37.7259L85.9877 41.4616C86.0224 41.8922 86.3166 42.4543 86.8702 43.148L86.8741 43.1959C86.7838 43.6687 86.5713 43.9186 86.2364 43.9456C85.2141 43.6108 84.6489 42.7736 84.5408 41.4339L84.5157 41.1229L84.44 41.0809L84.5041 40.9794L84.5002 40.9315L84.3055 37.6245C84.2681 37.162 84.0501 36.9468 83.6514 36.979L83.3644 37.0022C82.5927 37.3855 82.335 39.164 82.5912 42.3377C82.68 43.4381 82.4453 44.0109 81.8871 44.0559C81.4565 44.0907 81.2114 43.8376 81.1517 43.2966L80.9585 40.9044C80.7088 37.8105 80.855 36.2416 81.3973 36.1979L81.6307 36.1068L82.1389 36.138C82.5463 35.8162 82.9892 35.636 83.4677 35.5973ZM92.9224 29.7296C93.1935 29.7077 93.4613 29.9429 93.7258 30.4352L93.2101 37.1705L93.3607 39.0365C93.5178 40.9821 93.8993 41.9305 94.5053 41.8816C94.9195 42.0408 95.1394 42.2799 95.1652 42.5988C95.1948 42.9656 94.8932 43.2067 94.2604 43.322C93.5587 43.3786 92.9564 42.7771 92.4534 41.5175L92.2142 41.5368C91.7284 42.8763 91.0628 43.5801 90.2176 43.6483C89.2288 43.7281 88.5702 43.0269 88.2419 41.5445C88.1016 39.8061 89.1171 37.8701 91.2885 35.7365C91.751 35.6992 91.9301 35.0346 91.8258 33.7428C91.9668 31.1149 92.3323 29.7772 92.9224 29.7296ZM89.6379 41.2392L89.69 41.8851L90.1037 42.2369L90.2472 42.2253C90.7575 42.1841 91.2314 40.5969 91.6687 37.4635L91.5251 37.4751C90.191 39.0435 89.5619 40.2982 89.6379 41.2392ZM23.8103 75.214C23.8897 74.8062 24.1288 74.5863 24.5275 74.5541C24.9262 74.5219 25.2215 74.8994 25.4135 75.6865L25.5092 75.6788L26.5903 75.3507C27.1006 75.3095 27.6336 75.748 28.1893 76.6663L28.285 76.6586C28.8979 75.5015 29.5711 74.8934 30.3047 74.8342C31.8908 74.9951 32.7547 75.9527 32.8963 77.707L33.0117 78.5404L33.1865 83.39L33.2232 83.8445C33.2554 84.2433 33.0269 84.4945 32.5376 84.5982C32.0432 84.6381 31.749 84.0759 31.6551 82.9117L31.5926 78.5586C31.4639 76.9638 31.0247 76.1966 30.2752 76.2572C29.8446 76.2919 29.4106 77.3784 28.9732 79.5165C28.8633 81.9332 28.7126 83.1492 28.5213 83.1647C28.2501 83.1866 28.1191 83.2533 28.1281 83.365C27.6286 83.3411 27.3608 83.1059 27.3247 82.6593L27.402 79.7396C27.1933 77.75 26.9135 76.7693 26.5626 76.7976L26.4908 76.8034C26.1166 77.1386 25.9655 77.7528 26.0376 78.6459L26.14 79.9137L26.3397 83.5816C26.2603 83.9893 26.0292 84.2086 25.6464 84.2395C25.3115 84.2665 25.0737 84.0048 24.9329 83.4543L24.6094 80.6392L24.5656 78.3072C24.3733 77.1188 24.1216 76.0877 23.8103 75.214ZM36.8635 73.9435C37.5028 73.908 38.6694 74.9375 40.3634 77.0319L40.4441 77.4348C40.4801 77.8813 39.4153 78.3124 37.2498 78.728L37.1838 78.8055L37.1915 78.9012C37.6423 80.3095 38.0511 80.9989 38.4179 80.9692L38.705 80.9461C39.2153 80.9049 39.9444 80.2922 40.8922 79.1081L41.0357 79.0965C41.3547 79.0708 41.6205 79.2821 41.8333 79.7304C41.8642 80.1132 41.2478 80.8291 39.9841 81.8782C39.65 82.1138 39.2396 82.2994 38.7529 82.435C37.4611 82.5393 36.4622 81.4 35.7562 79.0171C35.0136 78.9647 34.6223 78.6913 34.5824 78.1969C34.5541 77.846 34.8065 77.5929 35.3397 77.4375L35.3475 77.5332L35.579 77.4182L35.5307 76.8201C35.3826 74.9861 35.8269 74.0272 36.8635 73.9435ZM37.1461 75.6543L36.9308 75.6717L36.9066 76.5646L36.9664 77.3062L37.0621 77.2984C37.9526 77.1944 38.3915 77.0627 38.3786 76.9032C37.9137 76.3147 37.5029 75.8984 37.1461 75.6543ZM53.3412 67.9663C53.7878 67.9303 54.0548 68.4545 54.1423 69.539L54.7616 73.6304L54.8573 73.6227L56.0167 73.0716C57.3563 72.9635 58.2804 74.2693 58.7889 76.9892C58.9636 77.7617 59.1121 78.9055 59.2344 80.4205L59.3908 82.3582C59.4398 82.9642 59.2409 83.2853 58.7944 83.3213L58.6987 83.3291C58.263 83.3 58.029 83.0862 57.9968 82.6875L57.8153 80.4388C57.5243 76.8345 57.0125 74.8693 56.2799 74.5432L56.1364 74.5548C55.658 74.5934 55.3663 75.3553 55.2615 76.8406L55.3696 78.1802C55.5627 80.5724 55.4599 81.7847 55.0612 81.8168L54.6106 81.9014C54.164 81.9374 53.8873 81.2936 53.7805 79.9699C53.715 78.5626 53.718 77.4066 53.7895 76.5019L52.6518 68.6721C52.6183 68.2574 52.8481 68.0222 53.3412 67.9663ZM62.5649 71.8688C63.2041 71.8333 64.3708 72.8627 66.0648 74.9572L66.1455 75.36C66.1815 75.8066 65.1167 76.2377 62.9512 76.6533L62.8852 76.7308L62.8929 76.8265C63.3437 78.2348 63.7525 78.9241 64.1193 78.8945L64.4063 78.8714C64.9167 78.8302 65.6458 78.2175 66.5936 77.0334L66.7371 77.0218C67.0561 76.9961 67.3219 77.2074 67.5347 77.6557C67.5656 78.0385 66.9492 78.7544 65.6855 79.8035C65.3514 80.0391 64.941 80.2247 64.4543 80.3603C63.1625 80.4646 62.1636 79.3253 61.4576 76.9424C60.715 76.8899 60.3237 76.6165 60.2838 76.1222C60.2555 75.7713 60.5079 75.5182 61.0411 75.3628L61.0489 75.4584L61.2803 75.3434L61.2321 74.7454C61.084 72.9114 61.5283 71.9525 62.5649 71.8688ZM62.8475 73.5796L62.6322 73.597L62.608 74.4899L62.6678 75.2314L62.7635 75.2237C63.654 75.1197 64.0929 74.988 64.08 74.8285C63.6151 74.24 63.2043 73.8237 62.8475 73.5796ZM71.7655 70.2834C72.7702 70.2023 73.4249 70.8557 73.7296 72.2437L73.747 72.459C73.8719 74.006 73.189 75.4897 71.6985 76.9103C72.6969 77.7446 74.3523 78.0685 76.6648 77.8818C77.0247 77.9651 77.22 78.1982 77.2509 78.5809C77.2857 79.0115 77.024 79.2493 76.4658 79.2944C74.9029 79.4206 73.228 79.1545 71.4413 78.4961L71.4973 79.1898C71.6299 80.8325 71.3453 81.6821 70.6436 81.7388C70.1492 81.7787 69.8254 80.8497 69.6722 78.9519L69.5216 77.086L69.3958 76.422L69.5014 75.6429L69.1486 73.3599L69.1408 73.2642C69.1061 72.8336 69.3055 72.5206 69.7392 72.325C70.2608 71.0309 70.9362 70.3503 71.7655 70.2834ZM70.9923 75.6189C71.4548 75.5816 71.9062 74.7104 72.3464 73.0055L72.2634 71.9768L71.9512 71.689L71.7359 71.7064C71.0728 72.2415 70.825 73.5456 70.9923 75.6189ZM80.2832 70.4385C80.9225 70.403 82.0891 71.4324 83.7831 73.5269L83.8638 73.9297C83.8998 74.3763 82.835 74.8074 80.6695 75.223L80.6035 75.3005L80.6112 75.3962C81.062 76.8045 81.4708 77.4938 81.8376 77.4642L82.1247 77.4411C82.635 77.3999 83.3641 76.7872 84.3119 75.6031L84.4554 75.5915C84.7744 75.5658 85.0402 75.7771 85.253 76.2254C85.2839 76.6082 84.6675 77.3241 83.4038 78.3732C83.0697 78.6088 82.6593 78.7944 82.1726 78.93C80.8808 79.0343 79.8819 77.895 79.1759 75.5121C78.4333 75.4597 78.042 75.1863 78.0021 74.6919C77.9738 74.341 78.2262 74.0879 78.7594 73.9325L78.7672 74.0281L78.9987 73.9131L78.9504 73.3151C78.8023 71.4811 79.2466 70.5222 80.2832 70.4385ZM80.5658 72.1493L80.3505 72.1667L80.3263 73.0596L80.3861 73.8011L80.4818 73.7934C81.3723 73.6894 81.8112 73.5577 81.7983 73.3982C81.3334 72.8097 80.9226 72.3934 80.5658 72.1493ZM86.3977 62.24C86.8425 62.3806 87.0784 62.6184 87.1054 62.9533C87.5986 67.4723 88.0459 70.7269 88.4474 72.717C88.3201 73.1286 88.1049 73.3466 87.8019 73.3711C87.2118 73.4187 86.8402 72.4936 86.687 70.5958C86.4868 69.9056 86.1618 67.3716 85.7121 62.9936C85.6799 62.5949 85.9085 62.3437 86.3977 62.24ZM87.8698 78.6868C87.9735 78.1809 88.2087 77.9131 88.5755 77.8834C88.9582 77.8526 89.2413 78.0785 89.4248 78.5613C89.2867 79.038 89.0581 79.2892 88.7392 79.3149L88.6674 79.3207C88.3485 79.3465 88.0826 79.1352 87.8698 78.6868Z" fill="black"/>
<path d="M3.02246 42.9821L3.00637 42.7827L2.98892 42.7841L2.97197 42.7886L3.02246 42.9821ZM4.46812 46.5734L4.27082 46.6062L4.2733 46.6211L4.27799 46.6355L4.46812 46.5734ZM5.34681 48.212L5.3629 48.4114L5.49827 48.4004L5.53804 48.2706L5.34681 48.212ZM5.70348 45.1735L5.90283 45.1574L5.90213 45.1487L5.90069 45.1402L5.70348 45.1735ZM5.4267 43.5344L5.23601 43.4741L5.22146 43.5201L5.22949 43.5677L5.4267 43.5344ZM7.25424 45.891L7.05489 45.9071L7.05618 45.9231L7.06002 45.9387L7.25424 45.891ZM6.00137 60.1982L6.05286 60.3915L6.08917 60.3818L6.11948 60.3596L6.00137 60.1982ZM5.48281 60.3364L5.4989 60.5357L5.51688 60.5343L5.5343 60.5296L5.48281 60.3364ZM2.74236 58.0053L2.5476 58.0508L2.55411 58.0787L2.56816 58.1036L2.74236 58.0053ZM2.41119 56.5874L2.21184 56.6035L2.21304 56.6183L2.21644 56.6329L2.41119 56.5874ZM3.16307 54.8653L3.25698 54.6887L3.20531 54.6612L3.14698 54.6659L3.16307 54.8653ZM3.79202 55.1998L3.99191 55.1932L3.9881 55.0775L3.88593 55.0232L3.79202 55.1998ZM3.84191 56.7127L3.6418 56.7193L3.64256 56.7288L3.84191 56.7127ZM5.14585 58.8467L5.01626 58.999L5.07937 59.0527L5.16194 59.046L5.14585 58.8467ZM6.989 53.6415L7.18882 53.65L7.1892 53.6411L7.18879 53.6323L6.989 53.6415ZM6.92484 52.2501L7.12483 52.2409L7.12403 52.2321L6.92484 52.2501ZM6.48436 49.1796L6.67385 49.1157L6.56917 48.8055L6.34097 49.0402L6.48436 49.1796ZM2.34074 43.7835L2.53565 43.7387L2.51571 43.652L2.43793 43.6087L2.34074 43.7835ZM2.26511 43.7415L2.06576 43.7576L2.07437 43.8643L2.16792 43.9163L2.26511 43.7415ZM3.03856 43.1814C3.0944 43.1769 3.1729 43.1984 3.27834 43.3152C3.38558 43.434 3.50026 43.6308 3.61698 43.9208C3.84959 44.4987 4.06867 45.3904 4.27082 46.6062L4.66541 46.5406C4.46198 45.3171 4.23732 44.3907 3.98805 43.7714C3.86382 43.4628 3.72803 43.2164 3.57525 43.0472C3.42067 42.876 3.22962 42.7647 3.00637 42.7827L3.03856 43.1814ZM4.27799 46.6355C4.4598 47.1924 4.61426 47.6154 4.74111 47.9002C4.80398 48.0413 4.86383 48.1571 4.92098 48.2399C4.94919 48.2807 4.98273 48.3225 5.02247 48.3553C5.05944 48.3859 5.12806 48.4303 5.21937 48.423L5.18719 48.0242C5.21706 48.0218 5.24079 48.0284 5.25542 48.0346C5.26931 48.0404 5.27662 48.0464 5.27738 48.0471C5.27788 48.0475 5.26852 48.0392 5.25015 48.0126C5.21414 47.9605 5.16615 47.8713 5.10649 47.7374C4.98828 47.4721 4.83895 47.0649 4.65824 46.5113L4.27799 46.6355ZM5.21937 48.423L5.3629 48.4114L5.33072 48.0127L5.18719 48.0242L5.21937 48.423ZM5.53804 48.2706C5.86235 47.2118 5.98486 46.1736 5.90283 45.1574L5.50413 45.1896C5.58173 46.1509 5.46647 47.1384 5.15558 48.1534L5.53804 48.2706ZM5.90069 45.1402L5.62391 43.5011L5.22949 43.5677L5.50627 45.2068L5.90069 45.1402ZM5.61739 43.5947C5.7467 43.1859 5.93044 43.0443 6.13224 43.028L6.10006 42.6293C5.66393 42.6645 5.38804 42.9934 5.23601 43.4741L5.61739 43.5947ZM6.13224 43.028C6.21148 43.0216 6.29043 43.047 6.37751 43.1344C6.4701 43.2274 6.56569 43.3858 6.65576 43.6282C6.83559 44.1121 6.97095 44.8672 7.05489 45.9071L7.45359 45.8749C7.36889 44.8256 7.23025 44.0258 7.0307 43.4888C6.93109 43.2208 6.81066 43.0025 6.66089 42.8521C6.50561 42.6962 6.31585 42.6119 6.10006 42.6293L6.13224 43.028ZM7.06002 45.9387C7.58385 48.0707 7.92012 50.0633 8.06975 51.9169L8.46845 51.8847C8.31683 50.0065 7.97653 47.9925 7.44847 45.8433L7.06002 45.9387ZM8.06975 51.9169L8.16051 53.0413L8.55921 53.0091L8.46845 51.8847L8.06975 51.9169ZM8.16051 53.0413C8.43472 56.4382 7.65159 58.7428 5.88326 60.0368L6.11948 60.3596C8.04938 58.9473 8.83858 56.4699 8.55921 53.0091L8.16051 53.0413ZM5.94988 60.005L5.43131 60.1431L5.5343 60.5296L6.05286 60.3915L5.94988 60.005ZM5.46671 60.137C5.08015 60.1682 4.67505 60.0217 4.2455 59.6563C3.81383 59.2891 3.36968 58.7104 2.91656 57.9071L2.56816 58.1036C3.03296 58.9277 3.50451 59.5512 3.98633 59.961C4.47026 60.3726 4.97642 60.5779 5.4989 60.5357L5.46671 60.137ZM2.93712 57.9598L2.60595 56.5419L2.21644 56.6329L2.5476 58.0508L2.93712 57.9598ZM2.61055 56.5713L2.60475 56.4995L2.20605 56.5317L2.21184 56.6035L2.61055 56.5713ZM2.60475 56.4995C2.56324 55.9853 2.60789 55.6257 2.71285 55.397C2.76388 55.2859 2.82739 55.2095 2.89951 55.1584C2.97142 55.1073 3.06217 55.0741 3.17916 55.0646L3.14698 54.6659C2.96893 54.6803 2.80683 54.7337 2.66808 54.8321C2.52954 54.9304 2.42458 55.0663 2.34933 55.2302C2.20174 55.5516 2.16259 55.9933 2.20605 56.5317L2.60475 56.4995ZM3.06916 55.0419L3.69811 55.3764L3.88593 55.0232L3.25698 54.6887L3.06916 55.0419ZM3.59213 55.2064L3.64202 56.7193L4.04181 56.7061L3.99191 55.1932L3.59213 55.2064ZM3.64256 56.7288C3.70764 57.5349 4.18382 58.2909 5.01626 58.999L5.27543 58.6943C4.48774 58.0243 4.09463 57.3577 4.04127 56.6966L3.64256 56.7288ZM5.16194 59.046L5.47293 59.0209L5.44074 58.6222L5.12976 58.6473L5.16194 59.046ZM5.47293 59.0209C5.7636 58.9974 6.00699 58.8357 6.2043 58.5802C6.39912 58.3279 6.55846 57.9733 6.68953 57.5302C6.95195 56.6429 7.11647 55.346 7.18882 53.65L6.78919 53.633C6.71724 55.3195 6.55425 56.5772 6.30595 57.4167C6.18166 57.8369 6.03983 58.1387 5.88769 58.3357C5.73803 58.5296 5.58865 58.6103 5.44074 58.6222L5.47293 59.0209ZM7.18879 53.6323L7.12463 52.2409L6.72506 52.2593L6.78922 53.6507L7.18879 53.6323ZM7.12403 52.2321C6.97866 50.6293 6.83062 49.5801 6.67385 49.1157L6.29486 49.2436C6.43346 49.6542 6.57908 50.652 6.72566 52.2682L7.12403 52.2321ZM6.34097 49.0402C6.05021 49.3392 5.79299 49.5609 5.56895 49.7102C5.34278 49.8608 5.16432 49.9283 5.02875 49.9392L5.06094 50.3379C5.29218 50.3192 5.53704 50.212 5.79071 50.0431C6.0465 49.8727 6.32564 49.6297 6.62774 49.3191L6.34097 49.0402ZM5.02875 49.9392C4.92287 49.9478 4.77136 49.8889 4.57182 49.6501C4.37592 49.4156 4.16518 49.0433 3.94284 48.5207C3.49921 47.4782 3.02964 45.8868 2.53565 43.7387L2.14583 43.8284C2.64122 45.9826 3.11703 47.6016 3.57477 48.6774C3.80311 49.214 4.03205 49.6279 4.26484 49.9065C4.49398 50.1808 4.76014 50.3622 5.06094 50.3379L5.02875 49.9392ZM2.43793 43.6087L2.3623 43.5667L2.16792 43.9163L2.24355 43.9583L2.43793 43.6087ZM2.46446 43.7254C2.45421 43.5984 2.49035 43.5015 2.57385 43.4178C2.66476 43.3266 2.82296 43.2408 3.07295 43.1756L2.97197 42.7886C2.68746 42.8628 2.45217 42.9733 2.29063 43.1353C2.12168 43.3047 2.0464 43.5178 2.06576 43.7576L2.46446 43.7254ZM15.8761 42.7391L16.069 42.6859L16.0651 42.672L16.0593 42.6588L15.8761 42.7391ZM16.0124 43.2337L16.2117 43.2176L16.2102 43.1988L16.2052 43.1806L16.0124 43.2337ZM14.0431 48.6658L14.1903 48.8012L14.1967 48.7941L14.2025 48.7865L14.0431 48.6658ZM10.0102 48.2208L9.82265 48.2903L9.82521 48.2972L9.82826 48.3039L10.0102 48.2208ZM11.9512 40.6481L11.8476 40.477L11.8343 40.4851L11.8223 40.4951L11.9512 40.6481ZM14.5964 43.5888L14.7935 43.6228L14.7978 43.5979L14.7957 43.5727L14.5964 43.5888ZM14.5597 43.1343L14.759 43.1182L14.7569 43.0913L14.7477 43.066L14.5597 43.1343ZM11.6458 43.1287L11.5818 42.9392L11.5028 42.9659L11.4661 43.0408L11.6458 43.1287ZM13.0005 40.5232C14.0502 40.4385 14.9567 41.1399 15.693 42.8194L16.0593 42.6588C15.3003 40.9274 14.279 40.0187 12.9683 40.1245L13.0005 40.5232ZM15.6833 42.7922L15.8196 43.2868L16.2052 43.1806L16.069 42.6859L15.6833 42.7922ZM15.813 43.2498C15.9455 44.8906 15.3165 46.6535 13.8837 48.545L14.2025 48.7865C15.6709 46.8482 16.3548 44.9897 16.2117 43.2176L15.813 43.2498ZM13.8959 48.5303C13.3282 49.1473 12.7498 49.4604 12.1607 49.508L12.1929 49.9067C12.9116 49.8486 13.5773 49.4673 14.1903 48.8012L13.8959 48.5303ZM12.1607 49.508C11.7234 49.5433 11.3502 49.4479 11.0307 49.2287C10.708 49.0073 10.4258 48.6498 10.1921 48.1378L9.82826 48.3039C10.0821 48.8601 10.4048 49.2844 10.8044 49.5585C11.207 49.8348 11.6734 49.9486 12.1929 49.9067L12.1607 49.508ZM10.1978 48.1513C10.0171 47.6637 9.91509 47.2415 9.88611 46.8825L9.48741 46.9146C9.52022 47.3211 9.63382 47.7804 9.82265 48.2903L10.1978 48.1513ZM9.88611 46.8825L9.86294 46.5954L9.46424 46.6276L9.48741 46.9146L9.88611 46.8825ZM9.86294 46.5954C9.66402 44.1312 10.4074 42.2098 12.08 40.8011L11.8223 40.4951C10.038 41.998 9.25634 44.0522 9.46424 46.6276L9.86294 46.5954ZM12.0547 40.8192C12.3323 40.6512 12.6464 40.5518 13.0005 40.5232L12.9683 40.1245C12.557 40.1578 12.1822 40.2745 11.8476 40.477L12.0547 40.8192ZM10.895 46.7529C10.9396 47.3057 11.0456 47.745 11.2322 48.0454C11.3273 48.1985 11.4465 48.3207 11.5935 48.3999C11.7416 48.4796 11.9057 48.5092 12.079 48.4952L12.0468 48.0965C11.941 48.1051 11.8555 48.0866 11.7832 48.0477C11.71 48.0083 11.6384 47.9412 11.572 47.8344C11.4358 47.6151 11.3366 47.2523 11.2937 46.7207L10.895 46.7529ZM12.079 48.4952C12.7592 48.4403 13.309 47.9545 13.7455 47.1434C14.1829 46.3309 14.5297 45.1529 14.7935 43.6228L14.3993 43.5548C14.1383 45.0688 13.8005 46.1973 13.3933 46.9538C12.9854 47.7118 12.5308 48.0575 12.0468 48.0965L12.079 48.4952ZM14.7957 43.5727L14.759 43.1182L14.3603 43.1504L14.397 43.6049L14.7957 43.5727ZM14.7477 43.066C14.5653 42.5636 14.3259 42.1729 14.0181 41.9153C13.7049 41.6532 13.3335 41.5398 12.9168 41.5734L12.9489 41.9721C13.2658 41.9465 13.5323 42.0304 13.7614 42.2221C13.9959 42.4184 14.2031 42.7381 14.3717 43.2025L14.7477 43.066ZM12.9168 41.5734C12.7215 41.5892 12.5537 41.6746 12.4508 41.8449C12.3556 42.0024 12.3336 42.2044 12.3512 42.4217L12.7499 42.3895C12.7352 42.2081 12.7609 42.1052 12.7932 42.0518C12.8177 42.0111 12.8572 41.9795 12.9489 41.9721L12.9168 41.5734ZM12.3512 42.4217C12.3547 42.4657 12.3383 42.5356 12.2159 42.6335C12.0918 42.7327 11.8856 42.8367 11.5818 42.9392L11.7097 43.3182C12.031 43.2098 12.2882 43.0878 12.4656 42.9459C12.6448 42.8027 12.7682 42.6165 12.7499 42.3895L12.3512 42.4217ZM11.4661 43.0408C10.9641 44.0673 10.7783 45.3081 10.895 46.7529L11.2937 46.7207C11.1811 45.3267 11.363 44.1621 11.8254 43.2166L11.4661 43.0408ZM18.6408 41.6972L18.5299 41.5308L18.4627 41.5755L18.4454 41.6544L18.6408 41.6972ZM19.0521 41.4232L19.036 41.2239L18.9843 41.2281L18.9412 41.2568L19.0521 41.4232ZM19.9453 42.0494L20.1436 42.0758L20.1514 42.0171L20.126 41.9637L19.9453 42.0494ZM20.5705 47.7054L20.3994 47.809L20.4634 47.9147L20.5866 47.9048L20.5705 47.7054ZM21.9224 42.0824L21.7805 41.9415L21.7299 41.9925L21.7233 42.064L21.9224 42.0824ZM23.4992 44.3148L23.2998 44.3309L23.3007 44.3416L23.3027 44.3521L23.4992 44.3148ZM24.4266 47.1534L24.4427 47.3527L24.481 47.3496L24.5155 47.3325L24.4266 47.1534ZM24.7738 46.9809L24.8295 46.7888L24.7546 46.7671L24.6848 46.8018L24.7738 46.9809ZM25.5274 47.6665L25.7145 47.7373L25.7304 47.6952L25.7268 47.6504L25.5274 47.6665ZM22.615 47.0829L22.7895 46.9852L22.5804 46.6117L22.4281 47.0117L22.615 47.0829ZM18.5609 46.3748L18.3639 46.4095L18.3655 46.4186L18.368 46.4277L18.5609 46.3748ZM18.4273 45.6151L18.228 45.6312L18.2287 45.6405L18.2304 45.6497L18.4273 45.6151ZM18.7517 41.8637L19.163 41.5897L18.9412 41.2568L18.5299 41.5308L18.7517 41.8637ZM19.0682 41.6226C19.2159 41.6107 19.3392 41.6443 19.4477 41.7204C19.5597 41.7989 19.6679 41.9313 19.7647 42.1351L20.126 41.9637C20.01 41.7191 19.863 41.523 19.6773 41.3928C19.488 41.2602 19.271 41.2049 19.036 41.2239L19.0682 41.6226ZM19.7471 42.023C19.5853 43.2383 19.5552 44.4749 19.6568 45.7326L20.0555 45.7004C19.9562 44.4702 19.9856 43.2621 20.1436 42.0758L19.7471 42.023ZM19.6568 45.7326C19.7101 46.3937 19.9622 47.0865 20.3994 47.809L20.7416 47.6019C20.3267 46.9163 20.1025 46.2832 20.0555 45.7004L19.6568 45.7326ZM20.5866 47.9048L20.7301 47.8932L20.6979 47.4945L20.5544 47.5061L20.5866 47.9048ZM20.7301 47.8932C20.8573 47.8829 20.9579 47.8112 21.0331 47.728C21.1084 47.6446 21.1735 47.5334 21.2318 47.4048C21.3488 47.1467 21.4568 46.7772 21.5585 46.3051C21.7625 45.3578 21.9498 43.9547 22.1216 42.1009L21.7233 42.064C21.5519 43.9138 21.3663 45.2977 21.1675 46.2209C21.0677 46.684 20.9669 47.0206 20.8675 47.2395C20.8177 47.3494 20.7728 47.4194 20.7362 47.4599C20.6995 47.5005 20.6863 47.4954 20.6979 47.4945L20.7301 47.8932ZM22.0644 42.2233C22.2525 42.0338 22.418 41.9541 22.5612 41.9426L22.5291 41.5439C22.2576 41.5658 22.008 41.7123 21.7805 41.9415L22.0644 42.2233ZM22.5612 41.9426C22.6164 41.9381 22.6735 41.9546 22.741 42.0225C22.814 42.0959 22.8922 42.2243 22.9669 42.4257C23.1161 42.8279 23.2294 43.4585 23.2998 44.3309L23.6985 44.2987C23.6273 43.4168 23.5108 42.7417 23.342 42.2866C23.2577 42.0595 23.1548 41.8714 23.0247 41.7405C22.8891 41.6041 22.7211 41.5284 22.5291 41.5439L22.5612 41.9426ZM23.3027 44.3521C23.4846 45.3107 23.6546 46.0357 23.8132 46.5213C23.892 46.7625 23.9716 46.9561 24.0543 47.0917C24.0955 47.1592 24.1435 47.2227 24.2012 47.2702C24.2602 47.3187 24.3427 47.3608 24.4427 47.3527L24.4105 46.954C24.4466 46.9511 24.4636 46.9681 24.4554 46.9614C24.446 46.9536 24.4252 46.9316 24.3958 46.8834C24.3374 46.7877 24.2692 46.629 24.1934 46.3971C24.043 45.9365 23.8768 45.2319 23.6956 44.2775L23.3027 44.3521ZM24.5155 47.3325L24.8628 47.16L24.6848 46.8018L24.3376 46.9743L24.5155 47.3325ZM24.7181 47.173C25.1658 47.3027 25.3124 47.4889 25.3281 47.6826L25.7268 47.6504C25.6909 47.2061 25.3351 46.9353 24.8295 46.7888L24.7181 47.173ZM25.3404 47.5957C25.1194 48.1795 24.7968 48.4398 24.3886 48.4727L24.4208 48.8714C25.0332 48.822 25.4592 48.4118 25.7145 47.7373L25.3404 47.5957ZM24.3886 48.4727C24.1741 48.49 23.9331 48.4029 23.6595 48.16C23.3848 47.9161 23.0937 47.5287 22.7895 46.9852L22.4405 47.1806C22.7553 47.7429 23.072 48.1733 23.3939 48.4591C23.7168 48.7458 24.0611 48.9005 24.4208 48.8714L24.3886 48.4727ZM22.4281 47.0117C22.1669 47.6976 21.8957 48.2035 21.6191 48.5409C21.3429 48.878 21.0767 49.029 20.8234 49.0494L20.8556 49.4481C21.2562 49.4158 21.6129 49.1795 21.9285 48.7945C22.2437 48.41 22.5333 47.8593 22.8019 47.1541L22.4281 47.0117ZM20.8234 49.0494C20.4205 49.082 20.0471 48.9066 19.697 48.4649C19.3417 48.0168 19.024 47.3088 18.7538 46.322L18.368 46.4277C18.644 47.4354 18.9793 48.2036 19.3835 48.7135C19.7929 49.2298 20.2857 49.4942 20.8556 49.4481L20.8234 49.0494ZM18.7579 46.3402L18.6243 45.5805L18.2304 45.6497L18.3639 46.4095L18.7579 46.3402ZM18.6267 45.599L18.6074 45.3598L18.2087 45.392L18.228 45.6312L18.6267 45.599ZM18.6074 45.3598C18.5059 44.1024 18.5825 42.8962 18.8361 41.7401L18.4454 41.6544C18.1828 42.8515 18.1042 44.0976 18.2087 45.392L18.6074 45.3598ZM38.3296 39.1929L38.2848 38.998L38.2577 39.0042L38.2334 39.0175L38.3296 39.1929ZM39.2988 38.9702L39.2827 38.7708L39.2682 38.772L39.254 38.7753L39.2988 38.9702ZM40.0285 39.6577L40.2278 39.6416L40.227 39.632L40.2253 39.6225L40.0285 39.6577ZM38.5411 40.6205L38.5008 40.4246L38.4465 40.4358L38.4058 40.4733L38.5411 40.6205ZM37.7824 43.4507L37.583 43.4668L37.5845 43.4848L37.5891 43.5022L37.7824 43.4507ZM41.7678 44.5015L41.7517 44.3021L41.6724 44.3085L41.6191 44.3677L41.7678 44.5015ZM42.731 45.0979L42.9255 45.1443L42.943 45.0711L42.9078 45.0046L42.731 45.0979ZM40.7286 47.1376L40.8219 47.3146L40.8266 47.312L40.7286 47.1376ZM36.3845 43.7321L36.1851 43.7482L36.1867 43.7671L36.1917 43.7854L36.3845 43.7321ZM38.3743 39.3878L39.3436 39.1651L39.254 38.7753L38.2848 38.998L38.3743 39.3878ZM39.3149 39.1695C39.4699 39.157 39.5707 39.1953 39.6431 39.2635C39.7215 39.3374 39.7917 39.4702 39.8316 39.6929L40.2253 39.6225C40.1774 39.3547 40.0822 39.1277 39.9174 38.9724C39.7465 38.8114 39.5263 38.7512 39.2827 38.7708L39.3149 39.1695ZM39.8291 39.6738C39.8384 39.7894 39.7861 39.9162 39.574 40.0535C39.3572 40.1938 39.0055 40.3207 38.5008 40.4246L38.5814 40.8164C39.1031 40.709 39.5124 40.5699 39.7914 40.3893C40.0751 40.2056 40.2532 39.9566 40.2278 39.6416L39.8291 39.6738ZM38.4058 40.4733C37.7499 41.0761 37.4497 41.8158 37.5193 42.6774L37.918 42.6452C37.8588 41.912 38.107 41.2911 38.6765 40.7678L38.4058 40.4733ZM37.5193 42.6774L37.583 43.4668L37.9817 43.4346L37.918 42.6452L37.5193 42.6774ZM37.5891 43.5022C37.8218 44.3757 38.0981 45.0443 38.4265 45.4907C38.7581 45.9415 39.1626 46.1886 39.6376 46.1502L39.6054 45.7515C39.3149 45.775 39.0301 45.6362 38.7487 45.2537C38.464 44.8667 38.2035 44.2544 37.9756 43.3992L37.5891 43.5022ZM39.6376 46.1502L39.8768 46.1309L39.8446 45.7322L39.6054 45.7515L39.6376 46.1502ZM39.8768 46.1309C40.1569 46.1083 40.4647 45.9528 40.7924 45.707C41.1247 45.4578 41.4996 45.0989 41.9166 44.6352L41.6191 44.3677C41.2112 44.8214 40.8558 45.1595 40.5524 45.387C40.2445 45.6179 40.0111 45.7188 39.8446 45.7322L39.8768 46.1309ZM41.7839 44.7008L41.9275 44.6892L41.8953 44.2905L41.7517 44.3021L41.7839 44.7008ZM41.9275 44.6892C42.128 44.673 42.3417 44.7887 42.5541 45.1912L42.9078 45.0046C42.6654 44.5449 42.3327 44.2552 41.8953 44.2905L41.9275 44.6892ZM42.5364 45.0515C42.3889 45.6699 41.7867 46.3134 40.6306 46.9633L40.8266 47.312C42.0045 46.6498 42.7372 45.9335 42.9255 45.1443L42.5364 45.0515ZM40.6353 46.9607C40.4509 47.058 40.2043 47.1238 39.8868 47.1494L39.919 47.5481C40.2713 47.5197 40.5752 47.4447 40.8219 47.3145L40.6353 46.9607ZM39.8868 47.1494C39.1263 47.2108 38.4805 46.9656 37.9347 46.4046C37.3814 45.8359 36.9244 44.935 36.5773 43.6789L36.1917 43.7854C36.5475 45.073 37.0284 46.0467 37.6479 46.6835C38.2749 47.328 39.0368 47.6193 39.919 47.5481L39.8868 47.1494ZM36.5838 43.716L36.5414 43.1897L36.1427 43.2219L36.1851 43.7482L36.5838 43.716ZM36.5414 43.1897C36.4682 42.2838 36.5936 41.521 36.9051 40.8919C37.216 40.2644 37.719 39.7559 38.4257 39.3683L38.2334 39.0175C37.4644 39.4393 36.8984 40.0043 36.5467 40.7144C36.1957 41.423 36.0652 42.2619 36.1427 43.2219L36.5414 43.1897ZM49.6558 37.9897L49.8428 38.0605L49.8587 38.0184L49.8551 37.9736L49.6558 37.9897ZM49.4772 38.4616L49.2901 38.3908L49.2754 38.4296L49.2774 38.4711L49.4772 38.4616ZM49.687 42.8509L49.4871 42.8605L49.4877 42.867L49.687 42.8509ZM51.1805 46.4384L51.376 46.3961L51.3556 46.3019L51.2693 46.2592L51.1805 46.4384ZM51.2573 46.7933L51.4573 46.7979L51.4578 46.7742L51.4528 46.7511L51.2573 46.7933ZM50.5239 47.5508L50.4251 47.7247L50.4786 47.7551L50.54 47.7502L50.5239 47.5508ZM48.4285 43.9638L48.6278 43.9477L48.6117 43.7483L48.4124 43.7644L48.4285 43.9638ZM48.261 43.9773L48.2449 43.778L48.1045 43.7893L48.0679 43.9254L48.261 43.9773ZM46.1569 46.8439L46.1181 47.0401L46.1453 47.0455L46.173 47.0433L46.1569 46.8439ZM46.897 38.1161L46.7585 37.9718L46.7435 37.9862L46.7318 38.0034L46.897 38.1161ZM46.1663 43.9779L45.9669 43.9615L45.9667 43.9656L46.1663 43.9779ZM46.1247 44.6554L45.925 44.6431L45.9242 44.6573L45.9253 44.6715L46.1247 44.6554ZM46.1614 45.1099L45.962 45.126L45.9781 45.3254L46.1774 45.3093L46.1614 45.1099ZM46.4006 45.0906L46.4167 45.29L46.5515 45.2791L46.5916 45.1499L46.4006 45.0906ZM47.7545 39.4915L47.9538 39.4754L47.9377 39.2761L47.7384 39.2922L47.7545 39.4915ZM47.6588 39.4992L47.6427 39.2999L47.5534 39.3071L47.4993 39.3785L47.6588 39.4992ZM48.5517 37.4367C48.8815 37.4101 49.0973 37.4596 49.2304 37.549C49.3543 37.6322 49.4375 37.7711 49.4564 38.0058L49.8551 37.9736C49.829 37.6501 49.703 37.3845 49.4534 37.2169C49.2132 37.0556 48.8915 37.008 48.5195 37.038L48.5517 37.4367ZM49.4687 37.9189L49.2901 38.3908L49.6642 38.5324L49.8428 38.0605L49.4687 37.9189ZM49.2774 38.4711L49.4873 42.8605L49.8868 42.8414L49.6769 38.452L49.2774 38.4711ZM49.4877 42.867C49.5684 43.8668 49.7354 44.6831 49.9955 45.3078C50.2558 45.933 50.6162 46.3821 51.0918 46.6176L51.2693 46.2592C50.9088 46.0806 50.6023 45.7247 50.3648 45.1541C50.127 44.583 49.9653 43.8126 49.8864 42.8348L49.4877 42.867ZM50.985 46.4807L51.0619 46.8356L51.4528 46.7511L51.376 46.3961L50.985 46.4807ZM51.0574 46.7888C51.0527 46.9982 51.0064 47.1281 50.9451 47.2055C50.8884 47.2773 50.8 47.3279 50.6513 47.3399L50.6835 47.7386C50.9176 47.7197 51.1189 47.6305 51.2588 47.4537C51.3942 47.2825 51.4515 47.0549 51.4573 46.7979L51.0574 46.7888ZM50.6513 47.3399L50.5078 47.3515L50.54 47.7502L50.6835 47.7386L50.6513 47.3399ZM50.6227 47.3769C49.4283 46.6984 48.7587 45.5683 48.6278 43.9477L48.2291 43.9799C48.3687 45.7084 49.096 46.9697 50.4251 47.7247L50.6227 47.3769ZM48.4124 43.7644L48.2449 43.778L48.2771 44.1767L48.4446 44.1631L48.4124 43.7644ZM48.0679 43.9254C47.824 44.833 47.5333 45.5045 47.2035 45.9539C46.8761 46.3998 46.5212 46.6138 46.1408 46.6446L46.173 47.0433C46.7015 47.0006 47.1519 46.7002 47.5259 46.1906C47.8975 45.6844 48.2043 44.9593 48.4542 44.0292L48.0679 43.9254ZM46.1957 46.6477C45.8021 46.5699 45.5126 46.3994 45.3099 46.1444C45.1051 45.8866 44.9749 45.5245 44.9358 45.0403L44.5371 45.0725C44.5804 45.609 44.7281 46.0552 44.9967 46.3932C45.2676 46.734 45.647 46.9469 46.1181 47.0401L46.1957 46.6477ZM44.9358 45.0403C44.7589 42.8485 45.4589 40.5798 47.0622 38.2287L46.7318 38.0034C45.0913 40.4087 44.351 42.7669 44.5371 45.0725L44.9358 45.0403ZM47.0355 38.2604C47.5839 37.734 48.089 37.4741 48.5517 37.4367L48.5195 37.038C47.9296 37.0856 47.3423 37.4115 46.7585 37.9718L47.0355 38.2604ZM45.9667 43.9656L45.925 44.6431L46.3243 44.6677L46.3659 43.9901L45.9667 43.9656ZM45.9253 44.6715L45.962 45.126L46.3607 45.0938L46.324 44.6393L45.9253 44.6715ZM46.1774 45.3093L46.4167 45.29L46.3845 44.8913L46.1453 44.9106L46.1774 45.3093ZM46.5916 45.1499C47.0698 43.6087 47.4229 42.3678 47.65 41.4287C47.7635 40.9592 47.8461 40.5628 47.8971 40.2405C47.9475 39.9216 47.969 39.6633 47.9538 39.4754L47.5551 39.5076C47.5663 39.6467 47.5512 39.8669 47.502 40.178C47.4533 40.4858 47.3733 40.871 47.2612 41.3347C47.037 42.2619 46.6867 43.4937 46.2096 45.0313L46.5916 45.1499ZM47.7384 39.2922L47.6427 39.2999L47.6749 39.6986L47.7705 39.6909L47.7384 39.2922ZM47.4993 39.3785C46.6284 40.529 46.1227 42.062 45.9669 43.9615L46.3656 43.9942C46.5172 42.1448 47.0066 40.6921 47.8182 39.62L47.4993 39.3785ZM54.9694 37.8978L54.9697 37.6978L54.9615 37.6978L54.9533 37.6985L54.9694 37.8978ZM57.1631 39.7192L56.9637 39.7353L56.965 39.7506L56.9685 39.7654L57.1631 39.7192ZM57.236 40.0263L57.4356 40.0128L57.4345 39.9963L57.4306 39.9801L57.236 40.0263ZM57.4894 43.7621L57.2899 43.7756L57.2901 43.7782L57.4894 43.7621ZM58.372 45.4485L58.5714 45.4324L58.5664 45.3715L58.5283 45.3238L58.372 45.4485ZM58.3759 45.4964L58.5723 45.5339L58.5774 45.5073L58.5752 45.4803L58.3759 45.4964ZM57.7381 46.2461L57.6759 46.4362L57.7141 46.4487L57.7542 46.4455L57.7381 46.2461ZM56.0174 43.4234L56.2168 43.4073L56.2082 43.3006L56.1146 43.2486L56.0174 43.4234ZM55.9418 43.3814L55.7727 43.2746L55.6598 43.4534L55.8446 43.5562L55.9418 43.3814ZM56.0058 43.2799L56.175 43.3866L56.2106 43.3302L56.2052 43.2638L56.0058 43.2799ZM56.002 43.232L55.8023 43.2438L55.8026 43.2481L56.002 43.232ZM55.8073 39.925L56.007 39.9132L56.0066 39.9089L55.8073 39.925ZM54.8661 39.3027L54.85 39.1033L54.8116 39.1064L54.7771 39.1236L54.8661 39.3027ZM52.6534 45.5971L52.454 45.6132L52.4546 45.6191L52.6534 45.5971ZM52.899 38.4984L52.9151 38.6977L52.9444 38.6953L52.9717 38.6847L52.899 38.4984ZM53.1325 38.4073L53.1447 38.2077L53.1008 38.205L53.0598 38.221L53.1325 38.4073ZM53.6406 38.4385L53.6284 38.6381L53.7046 38.6428L53.7646 38.5954L53.6406 38.4385ZM54.9691 38.0978C55.6247 38.0989 56.0965 38.2455 56.4135 38.5087C56.7269 38.7689 56.9179 39.1672 56.9637 39.7353L57.3624 39.7031C57.3105 39.0592 57.0869 38.5479 56.6691 38.201C56.2549 37.857 55.6788 37.699 54.9697 37.6978L54.9691 38.0978ZM56.9685 39.7654L57.0415 40.0726L57.4306 39.9801L57.3577 39.673L56.9685 39.7654ZM57.0365 40.0399L57.2899 43.7756L57.689 43.7485L57.4356 40.0128L57.0365 40.0399ZM57.2901 43.7782C57.33 44.2726 57.6586 44.8752 58.2157 45.5733L58.5283 45.3238C57.9782 44.6344 57.7184 44.1127 57.6888 43.746L57.2901 43.7782ZM58.1727 45.4646L58.1765 45.5125L58.5752 45.4803L58.5714 45.4324L58.1727 45.4646ZM58.1794 45.4589C58.138 45.6761 58.0722 45.8197 57.9964 45.9088C57.9254 45.9923 57.838 46.0374 57.722 46.0468L57.7542 46.4455C57.9731 46.4278 58.1595 46.3344 58.3011 46.168C58.4379 46.0072 58.5235 45.7895 58.5723 45.5339L58.1794 45.4589ZM57.8004 46.056C57.3286 45.9015 56.9694 45.6345 56.7133 45.2552C56.4553 44.873 56.2941 44.3648 56.2419 43.7183L55.8432 43.7505C55.8991 44.4437 56.0746 45.0239 56.3818 45.479C56.6909 45.9369 57.1254 46.2559 57.6759 46.4362L57.8004 46.056ZM56.2419 43.7183L56.2168 43.4073L55.8181 43.4395L55.8432 43.7505L56.2419 43.7183ZM56.1146 43.2486L56.039 43.2066L55.8446 43.5562L55.9202 43.5982L56.1146 43.2486ZM56.1109 43.4881L56.175 43.3866L55.8367 43.1731L55.7727 43.2746L56.1109 43.4881ZM56.2052 43.2638L56.2013 43.2159L55.8026 43.2481L55.8065 43.296L56.2052 43.2638ZM56.2016 43.2203L56.0069 39.9132L55.6076 39.9367L55.8023 43.2438L56.2016 43.2203ZM56.0066 39.9089C55.986 39.6536 55.9131 39.4292 55.7562 39.2744C55.594 39.1143 55.3755 39.0609 55.1371 39.0802L55.1693 39.4789C55.3296 39.4659 55.4195 39.5041 55.4753 39.5591C55.5364 39.6194 55.5912 39.7339 55.6079 39.9411L56.0066 39.9089ZM55.1371 39.0802L54.85 39.1033L54.8822 39.502L55.1693 39.4789L55.1371 39.0802ZM54.7771 39.1236C54.5311 39.2458 54.3437 39.4706 54.2032 39.7658C54.0627 40.0608 53.9622 40.4398 53.8962 40.8954C53.7641 41.8066 53.765 43.0621 53.8936 44.6543L54.2923 44.6221C54.1646 43.0406 54.1663 41.82 54.292 40.9528C54.3549 40.5191 54.4474 40.1832 54.5643 39.9378C54.6811 39.6925 54.8153 39.5512 54.9551 39.4818L54.7771 39.1236ZM53.8936 44.6543C53.9372 45.1941 53.8979 45.5746 53.7985 45.8172C53.75 45.9356 53.6899 46.0146 53.624 46.0659C53.5591 46.1165 53.4781 46.1486 53.3728 46.1571L53.405 46.5558C53.5788 46.5417 53.7365 46.4854 53.8698 46.3814C54.0021 46.2784 54.0998 46.1369 54.1686 45.9689C54.3039 45.6388 54.3375 45.1827 54.2923 44.6221L53.8936 44.6543ZM53.3728 46.1571C53.2023 46.1708 53.0974 46.1275 53.0257 46.0535C52.9468 45.972 52.8797 45.8242 52.8522 45.5752L52.4546 45.6191C52.4869 45.911 52.5722 46.1602 52.7384 46.3318C52.9119 46.5109 53.1449 46.5768 53.405 46.5558L53.3728 46.1571ZM52.8528 45.581L52.6597 43.1888L52.261 43.221L52.4541 45.6132L52.8528 45.581ZM52.6597 43.1888C52.535 41.6446 52.5104 40.493 52.5818 39.7264C52.6177 39.3411 52.6767 39.0687 52.7505 38.8957C52.8266 38.7176 52.892 38.6996 52.9151 38.6977L52.8829 38.299C52.6349 38.319 52.4788 38.5135 52.3827 38.7386C52.2844 38.9688 52.2207 39.2901 52.1835 39.6893C52.1088 40.4915 52.1359 41.6713 52.261 43.221L52.6597 43.1888ZM52.9717 38.6847L53.2052 38.5936L53.0598 38.221L52.8263 38.312L52.9717 38.6847ZM53.1202 38.6069L53.6284 38.6381L53.6529 38.2389L53.1447 38.2077L53.1202 38.6069ZM53.7646 38.5954C54.1437 38.296 54.5497 38.1324 54.9855 38.0972L54.9533 37.6985C54.4323 37.7405 53.9524 37.9373 53.5167 38.2815L53.7646 38.5954ZM74.2088 36.0317L74.4081 36.0156L74.4067 35.9978L74.4021 35.9806L74.2088 36.0317ZM73.5271 36.8332L73.5432 37.0325L73.556 37.0315L73.5685 37.0288L73.5271 36.8332ZM72.594 35.4157L72.7889 35.3711L72.7705 35.2906L72.7007 35.2465L72.594 35.4157ZM72.4925 35.3516L72.5992 35.1825L72.5429 35.1469L72.4764 35.1523L72.4925 35.3516ZM72.2054 35.3748L72.1893 35.1754L72.0845 35.1839L72.032 35.2751L72.2054 35.3748ZM71.8414 37.4267L71.6416 37.4429L71.6433 37.4547L71.8414 37.4267ZM72.0097 38.6171L71.8116 38.6451L71.838 38.8316L72.0258 38.8164L72.0097 38.6171ZM74.0503 37.9467L74.0343 37.7473L73.9917 37.7508L73.9543 37.7712L74.0503 37.9467ZM74.9398 38.525L75.1391 38.5089L75.1347 38.4543L75.1031 38.4095L74.9398 38.525ZM72.3648 40.0331L72.3258 39.8369L72.1223 39.8773L72.1702 40.0792L72.3648 40.0331ZM73.2776 43.8841L73.4769 43.868L73.4757 43.8528L73.4722 43.838L73.2776 43.8841ZM72.4924 44.5976L72.5085 44.797L72.5255 44.7956L72.542 44.7914L72.4924 44.5976ZM71.5655 42.3609L71.7648 42.3448L71.7631 42.3228L71.7565 42.3017L71.5655 42.3609ZM70.9468 40.3642L71.1379 40.3051L71.0825 40.1264L70.9006 40.1697L70.9468 40.3642ZM69.4112 40.729L69.4273 40.9283L69.4425 40.9271L69.4574 40.9236L69.4112 40.729ZM68.7533 40.0357L68.5539 40.0518L68.5549 40.0646L68.5576 40.0771L68.7533 40.0357ZM70.6176 38.9702L70.6532 39.167L70.8434 39.1326L70.8155 38.9413L70.6176 38.9702ZM70.4022 37.4948L70.2022 37.4893L70.2018 37.5066L70.2043 37.5237L70.4022 37.4948ZM72.4768 33.9644C72.7659 33.941 73.0389 34.068 73.3015 34.4085C73.569 34.7553 73.8102 35.3072 74.0154 36.0829L74.4021 35.9806C74.1915 35.1846 73.9335 34.5729 73.6183 34.1642C73.2982 33.7491 72.9052 33.5285 72.4446 33.5657L72.4768 33.9644ZM74.0094 36.0478L74.0172 36.1435L74.4159 36.1113L74.4081 36.0156L74.0094 36.0478ZM74.0172 36.1435C74.0279 36.2769 73.9927 36.3682 73.9233 36.4392C73.8469 36.5174 73.7103 36.5899 73.4856 36.6375L73.5685 37.0288C73.833 36.9728 74.056 36.8758 74.2094 36.7187C74.3698 36.5545 74.4347 36.3447 74.4159 36.1113L74.0172 36.1435ZM73.511 36.6338C73.413 36.6417 73.2959 36.5966 73.1618 36.393C73.0259 36.1865 72.8988 35.8515 72.7889 35.3711L72.399 35.4602C72.5125 35.957 72.6526 36.3469 72.8277 36.6129C73.0047 36.8818 73.2425 37.0568 73.5432 37.0325L73.511 36.6338ZM72.7007 35.2465L72.5992 35.1825L72.3858 35.5208L72.4872 35.5848L72.7007 35.2465ZM72.4764 35.1523L72.1893 35.1754L72.2215 35.5741L72.5086 35.551L72.4764 35.1523ZM72.032 35.2751C71.6964 35.859 71.5729 36.5866 71.642 37.4428L72.0407 37.4106C71.9759 36.6082 72.0951 35.968 72.3788 35.4745L72.032 35.2751ZM71.6433 37.4547L71.8116 38.6451L72.2077 38.5891L72.0394 37.3987L71.6433 37.4547ZM72.0258 38.8164C72.6985 38.7621 73.406 38.5273 74.1464 38.1221L73.9543 37.7712C73.2497 38.1569 72.5967 38.369 71.9936 38.4177L72.0258 38.8164ZM74.0664 38.146C74.2618 38.1303 74.4997 38.2491 74.7765 38.6405L75.1031 38.4095C74.7999 37.9809 74.4449 37.7142 74.0343 37.7473L74.0664 38.146ZM74.7404 38.5411C74.7577 38.7555 74.6357 38.9849 74.2345 39.2198C73.8343 39.4542 73.2034 39.6626 72.3258 39.8369L72.4037 40.2292C73.2956 40.0521 73.9786 39.8333 74.4367 39.565C74.8938 39.2973 75.1746 38.9484 75.1391 38.5089L74.7404 38.5411ZM72.1702 40.0792L73.083 43.9302L73.4722 43.838L72.5594 39.9869L72.1702 40.0792ZM73.0782 43.9002C73.0865 44.0022 73.0548 44.0859 72.9671 44.1657C72.8708 44.2532 72.7037 44.3372 72.4429 44.4038L72.542 44.7914C72.8317 44.7173 73.0707 44.612 73.2361 44.4617C73.41 44.3036 73.4957 44.1009 73.4769 43.868L73.0782 43.9002ZM72.4764 44.3983C72.3653 44.4072 72.2201 44.3428 72.0747 43.9918C71.9324 43.6486 71.8262 43.1048 71.7648 42.3448L71.3661 42.377C71.4284 43.1481 71.5384 43.7426 71.7052 44.1449C71.8687 44.5395 72.1252 44.8279 72.5085 44.797L72.4764 44.3983ZM71.7565 42.3017L71.1379 40.3051L70.7558 40.4234L71.3744 42.4201L71.7565 42.3017ZM70.9006 40.1697L69.365 40.5344L69.4574 40.9236L70.993 40.5588L70.9006 40.1697ZM69.3951 40.5296C69.2841 40.5386 69.2061 40.5073 69.1406 40.4383C69.0669 40.3607 68.9971 40.2215 68.9489 39.9942L68.5576 40.0771C68.6131 40.3391 68.7048 40.5601 68.8504 40.7136C69.0043 40.8757 69.2033 40.9464 69.4273 40.9283L69.3951 40.5296ZM68.9526 40.0196C68.9424 39.893 69.0088 39.7446 69.2896 39.5841C69.5706 39.4235 70.0196 39.2817 70.6532 39.167L70.582 38.7734C69.934 38.8906 69.4316 39.0423 69.0911 39.2368C68.7505 39.4315 68.5255 39.6999 68.5539 40.0518L68.9526 40.0196ZM70.8155 38.9413L70.6001 37.4659L70.2043 37.5237L70.4197 38.9991L70.8155 38.9413ZM70.6021 37.5002C70.6341 36.3227 70.8198 35.454 71.1404 34.8733C71.4542 34.3047 71.8961 34.0113 72.4768 33.9644L72.4446 33.5657C71.7176 33.6244 71.1625 34.0054 70.7902 34.68C70.4245 35.3425 70.2349 36.2859 70.2022 37.4893L70.6021 37.5002ZM76.0443 31.7662L76.0696 31.5678L76.0489 31.5652L76.0282 31.5669L76.0443 31.7662ZM77.019 32.5062L77.2121 32.5581L77.2211 32.5246L77.2183 32.4901L77.019 32.5062ZM76.3075 33.2378L76.2863 33.4367L76.3049 33.4387L76.3236 33.4372L76.3075 33.2378ZM75.351 32.4241L75.1599 32.365L75.1485 32.4018L75.1516 32.4402L75.351 32.4241ZM77.9256 35.6835L78.1254 35.6926L78.1276 35.6428L78.1063 35.5978L77.9256 35.6835ZM77.8474 37.3994L77.6476 37.3903L77.647 37.4029L77.648 37.4155L77.8474 37.3994ZM79.0231 43.6129L79.207 43.6915L79.2354 43.6252L79.2149 43.5561L79.0231 43.6129ZM76.4912 38.4961L76.2916 38.5122L76.293 38.5229L76.4912 38.4961ZM76.0189 31.9646C76.3091 32.0016 76.5056 32.0756 76.6293 32.1695C76.7454 32.2576 76.8074 32.3704 76.8196 32.5223L77.2183 32.4901C77.1971 32.2273 77.0799 32.0094 76.8711 31.8509C76.6699 31.6981 76.3958 31.6095 76.0696 31.5678L76.0189 31.9646ZM76.8258 32.4543C76.7696 32.6635 76.6923 32.8046 76.6051 32.8942C76.5216 32.9801 76.4204 33.028 76.2914 33.0384L76.3236 33.4372C76.5455 33.4192 76.7383 33.3311 76.8919 33.1731C77.0419 33.0189 77.1449 32.8083 77.2121 32.5581L76.8258 32.4543ZM76.3288 33.0389C76.0524 33.0094 75.8667 32.9345 75.7487 32.834C75.6356 32.7379 75.566 32.6028 75.5503 32.408L75.1516 32.4402C75.1745 32.7239 75.2836 32.9636 75.4895 33.1387C75.6903 33.3095 75.9636 33.4022 76.2863 33.4367L76.3288 33.0389ZM75.542 32.4832C75.599 32.2991 75.674 32.1752 75.7574 32.096C75.8379 32.0196 75.9358 31.9756 76.0604 31.9656L76.0282 31.5669C75.8179 31.5838 75.6327 31.663 75.4821 31.8059C75.3344 31.946 75.2302 32.1376 75.1599 32.365L75.542 32.4832ZM77.2398 35.2413C77.2993 35.2365 77.3691 35.2555 77.4556 35.3345C77.5457 35.4169 77.644 35.5567 77.7449 35.7693L78.1063 35.5978C77.9944 35.362 77.8693 35.1707 77.7255 35.0393C77.578 34.9044 77.4032 34.8268 77.2076 34.8426L77.2398 35.2413ZM77.7258 35.6744L77.6476 37.3903L78.0472 37.4085L78.1254 35.6926L77.7258 35.6744ZM77.648 37.4155L77.7388 38.5398L78.1375 38.5076L78.0467 37.3833L77.648 37.4155ZM77.7388 38.5398C77.846 39.8674 78.2119 41.5789 78.8314 43.6697L79.2149 43.5561C78.5989 41.4769 78.2415 39.7956 78.1375 38.5076L77.7388 38.5398ZM78.8392 43.5343C78.7853 43.6605 78.7104 43.7508 78.6164 43.8137C78.5212 43.8775 78.3956 43.9204 78.2304 43.9338L78.2626 44.3325C78.4802 44.3149 78.6753 44.2557 78.839 44.1461C79.0039 44.0356 79.1259 43.8813 79.207 43.6915L78.8392 43.5343ZM78.2304 43.9338C78.1781 43.938 78.0775 43.9091 77.9345 43.6982C77.7961 43.4942 77.6525 43.1672 77.5082 42.704C77.2208 41.7809 76.9472 40.3719 76.6894 38.4692L76.293 38.5229C76.5516 40.431 76.8286 41.8669 77.1263 42.8229C77.2746 43.2992 77.4321 43.6702 77.6035 43.9228C77.7702 44.1685 77.9879 44.3546 78.2626 44.3325L78.2304 43.9338ZM76.6906 38.48L76.623 37.6427L76.2243 37.6749L76.2919 38.5122L76.6906 38.48ZM76.623 37.6427C76.5553 36.8048 76.5905 36.1946 76.7126 35.7952C76.7731 35.5972 76.8513 35.4634 76.9375 35.3781C77.0204 35.2962 77.1182 35.2511 77.2398 35.2413L77.2076 34.8426C76.9942 34.8598 76.8075 34.9441 76.6562 35.0937C76.5083 35.24 76.4028 35.4401 76.33 35.6782C76.1855 36.1511 76.1555 36.8223 76.2243 37.6749L76.623 37.6427ZM83.4677 35.5973L83.468 35.3973L83.4598 35.3973L83.4516 35.398L83.4677 35.5973ZM85.6613 37.4187L85.462 37.4348L85.4632 37.4501L85.4667 37.4649L85.6613 37.4187ZM85.7343 37.7259L85.9338 37.7123L85.9327 37.6958L85.9289 37.6796L85.7343 37.7259ZM85.9877 41.4616L85.7881 41.4751L85.7883 41.4777L85.9877 41.4616ZM86.8702 43.148L87.0696 43.1319L87.0647 43.071L87.0266 43.0233L86.8702 43.148ZM86.8741 43.1959L87.0705 43.2334L87.0756 43.2068L87.0734 43.1798L86.8741 43.1959ZM86.2364 43.9456L86.1741 44.1357L86.2123 44.1482L86.2525 44.145L86.2364 43.9456ZM84.5157 41.1229L84.715 41.1068L84.7064 41.0001L84.6128 40.9481L84.5157 41.1229ZM84.44 41.0809L84.2709 40.9741L84.1581 41.1529L84.3428 41.2557L84.44 41.0809ZM84.5041 40.9794L84.6732 41.0861L84.7088 41.0297L84.7034 40.9633L84.5041 40.9794ZM84.5002 40.9315L84.3005 40.9433L84.3009 40.9476L84.5002 40.9315ZM84.3055 37.6245L84.5052 37.6127L84.5048 37.6084L84.3055 37.6245ZM83.3644 37.0022L83.3483 36.8028L83.3099 36.8059L83.2754 36.8231L83.3644 37.0022ZM81.1517 43.2966L80.9522 43.3127L80.9529 43.3186L81.1517 43.2966ZM81.3973 36.1979L81.4134 36.3972L81.4426 36.3949L81.47 36.3842L81.3973 36.1979ZM81.6307 36.1068L81.643 35.9072L81.599 35.9045L81.558 35.9205L81.6307 36.1068ZM82.1389 36.138L82.1266 36.3376L82.2029 36.3423L82.2628 36.2949L82.1389 36.138ZM83.4673 35.7973C84.1229 35.7984 84.5947 35.945 84.9118 36.2082C85.2252 36.4684 85.4161 36.8667 85.462 37.4348L85.8607 37.4026C85.8087 36.7587 85.5851 36.2474 85.1673 35.9005C84.7531 35.5566 84.177 35.3985 83.468 35.3973L83.4673 35.7973ZM85.4667 37.4649L85.5397 37.7721L85.9289 37.6796L85.8559 37.3725L85.4667 37.4649ZM85.5347 37.7394L85.7881 41.4751L86.1872 41.448L85.9338 37.7123L85.5347 37.7394ZM85.7883 41.4777C85.8282 41.9721 86.1568 42.5747 86.7139 43.2728L87.0266 43.0233C86.4764 42.3339 86.2166 41.8123 86.187 41.4455L85.7883 41.4777ZM86.6709 43.1641L86.6748 43.212L87.0734 43.1798L87.0696 43.1319L86.6709 43.1641ZM86.6776 43.1584C86.6362 43.3756 86.5704 43.5192 86.4946 43.6083C86.4236 43.6918 86.3363 43.7369 86.2203 43.7463L86.2525 44.145C86.4714 44.1273 86.6577 44.0339 86.7993 43.8675C86.9361 43.7067 87.0218 43.489 87.0705 43.2334L86.6776 43.1584ZM86.2986 43.7556C85.8268 43.601 85.4676 43.334 85.2115 42.9547C84.9535 42.5725 84.7923 42.0643 84.7401 41.4178L84.3414 41.45C84.3974 42.1432 84.5728 42.7234 84.88 43.1785C85.1891 43.6364 85.6237 43.9554 86.1741 44.1357L86.2986 43.7556ZM84.7401 41.4178L84.715 41.1068L84.3163 41.139L84.3414 41.45L84.7401 41.4178ZM84.6128 40.9481L84.5372 40.9061L84.3428 41.2557L84.4185 41.2977L84.6128 40.9481ZM84.6092 41.1876L84.6732 41.0861L84.3349 40.8727L84.2709 40.9741L84.6092 41.1876ZM84.7034 40.9633L84.6996 40.9155L84.3009 40.9476L84.3047 40.9955L84.7034 40.9633ZM84.6999 40.9198L84.5051 37.6127L84.1058 37.6362L84.3006 40.9433L84.6999 40.9198ZM84.5048 37.6084C84.4842 37.3531 84.4114 37.1288 84.2545 36.9739C84.0922 36.8138 83.8738 36.7604 83.6353 36.7797L83.6675 37.1784C83.8278 37.1654 83.9177 37.2036 83.9735 37.2586C84.0346 37.3189 84.0894 37.4334 84.1061 37.6406L84.5048 37.6084ZM83.6353 36.7797L83.3483 36.8028L83.3805 37.2015L83.6675 37.1784L83.6353 36.7797ZM83.2754 36.8231C83.0293 36.9453 82.8419 37.1701 82.7014 37.4653C82.5609 37.7603 82.4604 38.1393 82.3944 38.5949C82.2623 39.5061 82.2633 40.7616 82.3918 42.3538L82.7905 42.3216C82.6629 40.7402 82.6646 39.5195 82.7903 38.6523C82.8531 38.2186 82.9457 37.8827 83.0626 37.6373C83.1794 37.392 83.3136 37.2507 83.4533 37.1813L83.2754 36.8231ZM82.3918 42.3538C82.4354 42.8936 82.3961 43.2741 82.2967 43.5167C82.2482 43.6351 82.1881 43.7141 82.1222 43.7654C82.0573 43.816 81.9763 43.8481 81.871 43.8566L81.9032 44.2553C82.0771 44.2412 82.2347 44.1849 82.368 44.081C82.5003 43.9779 82.598 43.8364 82.6668 43.6684C82.8021 43.3383 82.8358 42.8822 82.7905 42.3216L82.3918 42.3538ZM81.871 43.8566C81.7005 43.8703 81.5956 43.827 81.524 43.753C81.4451 43.6716 81.3779 43.5237 81.3504 43.2747L80.9529 43.3186C80.9851 43.6105 81.0704 43.8597 81.2367 44.0313C81.4101 44.2104 81.6431 44.2763 81.9032 44.2553L81.871 43.8566ZM81.351 43.2806L81.1579 40.8883L80.7592 40.9205L80.9523 43.3127L81.351 43.2806ZM81.1579 40.8883C81.0332 39.3441 81.0086 38.1925 81.08 37.4259C81.116 37.0407 81.1749 36.7682 81.2488 36.5952C81.3248 36.4171 81.3903 36.3991 81.4134 36.3972L81.3812 35.9985C81.1331 36.0185 80.977 36.213 80.8809 36.4381C80.7826 36.6683 80.719 36.9896 80.6818 37.3888C80.607 38.1911 80.6341 39.3708 80.7592 40.9205L81.1579 40.8883ZM81.47 36.3842L81.7034 36.2931L81.558 35.9205L81.3246 36.0115L81.47 36.3842ZM81.6184 36.3064L82.1266 36.3376L82.1511 35.9384L81.643 35.9072L81.6184 36.3064ZM82.2628 36.2949C82.6419 35.9955 83.0479 35.8319 83.4837 35.7967L83.4516 35.398C82.9305 35.44 82.4506 35.6368 82.0149 35.9811L82.2628 36.2949ZM93.7258 30.4352L93.9252 30.4505L93.9297 30.3921L93.902 30.3406L93.7258 30.4352ZM93.2101 37.1705L93.0107 37.1553L93.0095 37.1709L93.0107 37.1866L93.2101 37.1705ZM94.5053 41.8816L94.5771 41.6949L94.5346 41.6786L94.4892 41.6822L94.5053 41.8816ZM94.2604 43.322L94.2765 43.5213L94.2865 43.5205L94.2963 43.5187L94.2604 43.322ZM92.4534 41.5175L92.6391 41.4433L92.5844 41.3063L92.4373 41.3182L92.4534 41.5175ZM92.2142 41.5368L92.1981 41.3375L92.07 41.3478L92.0262 41.4686L92.2142 41.5368ZM88.2419 41.5445L88.0426 41.5606L88.0437 41.5743L88.0466 41.5877L88.2419 41.5445ZM91.2885 35.7365L91.2724 35.5371L91.2 35.543L91.1483 35.5938L91.2885 35.7365ZM91.8258 33.7428L91.6261 33.7321L91.6254 33.7455L91.6264 33.7589L91.8258 33.7428ZM89.69 41.8851L89.4907 41.9011L89.4973 41.9837L89.5604 42.0374L89.69 41.8851ZM90.1037 42.2369L89.9741 42.3893L90.0372 42.4429L90.1198 42.4363L90.1037 42.2369ZM91.6687 37.4635L91.8667 37.4912L91.9012 37.2441L91.6526 37.2642L91.6687 37.4635ZM91.5251 37.4751L91.509 37.2757L91.4265 37.2824L91.3728 37.3455L91.5251 37.4751ZM92.9385 29.9289C93.0048 29.9236 93.0882 29.9464 93.1946 30.0398C93.3034 30.1353 93.423 30.2941 93.5496 30.5298L93.902 30.3406C93.7641 30.0839 93.6177 29.879 93.4586 29.7393C93.2972 29.5975 93.1112 29.5137 92.9063 29.5302L92.9385 29.9289ZM93.5264 30.4199L93.0107 37.1553L93.4095 37.1858L93.9252 30.4505L93.5264 30.4199ZM93.0107 37.1866L93.1614 39.0526L93.5601 39.0204L93.4094 37.1544L93.0107 37.1866ZM93.1614 39.0526C93.2403 40.0307 93.3768 40.7787 93.5791 41.2816C93.777 41.7735 94.0781 42.1167 94.5214 42.0809L94.4892 41.6822C94.3265 41.6954 94.1339 41.5889 93.9502 41.1324C93.771 40.6869 93.6382 39.9879 93.5601 39.0204L93.1614 39.0526ZM94.4336 42.0683C94.8082 42.2123 94.9486 42.4019 94.9658 42.6149L95.3645 42.5827C95.3302 42.1578 95.0308 41.8693 94.5771 41.6949L94.4336 42.0683ZM94.9658 42.6149C94.975 42.7283 94.9383 42.817 94.8363 42.8985C94.7232 42.9889 94.5275 43.07 94.2246 43.1252L94.2963 43.5187C94.6261 43.4586 94.8976 43.3616 95.0861 43.2109C95.2857 43.0514 95.385 42.8362 95.3645 42.5827L94.9658 42.6149ZM94.2444 43.1226C93.9641 43.1452 93.6929 43.0406 93.4237 42.7718C93.1498 42.4983 92.8858 42.0612 92.6391 41.4433L92.2677 41.5917C92.5239 42.2335 92.8126 42.7269 93.1411 43.0549C93.4742 43.3875 93.8551 43.5553 94.2765 43.5213L94.2444 43.1226ZM92.4373 41.3182L92.1981 41.3375L92.2303 41.7362L92.4695 41.7169L92.4373 41.3182ZM92.0262 41.4686C91.5475 42.7885 90.9243 43.3906 90.2015 43.449L90.2337 43.8477C91.2014 43.7696 91.9093 42.964 92.4022 41.605L92.0262 41.4686ZM90.2015 43.449C89.7656 43.4842 89.414 43.35 89.1279 43.0453C88.8335 42.7319 88.5977 42.2258 88.4372 41.5012L88.0466 41.5877C88.2145 42.3456 88.4721 42.9313 88.8363 43.3191C89.2087 43.7157 89.6808 43.8923 90.2337 43.8477L90.2015 43.449ZM88.4413 41.5284C88.3083 39.8811 89.2695 38.0008 91.4286 35.8792L91.1483 35.5938C88.9647 37.7395 87.8949 39.7312 88.0426 41.5606L88.4413 41.5284ZM91.3046 35.9359C91.472 35.9223 91.6164 35.8499 91.7298 35.7258C91.8391 35.6063 91.9131 35.4463 91.9628 35.2621C92.0615 34.8959 92.0778 34.379 92.0251 33.7267L91.6264 33.7589C91.6781 34.3984 91.657 34.8597 91.5766 35.158C91.5366 35.3062 91.4857 35.4 91.4346 35.456C91.3876 35.5074 91.3362 35.532 91.2724 35.5371L91.3046 35.9359ZM92.0255 33.7535C92.0958 32.4435 92.2216 31.4692 92.3986 30.8213C92.4874 30.4964 92.5855 30.2672 92.6866 30.1207C92.7869 29.9753 92.873 29.9342 92.9385 29.9289L92.9063 29.5302C92.6768 29.5487 92.4959 29.6927 92.3573 29.8936C92.2195 30.0935 92.1068 30.3719 92.0128 30.7159C91.8243 31.4057 91.6968 32.4142 91.6261 33.7321L92.0255 33.7535ZM89.4385 41.2552L89.4907 41.9011L89.8894 41.869L89.8372 41.2231L89.4385 41.2552ZM89.5604 42.0374L89.9741 42.3893L90.2332 42.0846L89.8196 41.7327L89.5604 42.0374ZM90.1198 42.4363L90.2633 42.4247L90.2311 42.026L90.0876 42.0376L90.1198 42.4363ZM90.2633 42.4247C90.4936 42.4061 90.6651 42.2218 90.7943 42.008C90.9302 41.7831 91.0567 41.4641 91.177 41.0612C91.4183 40.2527 91.6477 39.0606 91.8667 37.4912L91.4706 37.4359C91.2523 38.9998 91.0262 40.1679 90.7937 40.9468C90.6771 41.3374 90.5621 41.6189 90.4519 41.8011C90.3351 41.9944 90.256 42.024 90.2311 42.026L90.2633 42.4247ZM91.6526 37.2642L91.509 37.2757L91.5412 37.6744L91.6847 37.6629L91.6526 37.2642ZM91.3728 37.3455C90.6997 38.1368 90.1981 38.8562 89.8739 39.5028C89.5504 40.148 89.3965 40.7347 89.4385 41.2552L89.8372 41.2231C89.8033 40.8027 89.9259 40.2916 90.2315 39.6821C90.5364 39.074 91.0164 38.3818 91.6775 37.6047L91.3728 37.3455ZM23.8103 75.214L23.6139 75.1757L23.6035 75.2295L23.6219 75.2811L23.8103 75.214ZM25.4135 75.6865L25.2192 75.7339L25.2596 75.8996L25.4296 75.8858L25.4135 75.6865ZM25.5092 75.6788L25.5253 75.8781L25.5467 75.8764L25.5672 75.8701L25.5092 75.6788ZM26.5903 75.3507L26.5742 75.1514L26.5528 75.1531L26.5322 75.1593L26.5903 75.3507ZM28.1893 76.6663L28.0182 76.7699L28.0822 76.8756L28.2054 76.8657L28.1893 76.6663ZM28.285 76.6586L28.3011 76.8579L28.4104 76.8491L28.4617 76.7522L28.285 76.6586ZM30.3047 74.8342L30.3249 74.6352L30.3068 74.6333L30.2887 74.6348L30.3047 74.8342ZM32.8963 77.7069L32.6966 77.7231L32.6982 77.7344L32.8963 77.7069ZM33.0117 78.5404L33.2116 78.5332L33.2112 78.523L33.2098 78.5129L33.0117 78.5404ZM33.1865 83.39L32.9864 83.3972L32.9872 83.4061L33.1865 83.39ZM32.5376 84.5982L32.5537 84.7975L32.5665 84.7965L32.5791 84.7938L32.5376 84.5982ZM31.6551 82.9117L31.4546 82.9146L31.4557 82.9278L31.6551 82.9117ZM31.5926 78.5586L31.793 78.5557L31.792 78.5425L31.5926 78.5586ZM28.9732 79.5165L28.7772 79.4764L28.7741 79.4917L28.7734 79.5074L28.9732 79.5165ZM28.1281 83.365L28.1185 83.5647L28.3458 83.5756L28.3275 83.3489L28.1281 83.365ZM27.3247 82.6593L27.1248 82.654L27.1245 82.6647L27.1254 82.6754L27.3247 82.6593ZM27.402 79.7396L27.602 79.7449L27.6023 79.7318L27.601 79.7188L27.402 79.7396ZM26.4908 76.8034L26.4747 76.6041L26.4076 76.6095L26.3574 76.6544L26.4908 76.8034ZM26.14 79.9137L26.3397 79.9029L26.3393 79.8976L26.14 79.9137ZM26.3397 83.5816L26.536 83.6198L26.5408 83.5955L26.5394 83.5707L26.3397 83.5816ZM24.9329 83.4543L24.7342 83.4772L24.7358 83.4907L24.7392 83.5039L24.9329 83.4543ZM24.6094 80.6392L24.4094 80.643L24.4096 80.6526L24.4107 80.6621L24.6094 80.6392ZM24.5656 78.3072L24.7656 78.3035L24.7653 78.2893L24.763 78.2753L24.5656 78.3072ZM24.0066 75.2522C24.0404 75.0785 24.1042 74.9643 24.1846 74.8904C24.2642 74.8171 24.3782 74.7668 24.5436 74.7535L24.5114 74.3548C24.2781 74.3736 24.0731 74.4494 23.9137 74.596C23.755 74.742 23.6595 74.9417 23.6139 75.1757L24.0066 75.2522ZM24.5436 74.7535C24.662 74.7439 24.7748 74.7884 24.8905 74.9363C25.0125 75.0923 25.1259 75.3514 25.2192 75.7339L25.6078 75.6391C25.5091 75.2345 25.3788 74.9113 25.2055 74.6898C25.0259 74.4602 24.7917 74.3321 24.5114 74.3548L24.5436 74.7535ZM25.4296 75.8858L25.5253 75.8781L25.4931 75.4794L25.3974 75.4871L25.4296 75.8858ZM25.5672 75.8701L26.6483 75.5421L26.5322 75.1593L25.4511 75.4874L25.5672 75.8701ZM26.6064 75.5501C26.7939 75.5349 27.005 75.6051 27.2457 75.8032C27.4879 76.0024 27.7463 76.3206 28.0182 76.7699L28.3604 76.5628C28.0766 76.0938 27.7907 75.7336 27.4999 75.4943C27.2075 75.2538 26.897 75.1253 26.5742 75.1514L26.6064 75.5501ZM28.2054 76.8657L28.3011 76.8579L28.2689 76.4592L28.1732 76.467L28.2054 76.8657ZM28.4617 76.7522C29.0673 75.609 29.695 75.084 30.3208 75.0335L30.2887 74.6348C29.4473 74.7027 28.7285 75.3941 28.1083 76.565L28.4617 76.7522ZM30.2846 75.0331C31.0404 75.1098 31.6024 75.3732 31.9937 75.807C32.3871 76.2431 32.6284 76.8739 32.697 77.723L33.0957 77.6909C33.0226 76.7857 32.7612 76.0606 32.2907 75.5391C31.8182 75.0153 31.1552 74.7194 30.3249 74.6352L30.2846 75.0331ZM32.6982 77.7344L32.8136 78.5678L33.2098 78.5129L33.0944 77.6795L32.6982 77.7344ZM32.8119 78.5476L32.9866 83.3972L33.3864 83.3828L33.2116 78.5332L32.8119 78.5476ZM32.9872 83.4061L33.0239 83.8606L33.4226 83.8285L33.3859 83.3739L32.9872 83.4061ZM33.0239 83.8606C33.0364 84.0155 32.9984 84.12 32.928 84.1974C32.8524 84.2804 32.7182 84.3554 32.4962 84.4025L32.5791 84.7938C32.8463 84.7372 33.0709 84.6347 33.2239 84.4666C33.3821 84.2927 33.4422 84.0723 33.4226 83.8285L33.0239 83.8606ZM32.5215 84.3988C32.4402 84.4054 32.3741 84.3877 32.3148 84.3485C32.2524 84.3071 32.1864 84.2342 32.1234 84.1137C31.9952 83.8688 31.9008 83.4697 31.8544 82.8956L31.4557 82.9278C31.5034 83.518 31.603 83.982 31.769 84.2992C31.853 84.4598 31.9592 84.5927 32.0939 84.6819C32.2318 84.7732 32.3878 84.8109 32.5537 84.7975L32.5215 84.3988ZM31.855 82.9088L31.7926 78.5557L31.3926 78.5615L31.4551 82.9146L31.855 82.9088ZM31.792 78.5425C31.7268 77.7358 31.5819 77.1099 31.3403 76.6878C31.218 76.4742 31.0667 76.3052 30.8813 76.195C30.6939 76.0837 30.484 76.0396 30.2591 76.0578L30.2912 76.4565C30.4411 76.4444 30.5671 76.4736 30.6769 76.5389C30.7887 76.6053 30.8958 76.7165 30.9931 76.8865C31.1906 77.2315 31.3296 77.7866 31.3933 78.5747L31.792 78.5425ZM30.2591 76.0578C30.068 76.0732 29.9144 76.2011 29.7932 76.3583C29.6689 76.5195 29.5525 76.7447 29.441 77.0239C29.2173 77.5838 28.9966 78.4038 28.7772 79.4764L29.1691 79.5566C29.3871 78.491 29.6021 77.6987 29.8124 77.1722C29.9179 76.9082 30.0181 76.7216 30.1099 76.6025C30.2049 76.4795 30.267 76.4585 30.2912 76.4565L30.2591 76.0578ZM28.7734 79.5074C28.7185 80.7145 28.6536 81.6164 28.5793 82.2165C28.542 82.5178 28.5032 82.7351 28.4644 82.8745C28.4447 82.9455 28.428 82.985 28.4177 83.003C28.4 83.0338 28.4226 82.972 28.5052 82.9653L28.5374 83.364C28.6678 83.3535 28.7369 83.2503 28.7646 83.2022C28.7995 83.1413 28.8268 83.0644 28.8499 82.9815C28.8967 82.813 28.9383 82.5723 28.9763 82.2656C29.0526 81.6496 29.118 80.7351 29.173 79.5256L28.7734 79.5074ZM28.5052 82.9653C28.3619 82.9769 28.2298 83.0015 28.1288 83.0529C28.0765 83.0796 28.0223 83.1186 27.9825 83.1767C27.9404 83.2383 27.923 83.3093 27.9287 83.381L28.3275 83.3489C28.3287 83.3648 28.3243 83.3856 28.3127 83.4026C28.3034 83.4161 28.2972 83.4161 28.3104 83.4094C28.3405 83.394 28.4095 83.3743 28.5374 83.364L28.5052 82.9653ZM28.1376 83.1652C27.9152 83.1546 27.7731 83.0981 27.6846 83.0204C27.5991 82.9453 27.539 82.8287 27.5241 82.6432L27.1254 82.6754C27.1464 82.9365 27.2383 83.1608 27.4206 83.3209C27.5999 83.4784 27.8415 83.5515 28.1185 83.5647L28.1376 83.1652ZM27.5246 82.6646L27.602 79.7449L27.2021 79.7343L27.1248 82.654L27.5246 82.6646ZM27.601 79.7188C27.4963 78.7212 27.3727 77.9645 27.2279 77.457C27.156 77.205 27.0749 76.9997 26.9792 76.8551C26.8867 76.7154 26.7446 76.5823 26.5465 76.5983L26.5787 76.997C26.556 76.9988 26.5805 76.9776 26.6457 77.076C26.7076 77.1695 26.7753 77.3284 26.8433 77.5668C26.9783 78.0399 27.099 78.7684 27.2031 79.7605L27.601 79.7188ZM26.5465 76.5983L26.4747 76.6041L26.5069 77.0028L26.5787 76.997L26.5465 76.5983ZM26.3574 76.6544C25.9102 77.055 25.7649 77.7533 25.8383 78.662L26.237 78.6298C26.1661 77.7522 26.323 77.2223 26.6243 76.9524L26.3574 76.6544ZM25.8383 78.662L25.9406 79.9298L26.3393 79.8976L26.237 78.6298L25.8383 78.662ZM25.9403 79.9246L26.14 83.5924L26.5394 83.5707L26.3397 79.9029L25.9403 79.9246ZM26.1434 83.5433C26.1092 83.7187 26.0465 83.8333 25.9691 83.9067C25.8932 83.9789 25.7859 84.0276 25.6303 84.0401L25.6625 84.4388C25.8897 84.4205 26.0894 84.3441 26.2445 84.1969C26.3982 84.051 26.4908 83.8522 26.536 83.6198L26.1434 83.5433ZM25.6303 84.0401C25.5283 84.0484 25.4446 84.0167 25.3649 83.929C25.2774 83.8326 25.1934 83.6656 25.1267 83.4048L24.7392 83.5039C24.8132 83.7936 24.9185 84.0326 25.0688 84.198C25.2269 84.3719 25.4296 84.4576 25.6625 84.4388L25.6303 84.0401ZM25.1316 83.4315L24.8081 80.6164L24.4107 80.6621L24.7342 83.4772L25.1316 83.4315ZM24.8093 80.6355L24.7656 78.3035L24.3656 78.311L24.4094 80.643L24.8093 80.6355ZM24.763 78.2753C24.5694 77.0782 24.315 76.0348 23.9987 75.1468L23.6219 75.2811C23.9281 76.1406 24.1773 77.1594 24.3682 78.3391L24.763 78.2753ZM36.8635 73.9435L36.8524 73.7438L36.8475 73.7442L36.8635 73.9435ZM40.3634 77.0319L40.5595 76.9927L40.5498 76.9444L40.5189 76.9062L40.3634 77.0319ZM40.4441 77.4348L40.6434 77.4187L40.6425 77.407L40.6402 77.3955L40.4441 77.4348ZM37.2498 78.728L37.2121 78.5316L37.143 78.5448L37.0974 78.5984L37.2498 78.728ZM37.1838 78.8055L37.0314 78.6759L36.9778 78.739L36.9844 78.8216L37.1838 78.8055ZM37.1915 78.9012L36.9922 78.9173L36.994 78.9403L37.001 78.9622L37.1915 78.9012ZM40.8922 79.1081L40.8761 78.9088L40.79 78.9157L40.736 78.9831L40.8922 79.1081ZM41.8333 79.7304L42.0326 79.7143L42.0297 79.6778L42.014 79.6447L41.8333 79.7304ZM39.9841 81.8782L40.0994 82.0416L40.1058 82.0371L40.1118 82.0321L39.9841 81.8782ZM38.7529 82.435L38.769 82.6344L38.7881 82.6329L38.8066 82.6277L38.7529 82.435ZM35.7562 79.0171L35.9479 78.9603L35.9086 78.8273L35.7703 78.8176L35.7562 79.0171ZM35.3397 77.4375L35.5391 77.4214L35.5193 77.1768L35.2838 77.2455L35.3397 77.4375ZM35.3475 77.5332L35.1481 77.5493L35.1719 77.8437L35.4364 77.7123L35.3475 77.5332ZM35.579 77.4182L35.6679 77.5973L35.7892 77.537L35.7783 77.4021L35.579 77.4182ZM37.1461 75.6543L37.259 75.4893L37.2006 75.4493L37.13 75.455L37.1461 75.6543ZM36.9308 75.6717L36.9147 75.4724L36.7358 75.4868L36.7309 75.6663L36.9308 75.6717ZM36.9066 76.5646L36.7066 76.5591L36.7064 76.5699L36.7072 76.5807L36.9066 76.5646ZM36.9664 77.3062L36.7671 77.3223L36.7832 77.5216L36.9825 77.5055L36.9664 77.3062ZM37.0621 77.2984L37.0782 77.4979L37.0853 77.4971L37.0621 77.2984ZM38.3786 76.9032L38.578 76.8871L38.5731 76.8268L38.5355 76.7793L38.3786 76.9032ZM36.8746 74.1432C36.9807 74.1373 37.1344 74.1756 37.3454 74.2918C37.5535 74.4063 37.8 74.5869 38.0856 74.8389C38.6566 75.3428 39.3636 76.1139 40.2079 77.1577L40.5189 76.9062C39.6691 75.8555 38.9458 75.0646 38.3502 74.539C38.0526 74.2763 37.7816 74.0753 37.5383 73.9413C37.2979 73.809 37.066 73.732 36.8524 73.7438L36.8746 74.1432ZM40.1673 77.0712L40.248 77.474L40.6402 77.3955L40.5595 76.9927L40.1673 77.0712ZM40.2447 77.4509C40.2463 77.4708 40.2405 77.5245 40.1349 77.6146C40.0302 77.704 39.8556 77.8031 39.5975 77.9076C39.0836 78.1156 38.2915 78.3244 37.2121 78.5316L37.2875 78.9244C38.3736 78.7159 39.1967 78.5014 39.7476 78.2784C40.0218 78.1673 40.2421 78.049 40.3945 77.9189C40.546 77.7896 40.6598 77.622 40.6434 77.4187L40.2447 77.4509ZM37.0974 78.5984L37.0314 78.6759L37.3361 78.9351L37.4021 78.8576L37.0974 78.5984ZM36.9844 78.8216L36.9922 78.9173L37.3909 78.8851L37.3831 78.7894L36.9844 78.8216ZM37.001 78.9622C37.2279 79.6708 37.4482 80.2122 37.6642 80.5765C37.7719 80.7582 37.8847 80.9064 38.0053 81.009C38.1269 81.1124 38.2718 81.1817 38.434 81.1686L38.4018 80.7699C38.3806 80.7716 38.3368 80.7658 38.2645 80.7043C38.1912 80.6419 38.1048 80.5354 38.0082 80.3724C37.8154 80.0473 37.606 79.5399 37.382 78.8402L37.001 78.9622ZM38.434 81.1686L38.721 81.1454L38.6889 80.7467L38.4018 80.7699L38.434 81.1686ZM38.721 81.1454C39.0403 81.1197 39.3904 80.9221 39.7632 80.6088C40.1419 80.2906 40.5704 79.8302 41.0483 79.2331L40.736 78.9831C40.2661 79.5702 39.8562 80.0082 39.5058 80.3026C39.1496 80.602 38.8799 80.7313 38.6889 80.7467L38.721 81.1454ZM40.9083 79.3075L41.0518 79.2959L41.0196 78.8972L40.8761 78.9088L40.9083 79.3075ZM41.0518 79.2959C41.2454 79.2803 41.4528 79.3951 41.6526 79.8162L42.014 79.6447C41.7883 79.1691 41.4639 78.8613 41.0196 78.8972L41.0518 79.2959ZM41.6339 79.7465C41.6372 79.7871 41.6239 79.8633 41.5586 79.9859C41.4949 80.1054 41.3915 80.251 41.2426 80.4239C40.9451 80.7695 40.4849 81.2025 39.8563 81.7243L40.1118 82.0321C40.747 81.5048 41.2268 81.0553 41.5457 80.6849C41.705 80.4999 41.8289 80.3292 41.9116 80.174C41.9927 80.0219 42.0448 79.8651 42.0326 79.7143L41.6339 79.7465ZM39.8688 81.7147C39.5572 81.9345 39.1689 82.1115 38.6992 82.2424L38.8066 82.6277C39.3103 82.4874 39.7427 82.2932 40.0994 82.0416L39.8688 81.7147ZM38.7368 82.2357C38.1652 82.2818 37.651 82.0581 37.1853 81.5269C36.7133 80.9886 36.2974 80.1396 35.9479 78.9603L35.5644 79.0739C35.921 80.2775 36.3576 81.1896 36.8845 81.7906C37.4176 82.3987 38.0489 82.6925 38.769 82.6344L38.7368 82.2357ZM35.7703 78.8176C35.4166 78.7926 35.1741 78.7162 35.0203 78.6088C34.8757 78.5078 34.7971 78.3712 34.7817 78.1808L34.383 78.213C34.4076 78.5169 34.5445 78.7643 34.7912 78.9367C35.0287 79.1026 35.3532 79.1891 35.7421 79.2166L35.7703 78.8176ZM34.7817 78.1808C34.7724 78.0648 34.8065 77.971 34.8921 77.8851C34.9849 77.7921 35.1452 77.7025 35.3957 77.6295L35.2838 77.2455C35.0011 77.3279 34.7685 77.4425 34.6089 77.6027C34.442 77.7699 34.3641 77.9781 34.383 78.213L34.7817 78.1808ZM35.1404 77.4536L35.1481 77.5493L35.5468 77.5171L35.5391 77.4214L35.1404 77.4536ZM35.4364 77.7123L35.6679 77.5973L35.49 77.239L35.2585 77.354L35.4364 77.7123ZM35.7783 77.4021L35.73 76.804L35.3313 76.8362L35.3796 77.4343L35.7783 77.4021ZM35.73 76.804C35.657 75.8992 35.7338 75.2423 35.9343 74.8095C36.1268 74.3942 36.4346 74.1788 36.8796 74.1429L36.8475 73.7442C36.2558 73.7919 35.8232 74.0978 35.5714 74.6414C35.3276 75.1674 35.2563 75.9069 35.3313 76.8362L35.73 76.804ZM37.13 75.455L36.9147 75.4724L36.9469 75.8711L37.1622 75.8537L37.13 75.455ZM36.7309 75.6663L36.7066 76.5591L37.1065 76.57L37.1307 75.6772L36.7309 75.6663ZM36.7072 76.5807L36.7671 77.3223L37.1658 77.2901L37.1059 76.5485L36.7072 76.5807ZM36.9825 77.5055L37.0782 77.4978L37.046 77.0991L36.9503 77.1068L36.9825 77.5055ZM37.0853 77.4971C37.5334 77.4448 37.8799 77.3843 38.1166 77.3132C38.2333 77.2782 38.3379 77.2364 38.4164 77.1827C38.4906 77.132 38.5899 77.0351 38.578 76.8871L38.1792 76.9193C38.1737 76.8511 38.223 76.8304 38.1907 76.8525C38.1627 76.8716 38.1044 76.8992 38.0016 76.9301C37.7995 76.9908 37.4814 77.0481 37.0389 77.0998L37.0853 77.4971ZM38.5355 76.7793C38.0659 76.1847 37.6404 75.7501 37.259 75.4893L37.0332 75.8194C37.3654 76.0467 37.7616 76.4447 38.2217 77.0272L38.5355 76.7793ZM53.3412 67.9663L53.3251 67.7669L53.3187 67.7676L53.3412 67.9663ZM54.1424 69.539L53.9425 69.5551L53.9446 69.5689L54.1424 69.539ZM54.7616 73.6304L54.5638 73.6603L54.5917 73.8448L54.7777 73.8298L54.7616 73.6304ZM54.8573 73.6227L54.8733 73.822L54.9099 73.8191L54.9431 73.8033L54.8573 73.6227ZM56.0167 73.0716L56.0006 72.8723L55.964 72.8752L55.9308 72.891L56.0167 73.0716ZM58.7889 76.9892L58.5921 77.026L58.5938 77.0334L58.7889 76.9892ZM58.6987 83.3291L58.6854 83.5286L58.7001 83.5296L58.7148 83.5284L58.6987 83.3291ZM56.2799 74.5432L56.3613 74.3605L56.3147 74.3397L56.2638 74.3438L56.2799 74.5432ZM55.2615 76.8406L55.062 76.8265L55.0609 76.8416L55.0621 76.8567L55.2615 76.8406ZM55.0612 81.8168L55.0451 81.6175L55.0347 81.6183L55.0244 81.6203L55.0612 81.8168ZM54.6106 81.9014L54.6267 82.1007L54.6371 82.0999L54.6474 82.0979L54.6106 81.9014ZM53.7805 79.9699L53.5806 79.9792L53.5811 79.986L53.7805 79.9699ZM53.7895 76.5019L53.9888 76.5177L53.9906 76.4953L53.9874 76.4732L53.7895 76.5019ZM52.6518 68.6721L52.452 68.6882L52.4538 68.7008L52.6518 68.6721ZM53.3573 68.1657C53.4251 68.1602 53.4796 68.1753 53.5295 68.2094C53.5829 68.2459 53.6414 68.3117 53.6982 68.4232C53.8137 68.6499 53.8998 69.0205 53.943 69.5551L54.3417 69.5229C54.2973 68.9729 54.2062 68.5392 54.0546 68.2417C53.9779 68.0911 53.8804 67.9648 53.7554 67.8793C53.6269 67.7914 53.4806 67.7544 53.3251 67.767L53.3573 68.1657ZM53.9446 69.5689L54.5638 73.6603L54.9593 73.6005L54.3401 69.509L53.9446 69.5689ZM54.7777 73.8298L54.8733 73.822L54.8412 73.4233L54.7455 73.4311L54.7777 73.8298ZM54.9431 73.8033L56.1025 73.2522L55.9308 72.891L54.7714 73.442L54.9431 73.8033ZM56.0328 73.271C56.6177 73.2237 57.1208 73.4772 57.5512 74.0854C57.9886 74.7035 58.34 75.6766 58.5923 77.026L58.9855 76.9525C58.7292 75.582 58.3644 74.5421 57.8777 73.8544C57.384 73.1567 56.7553 72.8113 56.0006 72.8723L56.0328 73.271ZM58.5938 77.0334C58.7653 77.7917 58.913 78.9241 59.0351 80.4366L59.4338 80.4044C59.3113 78.8868 59.1619 77.7317 58.984 76.9451L58.5938 77.0334ZM59.0351 80.4366L59.1915 82.3743L59.5902 82.3421L59.4338 80.4044L59.0351 80.4366ZM59.1915 82.3743C59.2144 82.6587 59.1753 82.8401 59.1084 82.9482C59.0489 83.0442 58.9516 83.108 58.7783 83.122L58.8105 83.5207C59.0837 83.4986 59.3091 83.3838 59.4484 83.1588C59.5803 82.9459 59.6161 82.6638 59.5902 82.3421L59.1915 82.3743ZM58.7783 83.122L58.6826 83.1297L58.7148 83.5284L58.8105 83.5207L58.7783 83.122ZM58.712 83.1295C58.5225 83.1169 58.4042 83.0658 58.3314 82.9993C58.2608 82.9347 58.2093 82.8341 58.1962 82.6714L57.7975 82.7035C57.8165 82.9396 57.8981 83.1452 58.0615 83.2945C58.2226 83.4418 58.4392 83.5122 58.6854 83.5286L58.712 83.1295ZM58.1962 82.6714L58.0146 80.4227L57.6159 80.4549L57.7975 82.7035L58.1962 82.6714ZM58.0146 80.4227C57.8688 78.6164 57.667 77.2106 57.4068 76.2113C57.2767 75.7119 57.1301 75.3059 56.9637 74.9997C56.7993 74.6969 56.6029 74.468 56.3613 74.3605L56.1986 74.7259C56.3233 74.7814 56.4656 74.9205 56.6122 75.1906C56.757 75.4571 56.8938 75.8288 57.0197 76.3121C57.2712 77.278 57.4708 78.6569 57.6159 80.4549L58.0146 80.4227ZM56.2638 74.3438L56.1203 74.3554L56.1525 74.7541L56.296 74.7425L56.2638 74.3438ZM56.1203 74.3554C55.7602 74.3845 55.5249 74.6844 55.3721 75.0837C55.2156 75.4924 55.1148 76.0776 55.062 76.8265L55.461 76.8547C55.513 76.1183 55.6104 75.5799 55.7456 75.2267C55.8844 74.8641 56.0342 74.7637 56.1525 74.7541L56.1203 74.3554ZM55.0621 76.8567L55.1703 78.1963L55.569 78.1641L55.4608 76.8245L55.0621 76.8567ZM55.1703 78.1963C55.2666 79.3899 55.288 80.2776 55.2381 80.8666C55.2129 81.1632 55.1708 81.3689 55.1193 81.4967C55.0937 81.56 55.0702 81.5931 55.0549 81.6086C55.0479 81.6156 55.044 81.6176 55.0435 81.6179C55.0433 81.618 55.0435 81.6179 55.0441 81.6177C55.0443 81.6176 55.0446 81.6176 55.0448 81.6175C55.0449 81.6175 55.045 81.6175 55.045 81.6175C55.0451 81.6175 55.0451 81.6175 55.0451 81.6175C55.0449 81.6175 55.0453 81.6175 55.0451 81.6175C55.0449 81.6175 55.0453 81.6175 55.0451 81.6175L55.0773 82.0162C55.2947 81.9986 55.4196 81.8215 55.4903 81.6462C55.5642 81.4629 55.6104 81.21 55.6366 80.9004C55.6895 80.2773 55.6657 79.3628 55.569 78.1641L55.1703 78.1963ZM55.0244 81.6203L54.5737 81.7048L54.6474 82.0979L55.0981 82.0134L55.0244 81.6203ZM54.5945 81.702C54.5022 81.7095 54.3788 81.6618 54.2519 81.3666C54.1267 81.0753 54.0328 80.6097 53.9798 79.9538L53.5811 79.986C53.635 80.6537 53.7329 81.172 53.8844 81.5245C54.0342 81.8731 54.2724 82.1293 54.6267 82.1007L54.5945 81.702ZM53.9803 79.9606C53.915 78.5576 53.9183 77.4108 53.9888 76.5177L53.5901 76.4862C53.5177 77.4024 53.515 78.5676 53.5807 79.9792L53.9803 79.9606ZM53.9874 76.4732L52.8497 68.6433L52.4538 68.7008L53.5915 76.5307L53.9874 76.4732ZM52.8511 68.656C52.8377 68.4899 52.8778 68.3902 52.9421 68.3244C53.012 68.2529 53.1406 68.1903 53.3637 68.1651L53.3187 67.7676C53.0487 67.7982 52.8159 67.8812 52.656 68.0449C52.4904 68.2144 52.4324 68.4396 52.4524 68.6882L52.8511 68.656ZM62.5649 71.8688L62.5538 71.6691L62.5488 71.6695L62.5649 71.8688ZM66.0648 74.9572L66.2609 74.9179L66.2512 74.8697L66.2203 74.8315L66.0648 74.9572ZM66.1455 75.36L66.3448 75.3439L66.3439 75.3323L66.3416 75.3208L66.1455 75.36ZM62.9512 76.6532L62.9135 76.4568L62.8444 76.4701L62.7988 76.5237L62.9512 76.6532ZM62.8852 76.7308L62.7328 76.6012L62.6792 76.6643L62.6858 76.7469L62.8852 76.7308ZM62.8929 76.8265L62.6936 76.8426L62.6954 76.8655L62.7024 76.8875L62.8929 76.8265ZM66.5936 77.0334L66.5775 76.8341L66.4914 76.841L66.4374 76.9084L66.5936 77.0334ZM67.5347 77.6557L67.734 77.6396L67.7311 77.6031L67.7154 77.57L67.5347 77.6557ZM65.6855 79.8035L65.8008 79.9669L65.8072 79.9624L65.8132 79.9573L65.6855 79.8035ZM64.4543 80.3603L64.4704 80.5597L64.4895 80.5581L64.508 80.553L64.4543 80.3603ZM61.4576 76.9424L61.6493 76.8856L61.61 76.7526L61.4717 76.7429L61.4576 76.9424ZM61.0411 75.3628L61.2405 75.3467L61.2207 75.1021L60.9852 75.1707L61.0411 75.3628ZM61.0489 75.4584L60.8495 75.4745L60.8733 75.769L61.1378 75.6376L61.0489 75.4584ZM61.2803 75.3434L61.3693 75.5226L61.4906 75.4623L61.4797 75.3273L61.2803 75.3434ZM62.8475 73.5796L62.9604 73.4146L62.902 73.3746L62.8314 73.3803L62.8475 73.5796ZM62.6322 73.597L62.6161 73.3977L62.4372 73.4121L62.4323 73.5916L62.6322 73.597ZM62.608 74.4899L62.408 74.4844L62.4078 74.4952L62.4086 74.5059L62.608 74.4899ZM62.6678 75.2314L62.4685 75.2475L62.4846 75.4469L62.6839 75.4308L62.6678 75.2314ZM62.7635 75.2237L62.7796 75.4232L62.7867 75.4224L62.7635 75.2237ZM64.08 74.8285L64.2793 74.8124L64.2745 74.7521L64.2369 74.7045L64.08 74.8285ZM62.576 72.0685C62.6821 72.0626 62.8358 72.1009 63.0468 72.2171C63.2549 72.3316 63.5014 72.5122 63.787 72.7642C64.358 73.2681 65.065 74.0391 65.9093 75.083L66.2203 74.8315C65.3705 73.7808 64.6472 72.9899 64.0516 72.4643C63.7539 72.2016 63.483 72.0006 63.2397 71.8666C62.9992 71.7343 62.7674 71.6572 62.5538 71.6691L62.576 72.0685ZM65.8687 74.9965L65.9494 75.3993L66.3416 75.3208L66.2609 74.9179L65.8687 74.9965ZM65.9461 75.3761C65.9477 75.3961 65.9419 75.4498 65.8363 75.5399C65.7316 75.6292 65.557 75.7284 65.2989 75.8329C64.785 76.0409 63.9929 76.2497 62.9135 76.4568L62.9889 76.8497C64.075 76.6412 64.8981 76.4267 65.449 76.2036C65.7232 76.0926 65.9434 75.9743 66.0959 75.8442C66.2474 75.7149 66.3612 75.5473 66.3448 75.3439L65.9461 75.3761ZM62.7988 76.5237L62.7328 76.6012L63.0375 76.8604L63.1035 76.7828L62.7988 76.5237ZM62.6858 76.7469L62.6936 76.8426L63.0923 76.8104L63.0845 76.7147L62.6858 76.7469ZM62.7024 76.8875C62.9292 77.5961 63.1496 78.1375 63.3656 78.5017C63.4733 78.6835 63.5861 78.8317 63.7067 78.9343C63.8283 79.0377 63.9732 79.107 64.1354 79.0939L64.1032 78.6952C64.082 78.6969 64.0382 78.6911 63.9659 78.6296C63.8926 78.5672 63.8062 78.4607 63.7096 78.2977C63.5168 77.9726 63.3073 77.4652 63.0834 76.7655L62.7024 76.8875ZM64.1354 79.0939L64.4224 79.0707L64.3903 78.672L64.1032 78.6952L64.1354 79.0939ZM64.4224 79.0707C64.7417 79.0449 65.0918 78.8473 65.4646 78.5341C65.8433 78.2159 66.2718 77.7554 66.7497 77.1584L66.4374 76.9084C65.9675 77.4955 65.5576 77.9334 65.2072 78.2279C64.851 78.5272 64.5813 78.6566 64.3903 78.672L64.4224 79.0707ZM66.6096 77.2328L66.7532 77.2212L66.721 76.8225L66.5775 76.8341L66.6096 77.2328ZM66.7532 77.2212C66.9468 77.2055 67.1542 77.3204 67.354 77.7415L67.7154 77.57C67.4897 77.0943 67.1653 76.7866 66.721 76.8225L66.7532 77.2212ZM67.3353 77.6718C67.3386 77.7124 67.3253 77.7886 67.26 77.9112C67.1963 78.0306 67.0929 78.1763 66.944 78.3492C66.6465 78.6948 66.1863 79.1278 65.5577 79.6496L65.8132 79.9573C66.4484 79.4301 66.9282 78.9806 67.2471 78.6102C67.4064 78.4252 67.5303 78.2545 67.613 78.0993C67.694 77.9472 67.7462 77.7904 67.734 77.6396L67.3353 77.6718ZM65.5702 79.64C65.2586 79.8598 64.8702 80.0368 64.4006 80.1677L64.508 80.553C65.0117 80.4126 65.4441 80.2184 65.8008 79.9669L65.5702 79.64ZM64.4382 80.161C63.8666 80.2071 63.3524 79.9834 62.8867 79.4522C62.4147 78.9138 61.9988 78.0649 61.6493 76.8856L61.2658 76.9992C61.6224 78.2028 62.059 79.1149 62.5859 79.7159C63.119 80.324 63.7503 80.6178 64.4704 80.5597L64.4382 80.161ZM61.4717 76.7429C61.118 76.7179 60.8755 76.6415 60.7217 76.5341C60.5771 76.433 60.4985 76.2965 60.4831 76.1061L60.0844 76.1382C60.109 76.4422 60.2459 76.6896 60.4926 76.8619C60.7301 77.0279 61.0546 77.1144 61.4435 77.1419L61.4717 76.7429ZM60.4831 76.1061C60.4738 75.99 60.5079 75.8962 60.5935 75.8104C60.6863 75.7174 60.8466 75.6278 61.0971 75.5548L60.9852 75.1707C60.7025 75.2531 60.4699 75.3678 60.3103 75.5279C60.1434 75.6952 60.0655 75.9034 60.0844 76.1382L60.4831 76.1061ZM60.8418 75.3788L60.8495 75.4745L61.2482 75.4423L61.2405 75.3467L60.8418 75.3788ZM61.1378 75.6376L61.3693 75.5226L61.1914 75.1643L60.9599 75.2793L61.1378 75.6376ZM61.4797 75.3273L61.4314 74.7293L61.0327 74.7615L61.081 75.3595L61.4797 75.3273ZM61.4314 74.7293C61.3584 73.8245 61.4352 73.1676 61.6357 72.7348C61.8282 72.3195 62.136 72.1041 62.581 72.0682L62.5488 71.6695C61.9572 71.7172 61.5246 72.0231 61.2728 72.5666C61.029 73.0927 60.9577 73.8322 61.0327 74.7615L61.4314 74.7293ZM62.8314 73.3803L62.6161 73.3977L62.6483 73.7964L62.8636 73.779L62.8314 73.3803ZM62.4323 73.5916L62.408 74.4844L62.8079 74.4953L62.8321 73.6024L62.4323 73.5916ZM62.4086 74.5059L62.4685 75.2475L62.8672 75.2153L62.8073 74.4738L62.4086 74.5059ZM62.6839 75.4308L62.7796 75.4231L62.7474 75.0244L62.6517 75.0321L62.6839 75.4308ZM62.7867 75.4224C63.2348 75.37 63.5813 75.3095 63.818 75.2385C63.9347 75.2035 64.0393 75.1617 64.1178 75.108C64.192 75.0573 64.2913 74.9604 64.2793 74.8124L63.8806 74.8446C63.8751 74.7763 63.9244 74.7557 63.8921 74.7778C63.8641 74.7969 63.8058 74.8245 63.703 74.8554C63.5009 74.916 63.1828 74.9734 62.7403 75.0251L62.7867 75.4224ZM64.2369 74.7045C63.7673 74.11 63.3418 73.6754 62.9604 73.4146L62.7346 73.7447C63.0668 73.972 63.4629 74.37 63.923 74.9525L64.2369 74.7045ZM73.7296 72.2437L73.929 72.2276L73.9279 72.2141L73.925 72.2008L73.7296 72.2437ZM71.6985 76.9103L71.5605 76.7655L71.3983 76.92L71.5703 77.0637L71.6985 76.9103ZM76.6648 77.8818L76.7099 77.687L76.6796 77.68L76.6487 77.6825L76.6648 77.8818ZM71.4413 78.4961L71.5104 78.3084L71.2167 78.2002L71.2419 78.5122L71.4413 78.4961ZM69.5216 77.086L69.7209 77.0699L69.7201 77.0592L69.7181 77.0487L69.5216 77.086ZM69.3958 76.422L69.1976 76.3951L69.1932 76.4273L69.1993 76.4592L69.3958 76.422ZM69.5014 75.6429L69.6996 75.6698L69.7035 75.6411L69.6991 75.6124L69.5014 75.6429ZM69.1486 73.3599L68.9492 73.376L68.9498 73.3833L68.9509 73.3905L69.1486 73.3599ZM69.7392 72.325L69.8214 72.5074L69.8947 72.4743L69.9247 72.3998L69.7392 72.325ZM70.9923 75.6189L70.793 75.635L70.8091 75.8343L71.0084 75.8182L70.9923 75.6189ZM72.3464 73.0055L72.5401 73.0555L72.5485 73.0229L72.5458 72.9894L72.3464 73.0055ZM72.2634 71.9768L72.4627 71.9607L72.4564 71.8828L72.399 71.8298L72.2634 71.9768ZM71.9512 71.689L72.0868 71.5419L72.0224 71.4826L71.9351 71.4896L71.9512 71.689ZM71.7359 71.7064L71.7198 71.507L71.6583 71.512L71.6103 71.5507L71.7359 71.7064ZM71.7816 70.4827C72.2315 70.4464 72.5869 70.5729 72.8688 70.8542C73.1582 71.143 73.3861 71.6114 73.5343 72.2866L73.925 72.2008C73.7685 71.488 73.5167 70.9357 73.1514 70.5711C72.7785 70.1989 72.3042 70.0392 71.7494 70.084L71.7816 70.4827ZM73.5303 72.2598L73.5476 72.4751L73.9463 72.4429L73.929 72.2276L73.5303 72.2598ZM73.5476 72.4751C73.6662 73.9436 73.0227 75.372 71.5605 76.7655L71.8365 77.055C73.3554 75.6074 74.0776 74.0683 73.9463 72.4429L73.5476 72.4751ZM71.5703 77.0637C72.6306 77.9499 74.3536 78.269 76.6809 78.0812L76.6487 77.6825C74.351 77.8679 72.7632 77.5394 71.8268 76.7568L71.5703 77.0637ZM76.6197 78.0766C76.7666 78.1107 76.8637 78.171 76.928 78.2476C76.9927 78.3248 77.0386 78.436 77.0516 78.597L77.4503 78.5648C77.4324 78.343 77.3651 78.1463 77.2345 77.9906C77.1033 77.8341 76.9228 77.7363 76.7099 77.687L76.6197 78.0766ZM77.0516 78.597C77.0652 78.7657 77.021 78.8663 76.9462 78.9342C76.8623 79.0105 76.7087 79.0741 76.4497 79.095L76.4819 79.4937C76.7811 79.4696 77.0375 79.3918 77.2152 79.2302C77.4022 79.0603 77.4714 78.8267 77.4503 78.5648L77.0516 78.597ZM76.4497 79.095C74.9212 79.2184 73.2757 78.9589 71.5104 78.3084L71.3721 78.6838C73.1804 79.35 74.8845 79.6227 76.4819 79.4937L76.4497 79.095ZM71.2419 78.5122L71.2979 79.2059L71.6966 79.1737L71.6406 78.48L71.2419 78.5122ZM71.2979 79.2059C71.3636 80.0191 71.3229 80.6096 71.1937 80.9956C71.1298 81.1863 71.0477 81.3164 70.9564 81.4003C70.8677 81.4819 70.7609 81.5287 70.6275 81.5394L70.6597 81.9381C70.8771 81.9206 71.0691 81.84 71.227 81.6949C71.3822 81.5523 71.4946 81.3566 71.573 81.1226C71.7283 80.6589 71.7636 80.0032 71.6966 79.1737L71.2979 79.2059ZM70.6275 81.5394C70.5787 81.5434 70.5226 81.5284 70.452 81.4516C70.3762 81.3693 70.2957 81.2268 70.2188 81.0062C70.0656 80.5665 69.9478 79.8804 69.8716 78.9358L69.4729 78.968C69.5498 79.9212 69.6706 80.6486 69.8411 81.1378C69.9261 81.3816 70.0288 81.5825 70.1576 81.7225C70.2915 81.868 70.4613 81.9542 70.6597 81.9381L70.6275 81.5394ZM69.8716 78.9358L69.7209 77.0699L69.3222 77.1021L69.4729 78.968L69.8716 78.9358ZM69.7181 77.0487L69.5923 76.3847L69.1993 76.4592L69.3251 77.1232L69.7181 77.0487ZM69.5939 76.4488L69.6996 75.6698L69.3032 75.616L69.1976 76.3951L69.5939 76.4488ZM69.6991 75.6124L69.3462 73.3294L68.9509 73.3905L69.3038 75.6735L69.6991 75.6124ZM69.3479 73.3438L69.3402 73.2481L68.9415 73.2803L68.9492 73.376L69.3479 73.3438ZM69.3402 73.2481C69.3257 73.0689 69.3604 72.9279 69.433 72.8139C69.5067 72.6984 69.6302 72.5936 69.8214 72.5074L69.657 72.1427C69.4146 72.252 69.2215 72.4015 69.0957 72.599C68.9689 72.7981 68.9212 73.029 68.9415 73.2803L69.3402 73.2481ZM69.9247 72.3998C70.4383 71.1253 71.07 70.5402 71.7816 70.4827L71.7494 70.084C70.8024 70.1605 70.0832 70.9364 69.5537 72.2503L69.9247 72.3998ZM71.0084 75.8182C71.1866 75.8039 71.3433 75.7104 71.4781 75.5764C71.6126 75.4427 71.7373 75.2572 71.8553 75.0295C72.0913 74.574 72.3187 73.913 72.5401 73.0555L72.1528 72.9555C71.9339 73.8029 71.7155 74.4299 71.5001 74.8455C71.3924 75.0535 71.2901 75.1993 71.1961 75.2927C71.1024 75.3858 71.0293 75.4153 70.9762 75.4195L71.0084 75.8182ZM72.5458 72.9894L72.4627 71.9607L72.064 71.9929L72.1471 73.0216L72.5458 72.9894ZM72.399 71.8298L72.0868 71.5419L71.8156 71.836L72.1278 72.1238L72.399 71.8298ZM71.9351 71.4896L71.7198 71.507L71.752 71.9057L71.9673 71.8883L71.9351 71.4896ZM71.6103 71.5507C71.2261 71.8608 70.9843 72.3745 70.8562 73.0485C70.7276 73.7252 70.7086 74.5894 70.793 75.635L71.1917 75.6028C71.1087 74.5752 71.1299 73.7506 71.2492 73.1232C71.3689 72.4929 71.5826 72.0871 71.8615 71.862L71.6103 71.5507ZM80.2832 70.4385L80.2721 70.2388L80.2671 70.2392L80.2832 70.4385ZM83.7831 73.5269L83.9792 73.4877L83.9695 73.4394L83.9386 73.4012L83.7831 73.5269ZM83.8638 73.9297L84.0631 73.9137L84.0622 73.902L84.0599 73.8905L83.8638 73.9297ZM80.6695 75.223L80.6318 75.0265L80.5627 75.0398L80.5171 75.0934L80.6695 75.223ZM80.6035 75.3005L80.4511 75.1709L80.3975 75.234L80.4041 75.3166L80.6035 75.3005ZM80.6112 75.3962L80.4119 75.4123L80.4137 75.4352L80.4207 75.4572L80.6112 75.3962ZM84.3119 75.6031L84.2958 75.4038L84.2097 75.4107L84.1557 75.4781L84.3119 75.6031ZM85.253 76.2254L85.4523 76.2093L85.4494 76.1728L85.4337 76.1397L85.253 76.2254ZM83.4038 78.3732L83.5191 78.5366L83.5255 78.5321L83.5316 78.527L83.4038 78.3732ZM82.1726 78.93L82.1887 79.1294L82.2078 79.1278L82.2263 79.1227L82.1726 78.93ZM79.1759 75.5121L79.3676 75.4553L79.3283 75.3223L79.19 75.3126L79.1759 75.5121ZM78.7594 73.9325L78.9588 73.9164L78.939 73.6718L78.7035 73.7404L78.7594 73.9325ZM78.7672 74.0281L78.5678 74.0442L78.5916 74.3387L78.8561 74.2073L78.7672 74.0281ZM78.9987 73.9131L79.0876 74.0923L79.2089 74.032L79.198 73.8971L78.9987 73.9131ZM80.5658 72.1493L80.6787 71.9843L80.6203 71.9443L80.5497 71.95L80.5658 72.1493ZM80.3505 72.1667L80.3344 71.9674L80.1555 71.9818L80.1506 72.1613L80.3505 72.1667ZM80.3263 73.0596L80.1264 73.0541L80.1261 73.0649L80.1269 73.0757L80.3263 73.0596ZM80.3861 73.8011L80.1868 73.8172L80.2029 74.0166L80.4022 74.0005L80.3861 73.8011ZM80.4818 73.7934L80.4979 73.9929L80.505 73.9921L80.4818 73.7934ZM81.7983 73.3982L81.9976 73.3821L81.9928 73.3218L81.9552 73.2742L81.7983 73.3982ZM80.2943 70.6382C80.4004 70.6323 80.5541 70.6706 80.7651 70.7868C80.9732 70.9013 81.2197 71.0819 81.5053 71.3339C82.0763 71.8378 82.7833 72.6088 83.6276 73.6527L83.9386 73.4012C83.0888 72.3505 82.3656 71.5596 81.7699 71.034C81.4723 70.7713 81.2013 70.5703 80.958 70.4363C80.7176 70.304 80.4857 70.227 80.2721 70.2388L80.2943 70.6382ZM83.587 73.5662L83.6677 73.969L84.0599 73.8905L83.9792 73.4877L83.587 73.5662ZM83.6644 73.9458C83.666 73.9658 83.6602 74.0195 83.5546 74.1096C83.4499 74.1989 83.2753 74.2981 83.0172 74.4026C82.5033 74.6106 81.7112 74.8194 80.6318 75.0265L80.7072 75.4194C81.7933 75.2109 82.6164 74.9964 83.1673 74.7733C83.4415 74.6623 83.6617 74.544 83.8142 74.4139C83.9658 74.2846 84.0795 74.117 84.0631 73.9137L83.6644 73.9458ZM80.5171 75.0934L80.4511 75.1709L80.7558 75.4301L80.8218 75.3525L80.5171 75.0934ZM80.4041 75.3166L80.4119 75.4123L80.8106 75.3801L80.8028 75.2844L80.4041 75.3166ZM80.4207 75.4572C80.6475 76.1658 80.8679 76.7072 81.0839 77.0714C81.1916 77.2532 81.3044 77.4014 81.425 77.504C81.5466 77.6074 81.6915 77.6767 81.8537 77.6636L81.8215 77.2649C81.8003 77.2666 81.7565 77.2608 81.6842 77.1993C81.6109 77.1369 81.5245 77.0304 81.4279 76.8674C81.2351 76.5423 81.0256 76.0349 80.8017 75.3352L80.4207 75.4572ZM81.8537 77.6636L82.1407 77.6404L82.1086 77.2417L81.8215 77.2649L81.8537 77.6636ZM82.1407 77.6404C82.46 77.6146 82.8101 77.4171 83.1829 77.1038C83.5616 76.7856 83.9901 76.3251 84.468 75.7281L84.1557 75.4781C83.6858 76.0652 83.2759 76.5031 82.9255 76.7976C82.5693 77.097 82.2996 77.2263 82.1086 77.2417L82.1407 77.6404ZM84.328 75.8025L84.4715 75.7909L84.4393 75.3922L84.2958 75.4038L84.328 75.8025ZM84.4715 75.7909C84.6651 75.7752 84.8725 75.8901 85.0723 76.3112L85.4337 76.1397C85.208 75.664 84.8836 75.3563 84.4393 75.3922L84.4715 75.7909ZM85.0536 76.2415C85.0569 76.2821 85.0436 76.3583 84.9783 76.4809C84.9146 76.6003 84.8112 76.746 84.6623 76.9189C84.3648 77.2645 83.9046 77.6975 83.276 78.2193L83.5316 78.527C84.1667 77.9998 84.6465 77.5503 84.9654 77.1799C85.1247 76.9949 85.2486 76.8242 85.3313 76.669C85.4124 76.5169 85.4645 76.3601 85.4523 76.2093L85.0536 76.2415ZM83.2885 78.2097C82.9769 78.4295 82.5886 78.6065 82.1189 78.7374L82.2263 79.1227C82.73 78.9823 83.1624 78.7881 83.5191 78.5366L83.2885 78.2097ZM82.1565 78.7307C81.5849 78.7768 81.0707 78.5531 80.605 78.0219C80.133 77.4835 79.7171 76.6346 79.3676 75.4553L78.9841 75.5689C79.3407 76.7725 79.7773 77.6846 80.3042 78.2856C80.8373 78.8937 81.4686 79.1875 82.1887 79.1294L82.1565 78.7307ZM79.19 75.3126C78.8363 75.2876 78.5938 75.2112 78.44 75.1038C78.2954 75.0027 78.2168 74.8662 78.2014 74.6758L77.8027 74.708C77.8273 75.0119 77.9642 75.2593 78.2109 75.4316C78.4484 75.5976 78.7729 75.6841 79.1618 75.7116L79.19 75.3126ZM78.2014 74.6758C78.1921 74.5597 78.2262 74.466 78.3118 74.3801C78.4046 74.2871 78.5649 74.1975 78.8154 74.1245L78.7035 73.7404C78.4208 73.8228 78.1882 73.9375 78.0286 74.0976C77.8617 74.2649 77.7838 74.4731 77.8027 74.708L78.2014 74.6758ZM78.5601 73.9486L78.5678 74.0442L78.9665 74.0121L78.9588 73.9164L78.5601 73.9486ZM78.8561 74.2073L79.0876 74.0923L78.9097 73.734L78.6782 73.849L78.8561 74.2073ZM79.198 73.8971L79.1497 73.299L78.751 73.3312L78.7993 73.9292L79.198 73.8971ZM79.1497 73.299C79.0767 72.3942 79.1535 71.7373 79.354 71.3045C79.5465 70.8892 79.8543 70.6738 80.2993 70.6379L80.2671 70.2392C79.6755 70.2869 79.2429 70.5928 78.9911 71.1363C78.7473 71.6624 78.676 72.4019 78.751 73.3312L79.1497 73.299ZM80.5497 71.95L80.3344 71.9674L80.3666 72.3661L80.5819 72.3487L80.5497 71.95ZM80.1506 72.1613L80.1264 73.0541L80.5262 73.065L80.5504 72.1721L80.1506 72.1613ZM80.1269 73.0757L80.1868 73.8172L80.5855 73.7851L80.5256 73.0435L80.1269 73.0757ZM80.4022 74.0005L80.4979 73.9928L80.4657 73.5941L80.37 73.6018L80.4022 74.0005ZM80.505 73.9921C80.9531 73.9397 81.2996 73.8792 81.5363 73.8082C81.653 73.7732 81.7576 73.7314 81.8361 73.6777C81.9103 73.627 82.0096 73.5301 81.9976 73.3821L81.5989 73.4143C81.5934 73.346 81.6427 73.3254 81.6104 73.3475C81.5824 73.3666 81.5241 73.3942 81.4213 73.4251C81.2192 73.4857 80.9011 73.5431 80.4586 73.5948L80.505 73.9921ZM81.9552 73.2742C81.4856 72.6797 81.0601 72.2451 80.6787 71.9843L80.4529 72.3144C80.7851 72.5417 81.1813 72.9397 81.6414 73.5222L81.9552 73.2742ZM86.3977 62.24L86.458 62.0493L86.4078 62.0334L86.3562 62.0443L86.3977 62.24ZM87.1054 62.9533L86.906 62.9694L86.9066 62.975L87.1054 62.9533ZM88.4474 72.717L88.6384 72.7761L88.6535 72.7274L88.6434 72.6775L88.4474 72.717ZM86.687 70.5958L86.8863 70.5797L86.8847 70.5595L86.8791 70.5401L86.687 70.5958ZM85.7121 62.9936L85.5127 63.0097L85.5132 63.014L85.7121 62.9936ZM87.8698 78.6868L87.6739 78.6467L87.6605 78.7122L87.6891 78.7726L87.8698 78.6868ZM89.4248 78.5613L89.6169 78.617L89.6355 78.5528L89.6117 78.4903L89.4248 78.5613ZM86.3374 62.4306C86.5404 62.4948 86.6782 62.576 86.7662 62.6647C86.8508 62.7499 86.8963 62.8489 86.906 62.9694L87.3048 62.9372C87.2874 62.7229 87.2015 62.5355 87.0502 62.3829C86.9023 62.2338 86.6998 62.1257 86.458 62.0493L86.3374 62.4306ZM86.9066 62.975C87.3998 67.4945 87.8479 70.7568 88.2513 72.7566L88.6434 72.6775C88.2439 70.6969 87.7974 67.4501 87.3042 62.9316L86.9066 62.975ZM88.2563 72.6579C88.1412 73.0301 87.9732 73.1566 87.7858 73.1717L87.818 73.5704C88.2366 73.5366 88.499 73.227 88.6384 72.7761L88.2563 72.6579ZM87.7858 73.1717C87.6312 73.1842 87.445 73.0835 87.2662 72.6384C87.0919 72.2046 86.9625 71.5233 86.8863 70.5797L86.4876 70.6119C86.5647 71.5661 86.6977 72.2963 86.895 72.7875C87.0878 73.2675 87.3825 73.6056 87.818 73.5704L87.7858 73.1717ZM86.8791 70.5401C86.7842 70.2129 86.6546 69.4237 86.4915 68.1522C86.3293 66.8876 86.1359 65.1615 85.9111 62.9731L85.5132 63.014C85.7381 65.2037 85.932 66.9336 86.0947 68.2031C86.2566 69.4656 86.3896 70.2885 86.4949 70.6515L86.8791 70.5401ZM85.9115 62.9775C85.899 62.8226 85.9369 62.7181 86.0073 62.6407C86.0829 62.5577 86.2171 62.4827 86.4392 62.4356L86.3562 62.0443C86.0891 62.1009 85.8644 62.2034 85.7114 62.3715C85.5533 62.5454 85.4931 62.7658 85.5128 63.0097L85.9115 62.9775ZM88.0658 78.727C88.1135 78.4937 88.1876 78.3371 88.2742 78.2385C88.3563 78.145 88.4581 78.0936 88.5916 78.0828L88.5594 77.6841C88.3261 77.7029 88.1268 77.8002 87.9737 77.9745C87.8251 78.1437 87.7297 78.374 87.6739 78.6467L88.0658 78.727ZM88.5916 78.0828C88.7356 78.0712 88.8509 78.1069 88.9501 78.1861C89.0542 78.2691 89.1537 78.4109 89.2378 78.6323L89.6117 78.4903C89.5124 78.2289 89.3786 78.0163 89.1996 77.8734C89.0158 77.7267 88.7981 77.6648 88.5594 77.6841L88.5916 78.0828ZM89.2327 78.5057C89.103 78.9533 88.9167 79.0999 88.7231 79.1156L88.7553 79.5143C89.1996 79.4784 89.4704 79.1226 89.6169 78.617L89.2327 78.5057ZM88.7231 79.1156L88.6513 79.1214L88.6835 79.5201L88.7553 79.5143L88.7231 79.1156ZM88.6513 79.1214C88.4577 79.137 88.2503 79.0221 88.0505 78.6011L87.6891 78.7726C87.9149 79.2482 88.2392 79.5559 88.6835 79.5201L88.6513 79.1214Z" fill="black"/>
<path d="M115.283 51.0039C147.714 38.625 167.64 8.33372 171.429 3.85656" stroke="black" stroke-width="2" stroke-linecap="round" stroke-linejoin="round"/>
<path d="M166.707 14.7578C169.719 12.0618 171.529 8.2809 172.266 4.34018" stroke="black" stroke-width="2" stroke-linecap="round" stroke-linejoin="round"/>
<path d="M160.732 4.03634C163.238 3.62787 165.741 3.18847 168.253 2.8183C169.926 2.57168 171.663 2.29088 173.289 2.83496" stroke="black" stroke-width="2" stroke-linecap="round" stroke-linejoin="round"/>
</svg>
